<svg width="18" height="13" viewBox="0 0 18 13" fill="none" xmlns="http://www.w3.org/2000/svg">
<path d="M17.885 6.46809C17.8792 6.26582 17.8106 6.14391 17.7229 6.05644L12.9044 0.787298C12.6768 0.502189 12.161 0.457071 11.8385 0.688586C11.5161 0.920102 11.4989 1.35298 11.7577 1.6106L15.5916 5.80945L1.57627 5.80945C1.16684 5.80945 0.834961 6.10432 0.834961 6.46809C0.834961 6.83186 1.16684 7.12673 1.57627 7.12673L15.5916 7.12673L11.7577 11.3256C11.4642 11.5857 11.5476 12.0421 11.8574 12.287C12.0958 12.4754 12.7313 12.4153 12.9044 12.1489L17.7229 6.87974C17.8484 6.74327 17.8866 6.64177 17.885 6.46809Z" fill="black"/>
</svg>
