<svg width="19" height="28" viewBox="0 0 19 28" fill="none" xmlns="http://www.w3.org/2000/svg">
<path d="M9.49934 7.24792e-05C9.17519 0.00939751 8.97982 0.119282 8.83965 0.259945L0.395561 7.98186C-0.0613414 8.3466 -0.133646 9.17317 0.23737 9.68993C0.608386 10.2067 1.3021 10.2341 1.71494 9.81952L8.44383 3.67541V26.1357C8.44383 26.7919 8.91638 27.3237 9.49934 27.3237C10.0823 27.3237 10.5548 26.7919 10.5548 26.1357V3.67541L17.2837 9.81952C17.7006 10.2898 18.432 10.1562 18.8244 9.65975C19.1264 9.27759 19.0301 8.25913 18.6031 7.98186L10.159 0.259945C9.94033 0.0588474 9.77768 -0.00237465 9.49934 7.24792e-05Z" fill="black"/>
</svg>
