<svg width="150" height="19" viewBox="0 0 150 19" fill="none" xmlns="http://www.w3.org/2000/svg">
<path d="M70.9204 0C70.1689 0 69.5586 0.613275 69.5586 1.37085C69.5586 2.12843 70.1689 2.7417 70.9204 2.7417H87.2804C88.035 2.7417 88.6453 2.12843 88.6453 1.37085C88.6453 0.613275 88.035 0 87.2804 0H70.9204Z" fill="#232323"/>
<path d="M91.916 17.1356C91.916 17.9684 92.5894 18.6418 93.4161 18.6418C94.2459 18.6418 94.9163 17.9684 94.9163 17.1356V5.36315L104.326 16.3119C104.428 16.4322 105.423 17.6046 105.552 17.6828C105.552 17.6828 106.475 18.6418 107.052 18.6418C107.879 18.6418 108.55 17.9684 108.55 17.1356V2.05628C108.55 1.22354 107.879 0.547138 107.052 0.547138C106.223 0.547138 105.552 1.22354 105.552 2.05628V13.2576L94.6487 0.562169C94.4924 0.378788 94.3 0.243506 94.0895 0.159331C93.8881 0.0571192 93.6596 0 93.4161 0C92.5894 0 91.916 0.6734 91.916 1.50613V17.1356Z" fill="#232323"/>
<path d="M1.38588 0.54715C0.634318 0.54715 0.0240498 1.16042 0.0240498 1.918C0.0240498 2.08334 -0.0300623 2.73269 0.0240498 2.87699C-0.0300623 3.03332 0.0240498 2.70564 0.0240498 2.87699V17.4092C0.0240498 17.4333 0.0240498 17.4573 0.0240498 17.4784C0.0240498 17.5024 0.0240498 17.5234 0.0240498 17.5475C0.0240498 18.3021 0.634318 18.9183 1.38588 18.9183H17.7489C18.5005 18.9183 19.1107 18.3021 19.1107 17.5475C19.1107 16.7899 18.5005 16.1766 17.7489 16.1766H3.02429V11.2404H3.29485V11.2344C3.33995 11.2374 3.38504 11.2404 3.43314 11.2404H9.15704C9.98677 11.2404 10.6572 10.564 10.6572 9.73125C10.6572 8.89851 9.98677 8.22511 9.15704 8.22511H3.43314C3.38504 8.22511 3.33995 8.22511 3.29485 8.23113V8.22511C3.21068 8.22511 3.11748 8.23113 3.02429 8.24616V3.28885H17.7489C18.5005 3.28885 19.1107 2.67557 19.1107 1.918C19.1107 1.16042 18.5005 0.54715 17.7489 0.54715H1.38588Z" fill="#232323"/>
<path d="M21.4077 0.402835C22.1262 0.0360719 23.004 0.321666 23.3707 1.04617L30.1649 14.4901L34.7193 5.75096C35.0951 5.03246 35.9759 4.75589 36.6914 5.13167C37.4039 5.50745 37.6805 6.39429 37.3047 7.11279L31.5447 18.1668C31.172 18.8823 30.2911 19.1618 29.5756 18.7831C29.5756 18.7831 29.0796 18.4644 28.9293 18.1668L20.7673 2.37494C20.4036 1.65344 20.6892 0.769597 21.4077 0.402835Z" fill="#232323"/>
<path d="M118.638 17.1356C118.638 17.9684 119.312 18.6418 120.138 18.6418C120.968 18.6418 121.639 17.9684 121.639 17.1356V3.97428C121.639 3.80292 121.557 3.44518 121.503 3.28885C121.503 3.22572 121.503 3.35499 121.503 3.28885H127.91C128.664 3.28885 129.274 2.67558 129.274 1.918C129.274 1.16042 128.664 0.54715 127.91 0.54715H112.097C111.342 0.54715 110.732 1.16042 110.732 1.918C110.732 2.67558 111.342 3.28885 112.097 3.28885H118.804C118.72 3.45419 118.665 3.63457 118.647 3.82396L118.635 3.85403H118.644C118.644 3.87206 118.641 3.88709 118.641 3.90513C118.641 3.92918 118.638 3.95323 118.638 3.97428V17.1356Z" fill="#232323"/>
<path d="M132.275 0.54715C131.52 0.54715 130.91 1.16042 130.91 1.918C130.91 2.67557 131.52 3.28885 132.275 3.28885H147.273V8.22511H141.955C141.125 8.22511 140.455 8.89851 140.455 9.73125C140.455 10.564 141.125 11.2404 141.955 11.2404H147V16.1766H132.275C131.52 16.1766 130.91 16.7899 130.91 17.5475C130.91 18.3021 131.52 18.9183 132.275 18.9183H148.635C149.387 18.9183 150 18.3021 150 17.5475V1.918C150 1.16042 149.387 0.54715 148.635 0.54715H132.275Z" fill="#232323"/>
<path d="M72.3935 7.78919C72.5709 7.71704 72.7633 7.67496 72.9647 7.67496H78.6916C79.5213 7.67496 80.1917 8.35136 80.1917 9.1841C80.1917 10.0168 79.5213 10.6932 78.6916 10.6932H72.5498C72.5558 10.7383 72.5558 10.7834 72.5558 10.8285V15.6265H87.1452C87.9749 15.6265 88.6453 16.3029 88.6453 17.1356C88.6453 17.9684 87.9749 18.6418 87.1452 18.6418H71.0587C70.229 18.6418 69.5586 17.9684 69.5586 17.1356V10.8285C69.5586 10.7834 69.5586 10.7383 69.5646 10.6932H69.5586C69.5586 9.35245 71.1339 8.15295 72.3935 7.78919Z" fill="#232323"/>
<path d="M42.9083 18.9183C42.0786 18.9183 41.4082 18.2419 41.4082 17.4092V9.1841C41.4082 8.35136 42.0786 7.67496 42.9083 7.67496C43.735 7.67496 44.4084 8.35136 44.4084 9.1841V17.4092C44.4084 18.2419 43.735 18.9183 42.9083 18.9183Z" fill="#232323"/>
<path d="M41.4082 2.87698C41.4082 3.70971 42.0786 4.38612 42.9083 4.38612C43.735 4.38612 44.4084 3.70971 44.4084 2.87698V2.32984C44.4084 1.49711 43.735 0.820705 42.9083 0.820705C42.0786 0.820705 41.4082 1.49711 41.4082 2.32984V2.87698Z" fill="#232323"/>
<path d="M58.2281 18.9183C59.7282 18.9183 66.5464 16.9823 66.5464 9.73125C66.5464 3.78188 61.7725 0.54715 59.4547 0.54715H51.0041C50.8778 0.54715 50.7576 0.565187 50.6403 0.59525C49.6513 0.844768 48.2744 1.99616 48.2744 3.28885V10.4167C48.2744 11.1742 48.8877 11.7875 49.6393 11.7875C50.3908 11.7875 51.0041 11.1742 51.0041 10.4167V3.28885H57.8644C61.7725 3.28885 64.2226 6.61978 64.0903 9.73125C63.94 13.2666 60.591 16.1766 57.8644 16.1766C55.1377 16.1766 53.7308 16.1766 53.7308 16.1766H49.6393C48.8877 16.1766 48.2744 16.7899 48.2744 17.5475C48.2744 18.3021 48.8877 18.9183 49.6393 18.9183C49.6393 18.9183 56.728 18.9183 58.2281 18.9183Z" fill="#232323"/>
</svg>
