<svg width="78" height="78" viewBox="0 0 78 78" fill="none" xmlns="http://www.w3.org/2000/svg">
<path fill-rule="evenodd" clip-rule="evenodd" d="M39.0043 78C60.5358 78 78 60.5355 78 39C78 17.4559 60.5358 0 39.0043 0C17.4642 0 0 17.4559 0 39C0 60.5355 17.4642 78 39.0043 78ZM19.1754 15.6C17.1977 15.6 15.5983 17.1993 15.5983 19.1664V34.6296C15.5983 36.6053 17.1977 38.1961 19.1754 38.1961C21.1445 38.1961 22.7439 36.6053 22.7439 34.6296V22.7414H58.4549C60.4326 22.7414 62.032 21.1421 62.032 19.1664C62.032 17.1993 60.4326 15.6 58.4549 15.6H19.1754ZM15.5983 57.2684C15.5983 55.2928 17.1977 53.6934 19.1754 53.6934H55.3765V41.7882C55.3765 39.821 56.9759 38.2217 58.9536 38.2217C60.9227 38.2217 62.5221 39.821 62.5221 41.7882V57.2513C62.5221 59.2184 60.9227 60.8178 58.9536 60.8178C58.9106 60.8178 58.8762 60.8178 58.8418 60.8178C58.7128 60.8349 58.5838 60.8349 58.4549 60.8349H19.1754C17.1977 60.8349 15.5983 59.2355 15.5983 57.2684ZM39.3912 44.4566C42.6244 44.4566 45.2385 41.8395 45.2385 38.6066C45.2385 35.3737 42.6244 32.7566 39.3912 32.7566C36.1581 32.7566 33.544 35.3737 33.544 38.6066C33.544 41.8395 36.1581 44.4566 39.3912 44.4566Z" fill="#C6FB50"/>
</svg>
