<svg width="45" height="29" viewBox="0 0 45 29" fill="none" xmlns="http://www.w3.org/2000/svg">
<path d="M9.82794 27.5275C13.9821 27.5275 17.3497 24.1599 17.3497 20.0057C17.3497 15.8515 13.9821 12.4839 9.82794 12.4839C5.67377 12.4839 2.30615 15.8515 2.30615 20.0057C2.30615 24.1599 5.67377 27.5275 9.82794 27.5275Z" fill="#232323"/>
<path d="M9.82787 28.895C4.92639 28.895 0.938477 24.9071 0.938477 20.0056C0.938477 15.1041 4.92639 11.1162 9.82787 11.1162C14.7293 11.1162 18.7173 15.1041 18.7173 20.0056C18.7173 24.9071 14.7293 28.895 9.82787 28.895ZM9.82787 13.8514C6.43486 13.8514 3.67367 16.6126 3.67367 20.0056C3.67367 23.3986 6.43486 26.1598 9.82787 26.1598C13.2209 26.1598 15.9821 23.3986 15.9821 20.0056C15.9821 16.6126 13.2209 13.8514 9.82787 13.8514Z" fill="#232323"/>
<path d="M33.077 27.5275C37.2312 27.5275 40.5988 24.1599 40.5988 20.0057C40.5988 15.8515 37.2312 12.4839 33.077 12.4839C28.9228 12.4839 25.5552 15.8515 25.5552 20.0057C25.5552 24.1599 28.9228 27.5275 33.077 27.5275Z" fill="#232323"/>
<path d="M33.0769 28.895C28.1754 28.895 24.1875 24.9071 24.1875 20.0056C24.1875 15.1041 28.1754 11.1162 33.0769 11.1162C37.9784 11.1162 41.9663 15.1041 41.9663 20.0056C41.9663 24.9071 37.9784 28.895 33.0769 28.895ZM33.0769 13.8514C29.6839 13.8514 26.9227 16.6126 26.9227 20.0056C26.9227 23.3986 29.6839 26.1598 33.0769 26.1598C36.4699 26.1598 39.2311 23.3986 39.2311 20.0056C39.2311 16.6126 36.4699 13.8514 33.0769 13.8514Z" fill="#232323"/>
<path d="M2.30608 20.6895C1.54979 20.6895 0.938477 20.0782 0.938477 19.3219C0.938477 8.76406 9.527 0.175537 20.0849 0.175537C20.8411 0.175537 21.4525 0.786854 21.4525 1.54314C21.4525 2.29942 20.8411 2.91073 20.0849 2.91073C11.0355 2.91073 3.67367 10.2725 3.67367 19.3219C3.67367 20.0782 3.06236 20.6895 2.30608 20.6895Z" fill="#232323"/>
<path d="M25.5551 20.6895C24.7988 20.6895 24.1875 20.0782 24.1875 19.3219C24.1875 8.76406 32.776 0.175537 43.3339 0.175537C44.0902 0.175537 44.7015 0.786854 44.7015 1.54314C44.7015 2.29942 44.0902 2.91073 43.3339 2.91073C34.2845 2.91073 26.9227 10.2725 26.9227 19.3219C26.9227 20.0782 26.3114 20.6895 25.5551 20.6895Z" fill="#232323"/>
</svg>
