<svg width="500" height="100" viewBox="0 0 500 100" fill="none" xmlns="http://www.w3.org/2000/svg">
<path fill-rule="evenodd" clip-rule="evenodd" d="M150.263 77.7544C153.802 77.9785 157.427 78.1539 161.087 78.2616V10.8961H171.8V0H139.55V10.8961H150.263V77.7544ZM204.138 77.0214L206.2 67.6556H194.162V0H182.55V78.2616C190.014 78.0462 197.33 77.5894 204.138 77.0214ZM227.2 24.2414L231.617 49.723H222.783L227.2 24.2414ZM218.482 74.7772L220.971 60.5478H233.429L235.508 72.434C237.771 72.0762 239.027 71.8539 239.027 71.8539C239.027 71.8539 241.994 71.3293 247.052 70.5911L232.294 0H222.105L206.201 76.0869C210.606 75.6735 214.733 75.2254 218.482 74.7772ZM264.661 66.0471V31.4985L276.971 64.8782C281.17 64.5394 285.559 64.2442 290.051 64.0288V0H278.889V43.7078L263.459 0H253.499V67.3916C257.215 66.8997 260.935 66.4515 264.661 66.0471ZM309.363 64.9459C312.993 64.9667 316.618 65.064 320.187 65.2169V10.6755H330.899V0H298.651V10.6773H309.363V64.9459ZM348.101 67.3916V0H337.349V66.2921C341.132 66.629 344.738 67.0042 348.101 67.3916ZM375.168 71.5256C375.168 71.5256 381.503 72.646 391.413 73.914C395.288 70.2142 397.551 64.5481 397.551 57.72V52.0575H386.184V57.3865C386.184 64.0461 383.622 67.93 379.276 67.93C374.93 67.93 372.367 64.0461 372.367 57.3865V21.1999C372.367 14.5403 374.93 10.6564 379.276 10.6564C383.509 10.6564 386.186 14.5403 386.186 21.1999V25.4173H397.551V20.8664C397.551 8.7683 390.084 0 379.276 0C368.356 0 361 8.54597 361 20.8664V57.72C361 62.3752 362.051 66.4883 363.946 69.8077C370.921 70.7752 375.168 71.5256 375.168 71.5256ZM122.899 24.0573L127.28 49.3443H118.516L122.899 24.0573ZM104.542 71.3033C104.542 71.3033 108.272 71.9633 114.488 72.844L116.72 60.0841H129.077L131.679 74.9631C135.494 75.3661 139.581 75.7499 143.85 76.0852L127.954 0H117.844L103 71.0427C104.004 71.2095 104.542 71.3033 104.542 71.3033Z" fill="#ED1C2B"/>
<path fill-rule="evenodd" clip-rule="evenodd" d="M268.55 98.9908C267.305 99.5953 265.363 100 263.496 100C257.892 100 255.65 96.9707 255.65 90.2295C255.65 83.3632 258.092 80.4346 263.619 80.4346C265.214 80.4346 266.982 80.7646 268.201 81.2944L267.878 84.2473C266.583 83.711 265.195 83.4365 263.793 83.4396C260.284 83.4396 259.013 84.9039 259.013 90.2051C259.013 95.4804 260.208 96.9447 263.419 96.9447C264.267 96.9447 265.014 96.8439 265.686 96.6164V89.4982H268.55V98.9908ZM281.849 83.4101H278.712V89.4357H281.764C284.008 89.4357 284.956 88.7565 284.956 86.382C284.956 84.1135 284.036 83.4101 281.849 83.4101ZM285.245 91.4679L290.051 100H285.764L281.878 92.1228H278.712V100H275V80.4346H281.791C286.511 80.4346 288.785 82.2081 288.785 86.2535C288.785 89.1473 287.546 90.9468 285.245 91.4679ZM309.401 93.1546C309.401 97.8201 306.807 100 301.904 100C296.999 100 294.35 97.8201 294.35 93.1528V80.4346H297.985V93.1024C297.985 95.7183 299.198 96.8456 301.904 96.8456C304.61 96.8456 305.793 95.7427 305.793 93.1024V80.4346H309.401V93.1546ZM321.999 83.4101H319.213V90.1913H321.997C324.257 90.1913 325.282 89.5381 325.282 86.7746C325.282 84.1917 324.361 83.4101 321.999 83.4101ZM321.999 93.0347H319.241V100H315.85V80.4346H321.999C326.779 80.4346 328.751 82.314 328.751 86.8007C328.751 90.9486 326.831 93.0364 321.997 93.0364M340.029 85.0776L338.075 92.7724H342.911L341.028 85.0776L340.576 83.0175H340.503L340.027 85.0776H340.029ZM343.625 95.7479H337.337L336.289 100H333.05L338.671 80.4346H342.409L348.101 100H344.672L343.625 95.7479Z" fill="black"/>
</svg>
