<svg width="500" height="100" viewBox="0 0 500 100" fill="none" xmlns="http://www.w3.org/2000/svg">
<path fill-rule="evenodd" clip-rule="evenodd" d="M150.263 77.7544C153.802 77.9785 157.427 78.1539 161.087 78.2616V10.8961H171.8V0H139.55V10.8961H150.263V77.7544ZM204.138 77.0214L206.2 67.6556H194.162V0H182.55V78.2616C190.014 78.0462 197.33 77.5894 204.138 77.0214ZM227.2 24.2414L231.617 49.723H222.783L227.2 24.2414ZM218.482 74.7772L220.971 60.5478H233.429L235.508 72.434C237.771 72.0762 239.027 71.8539 239.027 71.8539C239.027 71.8539 241.994 71.3293 247.052 70.5911L232.294 0H222.105L206.201 76.0869C210.606 75.6735 214.733 75.2254 218.482 74.7772ZM264.661 66.0471V31.4985L276.971 64.8782C281.17 64.5394 285.559 64.2442 290.051 64.0288V0H278.889V43.7078L263.459 0H253.499V67.3916C257.215 66.8997 260.935 66.4515 264.661 66.0471ZM309.363 64.9459C312.993 64.9667 316.618 65.064 320.187 65.2169V10.6755H330.899V0H298.651V10.6773H309.363V64.9459ZM348.101 67.3916V0H337.349V66.2921C341.132 66.629 344.738 67.0042 348.101 67.3916ZM375.168 71.5256C375.168 71.5256 381.503 72.646 391.413 73.914C395.288 70.2142 397.551 64.5481 397.551 57.72V52.0575H386.184V57.3865C386.184 64.0461 383.622 67.93 379.276 67.93C374.93 67.93 372.367 64.0461 372.367 57.3865V21.1999C372.367 14.5403 374.93 10.6564 379.276 10.6564C383.509 10.6564 386.186 14.5403 386.186 21.1999V25.4173H397.551V20.8664C397.551 8.7683 390.084 0 379.276 0C368.356 0 361 8.54597 361 20.8664V57.72C361 62.3752 362.051 66.4883 363.946 69.8077C370.921 70.7752 375.168 71.5256 375.168 71.5256ZM122.899 24.0573L127.28 49.3443H118.516L122.899 24.0573ZM104.542 71.3033C104.542 71.3033 108.272 71.9633 114.488 72.844L116.72 60.0841H129.077L131.679 74.9631C135.494 75.3661 139.581 75.7499 143.85 76.0852L127.954 0H117.844L103 71.0427C104.004 71.2095 104.542 71.3033 104.542 71.3033Z" fill="#828282"/>
<path fill-rule="evenodd" clip-rule="evenodd" d="M268.55 96.8178C267.305 97.4223 265.363 97.827 263.496 97.827C257.892 97.827 255.65 94.7977 255.65 88.0565C255.65 81.1902 258.092 78.2616 263.619 78.2616C265.214 78.2616 266.982 78.5916 268.201 79.1214L267.878 82.0743C266.583 81.538 265.195 81.2635 263.793 81.2666C260.284 81.2666 259.013 82.7309 259.013 88.0321C259.013 93.3074 260.208 94.7717 263.419 94.7717C264.267 94.7717 265.014 94.6709 265.686 94.4434V87.3252H268.55V96.8178ZM281.849 81.2371H278.712V87.2627H281.764C284.008 87.2627 284.956 86.5835 284.956 84.209C284.956 81.9405 284.036 81.2371 281.849 81.2371ZM285.245 89.2949L290.051 97.827H285.764L281.878 89.9498H278.712V97.827H275V78.2616H281.791C286.511 78.2616 288.785 80.0351 288.785 84.0805C288.785 86.9743 287.546 88.7738 285.245 89.2949ZM309.401 90.9816C309.401 95.6471 306.807 97.827 301.904 97.827C296.999 97.827 294.35 95.6471 294.35 90.9798V78.2616H297.985V90.9294C297.985 93.5453 299.198 94.6726 301.904 94.6726C304.61 94.6726 305.793 93.5697 305.793 90.9294V78.2616H309.401V90.9816ZM321.999 81.2371H319.213V88.0183H321.997C324.257 88.0183 325.282 87.3651 325.282 84.6016C325.282 82.0187 324.361 81.2371 321.999 81.2371ZM321.999 90.8617H319.241V97.827H315.85V78.2616H321.999C326.779 78.2616 328.751 80.141 328.751 84.6277C328.751 88.7756 326.831 90.8634 321.997 90.8634M340.029 82.9046L338.075 90.5994H342.911L341.028 82.9046L340.576 80.8445H340.503L340.027 82.9046H340.029ZM343.625 93.5749H337.337L336.289 97.827H333.05L338.671 78.2616H342.409L348.101 97.827H344.672L343.625 93.5749Z" fill="#828282"/>
</svg>
