<svg width="501" height="100" viewBox="0 0 501 100" fill="none" xmlns="http://www.w3.org/2000/svg">
<path fill-rule="evenodd" clip-rule="evenodd" d="M150.763 77.7544C154.302 77.9785 157.927 78.1539 161.587 78.2616V10.8961H172.3V0H140.05V10.8961H150.763V77.7544ZM204.638 77.0214L206.7 67.6556H194.662V0H183.05V78.2616C190.514 78.0462 197.83 77.5894 204.638 77.0214ZM227.7 24.2414L232.117 49.723H223.283L227.7 24.2414ZM218.982 74.7772L221.471 60.5478H233.929L236.008 72.434C238.271 72.0762 239.527 71.8539 239.527 71.8539C239.527 71.8539 242.494 71.3293 247.552 70.5911L232.794 0H222.605L206.701 76.0869C211.106 75.6735 215.233 75.2254 218.982 74.7772ZM265.161 66.0471V31.4985L277.471 64.8782C281.67 64.5394 286.059 64.2442 290.551 64.0288V0H279.389V43.7078L263.959 0H253.999V67.3916C257.715 66.8997 261.435 66.4515 265.161 66.0471ZM309.863 64.9459C313.493 64.9667 317.118 65.064 320.687 65.2169V10.6755H331.399V0H299.151V10.6773H309.863V64.9459ZM348.601 67.3916V0H337.849V66.2921C341.632 66.629 345.238 67.0042 348.601 67.3916ZM375.668 71.5256C375.668 71.5256 382.003 72.646 391.913 73.914C395.788 70.2142 398.051 64.5481 398.051 57.72V52.0575H386.684V57.3865C386.684 64.0461 384.122 67.93 379.776 67.93C375.43 67.93 372.867 64.0461 372.867 57.3865V21.1999C372.867 14.5403 375.43 10.6564 379.776 10.6564C384.009 10.6564 386.686 14.5403 386.686 21.1999V25.4173H398.051V20.8664C398.051 8.7683 390.584 0 379.776 0C368.856 0 361.5 8.54597 361.5 20.8664V57.72C361.5 62.3752 362.551 66.4883 364.446 69.8077C371.421 70.7752 375.668 71.5256 375.668 71.5256ZM123.399 24.0573L127.78 49.3443H119.016L123.399 24.0573ZM105.042 71.3033C105.042 71.3033 108.772 71.9633 114.988 72.844L117.22 60.0841H129.577L132.179 74.9631C135.994 75.3661 140.081 75.7499 144.35 76.0852L128.454 0H118.344L103.5 71.0427C104.504 71.2095 105.042 71.3033 105.042 71.3033Z" fill="#848484"/>
<path fill-rule="evenodd" clip-rule="evenodd" d="M269.05 98.9908C267.805 99.5953 265.863 100 263.996 100C258.392 100 256.15 96.9707 256.15 90.2295C256.15 83.3632 258.592 80.4346 264.119 80.4346C265.714 80.4346 267.482 80.7646 268.701 81.2944L268.378 84.2473C267.083 83.711 265.695 83.4365 264.293 83.4396C260.784 83.4396 259.513 84.9039 259.513 90.2051C259.513 95.4804 260.708 96.9447 263.919 96.9447C264.767 96.9447 265.514 96.8439 266.186 96.6164V89.4982H269.05V98.9908ZM282.349 83.4101H279.212V89.4357H282.264C284.508 89.4357 285.456 88.7565 285.456 86.382C285.456 84.1135 284.536 83.4101 282.349 83.4101ZM285.745 91.4679L290.551 100H286.264L282.378 92.1228H279.212V100H275.5V80.4346H282.291C287.011 80.4346 289.285 82.2081 289.285 86.2535C289.285 89.1473 288.046 90.9468 285.745 91.4679ZM309.901 93.1546C309.901 97.8201 307.307 100 302.404 100C297.499 100 294.85 97.8201 294.85 93.1528V80.4346H298.485V93.1024C298.485 95.7183 299.698 96.8456 302.404 96.8456C305.11 96.8456 306.293 95.7427 306.293 93.1024V80.4346H309.901V93.1546ZM322.499 83.4101H319.713V90.1913H322.497C324.757 90.1913 325.782 89.5381 325.782 86.7746C325.782 84.1917 324.861 83.4101 322.499 83.4101ZM322.499 93.0347H319.741V100H316.35V80.4346H322.499C327.279 80.4346 329.251 82.314 329.251 86.8007C329.251 90.9486 327.331 93.0364 322.497 93.0364M340.529 85.0776L338.575 92.7724H343.411L341.528 85.0776L341.076 83.0175H341.003L340.527 85.0776H340.529ZM344.125 95.7479H337.837L336.789 100H333.55L339.171 80.4346H342.909L348.601 100H345.172L344.125 95.7479Z" fill="black"/>
</svg>
