<svg width="500" height="100" viewBox="0 0 500 100" fill="none" xmlns="http://www.w3.org/2000/svg">
<g clip-path="url(#clip0_22_5045)">
<g clip-path="url(#clip1_22_5045)">
<mask id="mask0_22_5045" style="mask-type:luminance" maskUnits="userSpaceOnUse" x="-50" y="-13" width="589" height="199">
<path d="M538.865 -12.533H-49.4546V185.694H538.865V-12.533Z" fill="white"/>
</mask>
<g mask="url(#mask0_22_5045)">
<path d="M214.643 31.2819V74.2763H211.481V54.3599H183.472V74.2763H180.311V31.2819H183.472V51.4512H211.481V31.2819H214.643Z" fill="black"/>
</g>
<mask id="mask1_22_5045" style="mask-type:luminance" maskUnits="userSpaceOnUse" x="-50" y="-13" width="589" height="199">
<path d="M538.865 -12.533H-49.4546V185.694H538.865V-12.533Z" fill="white"/>
</mask>
<g mask="url(#mask1_22_5045)">
<path d="M241.326 58.0269H229.376V74.2757H226.215V31.2819H241.579C251.189 31.2819 257.765 36.3402 257.765 44.6861C257.765 51.8936 252.833 56.6361 245.246 57.7739L259.346 74.2757H255.236L241.326 58.0269ZM229.376 55.1182H241.452C249.229 55.1182 254.604 51.2612 254.604 44.6861C254.604 38.1105 249.229 34.1905 241.452 34.1905H229.376V55.1182Z" fill="black"/>
</g>
<mask id="mask2_22_5045" style="mask-type:luminance" maskUnits="userSpaceOnUse" x="-50" y="-13" width="589" height="199">
<path d="M538.865 -12.533H-49.4546V185.694H538.865V-12.533Z" fill="white"/>
</mask>
<g mask="url(#mask2_22_5045)">
<path d="M303.353 31.2819L283.373 74.5922H280.338L260.359 31.2819H263.836L281.855 70.4192L299.875 31.2819H303.353Z" fill="black"/>
</g>
<mask id="mask3_22_5045" style="mask-type:luminance" maskUnits="userSpaceOnUse" x="-50" y="-13" width="589" height="199">
<path d="M538.865 -12.533H-49.4546V185.694H538.865V-12.533Z" fill="white"/>
</mask>
<g mask="url(#mask3_22_5045)">
<path d="M330.732 60.5555H307.464L301.204 74.2757H297.79L317.58 31.2819H320.678L340.405 74.2757H336.99L330.732 60.5555ZM329.467 57.7104L319.098 35.0118L308.728 57.7104H329.467Z" fill="black"/>
</g>
<mask id="mask4_22_5045" style="mask-type:luminance" maskUnits="userSpaceOnUse" x="-50" y="-13" width="589" height="199">
<path d="M538.865 -12.533H-49.4546V185.694H538.865V-12.533Z" fill="white"/>
</mask>
<g mask="url(#mask4_22_5045)">
<path d="M370.756 34.1899H354.317V74.2763H351.155V34.1899H334.653V31.2819H370.756V34.1899Z" fill="black"/>
</g>
<mask id="mask5_22_5045" style="mask-type:luminance" maskUnits="userSpaceOnUse" x="-50" y="-13" width="589" height="199">
<path d="M538.865 -12.533H-49.4546V185.694H538.865V-12.533Z" fill="white"/>
</mask>
<g mask="url(#mask5_22_5045)">
<path d="M405.848 42.4729H402.687C401.548 36.7827 397.312 33.3051 389.535 33.3051C382.455 33.3051 377.776 36.6556 377.776 42.1564C377.776 46.2664 380.811 48.9221 386.438 49.9334L394.341 51.5142C401.74 52.842 405.912 56.509 405.912 62.3893C405.912 70.1027 399.59 75.0346 390.169 75.0346C379.926 75.0346 373.667 69.9762 372.465 60.682H375.689C376.828 68.0795 381.696 72.1895 390.295 72.1895C397.755 72.1895 402.687 68.5219 402.687 62.7052C402.687 58.5958 399.715 55.6242 393.772 54.5493L385.237 52.905C378.091 51.5142 374.424 47.7837 374.424 42.2199C374.424 35.1389 380.431 30.5229 389.346 30.5229C398.514 30.5229 404.71 34.7594 405.848 42.4729Z" fill="black"/>
</g>
<mask id="mask6_22_5045" style="mask-type:luminance" maskUnits="userSpaceOnUse" x="-50" y="-13" width="589" height="199">
<path d="M538.865 -12.533H-49.4546V185.694H538.865V-12.533Z" fill="white"/>
</mask>
<g mask="url(#mask6_22_5045)">
<path d="M426.968 53.348L417.991 62.5787V74.2757H414.829V31.2819H417.991V58.1528L444.356 31.2819H448.339L429.181 51.0712L450.805 74.2757H446.632L426.968 53.348Z" fill="black"/>
</g>
<mask id="mask7_22_5045" style="mask-type:luminance" maskUnits="userSpaceOnUse" x="-50" y="-13" width="589" height="199">
<path d="M538.865 -12.533H-49.4546V185.694H538.865V-12.533Z" fill="white"/>
</mask>
<g mask="url(#mask7_22_5045)">
<path d="M486.213 60.5555H462.946L456.687 74.2757H453.272L473.063 31.2819H476.161L495.887 74.2757H492.472L486.213 60.5555ZM484.948 57.7104L474.579 35.0118L464.211 57.7104H484.948Z" fill="black"/>
</g>
<mask id="mask8_22_5045" style="mask-type:luminance" maskUnits="userSpaceOnUse" x="-50" y="-13" width="589" height="199">
<path d="M538.865 -12.533H-49.4546V185.694H538.865V-12.533Z" fill="white"/>
</mask>
<g mask="url(#mask8_22_5045)">
<path d="M91.1471 54.2538C91.1471 67.5657 83.4508 75.0738 71.1472 75.0738C58.9078 75.0738 51.2114 67.5657 51.2114 54.2538V31.3517H61.9359V54.4426C61.9359 61.0042 65.5329 65.1048 71.1472 65.1048C76.7627 65.1048 80.4215 61.0042 80.4215 54.4426V31.3517H91.1471V54.2538Z" fill="black"/>
</g>
<mask id="mask9_22_5045" style="mask-type:luminance" maskUnits="userSpaceOnUse" x="-50" y="-13" width="589" height="199">
<path d="M538.865 -12.533H-49.4546V185.694H538.865V-12.533Z" fill="white"/>
</mask>
<g mask="url(#mask9_22_5045)">
<path d="M127.559 40.8783H116.611V74.2531H106.011V40.8783H95.0649V31.3517H127.559V40.8783Z" fill="black"/>
</g>
<mask id="mask10_22_5045" style="mask-type:luminance" maskUnits="userSpaceOnUse" x="-50" y="-13" width="589" height="199">
<path d="M538.865 -12.533H-49.4546V185.694H538.865V-12.533Z" fill="white"/>
</mask>
<g mask="url(#mask10_22_5045)">
<path d="M172.68 52.803C172.68 65.2948 162.901 75.0739 149.968 75.0739C137.036 75.0739 127.256 65.2948 127.256 52.803C127.256 40.3107 137.036 30.5316 149.968 30.5316C162.901 30.5316 172.68 40.3107 172.68 52.803ZM161.893 52.803C161.893 46.0521 156.908 40.5001 149.968 40.5001C143.028 40.5001 138.043 46.0521 138.043 52.803C138.043 59.5534 143.028 65.1054 149.968 65.1054C156.908 65.1054 161.893 59.5534 161.893 52.803Z" fill="black"/>
</g>
<mask id="mask11_22_5045" style="mask-type:luminance" maskUnits="userSpaceOnUse" x="-50" y="-13" width="589" height="199">
<path d="M538.865 -12.533H-49.4546V185.694H538.865V-12.533Z" fill="white"/>
</mask>
<g mask="url(#mask11_22_5045)">
<path d="M36.0165 31.3517H33.9838L-2.98029 74.2531H10.2793L16.5319 66.8715H36.0165V74.2531H46.6168V31.3517H36.0165ZM24.0659 57.9761L36.0165 43.8664V57.9761H24.0659Z" fill="black"/>
</g>
</g>
</g>
<defs>
<clipPath id="clip0_22_5045">
<rect width="500" height="100" fill="white"/>
</clipPath>
<clipPath id="clip1_22_5045">
<rect width="524.781" height="75.3049" fill="white" transform="translate(-12.3906 11)"/>
</clipPath>
</defs>
</svg>
