<svg width="501" height="100" viewBox="0 0 501 100" fill="none" xmlns="http://www.w3.org/2000/svg">
<mask id="mask0_3_116" style="mask-type:luminance" maskUnits="userSpaceOnUse" x="137" y="0" width="227" height="100">
<path d="M363.426 0H137.5V100H363.426V0Z" fill="white"/>
</mask>
<g mask="url(#mask0_3_116)">
<mask id="mask1_3_116" style="mask-type:luminance" maskUnits="userSpaceOnUse" x="137" y="0" width="227" height="100">
<path d="M363.426 0H137.5V100H363.426V0Z" fill="white"/>
</mask>
<g mask="url(#mask1_3_116)">
<mask id="mask2_3_116" style="mask-type:luminance" maskUnits="userSpaceOnUse" x="137" y="-20" width="227" height="137">
<path d="M363.889 -19.7531H137.5V116.049H363.889V-19.7531Z" fill="white"/>
</mask>
<g mask="url(#mask2_3_116)">
<path d="M363.889 97.9088V-35.8024H137.5V97.9088C138.655 97.9088 139.591 98.8447 139.591 100H142.482C142.482 98.8447 143.418 97.9088 144.574 97.9088C145.729 97.9088 146.665 98.8447 146.665 100H149.561C149.561 98.8447 150.497 97.9088 151.652 97.9088C152.807 97.9088 153.743 98.8447 153.743 100H156.639C156.639 98.8447 157.575 97.9088 158.731 97.9088C159.886 97.9088 160.822 98.8447 160.822 100H163.713C163.713 98.8447 164.649 97.9088 165.804 97.9088C166.96 97.9088 167.896 98.8447 167.896 100H170.786C170.786 98.8447 171.722 97.9088 172.878 97.9088C174.033 97.9088 174.969 98.8447 174.969 100H177.865C177.865 98.8447 178.801 97.9088 179.956 97.9088C181.112 97.9088 182.048 98.8447 182.048 100H184.939C184.939 98.8447 185.874 97.9088 187.03 97.9088C188.185 97.9088 189.121 98.8447 189.121 100H192.012C192.012 98.8447 192.948 97.9088 194.103 97.9088C195.259 97.9088 196.195 98.8447 196.195 100H199.091C199.091 98.8447 200.027 97.9088 201.182 97.9088C202.337 97.9088 203.273 98.8447 203.273 100H206.169C206.169 98.8447 207.105 97.9088 208.26 97.9088C209.416 97.9088 210.352 98.8447 210.352 100H213.243C213.243 98.8447 214.179 97.9088 215.334 97.9088C216.489 97.9088 217.425 98.8447 217.425 100H220.321C220.321 98.8447 221.257 97.9088 222.412 97.9088C223.568 97.9088 224.504 98.8447 224.504 100H227.4C227.4 98.8447 228.336 97.9088 229.491 97.9088C230.646 97.9088 231.582 98.8447 231.582 100H234.473C234.473 98.8447 235.409 97.9088 236.565 97.9088C237.72 97.9088 238.656 98.8447 238.656 100H241.552C241.552 98.8447 242.488 97.9088 243.643 97.9088C244.798 97.9088 245.734 98.8447 245.734 100H248.63C248.63 98.8447 249.566 97.9088 250.721 97.9088C251.877 97.9088 252.813 98.8447 252.813 100H255.704C255.704 98.8447 256.64 97.9088 257.795 97.9088C258.95 97.9088 259.887 98.8447 259.887 100H262.778C262.778 98.8447 263.714 97.9088 264.869 97.9088C266.025 97.9088 266.96 98.8447 266.96 100H269.856C269.856 98.8447 270.791 97.9088 271.947 97.9088C273.102 97.9088 274.038 98.8447 274.038 100H276.93C276.93 98.8447 277.865 97.9088 279.021 97.9088C280.177 97.9088 281.112 98.8447 281.112 100H284.002C284.002 98.8447 284.94 97.9088 286.094 97.9088C287.249 97.9088 288.186 98.8447 288.186 100H291.081C291.081 98.8447 292.017 97.9088 293.173 97.9088C294.328 97.9088 295.264 98.8447 295.264 100H298.16C298.16 98.8447 299.096 97.9088 300.252 97.9088C301.406 97.9088 302.343 98.8447 302.343 100H305.233C305.233 98.8447 306.169 97.9088 307.325 97.9088C308.48 97.9088 309.416 98.8447 309.416 100H312.312C312.312 98.8447 313.248 97.9088 314.404 97.9088C315.559 97.9088 316.495 98.8447 316.495 100H319.39C319.39 98.8447 320.327 97.9088 321.481 97.9088C322.637 97.9088 323.573 98.8447 323.573 100H326.464C326.464 98.8447 327.4 97.9088 328.556 97.9088C329.711 97.9088 330.647 98.8447 330.647 100H333.538C333.538 98.8447 334.474 97.9088 335.63 97.9088C336.784 97.9088 337.721 98.8447 337.721 100H340.616C340.616 98.8447 341.552 97.9088 342.707 97.9088C343.863 97.9088 344.799 98.8447 344.799 100H347.69C347.69 98.8447 348.626 97.9088 349.781 97.9088C350.937 97.9088 351.873 98.8447 351.873 100H354.763C354.763 98.8447 355.7 97.9088 356.854 97.9088C358.01 97.9088 358.946 98.8447 358.946 100H361.842C361.842 98.8447 362.778 97.9088 363.933 97.9088" fill="#6E7071"/>
<path d="M306.372 42.641C306.372 42.8701 306.357 46.7945 306.357 46.7945H298.82V43.9573C298.82 41.2175 300.302 40.1791 303.3 40.1791V34.6217H297.981C290.186 34.6217 289.123 39.0189 289.123 42.641C289.123 42.8701 289.109 46.7945 289.109 46.7945H288.017C286.414 46.7945 285.111 48.0961 285.111 49.7V52.4885H289.109V81.948H299.054V52.4885H306.357V81.948H316.302V52.4885H317.925C319.665 52.4885 321.079 51.0747 321.079 49.3343V46.7945H316.068V43.9573C316.068 41.2175 318.081 40.1791 321.079 40.1791V34.6217H315.225C307.43 34.6217 306.367 39.0189 306.367 42.641M162.043 74.7916C162.043 62.7942 174.011 58.9137 174.011 49.9681C174.011 47.1211 172.188 45.2443 169.516 45.2443C167.127 45.2443 165.299 46.541 165.299 46.541V35.4943C165.299 35.0117 164.875 34.6217 164.358 34.6217H155.578V81.948H165.436V81.8847C163.354 80.0955 162.043 76.995 162.043 74.7916ZM332.17 61.2684H336.251V54.0045C336.251 51.6548 336.251 50.207 334.212 50.207C332.175 50.207 332.165 51.6548 332.165 54.0045V61.2684H332.17ZM345.025 76.0882C344.201 77.8921 341.481 82.4891 334.11 82.4891C326.739 82.4891 324.111 77.6142 323.448 76.0639C322.785 74.5087 322.454 72.6368 322.454 69.585V58.1532C322.454 54.1752 322.62 45.2491 334.11 45.2491C345.6 45.2491 345.825 54.0387 345.825 58.1532C345.825 58.4359 345.825 64.1836 345.825 64.4858H339.03H333.091C332.579 64.4858 332.165 64.9002 332.165 65.4121V73.7287C332.165 76.0785 332.175 77.5264 334.212 77.5264C336.251 77.5264 336.251 76.0737 336.251 73.7287V69.1268C336.251 68.6442 336.674 68.2542 337.191 68.2542H345.825V70.1018C345.825 73.3387 345.957 74.0457 345.025 76.0882ZM198.849 62.6626C198.43 63.5401 197.503 64.5784 196.806 65.7776C195.836 67.4449 194.978 70.0531 194.783 72.7196C194.564 75.7178 195.329 76.6976 196.772 76.6976C198.054 76.6976 198.849 75.318 198.849 72.7099V62.6626ZM208.867 56.642C208.877 56.9929 208.886 81.948 208.886 81.948H200.097C199.585 81.948 199.171 81.5337 199.171 81.0217C199.171 79.8712 199.171 78.0675 199.171 78.0675H198.985C198.756 79.335 196.192 82.4843 191.653 82.4843C187.115 82.4843 184.599 78.789 184.599 73.29C184.599 62.5407 199.166 63.8276 199.166 56.4178C199.166 55.9302 199.166 54.0631 199.166 54.0045C199.166 51.6548 199.156 50.207 197.118 50.207C195.08 50.207 195.08 51.6548 195.08 54.0045V58.1191C195.08 58.6017 194.656 58.9917 194.14 58.9917H185.506C185.506 58.6895 185.506 58.4311 185.506 58.1484C185.506 54.0338 185.506 45.2443 197.221 45.2443C207.419 45.2443 208.696 52.2739 208.852 56.642H208.857H208.867ZM273.451 62.6626C273.032 63.5401 272.105 64.5784 271.409 65.7776C270.438 67.4449 269.58 70.0531 269.39 72.7196C269.17 75.7178 269.936 76.6976 271.379 76.6976C272.66 76.6976 273.456 75.318 273.456 72.7099V62.6626H273.451ZM283.469 56.642C283.479 56.9929 283.484 81.948 283.484 81.948H274.694C274.181 81.948 273.768 81.5337 273.768 81.0217V78.0675H273.583C273.353 79.335 270.789 82.4843 266.251 82.4843C261.712 82.4843 259.196 78.789 259.196 73.29C259.196 62.5407 273.763 63.8276 273.763 56.4178C273.763 55.9302 273.763 54.0631 273.763 54.0045C273.763 51.6548 273.753 50.207 271.715 50.207C269.678 50.207 269.678 51.6548 269.678 54.0045V58.1191C269.678 58.6017 269.253 58.9917 268.737 58.9917H260.103C260.103 58.6895 260.103 58.4311 260.103 58.1484C260.103 54.0338 260.103 45.2443 271.817 45.2443C282.016 45.2443 283.294 52.2739 283.449 56.642H283.454H283.469ZM256.666 66.855H248.033C247.511 66.855 247.092 67.245 247.092 67.7276V73.7287C247.092 76.0785 247.092 77.5264 245.054 77.5264C243.016 77.5264 243.006 76.0737 243.006 73.7287V54.0045C243.006 51.6548 243.016 50.207 245.054 50.207C247.092 50.207 247.092 51.6548 247.092 54.0045V58.1191C247.092 58.6017 247.516 58.9917 248.033 58.9917H256.666C256.666 58.6895 256.666 58.4311 256.666 58.1484C256.666 54.0338 256.666 45.2443 244.952 45.2443C233.237 45.2443 233.295 54.1703 233.295 58.1484V69.5802C233.295 72.6368 233.627 74.5039 234.29 76.059C234.953 77.6142 237.581 82.4843 244.952 82.4843C252.323 82.4843 255.043 77.8921 255.867 76.0834C256.798 74.0457 256.666 71.9348 256.666 68.6978V66.8502V66.855ZM174.552 46.5605L174.532 46.5995C176.994 48.7786 177.297 51.1284 177.297 52.6444C177.297 61.1611 165.957 68.7953 165.957 77.0584C165.957 78.2479 166.196 82.494 170.242 82.494C175.234 82.494 182.888 75.2692 182.888 63.9886C182.888 54.6432 179.724 49.0516 174.552 46.5654M228.108 45.6099C225.734 45.7707 223.565 47.3161 222.829 50.5433L222.453 50.5238V46.736C222.453 46.2533 222.029 45.8633 221.513 45.8633H213.201V81.9577H222.921V60.2933C222.921 55.5792 226.241 54.8723 228.255 54.8723C229.995 54.8723 230.985 55.4037 231.248 55.5695V46.0876C231.248 46.0876 230.122 45.4831 228.108 45.6148M323.643 46.3703C323.643 46.3703 323.605 44.9127 324.546 42.9286C325.384 41.1639 326.695 39.287 329.869 37.3955C332.501 35.8258 335.368 35.0458 337.772 34.9337C340.609 34.8021 342.67 35.5918 343.193 37.1566C343.904 39.2821 342.953 41.4857 339.648 41.705C338.049 41.8122 336.431 41.7001 334.9 41.705C332.643 41.7148 329.835 41.9244 327.533 42.9871C324.556 44.3668 323.638 46.3655 323.638 46.3655" fill="white"/>
</g>
</g>
</g>
</svg>
