<svg width="500" height="100" viewBox="0 0 500 100" fill="none" xmlns="http://www.w3.org/2000/svg">
<mask id="mask0_467_107" style="mask-type:luminance" maskUnits="userSpaceOnUse" x="137" y="0" width="226" height="100">
<path d="M362.926 0H137V100H362.926V0Z" fill="white"/>
</mask>
<g mask="url(#mask0_467_107)">
<mask id="mask1_467_107" style="mask-type:luminance" maskUnits="userSpaceOnUse" x="137" y="0" width="226" height="100">
<path d="M362.926 0H137V100H362.926V0Z" fill="white"/>
</mask>
<g mask="url(#mask1_467_107)">
<mask id="mask2_467_107" style="mask-type:luminance" maskUnits="userSpaceOnUse" x="137" y="-20" width="227" height="137">
<path d="M363.389 -19.7531H137V116.049H363.389V-19.7531Z" fill="white"/>
</mask>
<g mask="url(#mask2_467_107)">
<path d="M363.389 97.9088V-35.8024H137V97.9088C138.155 97.9088 139.091 98.8447 139.091 100H141.982C141.982 98.8447 142.918 97.9088 144.074 97.9088C145.229 97.9088 146.165 98.8447 146.165 100H149.061C149.061 98.8447 149.997 97.9088 151.152 97.9088C152.307 97.9088 153.243 98.8447 153.243 100H156.139C156.139 98.8447 157.075 97.9088 158.231 97.9088C159.386 97.9088 160.322 98.8447 160.322 100H163.213C163.213 98.8447 164.149 97.9088 165.304 97.9088C166.46 97.9088 167.396 98.8447 167.396 100H170.286C170.286 98.8447 171.222 97.9088 172.378 97.9088C173.533 97.9088 174.469 98.8447 174.469 100H177.365C177.365 98.8447 178.301 97.9088 179.456 97.9088C180.612 97.9088 181.548 98.8447 181.548 100H184.439C184.439 98.8447 185.374 97.9088 186.53 97.9088C187.685 97.9088 188.621 98.8447 188.621 100H191.512C191.512 98.8447 192.448 97.9088 193.603 97.9088C194.759 97.9088 195.695 98.8447 195.695 100H198.591C198.591 98.8447 199.527 97.9088 200.682 97.9088C201.837 97.9088 202.773 98.8447 202.773 100H205.669C205.669 98.8447 206.605 97.9088 207.76 97.9088C208.916 97.9088 209.852 98.8447 209.852 100H212.743C212.743 98.8447 213.679 97.9088 214.834 97.9088C215.989 97.9088 216.925 98.8447 216.925 100H219.821C219.821 98.8447 220.757 97.9088 221.912 97.9088C223.068 97.9088 224.004 98.8447 224.004 100H226.9C226.9 98.8447 227.836 97.9088 228.991 97.9088C230.146 97.9088 231.082 98.8447 231.082 100H233.973C233.973 98.8447 234.909 97.9088 236.065 97.9088C237.22 97.9088 238.156 98.8447 238.156 100H241.052C241.052 98.8447 241.988 97.9088 243.143 97.9088C244.298 97.9088 245.234 98.8447 245.234 100H248.13C248.13 98.8447 249.066 97.9088 250.221 97.9088C251.377 97.9088 252.313 98.8447 252.313 100H255.204C255.204 98.8447 256.14 97.9088 257.295 97.9088C258.45 97.9088 259.387 98.8447 259.387 100H262.278C262.278 98.8447 263.214 97.9088 264.369 97.9088C265.525 97.9088 266.46 98.8447 266.46 100H269.356C269.356 98.8447 270.291 97.9088 271.447 97.9088C272.602 97.9088 273.538 98.8447 273.538 100H276.43C276.43 98.8447 277.365 97.9088 278.521 97.9088C279.677 97.9088 280.612 98.8447 280.612 100H283.502C283.502 98.8447 284.44 97.9088 285.594 97.9088C286.749 97.9088 287.686 98.8447 287.686 100H290.581C290.581 98.8447 291.517 97.9088 292.673 97.9088C293.828 97.9088 294.764 98.8447 294.764 100H297.66C297.66 98.8447 298.596 97.9088 299.752 97.9088C300.906 97.9088 301.843 98.8447 301.843 100H304.733C304.733 98.8447 305.669 97.9088 306.825 97.9088C307.98 97.9088 308.916 98.8447 308.916 100H311.812C311.812 98.8447 312.748 97.9088 313.904 97.9088C315.059 97.9088 315.995 98.8447 315.995 100H318.89C318.89 98.8447 319.827 97.9088 320.981 97.9088C322.137 97.9088 323.073 98.8447 323.073 100H325.964C325.964 98.8447 326.9 97.9088 328.056 97.9088C329.211 97.9088 330.147 98.8447 330.147 100H333.038C333.038 98.8447 333.974 97.9088 335.13 97.9088C336.284 97.9088 337.221 98.8447 337.221 100H340.116C340.116 98.8447 341.052 97.9088 342.207 97.9088C343.363 97.9088 344.299 98.8447 344.299 100H347.19C347.19 98.8447 348.126 97.9088 349.281 97.9088C350.437 97.9088 351.373 98.8447 351.373 100H354.263C354.263 98.8447 355.2 97.9088 356.354 97.9088C357.51 97.9088 358.446 98.8447 358.446 100H361.342C361.342 98.8447 362.278 97.9088 363.433 97.9088" fill="#CA1C6B"/>
<path d="M305.872 42.641C305.872 42.8701 305.857 46.7945 305.857 46.7945H298.32V43.9573C298.32 41.2175 299.802 40.1791 302.8 40.1791V34.6217H297.481C289.686 34.6217 288.623 39.0189 288.623 42.641C288.623 42.8701 288.609 46.7945 288.609 46.7945H287.517C285.914 46.7945 284.611 48.0961 284.611 49.7V52.4885H288.609V81.948H298.554V52.4885H305.857V81.948H315.802V52.4885H317.425C319.165 52.4885 320.579 51.0747 320.579 49.3343V46.7945H315.568V43.9573C315.568 41.2175 317.581 40.1791 320.579 40.1791V34.6217H314.725C306.93 34.6217 305.867 39.0189 305.867 42.641M161.543 74.7916C161.543 62.7942 173.511 58.9137 173.511 49.9681C173.511 47.1211 171.688 45.2443 169.016 45.2443C166.627 45.2443 164.799 46.541 164.799 46.541V35.4943C164.799 35.0117 164.375 34.6217 163.858 34.6217H155.078V81.948H164.936V81.8847C162.854 80.0955 161.543 76.995 161.543 74.7916ZM331.67 61.2684H335.751V54.0045C335.751 51.6548 335.751 50.207 333.712 50.207C331.675 50.207 331.665 51.6548 331.665 54.0045V61.2684H331.67ZM344.525 76.0882C343.701 77.8921 340.981 82.4891 333.61 82.4891C326.239 82.4891 323.611 77.6142 322.948 76.0639C322.285 74.5087 321.954 72.6368 321.954 69.585V58.1532C321.954 54.1752 322.12 45.2491 333.61 45.2491C345.1 45.2491 345.325 54.0387 345.325 58.1532C345.325 58.4359 345.325 64.1836 345.325 64.4858H338.53H332.591C332.079 64.4858 331.665 64.9002 331.665 65.4121V73.7287C331.665 76.0785 331.675 77.5264 333.712 77.5264C335.751 77.5264 335.751 76.0737 335.751 73.7287V69.1268C335.751 68.6442 336.174 68.2542 336.691 68.2542H345.325V70.1018C345.325 73.3387 345.457 74.0457 344.525 76.0882ZM198.349 62.6626C197.93 63.5401 197.003 64.5784 196.306 65.7776C195.336 67.4449 194.478 70.0531 194.283 72.7196C194.064 75.7178 194.829 76.6976 196.272 76.6976C197.554 76.6976 198.349 75.318 198.349 72.7099V62.6626ZM208.367 56.642C208.377 56.9929 208.386 81.948 208.386 81.948H199.597C199.085 81.948 198.671 81.5337 198.671 81.0217C198.671 79.8712 198.671 78.0675 198.671 78.0675H198.485C198.256 79.335 195.692 82.4843 191.153 82.4843C186.615 82.4843 184.099 78.789 184.099 73.29C184.099 62.5407 198.666 63.8276 198.666 56.4178C198.666 55.9302 198.666 54.0631 198.666 54.0045C198.666 51.6548 198.656 50.207 196.618 50.207C194.58 50.207 194.58 51.6548 194.58 54.0045V58.1191C194.58 58.6017 194.156 58.9917 193.64 58.9917H185.006C185.006 58.6895 185.006 58.4311 185.006 58.1484C185.006 54.0338 185.006 45.2443 196.721 45.2443C206.919 45.2443 208.196 52.2739 208.352 56.642H208.357H208.367ZM272.951 62.6626C272.532 63.5401 271.605 64.5784 270.909 65.7776C269.938 67.4449 269.08 70.0531 268.89 72.7196C268.67 75.7178 269.436 76.6976 270.879 76.6976C272.16 76.6976 272.956 75.318 272.956 72.7099V62.6626H272.951ZM282.969 56.642C282.979 56.9929 282.984 81.948 282.984 81.948H274.194C273.681 81.948 273.268 81.5337 273.268 81.0217V78.0675H273.083C272.853 79.335 270.289 82.4843 265.751 82.4843C261.212 82.4843 258.696 78.789 258.696 73.29C258.696 62.5407 273.263 63.8276 273.263 56.4178C273.263 55.9302 273.263 54.0631 273.263 54.0045C273.263 51.6548 273.253 50.207 271.215 50.207C269.178 50.207 269.178 51.6548 269.178 54.0045V58.1191C269.178 58.6017 268.753 58.9917 268.237 58.9917H259.603C259.603 58.6895 259.603 58.4311 259.603 58.1484C259.603 54.0338 259.603 45.2443 271.317 45.2443C281.516 45.2443 282.794 52.2739 282.949 56.642H282.954H282.969ZM256.166 66.855H247.533C247.011 66.855 246.592 67.245 246.592 67.7276V73.7287C246.592 76.0785 246.592 77.5264 244.554 77.5264C242.516 77.5264 242.506 76.0737 242.506 73.7287V54.0045C242.506 51.6548 242.516 50.207 244.554 50.207C246.592 50.207 246.592 51.6548 246.592 54.0045V58.1191C246.592 58.6017 247.016 58.9917 247.533 58.9917H256.166C256.166 58.6895 256.166 58.4311 256.166 58.1484C256.166 54.0338 256.166 45.2443 244.452 45.2443C232.737 45.2443 232.795 54.1703 232.795 58.1484V69.5802C232.795 72.6368 233.127 74.5039 233.79 76.059C234.453 77.6142 237.081 82.4843 244.452 82.4843C251.823 82.4843 254.543 77.8921 255.367 76.0834C256.298 74.0457 256.166 71.9348 256.166 68.6978V66.8502V66.855ZM174.052 46.5605L174.032 46.5995C176.494 48.7786 176.797 51.1284 176.797 52.6444C176.797 61.1611 165.457 68.7953 165.457 77.0584C165.457 78.2479 165.696 82.494 169.742 82.494C174.734 82.494 182.388 75.2692 182.388 63.9886C182.388 54.6432 179.224 49.0516 174.052 46.5654M227.608 45.6099C225.234 45.7707 223.065 47.3161 222.329 50.5433L221.953 50.5238V46.736C221.953 46.2533 221.529 45.8633 221.013 45.8633H212.701V81.9577H222.421V60.2933C222.421 55.5792 225.741 54.8723 227.755 54.8723C229.495 54.8723 230.485 55.4037 230.748 55.5695V46.0876C230.748 46.0876 229.622 45.4831 227.608 45.6148M323.143 46.3703C323.143 46.3703 323.105 44.9127 324.046 42.9286C324.884 41.1639 326.195 39.287 329.369 37.3955C332.001 35.8258 334.868 35.0458 337.272 34.9337C340.109 34.8021 342.17 35.5918 342.693 37.1566C343.404 39.2821 342.453 41.4857 339.148 41.705C337.549 41.8122 335.931 41.7001 334.4 41.705C332.143 41.7148 329.335 41.9244 327.033 42.9871C324.056 44.3668 323.138 46.3655 323.138 46.3655" fill="white"/>
</g>
</g>
</g>
</svg>
