<svg width="500" height="100" viewBox="0 0 500 100" fill="none" xmlns="http://www.w3.org/2000/svg">
<mask id="mask0_3_116" style="mask-type:luminance" maskUnits="userSpaceOnUse" x="137" y="0" width="226" height="100">
<path d="M362.926 0H137V100H362.926V0Z" fill="white"/>
</mask>
<g mask="url(#mask0_3_116)">
<path d="M362.926 97.9727C362.016 98.1994 361.342 99.0198 361.342 100H362.926V97.9727C363.075 97.9356 363.229 97.9144 363.389 97.9111V116.049H137V100H139.091C139.091 98.8447 138.155 97.9092 137 97.9092V0H362.926V97.9727ZM144.074 97.9092C142.918 97.9092 141.982 98.8447 141.982 100H146.165C146.165 98.8448 145.229 97.9093 144.074 97.9092ZM151.152 97.9092C149.997 97.9092 149.061 98.8447 149.061 100H153.243C153.243 98.8448 152.307 97.9094 151.152 97.9092ZM158.231 97.9092C157.075 97.9092 156.139 98.8447 156.139 100H160.322C160.322 98.8448 159.386 97.9094 158.231 97.9092ZM165.304 97.9092C164.149 97.9093 163.213 98.8448 163.213 100H167.396C167.396 98.8447 166.46 97.9092 165.304 97.9092ZM172.378 97.9092C171.222 97.9092 170.286 98.8447 170.286 100H174.469C174.469 98.8447 173.533 97.9092 172.378 97.9092ZM179.456 97.9092C178.301 97.9092 177.365 98.8447 177.365 100H181.548C181.548 98.8447 180.612 97.9092 179.456 97.9092ZM186.53 97.9092C185.374 97.9092 184.439 98.8447 184.439 100H188.621C188.621 98.8448 187.685 97.9093 186.53 97.9092ZM193.603 97.9092C192.448 97.9094 191.512 98.8448 191.512 100H195.695C195.695 98.8447 194.759 97.9092 193.603 97.9092ZM200.682 97.9092C199.527 97.9094 198.591 98.8448 198.591 100H202.773C202.773 98.8447 201.837 97.9092 200.682 97.9092ZM207.76 97.9092C206.605 97.9093 205.669 98.8448 205.669 100H209.852C209.852 98.8447 208.916 97.9092 207.76 97.9092ZM214.834 97.9092C213.679 97.9092 212.743 98.8447 212.743 100H216.925C216.925 98.8447 215.989 97.9092 214.834 97.9092ZM221.912 97.9092C220.757 97.9092 219.821 98.8447 219.821 100H224.004C224.004 98.8447 223.068 97.9092 221.912 97.9092ZM228.991 97.9092C227.836 97.9092 226.9 98.8447 226.9 100H231.082C231.082 98.8448 230.146 97.9093 228.991 97.9092ZM236.065 97.9092C234.909 97.9092 233.973 98.8447 233.973 100H238.156C238.156 98.8448 237.22 97.9094 236.065 97.9092ZM243.143 97.9092C241.988 97.9094 241.052 98.8448 241.052 100H245.234C245.234 98.8447 244.298 97.9092 243.143 97.9092ZM250.221 97.9092C249.066 97.9093 248.13 98.8448 248.13 100H252.313C252.313 98.8447 251.377 97.9092 250.221 97.9092ZM257.295 97.9092C256.14 97.9092 255.204 98.8447 255.204 100H259.387C259.387 98.8447 258.45 97.9092 257.295 97.9092ZM264.369 97.9092C263.214 97.9092 262.278 98.8447 262.278 100H266.46C266.46 98.8447 265.525 97.9093 264.369 97.9092ZM271.447 97.9092C270.291 97.9092 269.356 98.8447 269.356 100H273.538C273.538 98.8448 272.602 97.9093 271.447 97.9092ZM278.521 97.9092C277.365 97.9092 276.43 98.8447 276.43 100H280.612C280.612 98.8449 279.677 97.9094 278.521 97.9092ZM285.594 97.9092C284.44 97.9093 283.502 98.8448 283.502 100H287.686C287.686 98.8447 286.749 97.9092 285.594 97.9092ZM292.673 97.9092C291.517 97.9093 290.581 98.8447 290.581 100H294.764C294.764 98.8447 293.828 97.9092 292.673 97.9092ZM299.752 97.9092C298.596 97.9092 297.66 98.8447 297.66 100H301.843C301.843 98.8447 300.906 97.9092 299.752 97.9092ZM306.825 97.9092C305.669 97.9092 304.733 98.8447 304.733 100H308.916C308.916 98.8448 307.98 97.9093 306.825 97.9092ZM313.904 97.9092C312.748 97.9092 311.812 98.8447 311.812 100H315.995C315.995 98.8448 315.059 97.9093 313.904 97.9092ZM320.981 97.9092C319.827 97.9092 318.89 98.8447 318.89 100H323.073C323.073 98.8448 322.137 97.9094 320.981 97.9092ZM328.056 97.9092C326.9 97.9094 325.964 98.8448 325.964 100H330.147C330.147 98.8447 329.211 97.9092 328.056 97.9092ZM335.13 97.9092C333.974 97.9092 333.038 98.8447 333.038 100H337.221C337.221 98.8447 336.284 97.9092 335.13 97.9092ZM342.207 97.9092C341.052 97.9092 340.116 98.8447 340.116 100H344.299C344.299 98.8447 343.363 97.9092 342.207 97.9092ZM349.281 97.9092C348.126 97.9092 347.19 98.8447 347.19 100H351.373C351.373 98.8448 350.437 97.9093 349.281 97.9092ZM356.354 97.9092C355.2 97.9092 354.263 98.8447 354.263 100H358.446C358.446 98.8449 357.51 97.9094 356.354 97.9092ZM363.433 97.9092C363.418 97.9092 363.403 97.9108 363.389 97.9111V-19.7529H137V-35.8027H363.389L363.433 97.9092ZM174.032 46.5996C176.494 48.7787 176.797 51.1286 176.797 52.6445C176.797 61.1612 165.457 68.7955 165.457 77.0586C165.457 78.2484 165.696 82.4941 169.742 82.4941C174.734 82.494 182.388 75.2687 182.388 63.9883C182.388 54.6431 179.224 49.0516 174.052 46.5654L174.032 46.5996ZM333.61 45.249C322.12 45.249 321.954 54.1753 321.954 58.1533V69.585C321.954 72.6366 322.285 74.5083 322.948 76.0635C323.611 77.6138 326.239 82.4893 333.61 82.4893C340.981 82.4891 343.701 77.8918 344.525 76.0879C345.457 74.0457 345.325 73.3382 345.325 70.1016V68.2539H336.691C336.174 68.2539 335.751 68.6443 335.751 69.127V73.7285C335.751 76.0735 335.751 77.5264 333.712 77.5264C331.675 77.5263 331.665 76.0783 331.665 73.7285V65.4121C331.665 64.9003 332.079 64.4855 332.591 64.4854H345.325V58.1533C345.325 54.0389 345.1 45.2492 333.61 45.249ZM196.721 45.2441C185.006 45.2443 185.006 54.0339 185.006 58.1484V58.9912H193.64C194.156 58.9912 194.58 58.6017 194.58 58.1191V54.0049C194.58 51.6552 194.58 50.207 196.618 50.207C198.656 50.2071 198.666 51.6552 198.666 54.0049V56.418C198.666 63.8276 184.099 62.5408 184.099 73.29C184.099 78.789 186.615 82.4844 191.153 82.4844C195.692 82.4842 198.256 79.3349 198.485 78.0674H198.671C198.671 78.0674 198.671 79.871 198.671 81.0215C198.671 81.5334 199.085 81.9481 199.597 81.9482H208.386C208.386 81.9482 208.377 56.9925 208.367 56.6416H208.352C208.196 52.2735 206.918 45.2441 196.721 45.2441ZM244.452 45.2441C232.737 45.2441 232.795 54.1703 232.795 58.1484V69.5801C232.795 72.6365 233.127 74.5036 233.79 76.0586C234.453 77.6138 237.081 82.4844 244.452 82.4844C251.823 82.4843 254.543 77.8917 255.367 76.083C256.298 74.0455 256.166 71.9348 256.166 68.6982V66.8555H247.533C247.011 66.8555 246.592 67.245 246.592 67.7275V73.7285C246.592 76.0783 246.592 77.5264 244.554 77.5264C242.516 77.5262 242.506 76.0734 242.506 73.7285V54.0049C242.506 51.6553 242.516 50.2072 244.554 50.207C246.592 50.207 246.592 51.6552 246.592 54.0049V58.1191C246.592 58.6017 247.016 58.9912 247.533 58.9912H256.166V58.1484C256.166 54.0339 256.166 45.2442 244.452 45.2441ZM271.317 45.2441C259.603 45.2441 259.603 54.0338 259.603 58.1484V58.9912H268.237C268.753 58.9911 269.178 58.6016 269.178 58.1191V54.0049C269.178 51.6552 269.178 50.2071 271.215 50.207C273.253 50.207 273.263 51.6552 273.263 54.0049V56.418C273.262 63.8276 258.696 62.5408 258.696 73.29C258.696 78.789 261.212 82.4844 265.751 82.4844C270.289 82.4844 272.853 79.3349 273.083 78.0674H273.268V81.0215C273.268 81.5335 273.681 81.9482 274.194 81.9482H282.984C282.984 81.9482 282.979 56.9925 282.969 56.6416H282.949C282.794 52.2735 281.516 45.2443 271.317 45.2441ZM230.748 46.0879C230.748 46.0879 229.622 45.4836 227.608 45.6152L227.386 45.6289C225.1 45.8689 223.042 47.417 222.329 50.543L221.953 50.5234V46.7363C221.953 46.2536 221.529 45.8633 221.013 45.8633H212.701V81.958H222.421V60.293C222.421 55.5793 225.741 54.8721 227.755 54.8721C229.495 54.8721 230.485 55.4035 230.748 55.5693V46.0879ZM155.078 81.9482H164.936V81.8848C162.854 80.0956 161.543 76.9953 161.543 74.792C161.543 62.7946 173.511 58.9134 173.511 49.9678C173.511 47.1209 171.688 45.2441 169.016 45.2441C166.627 45.2443 164.799 46.541 164.799 46.541V35.4941C164.799 35.0117 164.375 34.6223 163.858 34.6221H155.078V81.9482ZM297.481 34.6221C289.687 34.6221 288.623 39.0186 288.623 42.6406C288.623 42.8697 288.609 46.7949 288.609 46.7949H287.517C285.914 46.7951 284.611 48.0964 284.611 49.7002V52.4883H288.609V81.9482H298.554V52.4883H305.857V81.9482H315.802V52.4883H317.425C319.165 52.4883 320.579 51.0744 320.579 49.334V46.7949H315.568V43.957C315.568 41.2174 317.581 40.1787 320.579 40.1787V34.6221H314.725C306.93 34.6222 305.867 39.0187 305.867 42.6406L305.857 46.7949H298.32V43.957C298.32 41.2175 299.802 40.1788 302.8 40.1787V34.6221H297.481ZM198.349 72.71C198.349 75.3177 197.554 76.6969 196.272 76.6973C194.829 76.6973 194.064 75.7178 194.283 72.7197C194.478 70.0532 195.336 67.4446 196.306 65.7773C197.003 64.5782 197.93 63.5396 198.349 62.6621V72.71ZM272.956 62.6621V72.71C272.956 75.318 272.16 76.6973 270.879 76.6973C269.436 76.6972 268.67 75.7177 268.89 72.7197C269.08 70.0532 269.938 67.4446 270.909 65.7773C271.605 64.5783 272.532 63.5395 272.951 62.6621H272.956ZM333.712 50.207C335.751 50.207 335.751 51.6552 335.751 54.0049V61.2686H331.665V54.0049C331.665 51.6552 331.675 50.2071 333.712 50.207ZM337.272 34.9336C334.868 35.0457 332.001 35.8259 329.369 37.3955C326.195 39.287 324.884 41.164 324.046 42.9287C323.34 44.4165 323.185 45.6083 323.151 46.1113L323.138 46.3652C323.145 46.3493 324.068 44.3615 327.033 42.9873C329.335 41.9246 332.143 41.7149 334.4 41.7051C335.931 41.7002 337.55 41.8123 339.148 41.7051C342.453 41.4856 343.404 39.2817 342.693 37.1562C342.17 35.5917 340.109 34.8021 337.272 34.9336Z" fill="#828282"/>
</g>
</svg>
