<svg width="500" height="100" viewBox="0 0 500 100" fill="none" xmlns="http://www.w3.org/2000/svg">
<path d="M9.10791 33.3237V36.6649H2V44.5918H9.10791V79.8263H20.9844V44.5918H29.1796V36.6649H20.9844V34.0755C20.9844 30.4842 22.3234 29.1499 25.4984 29.1499C27.0035 29.1499 28.4263 29.2353 29.8476 29.3999V20.5505C27.8407 20.4651 25.663 20.2165 23.5738 20.2165C13.8735 20.2165 9.10791 25.7248 9.10791 33.3237ZM73.1676 47.7637C73.1676 37.4167 62.8023 35.4953 54.1847 35.4953C44.4873 35.4953 34.5323 38.8334 33.8613 49.9353H45.7409C46.1541 45.2597 49.0836 43.4221 53.6021 43.4221C57.7821 43.4221 61.2926 44.1724 61.2926 49.2658C61.2926 54.1107 54.5202 53.8606 47.243 54.9463C39.8834 55.9482 32.5254 58.286 32.5254 68.0566C32.5254 76.909 39.0493 80.999 47.243 80.999C52.5133 80.999 58.0322 79.5762 61.7958 75.6525C61.8782 77.0753 62.2137 78.492 62.6315 79.8294H74.6727C73.5854 78.0756 73.166 74.1473 73.166 70.2266L73.1676 47.7637ZM61.2926 63.1294C61.2926 65.7172 60.9601 73.0676 51.6761 73.0676C47.8301 73.0676 44.4004 71.9803 44.4004 67.5564C44.4004 63.2148 47.7432 61.9628 51.426 61.2125C55.1058 60.5445 59.2872 60.4607 61.2926 58.7039V63.1294ZM93.8264 44.6756H93.6587V36.6665H82.3662V79.8294H94.2443V60.3753C94.2443 52.7763 97.2561 46.5148 105.951 46.5148C107.373 46.5148 109.133 46.6825 110.215 46.9311V35.9162C109.377 35.649 108.504 35.5082 107.624 35.4983C101.854 35.4953 96.0041 39.2513 93.8264 44.6756ZM165.499 35.4953C159.477 35.4953 154.96 38.9188 152.45 42.6718C150.11 37.5006 145.259 35.4953 139.823 35.4953C134.221 35.4953 129.703 38.0847 126.61 42.5056H126.443V36.6665H115.237V79.8294H127.114V54.7786C127.114 46.347 132.802 44.8449 135.141 44.8449C142.668 44.8449 142.334 50.6032 142.334 55.6143V79.8294H154.209V55.779C154.209 50.3546 155.463 44.8449 162.153 44.8449C168.928 44.8449 169.429 49.6013 169.429 55.3672V79.8294H181.305V50.9357C181.305 39.7515 174.697 35.4953 165.499 35.4953ZM229.478 47.7637C229.478 37.4167 219.105 35.4953 210.493 35.4953C200.79 35.4953 190.841 38.8334 190.17 49.9353H202.046C202.463 45.2597 205.391 43.4221 209.908 43.4221C214.088 43.4221 217.601 44.1724 217.601 49.2658C217.601 54.1107 210.827 53.8606 203.55 54.9463C196.19 55.9482 188.831 58.286 188.831 68.0566C188.831 76.909 195.355 80.999 203.55 80.999C208.819 80.999 214.339 79.5762 218.101 75.6525C218.187 77.0753 218.519 78.492 218.937 79.8294H230.981C229.891 78.0756 229.478 74.1473 229.478 70.2266V47.7637ZM217.601 63.1294C217.601 65.7172 217.266 73.0676 207.983 73.0676C204.137 73.0676 200.707 71.9803 200.707 67.5564C200.707 63.2148 204.052 61.9628 207.733 61.2125C211.413 60.5445 215.591 60.4607 217.603 58.7039L217.601 63.1294ZM259.08 72.0657C251.639 72.0657 249.212 64.6315 249.212 58.4553C249.212 52.1068 251.721 44.4255 259.332 44.4255C264.265 44.4255 267.361 47.0119 268.114 51.8567H279.738C278.987 40.8357 269.618 35.4953 259.417 35.4953C245.366 35.4953 237.337 45.4244 237.337 58.8701C237.337 71.811 246.118 80.999 259.164 80.999C270.538 80.999 278.484 74.7375 279.988 63.2971H268.529C267.779 68.5552 264.599 72.0657 259.08 72.0657ZM287.015 79.8294H298.887V36.668H287.015V79.8294ZM287.015 29.9886H298.887V20.2196H287.015V29.9886ZM347.061 47.7637C347.061 37.4167 336.686 35.4953 328.076 35.4953C318.375 35.4953 308.421 38.8334 307.755 49.9353H319.631C320.049 45.2597 322.974 43.4221 327.492 43.4221C331.671 43.4221 335.186 44.1724 335.186 49.2658C335.186 54.1107 328.41 53.8606 321.136 54.9463C313.774 55.9482 306.416 58.286 306.416 68.0566C306.416 76.909 312.939 80.999 321.136 80.999C326.402 80.999 331.921 79.5762 335.686 75.6525C335.77 77.0753 336.104 78.492 336.52 79.8294H348.561C347.476 78.0756 347.061 74.1473 347.061 70.2266V47.7637ZM335.186 63.1294C335.186 65.7172 334.852 73.0676 325.565 73.0676C321.72 73.0676 318.289 71.9803 318.289 67.5564C318.289 63.2148 321.632 61.9628 325.313 61.2125C328.991 60.5445 333.173 60.4607 335.181 58.7039V63.1294H335.186ZM351.468 20C348.746 20 346.317 21.9581 346.317 24.9989C346.317 28.0534 348.746 30.0221 351.468 30.0221C354.195 30.0221 356.622 28.0534 356.622 24.9989C356.622 21.9581 354.195 20 351.468 20ZM351.468 28.9516C349.364 28.9516 347.688 27.2879 347.688 24.9989C347.688 22.7206 349.367 21.0705 351.468 21.0705C353.548 21.0705 355.255 22.7206 355.255 24.9989C355.255 27.2879 353.548 28.9516 351.468 28.9516ZM353.791 23.846C353.791 22.6291 353.001 22.1853 351.595 22.1853H349.472V27.7987H350.585V25.3999H351.282L352.648 27.7987H353.816L352.319 25.3466C353.15 25.2795 353.791 24.8784 353.791 23.846ZM350.585 24.5292V23.0561H351.52C352.034 23.0561 352.677 23.1506 352.677 23.753C352.677 24.4331 352.208 24.5292 351.576 24.5292H350.585Z" fill="black"/>
<path d="M422.149 40.1892H403.169V21.2307H382.503V40.1892H363.517V60.816H382.503V79.773H403.169V60.816H422.149V40.1892Z" fill="#23BE55"/>
<path d="M403.926 39.4327V20.4834H381.742V39.4327H362.774V61.5693H381.742V80.5186H403.926V61.5693H422.893V39.4327H403.926ZM383.268 22.0084H402.402V39.4327H383.268V22.0084ZM402.401 40.9562V60.0458H383.267V40.9562H402.401ZM364.298 60.0458V40.9562H381.742V60.0458H364.298ZM402.401 78.9937H383.267V61.5693H402.401V78.9937ZM403.926 60.0458V40.9562H421.362L421.365 60.0458H403.926Z" fill="black"/>
<path d="M437.907 42.7832H474.855V79.7318H437.907V42.7832Z" fill="#23BE55"/>
<path d="M475.616 80.4944H437.143V42.0208H475.616V80.4944ZM438.669 78.9694H474.093V43.5457H438.669V78.9694Z" fill="black"/>
<path d="M459.4 36.5383C459.4 28.151 466.262 21.2886 474.649 21.2886H496.347V42.9875C496.347 51.3748 489.484 58.2372 481.097 58.2372L459.4 58.2403V36.5383Z" fill="#8FCD38"/>
<path d="M458.637 59.0013V36.5384C458.637 27.7088 465.82 20.5261 474.649 20.5261H497.109V42.9875C497.109 51.8171 489.927 58.9997 481.097 58.9997L458.637 59.0013ZM495.584 22.0511H474.649C466.662 22.0511 460.162 28.5505 460.162 36.5384V57.4763L481.097 57.4732C489.085 57.4732 495.584 50.9738 495.584 42.986V22.0511Z" fill="black"/>
</svg>
