<svg width="501" height="100" viewBox="0 0 501 100" fill="none" xmlns="http://www.w3.org/2000/svg">
<path d="M9.60791 33.3237V36.6649H2.5V44.5918H9.60791V79.8263H21.4844V44.5918H29.6796V36.6649H21.4844V34.0755C21.4844 30.4842 22.8234 29.1499 25.9984 29.1499C27.5035 29.1499 28.9263 29.2353 30.3476 29.3999V20.5505C28.3407 20.4651 26.163 20.2165 24.0738 20.2165C14.3735 20.2165 9.60791 25.7248 9.60791 33.3237ZM73.6676 47.7637C73.6676 37.4167 63.3023 35.4953 54.6847 35.4953C44.9873 35.4953 35.0323 38.8334 34.3613 49.9353H46.2409C46.6541 45.2597 49.5836 43.4221 54.1021 43.4221C58.2821 43.4221 61.7926 44.1724 61.7926 49.2658C61.7926 54.1107 55.0202 53.8606 47.743 54.9463C40.3834 55.9482 33.0254 58.286 33.0254 68.0566C33.0254 76.909 39.5493 80.999 47.743 80.999C53.0133 80.999 58.5322 79.5762 62.2958 75.6525C62.3782 77.0753 62.7137 78.492 63.1315 79.8294H75.1727C74.0854 78.0756 73.666 74.1473 73.666 70.2266L73.6676 47.7637ZM61.7926 63.1294C61.7926 65.7172 61.4601 73.0676 52.1761 73.0676C48.3301 73.0676 44.9004 71.9803 44.9004 67.5564C44.9004 63.2148 48.2432 61.9628 51.926 61.2125C55.6058 60.5445 59.7872 60.4607 61.7926 58.7039V63.1294ZM94.3264 44.6756H94.1587V36.6665H82.8662V79.8294H94.7443V60.3753C94.7443 52.7763 97.7561 46.5148 106.451 46.5148C107.873 46.5148 109.633 46.6825 110.715 46.9311V35.9162C109.877 35.649 109.004 35.5082 108.124 35.4983C102.354 35.4953 96.5041 39.2513 94.3264 44.6756ZM165.999 35.4953C159.977 35.4953 155.46 38.9188 152.95 42.6718C150.61 37.5006 145.759 35.4953 140.323 35.4953C134.721 35.4953 130.203 38.0847 127.11 42.5056H126.943V36.6665H115.737V79.8294H127.614V54.7786C127.614 46.347 133.302 44.8449 135.641 44.8449C143.168 44.8449 142.834 50.6032 142.834 55.6143V79.8294H154.709V55.779C154.709 50.3546 155.963 44.8449 162.653 44.8449C169.428 44.8449 169.929 49.6013 169.929 55.3672V79.8294H181.805V50.9357C181.805 39.7515 175.197 35.4953 165.999 35.4953ZM229.978 47.7637C229.978 37.4167 219.605 35.4953 210.993 35.4953C201.29 35.4953 191.341 38.8334 190.67 49.9353H202.546C202.963 45.2597 205.891 43.4221 210.408 43.4221C214.588 43.4221 218.101 44.1724 218.101 49.2658C218.101 54.1107 211.327 53.8606 204.05 54.9463C196.69 55.9482 189.331 58.286 189.331 68.0566C189.331 76.909 195.855 80.999 204.05 80.999C209.319 80.999 214.839 79.5762 218.601 75.6525C218.687 77.0753 219.019 78.492 219.437 79.8294H231.481C230.391 78.0756 229.978 74.1473 229.978 70.2266V47.7637ZM218.101 63.1294C218.101 65.7172 217.766 73.0676 208.483 73.0676C204.637 73.0676 201.207 71.9803 201.207 67.5564C201.207 63.2148 204.552 61.9628 208.233 61.2125C211.913 60.5445 216.091 60.4607 218.103 58.7039L218.101 63.1294ZM259.58 72.0657C252.139 72.0657 249.712 64.6315 249.712 58.4553C249.712 52.1068 252.221 44.4255 259.832 44.4255C264.765 44.4255 267.861 47.0119 268.614 51.8567H280.238C279.487 40.8357 270.118 35.4953 259.917 35.4953C245.866 35.4953 237.837 45.4244 237.837 58.8701C237.837 71.811 246.618 80.999 259.664 80.999C271.038 80.999 278.984 74.7375 280.488 63.2971H269.029C268.279 68.5552 265.099 72.0657 259.58 72.0657ZM287.515 79.8294H299.387V36.668H287.515V79.8294ZM287.515 29.9886H299.387V20.2196H287.515V29.9886ZM347.561 47.7637C347.561 37.4167 337.186 35.4953 328.576 35.4953C318.875 35.4953 308.921 38.8334 308.255 49.9353H320.131C320.549 45.2597 323.474 43.4221 327.992 43.4221C332.171 43.4221 335.686 44.1724 335.686 49.2658C335.686 54.1107 328.91 53.8606 321.636 54.9463C314.274 55.9482 306.916 58.286 306.916 68.0566C306.916 76.909 313.439 80.999 321.636 80.999C326.902 80.999 332.421 79.5762 336.186 75.6525C336.27 77.0753 336.604 78.492 337.02 79.8294H349.061C347.976 78.0756 347.561 74.1473 347.561 70.2266V47.7637ZM335.686 63.1294C335.686 65.7172 335.352 73.0676 326.065 73.0676C322.22 73.0676 318.789 71.9803 318.789 67.5564C318.789 63.2148 322.132 61.9628 325.813 61.2125C329.491 60.5445 333.673 60.4607 335.681 58.7039V63.1294H335.686ZM351.968 20C349.246 20 346.817 21.9581 346.817 24.9989C346.817 28.0534 349.246 30.0221 351.968 30.0221C354.695 30.0221 357.122 28.0534 357.122 24.9989C357.122 21.9581 354.695 20 351.968 20ZM351.968 28.9516C349.864 28.9516 348.188 27.2879 348.188 24.9989C348.188 22.7206 349.867 21.0705 351.968 21.0705C354.048 21.0705 355.755 22.7206 355.755 24.9989C355.755 27.2879 354.048 28.9516 351.968 28.9516ZM354.291 23.846C354.291 22.6291 353.501 22.1853 352.095 22.1853H349.972V27.7987H351.085V25.3999H351.782L353.148 27.7987H354.316L352.819 25.3466C353.65 25.2795 354.291 24.8784 354.291 23.846ZM351.085 24.5292V23.0561H352.02C352.534 23.0561 353.177 23.1506 353.177 23.753C353.177 24.4331 352.708 24.5292 352.076 24.5292H351.085Z" fill="#6E7071"/>
<path d="M422.649 40.1892H403.669V21.2307H383.003V40.1892H364.017V60.816H383.003V79.773H403.669V60.816H422.649V40.1892Z" fill="#6E7071"/>
<path d="M404.426 39.4327V20.4834H382.242V39.4327H363.274V61.5693H382.242V80.5186H404.426V61.5693H423.393V39.4327H404.426ZM383.768 22.0084H402.902V39.4327H383.768V22.0084ZM402.901 40.9562V60.0458H383.767V40.9562H402.901ZM364.798 60.0458V40.9562H382.242V60.0458H364.798ZM402.901 78.9937H383.767V61.5693H402.901V78.9937ZM404.426 60.0458V40.9562H421.862L421.865 60.0458H404.426Z" fill="#6E7071"/>
<path d="M438.407 42.7832H475.355V79.7318H438.407V42.7832Z" fill="#6E7071"/>
<path d="M476.116 80.4944H437.643V42.0208H476.116V80.4944ZM439.169 78.9694H474.593V43.5457H439.169V78.9694Z" fill="#6E7071"/>
<path d="M459.9 36.5383C459.9 28.151 466.762 21.2886 475.149 21.2886H496.847V42.9875C496.847 51.3748 489.984 58.2372 481.597 58.2372L459.9 58.2403V36.5383Z" fill="#211E1E"/>
<path d="M459.137 59.0013V36.5384C459.137 27.7088 466.32 20.5261 475.149 20.5261H497.609V42.9875C497.609 51.8171 490.427 58.9997 481.597 58.9997L459.137 59.0013ZM496.084 22.0511H475.149C467.162 22.0511 460.662 28.5505 460.662 36.5384V57.4763L481.597 57.4732C489.585 57.4732 496.084 50.9738 496.084 42.986V22.0511Z" fill="#6E7071"/>
</svg>
