<svg width="501" height="100" viewBox="0 0 501 100" fill="none" xmlns="http://www.w3.org/2000/svg">
<path d="M115.239 32.1802L122.428 48.6847" stroke="#1D1D1B" stroke-opacity="0.72" stroke-width="0.8" stroke-miterlimit="1"/>
<path d="M78.9866 48.6847H121.59L94.2749 80.027L130.797 97.4415L78.9866 47.982" stroke="#1D1D1B" stroke-opacity="0.72" stroke-width="0.8" stroke-miterlimit="1"/>
<path d="M128.32 3.48657L78.9866 48.6848L115.239 32.1803M128.32 3.48657L115.239 32.1803M128.32 3.48657L96.437 18.6938L115.239 32.1803" stroke="#1D1D1B" stroke-opacity="0.72" stroke-width="0.8" stroke-miterlimit="1"/>
<path d="M119.941 67.6216L94.2749 80.0271" stroke="#1D1D1B" stroke-opacity="0.72" stroke-width="0.8" stroke-miterlimit="10"/>
<path d="M196.176 32.5225V42.9639H211.446V49.7297H196.176V68.8829H187.392V25.6757H215.05V32.5135H196.185L196.176 32.5225Z" fill="#1D1D1B" fill-opacity="0.72"/>
<path d="M227.284 51.8919V68.8919H218.932V37.7838H226.563L226.923 43.4775C228.725 39.8739 233.266 36.9189 238.518 36.9189V45.0541C232.824 43.6847 227.284 46.5676 227.284 51.8919Z" fill="#1D1D1B" fill-opacity="0.72"/>
<path d="M266.464 68.8919L266.104 63.1261C264.014 67.0901 259.266 69.7478 254.581 69.7478C246.302 69.7478 243.203 63.991 243.203 56.2793V37.7748H251.554V54.991C251.554 61.036 253.572 63.0541 257.455 63.0541C261.338 63.0541 265.734 59.4505 265.734 55.1351V37.7748H274.086V68.8829H266.455L266.464 68.8919Z" fill="#1D1D1B" fill-opacity="0.72"/>
<path d="M303.986 68.8919L290.662 52.8288V68.8919H282.311V25.6847H290.662V51.036L303.842 37.7838H312.914L298.725 51.6126L313.491 68.9009H303.986V68.8919Z" fill="#1D1D1B" fill-opacity="0.72"/>
<path d="M317.95 68.8919V25.6847H326.734V62.0541H346.104V68.8919H317.941H317.95Z" fill="#1D1D1B" fill-opacity="0.72"/>
<path d="M375.419 68.8919L375.131 63.9189C372.536 67.7387 367.932 69.7477 363.536 69.7477C355.113 69.7477 348.914 62.6937 348.914 53.3243C348.914 43.9549 355.104 36.9009 363.536 36.9009C367.932 36.9009 372.536 38.9189 375.131 42.7387L375.419 37.7657H382.977V68.8739H375.419V68.8919ZM366.131 43.1081C361.23 43.1081 357.275 46.9279 357.275 53.3333C357.275 59.7387 361.239 63.5585 366.131 63.5585C371.023 63.5585 374.987 59.7387 374.987 53.3333C374.987 46.9279 371.023 43.1081 366.131 43.1081Z" fill="#1D1D1B" fill-opacity="0.72"/>
<path d="M410.635 69.7568C406.239 69.7568 401.635 67.7388 399.041 63.928L398.752 68.9009H391.194V25.6937H399.545V42.0451C402.212 38.6577 406.455 36.928 410.635 36.928C419.059 36.928 425.257 43.982 425.257 53.3514C425.257 62.7208 419.068 69.7748 410.635 69.7748V69.7568ZM408.041 43.1081C403.14 43.1081 399.185 46.928 399.185 53.3334C399.185 59.7388 403.149 63.5586 408.041 63.5586C412.932 63.5586 416.896 59.7388 416.896 53.3334C416.896 46.928 412.932 43.1081 408.041 43.1081Z" fill="#1D1D1B" fill-opacity="0.72"/>
<path d="M159.743 13C158.248 14.5136 156.248 15.1982 154.284 15.0811C154.284 15.0811 154.221 15.0811 154.185 15.0811C154.113 15.0811 154.041 15.0721 153.969 15.0631C151.707 14.8379 149.815 14.8469 148.311 16.1352C146.978 17.4685 145.149 19.2973 145.122 19.3244C143.707 20.7208 143.554 22.4595 143.716 24.5406C144.707 27.5045 144.05 30.91 141.698 33.2883C138.374 36.6577 132.951 36.6937 129.581 33.3694C126.212 30.0451 126.176 24.6217 129.5 21.2523C131.869 18.8469 135.311 18.1532 138.311 19.1532C140.212 19.4054 141.996 19.2793 143.437 18.0181C144.743 16.7027 146.482 14.973 146.518 14.937C148.14 13.2883 148.122 11.1532 147.734 8.88292C147.491 6.83788 148.149 4.69373 149.716 3.10815C152.455 0.333373 156.914 0.306345 159.689 3.04509C162.464 5.78382 162.491 10.2433 159.752 13.0181L159.743 13ZM159.743 82.955C158.248 81.4415 156.248 80.7568 154.284 80.8739C154.284 80.8739 154.221 80.8739 154.185 80.8739C154.113 80.8739 154.041 80.8829 153.969 80.8919C151.707 81.1172 149.815 81.1081 148.311 79.8199C146.978 78.4865 145.149 76.6577 145.122 76.6307C143.707 75.2343 143.554 73.4955 143.716 71.4145C144.707 68.4505 144.05 65.0451 141.698 62.6667C138.374 59.2973 132.951 59.2613 129.581 62.5856C126.212 65.91 126.176 71.3334 129.5 74.7027C131.869 77.1081 135.311 77.8018 138.311 76.8018C140.212 76.5496 141.996 76.6757 143.437 77.937C144.743 79.2523 146.482 80.982 146.518 81.0181C148.14 82.6667 148.122 84.8018 147.734 87.0721C147.491 89.1172 148.149 91.2613 149.716 92.8469C152.455 95.6217 156.914 95.6487 159.689 92.9099C162.464 90.1712 162.491 85.7117 159.752 82.937L159.743 82.955ZM154.653 34.3964C156.599 32.4775 156.617 29.3424 154.698 27.3964C152.779 25.4505 149.644 25.4325 147.698 27.3514C145.752 29.2703 145.734 32.4054 147.653 34.3514C149.572 36.2973 152.707 36.3154 154.653 34.3964ZM154.653 68.6036C156.599 66.6847 156.617 63.5496 154.698 61.6036C152.779 59.6577 149.644 59.6397 147.698 61.5586C145.752 63.4775 145.734 66.6126 147.653 68.5586C149.572 70.5045 152.707 70.5226 154.653 68.6036ZM165.248 37.3424C160.978 37.3874 157.329 39.946 155.671 43.6036C154.338 45.4145 152.473 46.8649 150.212 46.8649L145.572 46.8829C143.284 46.937 141.824 45.4595 140.194 43.5136C138.869 41.8919 136.833 40.8739 134.581 40.928C130.689 41.0181 127.608 44.2523 127.698 48.1442C127.788 52.0361 131.023 55.1172 134.914 55.0271C137.032 54.982 138.896 54 140.158 52.4955C140.158 52.4955 140.185 52.4685 140.203 52.4415C140.365 52.2433 140.527 52.0271 140.671 51.8109C141.914 50.2523 143.581 49.0541 145.581 48.991L150.77 49.0091C152.752 49.2253 154.239 50.5856 155.68 52.3784C157.374 56.0901 161.122 58.6577 165.464 58.6127C171.338 58.5496 176.05 53.7478 175.996 47.8739C175.932 42 171.131 37.2883 165.257 37.3424H165.248Z" fill="#434343" fill-opacity="0.86"/>
<path d="M120.338 68.8919L131.194 98.2072" stroke="#1D1D1B" stroke-opacity="0.72" stroke-width="0.8" stroke-miterlimit="10"/>
<path d="M128.32 5.97297C129.693 5.97297 130.806 4.85973 130.806 3.48649C130.806 2.11323 129.693 1 128.32 1C126.947 1 125.833 2.11323 125.833 3.48649C125.833 4.85973 126.947 5.97297 128.32 5.97297Z" fill="#6E7071"/>
<path d="M115.239 34.6667C116.612 34.6667 117.725 33.5535 117.725 32.1802C117.725 30.807 116.612 29.6937 115.239 29.6937C113.865 29.6937 112.752 30.807 112.752 32.1802C112.752 33.5535 113.865 34.6667 115.239 34.6667Z" fill="#6E7071"/>
<path d="M96.4369 21.1802C97.8102 21.1802 98.9234 20.0669 98.9234 18.6937C98.9234 17.3205 97.8102 16.2072 96.4369 16.2072C95.0637 16.2072 93.9504 17.3205 93.9504 18.6937C93.9504 20.0669 95.0637 21.1802 96.4369 21.1802Z" fill="#6E7071"/>
<path d="M122.428 51.1712C123.801 51.1712 124.914 50.0579 124.914 48.6847C124.914 47.3114 123.801 46.1982 122.428 46.1982C121.055 46.1982 119.941 47.3114 119.941 48.6847C119.941 50.0579 121.055 51.1712 122.428 51.1712Z" fill="#6E7071"/>
<path d="M119.941 70.1081C121.315 70.1081 122.428 68.9949 122.428 67.6216C122.428 66.2484 121.315 65.1351 119.941 65.1351C118.568 65.1351 117.455 66.2484 117.455 67.6216C117.455 68.9949 118.568 70.1081 119.941 70.1081Z" fill="#6E7071"/>
<path d="M94.2748 82.5135C95.6481 82.5135 96.7613 81.4003 96.7613 80.027C96.7613 78.6538 95.6481 77.5405 94.2748 77.5405C92.9016 77.5405 91.7883 78.6538 91.7883 80.027C91.7883 81.4003 92.9016 82.5135 94.2748 82.5135Z" fill="#6E7071"/>
<path d="M130.797 99.9279C132.171 99.9279 133.284 98.8144 133.284 97.4414C133.284 96.0685 132.171 94.955 130.797 94.955C129.424 94.955 128.311 96.0685 128.311 97.4414C128.311 98.8144 129.424 99.9279 130.797 99.9279Z" fill="#6E7071"/>
<path d="M78.9865 51.1712C80.3597 51.1712 81.473 50.0579 81.473 48.6847C81.473 47.3114 80.3597 46.1982 78.9865 46.1982C77.6132 46.1982 76.5 47.3114 76.5 48.6847C76.5 50.0579 77.6132 51.1712 78.9865 51.1712Z" fill="#6E7071"/>
</svg>
