<svg width="500" height="100" viewBox="0 0 500 100" fill="none" xmlns="http://www.w3.org/2000/svg">
<path d="M114.739 32.1802L121.928 48.6847" stroke="#1D1D1B" stroke-width="0.8" stroke-miterlimit="1"/>
<path d="M78.4866 48.6847H121.09L93.7749 80.027L130.297 97.4415L78.4866 47.982" stroke="#1D1D1B" stroke-width="0.8" stroke-miterlimit="1"/>
<path d="M127.82 3.48657L78.4866 48.6848L114.739 32.1803M127.82 3.48657L114.739 32.1803M127.82 3.48657L95.937 18.6938L114.739 32.1803" stroke="#1D1D1B" stroke-width="0.8" stroke-miterlimit="1"/>
<path d="M119.441 67.6216L93.7748 80.0271" stroke="#1D1D1B" stroke-width="0.8" stroke-miterlimit="10"/>
<path d="M195.676 32.5225V42.9639H210.946V49.7297H195.676V68.8829H186.892V25.6757H214.55V32.5135H195.685L195.676 32.5225Z" fill="#1D1D1B"/>
<path d="M226.784 51.8919V68.8919H218.432V37.7838H226.063L226.423 43.4775C228.225 39.8739 232.766 36.9189 238.018 36.9189V45.0541C232.324 43.6847 226.784 46.5676 226.784 51.8919Z" fill="#1D1D1B"/>
<path d="M265.964 68.8919L265.604 63.1261C263.514 67.0901 258.766 69.7478 254.081 69.7478C245.802 69.7478 242.703 63.991 242.703 56.2793V37.7748H251.054V54.991C251.054 61.036 253.072 63.0541 256.955 63.0541C260.838 63.0541 265.234 59.4505 265.234 55.1351V37.7748H273.586V68.8829H265.955L265.964 68.8919Z" fill="#1D1D1B"/>
<path d="M303.486 68.8919L290.162 52.8288V68.8919H281.811V25.6847H290.162V51.036L303.342 37.7838H312.414L298.225 51.6126L312.991 68.9009H303.486V68.8919Z" fill="#1D1D1B"/>
<path d="M317.45 68.8919V25.6847H326.234V62.0541H345.604V68.8919H317.441H317.45Z" fill="#1D1D1B"/>
<path d="M374.919 68.8919L374.631 63.9189C372.036 67.7387 367.432 69.7477 363.036 69.7477C354.613 69.7477 348.414 62.6937 348.414 53.3243C348.414 43.9549 354.604 36.9009 363.036 36.9009C367.432 36.9009 372.036 38.9189 374.631 42.7387L374.919 37.7657H382.477V68.8739H374.919V68.8919ZM365.631 43.1081C360.73 43.1081 356.775 46.9279 356.775 53.3333C356.775 59.7387 360.739 63.5585 365.631 63.5585C370.523 63.5585 374.487 59.7387 374.487 53.3333C374.487 46.9279 370.523 43.1081 365.631 43.1081Z" fill="#1D1D1B"/>
<path d="M410.135 69.7568C405.739 69.7568 401.135 67.7388 398.541 63.928L398.252 68.9009H390.694V25.6937H399.045V42.0451C401.712 38.6577 405.955 36.928 410.135 36.928C418.559 36.928 424.757 43.982 424.757 53.3514C424.757 62.7208 418.568 69.7748 410.135 69.7748V69.7568ZM407.541 43.1081C402.64 43.1081 398.685 46.928 398.685 53.3334C398.685 59.7388 402.649 63.5586 407.541 63.5586C412.432 63.5586 416.396 59.7388 416.396 53.3334C416.396 46.928 412.432 43.1081 407.541 43.1081Z" fill="#1D1D1B"/>
<path d="M159.243 13C157.748 14.5136 155.748 15.1982 153.784 15.0811C153.784 15.0811 153.721 15.0811 153.685 15.0811C153.613 15.0811 153.541 15.0721 153.469 15.0631C151.207 14.8379 149.315 14.8469 147.811 16.1352C146.478 17.4685 144.649 19.2973 144.622 19.3244C143.207 20.7208 143.054 22.4595 143.216 24.5406C144.207 27.5045 143.55 30.91 141.198 33.2883C137.874 36.6577 132.451 36.6937 129.081 33.3694C125.712 30.0451 125.676 24.6217 129 21.2523C131.369 18.8469 134.811 18.1532 137.811 19.1532C139.712 19.4054 141.496 19.2793 142.937 18.0181C144.243 16.7027 145.982 14.973 146.018 14.937C147.64 13.2883 147.622 11.1532 147.234 8.88292C146.991 6.83788 147.649 4.69373 149.216 3.10815C151.955 0.333373 156.414 0.306346 159.189 3.04509C161.964 5.78382 161.991 10.2433 159.252 13.0181L159.243 13ZM159.243 82.955C157.748 81.4415 155.748 80.7568 153.784 80.8739C153.784 80.8739 153.721 80.8739 153.685 80.8739C153.613 80.8739 153.541 80.8829 153.469 80.8919C151.207 81.1172 149.315 81.1081 147.811 79.8199C146.478 78.4865 144.649 76.6577 144.622 76.6307C143.207 75.2343 143.054 73.4955 143.216 71.4145C144.207 68.4505 143.55 65.0451 141.198 62.6667C137.874 59.2973 132.451 59.2613 129.081 62.5856C125.712 65.91 125.676 71.3334 129 74.7027C131.369 77.1081 134.811 77.8018 137.811 76.8018C139.712 76.5496 141.496 76.6757 142.937 77.937C144.243 79.2523 145.982 80.982 146.018 81.0181C147.64 82.6667 147.622 84.8018 147.234 87.0721C146.991 89.1172 147.649 91.2613 149.216 92.8469C151.955 95.6217 156.414 95.6487 159.189 92.9099C161.964 90.1712 161.991 85.7117 159.252 82.937L159.243 82.955ZM154.153 34.3964C156.099 32.4775 156.117 29.3424 154.198 27.3964C152.279 25.4505 149.144 25.4325 147.198 27.3514C145.252 29.2703 145.234 32.4054 147.153 34.3514C149.072 36.2973 152.207 36.3154 154.153 34.3964ZM154.153 68.6036C156.099 66.6847 156.117 63.5496 154.198 61.6036C152.279 59.6577 149.144 59.6397 147.198 61.5586C145.252 63.4775 145.234 66.6126 147.153 68.5586C149.072 70.5045 152.207 70.5226 154.153 68.6036ZM164.748 37.3424C160.478 37.3874 156.829 39.946 155.171 43.6036C153.838 45.4145 151.973 46.8649 149.712 46.8649L145.072 46.8829C142.784 46.937 141.324 45.4595 139.694 43.5136C138.369 41.8919 136.333 40.8739 134.081 40.928C130.189 41.0181 127.108 44.2523 127.198 48.1442C127.288 52.0361 130.523 55.1172 134.414 55.0271C136.532 54.982 138.396 54 139.658 52.4955C139.658 52.4955 139.685 52.4685 139.703 52.4415C139.865 52.2433 140.027 52.0271 140.171 51.8109C141.414 50.2523 143.081 49.0541 145.081 48.991L150.27 49.0091C152.252 49.2253 153.739 50.5856 155.18 52.3784C156.874 56.0901 160.622 58.6577 164.964 58.6127C170.838 58.5496 175.55 53.7478 175.496 47.8739C175.432 42 170.631 37.2883 164.757 37.3424H164.748Z" fill="url(#paint0_linear_395_377)"/>
<path d="M119.838 68.8919L130.694 98.2072" stroke="#1D1D1B" stroke-width="0.8" stroke-miterlimit="10"/>
<path d="M127.82 5.97297C129.193 5.97297 130.306 4.85973 130.306 3.48649C130.306 2.11323 129.193 1 127.82 1C126.447 1 125.333 2.11323 125.333 3.48649C125.333 4.85973 126.447 5.97297 127.82 5.97297Z" fill="#E30A18"/>
<path d="M114.739 34.6667C116.112 34.6667 117.225 33.5535 117.225 32.1802C117.225 30.807 116.112 29.6937 114.739 29.6937C113.365 29.6937 112.252 30.807 112.252 32.1802C112.252 33.5535 113.365 34.6667 114.739 34.6667Z" fill="#E30A18"/>
<path d="M95.9369 21.1802C97.3102 21.1802 98.4234 20.0669 98.4234 18.6937C98.4234 17.3205 97.3102 16.2072 95.9369 16.2072C94.5637 16.2072 93.4504 17.3205 93.4504 18.6937C93.4504 20.0669 94.5637 21.1802 95.9369 21.1802Z" fill="#E30A18"/>
<path d="M121.928 51.1712C123.301 51.1712 124.414 50.0579 124.414 48.6847C124.414 47.3114 123.301 46.1982 121.928 46.1982C120.555 46.1982 119.441 47.3114 119.441 48.6847C119.441 50.0579 120.555 51.1712 121.928 51.1712Z" fill="#E30A18"/>
<path d="M119.441 70.1081C120.815 70.1081 121.928 68.9949 121.928 67.6216C121.928 66.2484 120.815 65.1351 119.441 65.1351C118.068 65.1351 116.955 66.2484 116.955 67.6216C116.955 68.9949 118.068 70.1081 119.441 70.1081Z" fill="#E30A18"/>
<path d="M93.7748 82.5135C95.1481 82.5135 96.2613 81.4003 96.2613 80.027C96.2613 78.6538 95.1481 77.5405 93.7748 77.5405C92.4016 77.5405 91.2883 78.6538 91.2883 80.027C91.2883 81.4003 92.4016 82.5135 93.7748 82.5135Z" fill="#E30A18"/>
<path d="M130.297 99.9279C131.671 99.9279 132.784 98.8144 132.784 97.4414C132.784 96.0685 131.671 94.955 130.297 94.955C128.924 94.955 127.811 96.0685 127.811 97.4414C127.811 98.8144 128.924 99.9279 130.297 99.9279Z" fill="#E30A18"/>
<path d="M78.4865 51.1712C79.8597 51.1712 80.973 50.0579 80.973 48.6847C80.973 47.3114 79.8597 46.1982 78.4865 46.1982C77.1132 46.1982 76 47.3114 76 48.6847C76 50.0579 77.1132 51.1712 78.4865 51.1712Z" fill="#E30A18"/>
<defs>
<linearGradient id="paint0_linear_395_377" x1="127" y1="47.982" x2="246.135" y2="47.982" gradientUnits="userSpaceOnUse">
<stop stop-color="#E30613"/>
<stop offset="0.1" stop-color="#D10A19"/>
<stop offset="0.38" stop-color="#A81628"/>
<stop offset="0.63" stop-color="#8A1E33"/>
<stop offset="0.84" stop-color="#78233A"/>
<stop offset="0.99" stop-color="#72253D"/>
</linearGradient>
</defs>
</svg>
