<svg width="500" height="100" viewBox="0 0 500 100" fill="none" xmlns="http://www.w3.org/2000/svg">
<path d="M132.884 19.9036C141.211 19.9036 145.544 21.1128 148.628 23.6265C153.309 27.3494 157.302 34.5098 157.302 52.4516C157.302 70.3937 153.309 77.5541 148.628 81.2769C145.551 83.7839 141.218 84.9933 132.884 84.9933H106.298C97.9717 84.9933 93.6381 83.7839 90.5544 81.2769C85.8807 77.5541 81.8872 70.4003 81.8872 52.4516C81.8872 34.503 85.8807 27.3494 90.5544 23.6265C93.6381 21.1128 97.9717 19.9036 106.298 19.9036H132.884ZM109.264 69.0893C109.952 69.6463 111.091 69.8297 114.507 69.8297H124.661C128.085 69.8297 129.224 69.6463 129.911 69.0893C130.71 68.437 132.078 66.6709 132.078 52.445C132.078 38.2191 130.71 36.4528 129.911 35.8006C129.231 35.2436 128.092 35.0533 124.661 35.0533H114.507C111.084 35.0533 109.945 35.2436 109.264 35.8006C108.465 36.446 107.097 38.2191 107.097 52.445C107.097 66.6709 108.465 68.437 109.264 69.0893Z" fill="black"/>
<path d="M228.008 84.9933C222.758 84.9933 220.25 83.7839 217.514 80.2512L192.867 47.8048H192.297V84.9999H169.136V19.9036H190.019C195.263 19.9036 197.888 21.1128 200.513 24.6455L221.278 53.1923H221.855V19.9036H245.016V84.9933H228.008Z" fill="black"/>
<path d="M27.5016 19.9036H3V84.9933H27.5016V19.9036Z" fill="black"/>
<path d="M363.031 70.9507L358.126 84.9933H333.597L357.787 25.7665C359.836 20.8411 360.751 19.6318 366.227 19.6318H385.851C391.332 19.6318 392.352 20.9362 394.296 25.7665L418.486 84.9933H392.589L387.567 70.9507H363.031ZM367.823 57.0034H382.769L375.926 37.8455H374.669L367.823 57.0034Z" fill="black"/>
<path d="M323.638 81.2702C320.557 83.7839 316.34 84.9933 308.006 84.9933H281.31C272.983 84.9933 268.649 83.7839 265.566 81.2702C260.885 77.5475 256.892 70.3937 256.892 52.445C256.892 34.4962 260.885 27.3426 265.566 23.6197C268.643 21.1128 272.976 19.9036 281.31 19.9036H308.006C316.34 19.9036 320.557 21.1128 323.638 23.6197C327.631 26.8738 329.569 32.5465 329.8 45.6582H306.867C306.527 37.5669 305.611 36.3577 304.93 35.8006C304.242 35.2436 303.103 35.0533 299.679 35.0533H289.526C286.102 35.0533 284.963 35.2436 284.276 35.8006C283.477 36.446 282.109 38.2191 282.109 52.438C282.109 66.6573 283.477 68.4303 284.276 69.0823C284.956 69.6397 286.102 69.823 289.526 69.823H299.679C303.103 69.823 304.242 69.6397 304.93 69.0823C305.611 68.5253 306.527 67.3163 306.867 58.9465H329.8C329.569 72.2414 327.745 78.0092 323.638 81.2636" fill="black"/>
<path d="M317.465 9H269.226V13.3207H317.465V9Z" fill="black"/>
<path d="M496.852 68.8106C496.922 59.4151 491.253 57.2821 483.267 55.7944V55.6107C492.51 54.123 496.956 50.5019 496.956 38.4094C496.956 29.3875 495.25 26.1333 491.706 23.2528C488.622 20.7392 484.179 19.9036 476.193 19.9036H425.193V84.9933H449.681V36.0452H449.725V34.6865H462.962C467.411 34.6865 468.551 34.8767 469.349 35.4338C470.489 36.2694 471.17 37.7572 471.17 41.5684C471.17 45.3795 470.6 46.9625 469.349 47.8932C468.662 48.4502 467.411 48.6405 462.962 48.6405H454.225V62.6828H461.705C466.724 62.6828 467.753 63.0565 468.893 63.8922C470.15 64.8162 471.775 65.7469 471.753 70.584C471.734 76.1614 471.753 79.6467 471.734 84.9933H496.852C496.852 81.3177 496.804 75.2646 496.852 68.8106Z" fill="black"/>
<path d="M47.9824 80.2512C50.9685 83.777 53.7118 84.9863 58.9273 84.9933H80.5608L50.2117 50.5903L78.7342 19.9036H52.2672L31.7937 43.0358V60.774L45.7182 77.5269L47.9824 80.2446V80.2512Z" fill="black"/>
</svg>
