<svg width="501" height="100" viewBox="0 0 501 100" fill="none" xmlns="http://www.w3.org/2000/svg">
<path d="M133.384 19.9036C141.711 19.9036 146.044 21.1128 149.128 23.6265C153.809 27.3494 157.802 34.5098 157.802 52.4516C157.802 70.3937 153.809 77.5541 149.128 81.2769C146.051 83.7839 141.718 84.9933 133.384 84.9933H106.798C98.4717 84.9933 94.1381 83.7839 91.0544 81.2769C86.3807 77.5541 82.3872 70.4003 82.3872 52.4516C82.3872 34.503 86.3807 27.3494 91.0544 23.6265C94.1381 21.1128 98.4717 19.9036 106.798 19.9036H133.384ZM109.764 69.0893C110.452 69.6463 111.591 69.8297 115.007 69.8297H125.161C128.585 69.8297 129.724 69.6463 130.411 69.0893C131.21 68.437 132.578 66.6709 132.578 52.445C132.578 38.2191 131.21 36.4528 130.411 35.8006C129.731 35.2436 128.592 35.0533 125.161 35.0533H115.007C111.584 35.0533 110.445 35.2436 109.764 35.8006C108.965 36.446 107.597 38.2191 107.597 52.445C107.597 66.6709 108.965 68.437 109.764 69.0893Z" fill="#6E7071"/>
<path d="M228.508 84.9933C223.258 84.9933 220.75 83.7839 218.014 80.2512L193.367 47.8048H192.797V84.9999H169.636V19.9036H190.519C195.763 19.9036 198.388 21.1128 201.013 24.6455L221.778 53.1923H222.355V19.9036H245.516V84.9933H228.508Z" fill="#6E7071"/>
<path d="M28.0016 19.9036H3.5V84.9933H28.0016V19.9036Z" fill="#6E7071"/>
<path d="M363.531 70.9507L358.626 84.9933H334.097L358.287 25.7665C360.336 20.8411 361.251 19.6318 366.727 19.6318H386.351C391.832 19.6318 392.852 20.9362 394.796 25.7665L418.986 84.9933H393.089L388.067 70.9507H363.531ZM368.323 57.0034H383.269L376.426 37.8455H375.169L368.323 57.0034Z" fill="#6E7071"/>
<path d="M324.138 81.2702C321.057 83.7839 316.84 84.9933 308.506 84.9933H281.81C273.483 84.9933 269.149 83.7839 266.066 81.2702C261.385 77.5475 257.392 70.3937 257.392 52.445C257.392 34.4962 261.385 27.3426 266.066 23.6197C269.143 21.1128 273.476 19.9036 281.81 19.9036H308.506C316.84 19.9036 321.057 21.1128 324.138 23.6197C328.131 26.8738 330.069 32.5465 330.3 45.6582H307.367C307.027 37.5669 306.111 36.3577 305.43 35.8006C304.742 35.2436 303.603 35.0533 300.179 35.0533H290.026C286.602 35.0533 285.463 35.2436 284.776 35.8006C283.977 36.446 282.609 38.2191 282.609 52.438C282.609 66.6573 283.977 68.4303 284.776 69.0823C285.456 69.6397 286.602 69.823 290.026 69.823H300.179C303.603 69.823 304.742 69.6397 305.43 69.0823C306.111 68.5253 307.027 67.3163 307.367 58.9465H330.3C330.069 72.2414 328.245 78.0092 324.138 81.2636" fill="#6E7071"/>
<path d="M317.965 9H269.726V13.3207H317.965V9Z" fill="#6E7071"/>
<path d="M497.352 68.8106C497.422 59.4151 491.753 57.2821 483.767 55.7944V55.6107C493.01 54.123 497.456 50.5019 497.456 38.4094C497.456 29.3875 495.75 26.1333 492.206 23.2528C489.122 20.7392 484.679 19.9036 476.693 19.9036H425.693V84.9933H450.181V36.0452H450.225V34.6865H463.462C467.911 34.6865 469.051 34.8767 469.849 35.4338C470.989 36.2694 471.67 37.7572 471.67 41.5684C471.67 45.3795 471.1 46.9625 469.849 47.8932C469.162 48.4502 467.911 48.6405 463.462 48.6405H454.725V62.6828H462.205C467.224 62.6828 468.253 63.0565 469.393 63.8922C470.65 64.8162 472.275 65.7469 472.253 70.584C472.234 76.1614 472.253 79.6467 472.234 84.9933H497.352C497.352 81.3177 497.304 75.2646 497.352 68.8106Z" fill="#6E7071"/>
<path d="M48.4824 80.2512C51.4685 83.777 54.2118 84.9863 59.4273 84.9933H81.0608L50.7117 50.5903L79.2342 19.9036H52.7672L32.2937 43.0358V60.774L46.2182 77.5269L48.4824 80.2446V80.2512Z" fill="#6E7071"/>
</svg>
