<svg width="500" height="100" viewBox="0 0 500 100" fill="none" xmlns="http://www.w3.org/2000/svg">
<path d="M151.668 3V81.1101L136.227 96.2748H58V3H151.668ZM92.2004 71.5497C92.5939 71.9644 96.2734 69.8482 96.8689 69.4653C108.652 62 119.701 43.3471 117.691 29.1395C117.489 27.6932 116.713 27.0658 115.298 26.9382C109.34 26.9382 109.556 26.9382 105.834 26.9382C93.9028 26.9382 105.834 26.9382 93.9028 26.9382C92.4884 27.1083 92.5513 28.2675 92.4237 29.6074C92.0409 33.808 92.2323 38.8487 92.1685 43.1132C92.0303 52.5778 92.2961 62.0744 92.1791 71.5391L92.2004 71.5497Z" fill="#828282"/>
<path d="M265.499 65.1796C260.778 71.6986 254.567 78.2919 247.963 82.9711C245.049 85.0448 241.944 86.9484 238.445 87.8629C238.562 71.5922 238.275 55.3215 238.435 39.0508C238.498 32.0108 238.084 22.9077 238.69 16.1123C238.924 13.4643 240.296 12.135 242.901 11.9117C252.983 11.0503 264.361 12.2307 274.571 11.6777C276.729 11.263 279.92 11.1354 281.036 13.358C282.525 16.3143 281.738 25.0665 281.292 28.5759C280.377 35.7647 277.963 43.4322 274.911 49.983C273.656 52.6735 271.976 55.1939 270.87 57.895L284.705 85.8849L284.875 87.1717C284.79 87.4269 284.567 87.5545 284.333 87.6609C283.663 87.9693 278.622 87.9693 277.623 87.8523C277.133 87.7991 276.697 87.7247 276.368 87.3206L265.51 65.1584L265.499 65.1796ZM246.102 74.6018C246.985 74.4423 247.953 73.549 248.654 72.9534C261.916 61.6384 275.921 38.3808 274.188 20.4405C274.071 19.2494 273.964 19.1537 272.784 19.0368C266.35 18.4093 259.129 19.8662 252.6 19.292C251.59 19.8662 246.102 19.0474 246.102 20.1959V74.6018Z" fill="#828282"/>
<path d="M387.179 11.9755C387.413 12.2094 387.711 13.4218 387.753 13.8259C389.04 26.7574 385.924 39.9441 380.309 51.5037C379.724 52.7054 376.97 57.023 377.034 57.8951L390.954 86.0763C391.263 87.5333 390.688 87.7672 389.412 87.8736C388.03 87.9905 384.829 88.0544 383.521 87.8736C383.17 87.831 382.851 87.8204 382.627 87.4907L371.791 65.1796C367.707 70.5075 363.156 75.6227 357.998 79.9509C354.095 83.2263 349.554 86.4485 344.609 87.8523C344.843 68.2743 344.29 48.675 344.599 29.0969C344.662 25.0878 344.46 19.3877 344.864 15.6018C345.269 11.816 349.001 11.5395 352.032 12.018L352.277 12.5391L352.404 74.6018C353.319 74.2508 354.329 73.3682 355.084 72.6876C367.75 61.4151 379.405 42.5176 380.341 25.2792C380.511 22.259 379.809 16.7716 380.469 14.1874C380.713 13.2091 381.628 12.0287 382.638 11.7628C383.414 11.5607 386.69 11.465 387.179 11.9542V11.9755Z" fill="#828282"/>
<path d="M192.249 74.6018C192.611 74.9953 196.631 71.3689 197.099 70.9116C208.297 60.1602 219.357 42.071 220.314 26.3107C220.526 22.8439 220.005 19.0049 220.314 15.6018C220.452 14.0599 221.09 12.0925 222.802 11.7096C223.355 11.5927 226.343 11.5501 226.79 11.699C227.683 12.0074 227.917 14.9744 227.981 15.8677C228.757 27.1083 225.95 39.306 221.313 49.4726C220.005 52.3439 218.251 55.0557 217.017 57.8951C220.069 64.4459 223.525 70.8159 226.673 77.3136C227.301 78.6003 231.076 86.0764 231.065 86.7144C231.065 87.4908 230.576 87.7247 229.874 87.8417C228.928 87.9906 223.142 87.9799 222.685 87.5439L211.774 65.1797C204.702 74.3891 195.844 83.992 184.593 87.863C184.688 73.2938 184.465 58.7139 184.582 44.1447C184.656 34.6801 185.06 25.1303 184.869 15.6337C185.294 13.3154 186.709 12.1244 189.048 11.9011C189.942 11.816 191.601 11.7203 192.249 12.2945V74.6018Z" fill="#828282"/>
<path d="M398.473 87.8629C398.569 72.6982 398.335 57.5228 398.462 42.3581C398.462 41.6349 398.739 41.0075 398.739 40.3375C398.802 32.6914 398.058 23.5138 398.717 16.1016C398.951 13.4536 400.323 12.1243 402.929 11.901C413.095 11.029 424.559 12.22 434.853 11.6671C437.342 11.1566 440.702 11.2842 441.489 14.1981C442.648 18.5369 441.585 27.523 440.766 32.0958C437.31 51.2166 423.719 71.9325 407.852 83.0774C404.97 85.098 401.94 86.9803 398.483 87.8629H398.473ZM406.13 20.1959V74.6017C406.927 74.4848 407.81 73.7297 408.427 73.198C420.965 62.5955 433.333 42.4538 434.215 25.8109C434.268 24.875 434.396 19.175 433.779 19.0367L407.034 19.5685C406.746 19.5791 406.193 19.9832 406.13 20.1959Z" fill="#828282"/>
<path d="M292.298 87.8629L292.543 16.3675C292.766 13.7833 293.851 12.2945 296.51 11.9117C307.899 12.1456 319.363 11.4118 330.71 11.3799C334.23 11.3693 335.432 13.0602 335.698 16.3675C337.601 40.4439 322.458 67.0407 303.901 81.4823C300.423 84.1834 296.605 86.725 292.298 87.8629ZM299.955 20.4511V74.6018C301.476 74.0275 303.092 72.5493 304.294 71.4221C315.8 60.6813 327.158 42.0603 328.041 26.0661C328.094 25.109 328.222 19.175 327.605 19.0367C318.544 19.1112 309.473 19.2175 300.466 19.6854C300.349 19.7599 299.976 20.3235 299.955 20.4511Z" fill="#828282"/>
</svg>
