<svg width="500" height="100" viewBox="0 0 500 100" fill="none" xmlns="http://www.w3.org/2000/svg">
<mask id="mask0_3_140" style="mask-type:luminance" maskUnits="userSpaceOnUse" x="60" y="0" width="381" height="100">
<path d="M440.556 0H60V100H440.556V0Z" fill="white"/>
</mask>
<g mask="url(#mask0_3_140)">
<path d="M339.292 96.3956V90.8986H347.781V87.5906H339.292V82.4797H349.781V79.1706H335.668V99.7019H349.781V96.3939L339.292 96.3956ZM309.214 82.5447C309.7 82.5161 310.186 82.5889 310.643 82.7586C311.099 82.9283 311.517 83.1914 311.871 83.5317C312.224 83.8717 312.506 84.2819 312.698 84.7372C312.891 85.1922 312.99 85.6825 312.99 86.1781C312.99 86.6739 312.891 87.1642 312.698 87.6192C312.506 88.0744 312.224 88.4847 311.871 88.8247C311.517 89.165 311.099 89.4281 310.643 89.5978C310.186 89.7675 309.7 89.8403 309.214 89.8117H303.796V82.5447H309.214ZM300.174 99.7075H303.796V93.1497H309.185C313.706 93.1497 316.632 90.4022 316.632 86.1183C316.632 81.9236 313.677 79.1761 309.185 79.1761H300.172L300.174 99.7075ZM262.882 79.1761V91.7611C262.882 96.8125 266.476 100.004 271.575 100.004C276.674 100.004 280.268 96.8125 280.268 91.7908V79.1761H276.675V91.7908C276.675 94.5681 274.763 96.5767 271.577 96.5767C268.448 96.5767 266.507 94.5681 266.507 91.7611V79.1725L262.882 79.1761ZM233.618 96.5767C231.81 96.5039 230.1 95.7203 228.846 94.3903C227.592 93.0603 226.891 91.2872 226.891 89.4422C226.891 87.5975 227.592 85.8242 228.846 84.4942C230.1 83.1642 231.81 82.3808 233.618 82.3081C237.414 82.3081 240.311 85.2328 240.311 89.4553C240.356 90.3775 240.217 91.2997 239.901 92.1653C239.584 93.0306 239.098 93.8208 238.471 94.4875C237.844 95.1544 237.091 95.6833 236.256 96.0422C235.421 96.4011 234.524 96.5844 233.618 96.5767ZM233.618 78.8792C231.571 78.8878 229.574 79.5142 227.876 80.6792C226.178 81.8442 224.857 83.4958 224.079 85.4256C223.301 87.3553 223.101 89.4767 223.505 91.5219C223.908 93.5675 224.897 95.4453 226.346 96.9186C227.795 98.3917 229.639 99.3944 231.646 99.8003C233.654 100.206 235.734 99.9964 237.625 99.1981C239.515 98.3994 241.132 97.048 242.27 95.3142C243.408 93.5803 244.017 91.5417 244.02 89.4553C244.05 88.0553 243.802 86.6636 243.29 85.3644C242.778 84.0653 242.012 82.8856 241.04 81.8967C240.067 80.9078 238.908 80.1306 237.632 79.6119C236.357 79.0933 234.991 78.8439 233.618 78.8792ZM197.311 82.5447C199.745 82.5447 201.078 84.0214 201.078 85.8864C201.078 87.8356 199.774 89.3133 197.311 89.3133H192.472V82.5447H197.311ZM188.851 99.7075H192.472V92.6772H196.616L201.744 99.7075H206.033L200.206 91.8789C201.533 91.5336 202.705 90.7361 203.527 89.6189C204.349 88.5014 204.772 87.1311 204.726 85.735C204.726 81.7436 201.8 79.1761 197.279 79.1761H188.848L188.851 99.7075ZM169.408 88.5689H160.744V91.6117H166.016V95.6883C164.647 96.3361 163.149 96.6497 161.641 96.6044C157.498 96.6044 154.426 93.9453 154.426 89.4256C154.398 88.4881 154.557 87.5542 154.895 86.6814C155.232 85.8086 155.74 85.015 156.388 84.3489C157.036 83.6828 157.81 83.1583 158.663 82.8069C159.516 82.4558 160.431 82.2853 161.351 82.3061C162.392 82.2739 163.429 82.4561 164.4 82.8419C165.371 83.2278 166.256 83.8092 167.001 84.5514L169.146 81.8039C167.016 79.8386 164.222 78.7906 161.351 78.8792C155.324 78.8792 150.746 83.34 150.746 89.4256C150.746 95.8358 155.266 100.002 161.641 100.002C164.396 100.03 167.097 99.2286 169.406 97.6969L169.408 88.5689Z" fill="#828282"/>
<path d="M267.036 65.4747H316.143V59.3622H275.451V39.7894H306.015V33.6031H275.451V15.5749H316.139V9.47827H267.036V65.4747Z" fill="#828282"/>
<path d="M292.554 0.427063L285.908 8.03854L306.78 0.427063H292.554Z" fill="#828282"/>
<path d="M390.911 9.47995V65.4725H440.556V59.3603H398.583V9.47995H390.911Z" fill="#828282"/>
<path d="M347.964 9.47995L320.039 65.4753H329.478L336.622 50.9819H370.117L377.322 65.4753H386.667L358.714 9.47995H347.964ZM340.156 43.9645L353.314 17.2186L366.631 43.9645H340.156Z" fill="#828282"/>
<path d="M240.386 42.0628C252.969 38.6403 254.19 29.0908 254.128 25.6795C253.378 15.6778 246.766 9.48096 234.889 9.48096H200.271V65.4736H208.163V41.9811H230.698L247.275 65.4653H257.225C257.225 65.4653 245.298 49.6583 240.386 42.0544V42.0628ZM233.81 35.36H208.163V16.1085H234.706C240.811 16.1085 244.252 19.0158 245.489 22.7101C245.858 24.0671 245.954 25.486 245.772 26.8818C245.59 28.2775 245.133 29.6214 244.429 30.8331C242.211 34.5756 237.998 35.3683 233.81 35.3683" fill="#828282"/>
<path d="M152.581 63.2467C137.169 63.2467 124.473 50.6228 124.473 35.4119C124.473 20.2196 136.569 6.9905 153.178 6.9905C156.858 6.95947 160.508 7.67178 163.917 9.08625C167.325 10.5007 170.425 12.5894 173.038 15.2317C175.651 17.874 177.724 21.0177 179.139 24.4813C180.554 27.945 181.283 31.66 181.282 35.4119C181.282 50.6211 167.989 63.2467 152.581 63.2467ZM152.848 0C130.574 0 115.39 16.0129 115.39 35.3925C115.39 55.7958 132.164 70.2011 152.848 70.2011C173.532 70.2011 190.287 56.0039 190.287 35.3925C190.287 16.0129 174.918 0 152.848 0Z" fill="#828282"/>
<path d="M95.5176 29.2883H101.21L111.546 9.48096H103.229L95.5176 29.2883Z" fill="#828282"/>
<path d="M60 9.47995V65.4725H109.64V59.3603H67.6796V9.47995H60Z" fill="#828282"/>
</g>
</svg>
