<svg width="501" height="100" viewBox="0 0 501 100" fill="none" xmlns="http://www.w3.org/2000/svg">
<mask id="mask0_3_140" style="mask-type:luminance" maskUnits="userSpaceOnUse" x="60" y="0" width="382" height="100">
<path d="M441.056 0H60.5V100H441.056V0Z" fill="white"/>
</mask>
<g mask="url(#mask0_3_140)">
<path d="M339.792 96.3956V90.8986H348.281V87.5906H339.792V82.4797H350.281V79.1706H336.168V99.7019H350.281V96.3939L339.792 96.3956ZM309.714 82.5447C310.2 82.5161 310.686 82.5889 311.143 82.7586C311.599 82.9283 312.017 83.1914 312.371 83.5317C312.724 83.8717 313.006 84.2819 313.198 84.7372C313.391 85.1922 313.49 85.6825 313.49 86.1781C313.49 86.6739 313.391 87.1642 313.198 87.6192C313.006 88.0744 312.724 88.4847 312.371 88.8247C312.017 89.165 311.599 89.4281 311.143 89.5978C310.686 89.7675 310.2 89.8403 309.714 89.8117H304.296V82.5447H309.714ZM300.674 99.7075H304.296V93.1497H309.685C314.206 93.1497 317.132 90.4022 317.132 86.1183C317.132 81.9236 314.177 79.1761 309.685 79.1761H300.672L300.674 99.7075ZM263.382 79.1761V91.7611C263.382 96.8125 266.976 100.004 272.075 100.004C277.174 100.004 280.768 96.8125 280.768 91.7908V79.1761H277.175V91.7908C277.175 94.5681 275.263 96.5767 272.077 96.5767C268.948 96.5767 267.007 94.5681 267.007 91.7611V79.1725L263.382 79.1761ZM234.118 96.5767C232.31 96.5039 230.6 95.7203 229.346 94.3903C228.092 93.0603 227.391 91.2872 227.391 89.4422C227.391 87.5975 228.092 85.8242 229.346 84.4942C230.6 83.1642 232.31 82.3808 234.118 82.3081C237.914 82.3081 240.811 85.2328 240.811 89.4553C240.856 90.3775 240.717 91.2997 240.401 92.1653C240.084 93.0306 239.598 93.8208 238.971 94.4875C238.344 95.1544 237.591 95.6833 236.756 96.0422C235.921 96.4011 235.024 96.5844 234.118 96.5767ZM234.118 78.8792C232.071 78.8878 230.074 79.5142 228.376 80.6792C226.678 81.8442 225.357 83.4958 224.579 85.4256C223.801 87.3553 223.601 89.4767 224.005 91.5219C224.408 93.5675 225.397 95.4453 226.846 96.9186C228.295 98.3917 230.139 99.3944 232.146 99.8003C234.154 100.206 236.234 99.9964 238.125 99.1981C240.015 98.3994 241.632 97.048 242.77 95.3142C243.908 93.5803 244.517 91.5417 244.52 89.4553C244.55 88.0553 244.302 86.6636 243.79 85.3644C243.278 84.0653 242.512 82.8856 241.54 81.8967C240.567 80.9078 239.408 80.1306 238.132 79.6119C236.857 79.0933 235.491 78.8439 234.118 78.8792ZM197.811 82.5447C200.245 82.5447 201.578 84.0214 201.578 85.8864C201.578 87.8356 200.274 89.3133 197.811 89.3133H192.972V82.5447H197.811ZM189.351 99.7075H192.972V92.6772H197.116L202.244 99.7075H206.533L200.706 91.8789C202.033 91.5336 203.205 90.7361 204.027 89.6189C204.849 88.5014 205.272 87.1311 205.226 85.735C205.226 81.7436 202.3 79.1761 197.779 79.1761H189.348L189.351 99.7075ZM169.908 88.5689H161.244V91.6117H166.516V95.6883C165.147 96.3361 163.649 96.6497 162.141 96.6044C157.998 96.6044 154.926 93.9453 154.926 89.4256C154.898 88.4881 155.057 87.5542 155.395 86.6814C155.732 85.8086 156.24 85.015 156.888 84.3489C157.536 83.6828 158.31 83.1583 159.163 82.8069C160.016 82.4558 160.931 82.2853 161.851 82.3061C162.892 82.2739 163.929 82.4561 164.9 82.8419C165.871 83.2278 166.756 83.8092 167.501 84.5514L169.646 81.8039C167.516 79.8386 164.722 78.7906 161.851 78.8792C155.824 78.8792 151.246 83.34 151.246 89.4256C151.246 95.8358 155.766 100.002 162.141 100.002C164.896 100.03 167.597 99.2286 169.906 97.6969L169.908 88.5689Z" fill="#5A5D5E"/>
<path d="M267.536 65.4747H316.643V59.3622H275.951V39.7894H306.515V33.6031H275.951V15.5749H316.639V9.47826H267.536V65.4747Z" fill="#5A5D5E"/>
<path d="M293.054 0.427078L286.408 8.03856L307.28 0.427078H293.054Z" fill="#5A5D5E"/>
<path d="M391.411 9.47995V65.4725H441.056V59.3603H399.083V9.47995H391.411Z" fill="#5A5D5E"/>
<path d="M348.464 9.47995L320.539 65.4753H329.978L337.122 50.9819H370.617L377.822 65.4753H387.167L359.214 9.47995H348.464ZM340.656 43.9645L353.814 17.2186L367.131 43.9645H340.656Z" fill="#5A5D5E"/>
<path d="M240.886 42.0628C253.469 38.6403 254.69 29.0908 254.628 25.6795C253.878 15.6778 247.266 9.48097 235.389 9.48097H200.771V65.4736H208.663V41.9811H231.198L247.775 65.4653H257.725C257.725 65.4653 245.798 49.6583 240.886 42.0544V42.0628ZM234.31 35.36H208.663V16.1085H235.206C241.311 16.1085 244.752 19.0158 245.989 22.7101C246.358 24.0671 246.454 25.486 246.272 26.8818C246.09 28.2775 245.633 29.6214 244.929 30.8331C242.711 34.5756 238.498 35.3683 234.31 35.3683" fill="#5A5D5E"/>
<path d="M153.081 63.2467C137.669 63.2467 124.973 50.6228 124.973 35.4119C124.973 20.2196 137.069 6.9905 153.678 6.9905C157.358 6.95947 161.008 7.67178 164.417 9.08625C167.825 10.5007 170.925 12.5894 173.538 15.2317C176.151 17.874 178.224 21.0177 179.639 24.4813C181.054 27.945 181.783 31.66 181.782 35.4119C181.782 50.6211 168.489 63.2467 153.081 63.2467ZM153.348 0C131.074 0 115.89 16.0129 115.89 35.3925C115.89 55.7958 132.664 70.2011 153.348 70.2011C174.032 70.2011 190.787 56.0039 190.787 35.3925C190.787 16.0129 175.418 0 153.348 0Z" fill="#5A5D5E"/>
<path d="M96.0175 29.2883H101.71L112.046 9.48097H103.729L96.0175 29.2883Z" fill="#5A5D5E"/>
<path d="M60.5 9.47995V65.4725H110.14V59.3603H68.1796V9.47995H60.5Z" fill="#5A5D5E"/>
</g>
</svg>
