<svg width="500" height="100" viewBox="0 0 500 100" fill="none" xmlns="http://www.w3.org/2000/svg">
<g clip-path="url(#clip0_20_159)">
<path d="M147.692 91.9748H153.054L153.108 91.1235C151.098 90.9424 151.025 90.8156 151.025 89.1944V79.9205L146.877 80.1741L146.823 81.0254C148.834 81.2065 149.114 81.596 149.114 83.036V88.9137C149.114 90.5892 149.015 91.0239 147.747 91.1326L147.692 91.9839V91.9748ZM148.978 75.7636C148.978 76.4066 149.44 77.0224 150.192 77.0224C150.835 77.0224 151.478 76.5605 151.478 75.8088C151.478 75.1386 150.962 74.5228 150.237 74.5228C149.594 74.5228 148.978 75.0119 148.978 75.7636ZM162.509 90.8699L169.238 81.1794L169.184 79.993H160.598V83.679L161.449 83.5794C161.603 81.9311 162.147 81.1069 163.867 81.1069H167.119L160.344 90.8518L160.426 91.9839H169.655V88.2978L168.803 88.3975C168.649 90.0458 168.106 90.8699 166.385 90.8699H162.518H162.509ZM181.627 86.1514V85.1462C181.627 83.0631 180.776 79.8118 177.018 79.8118C173.594 79.8118 171.81 82.9545 171.81 86.2058C171.81 90.1454 174.029 92.2103 177.298 92.2103C179.073 92.2103 181.166 91.6216 181.319 89.8646C180.187 90.408 179.028 90.6616 177.996 90.6616C175.75 90.6616 173.975 89.2941 173.821 86.1514H181.627ZM176.755 81.0707C178.82 81.0707 179.535 83.2896 179.562 85.0103H173.839C173.966 83.0541 174.744 81.0707 176.755 81.0707ZM189.081 91.9748L189.135 91.1235C187.125 90.9424 187.052 90.8156 187.052 89.1944V74.2964L182.904 74.55L182.85 75.4013C184.707 75.5824 185.141 75.9175 185.141 77.1039V89.3665C185.141 90.6525 184.906 91.042 183.774 91.1144L183.719 91.9658H189.081V91.9748ZM200.42 86.1514V85.1462C200.42 83.0631 199.568 79.8118 195.81 79.8118C192.387 79.8118 190.602 82.9545 190.602 86.2058C190.602 90.1454 192.821 92.2103 196.091 92.2103C197.866 92.2103 199.958 91.6216 200.112 89.8646C198.98 90.408 197.821 90.6616 196.788 90.6616C194.542 90.6616 192.767 89.2941 192.613 86.1514H200.42ZM195.547 81.0707C197.612 81.0707 198.328 83.2896 198.355 85.0103H192.631C192.758 83.0541 193.537 81.0707 195.547 81.0707ZM208.199 91.9748L208.254 91.1235C206.451 90.9695 206.171 90.8427 206.171 89.6292V82.3658C207.076 81.8496 207.819 81.4873 209.105 81.4873C211.016 81.4873 212.067 82.2571 212.067 84.7567L212.039 88.959C212.039 90.7341 211.804 91.042 210.672 91.1235L210.617 91.9748H215.979L216.033 91.1235C214.177 90.9695 213.95 90.8699 213.95 89.2669L213.977 83.7514C214.005 81.2247 212.329 79.8118 210.137 79.8118C208.616 79.8118 207.049 80.5364 206.116 82.1575V79.9115L202.023 80.165L201.968 81.0164C203.979 81.1975 204.26 81.5869 204.26 83.0269V89.3665C204.26 90.6525 204.024 91.042 202.892 91.1144L202.838 91.9658H208.199V91.9748ZM227.191 86.1514V85.1462C227.191 83.0631 226.34 79.8118 222.581 79.8118C219.158 79.8118 217.374 82.9545 217.374 86.2058C217.374 90.1454 219.593 92.2103 222.862 92.2103C224.637 92.2103 226.729 91.6216 226.883 89.8646C225.751 90.408 224.592 90.6616 223.559 90.6616C221.313 90.6616 219.538 89.2941 219.384 86.1514H227.191ZM222.319 81.0707C224.383 81.0707 225.099 83.2896 225.126 85.0103H219.402C219.529 83.0541 220.308 81.0707 222.319 81.0707ZM241.727 81.2065C242.143 81.2065 242.216 80.4367 242.216 79.993H238.322V77.6473H238.014L234.744 80.8715V81.2881H236.42L236.392 89.5567C236.392 91.6669 238.014 92.2103 239.435 92.2103C241.365 92.2103 242.551 91.1778 242.551 90.1997C242.008 90.5348 241.057 90.7431 240.287 90.7431C239.1 90.7431 238.303 90.2812 238.303 88.968L238.331 81.2156H241.736L241.727 81.2065ZM250.05 91.9748L250.104 91.1235C247.758 90.9967 247.396 90.8427 247.396 89.5295V82.4926C248.121 81.9039 248.818 81.5145 249.561 81.5145C250.72 81.5145 251.028 82.0307 251.182 83.8601L252.033 83.8058V79.8843C251.752 79.8299 251.463 79.8028 251.182 79.8028C249.606 79.8028 248.374 80.1107 247.342 82.2752V79.9024L243.402 80.156L243.348 81.0073C245.358 81.1884 245.485 81.5779 245.485 83.0179V88.8956C245.485 90.571 245.386 91.0058 244.172 91.1144L244.118 91.9658H250.041L250.05 91.9748ZM256.154 83.9054C255.946 83.4707 255.873 83.0813 255.873 82.7462C255.873 81.4873 257.114 81.0707 257.983 81.0707C259.45 81.0707 260.329 82.0488 260.275 83.8058L260.22 85.8163C256.145 86.2329 253.826 87.2111 253.826 89.4752C253.826 91.205 255.013 92.2284 256.897 92.2284C258.418 92.2284 259.858 91.2503 260.22 89.7288C260.22 91.0148 260.583 92.2012 262.077 92.2012C262.647 92.2012 263.78 91.8933 263.598 90.7069C262.412 90.888 262.05 90.5529 262.05 89.602L262.131 83.3439C262.158 80.5635 260.093 79.8118 258.237 79.8118C255.502 79.8118 254.116 81.433 254.116 82.6194C254.116 83.4435 254.605 84.0413 255.429 84.0413C255.638 84.0413 255.891 83.9869 256.154 83.9145V83.9054ZM257.73 90.7069C256.67 90.7069 255.9 90.2178 255.9 89.1582C255.9 87.2292 258.318 87.0933 260.202 86.7854L260.175 88.1982L260.202 89.5929C259.659 90.2903 258.654 90.6978 257.73 90.6978V90.7069ZM270.998 91.9748L271.052 91.1235C269.25 90.9695 268.969 90.8427 268.969 89.6292V82.3658C269.875 81.8496 270.617 81.4873 271.903 81.4873C273.814 81.4873 274.865 82.2571 274.865 84.7567L274.838 88.959C274.838 90.7341 274.602 91.042 273.47 91.1235L273.416 91.9748H278.777L278.832 91.1235C276.975 90.9695 276.749 90.8699 276.749 89.2669L276.776 83.7514C276.803 81.2247 275.127 79.8118 272.936 79.8118C271.414 79.8118 269.847 80.5364 268.915 82.1575V79.9115L264.821 80.165L264.767 81.0164C266.777 81.1975 267.058 81.5869 267.058 83.0269V89.3665C267.058 90.6525 266.823 91.042 265.69 91.1144L265.636 91.9658H270.998V91.9748ZM282.264 90.8699L288.993 81.1794L288.939 79.993H280.353V83.679L281.204 83.5794C281.358 81.9311 281.902 81.1069 283.622 81.1069H286.874L280.099 90.8518L280.181 91.9839H289.41V88.2978L288.558 88.3975C288.404 90.0458 287.861 90.8699 286.14 90.8699H282.273H282.264ZM291.792 91.9748H297.153L297.207 91.1235C295.197 90.9424 295.124 90.8156 295.124 89.1944V79.9205L290.976 80.1741L290.922 81.0254C292.933 81.2065 293.213 81.596 293.213 83.036V88.9137C293.213 90.5892 293.114 91.0239 291.846 91.1326L291.792 91.9839V91.9748ZM293.087 75.7636C293.087 76.4066 293.548 77.0224 294.3 77.0224C294.943 77.0224 295.586 76.5605 295.586 75.8088C295.586 75.1386 295.07 74.5228 294.345 74.5228C293.702 74.5228 293.087 75.0119 293.087 75.7636ZM306.97 84.3945L307.822 84.3401V80.4005C306.816 79.9839 305.322 79.8118 304.371 79.8118C300.785 79.8118 298.756 82.4654 298.756 86.2782C298.756 90.091 301.02 92.2012 304.244 92.2012C305.92 92.2012 307.668 91.685 308.139 89.7559C307.034 90.399 305.847 90.6797 304.715 90.6797C302.37 90.6797 300.748 88.9318 300.748 85.9341C300.748 83.3077 301.699 81.0616 304.38 81.0616C306.083 81.0616 306.599 81.9673 306.979 84.3854L306.97 84.3945ZM310.502 91.9748H315.864L315.918 91.1235C313.908 90.9424 313.835 90.8156 313.835 89.1944V79.9205L309.687 80.1741L309.633 81.0254C311.644 81.2065 311.924 81.596 311.924 83.036V88.9137C311.924 90.5892 311.825 91.0239 310.557 91.1326L310.502 91.9839V91.9748ZM311.797 75.7636C311.797 76.4066 312.259 77.0224 313.011 77.0224C313.654 77.0224 314.297 76.5605 314.297 75.8088C314.297 75.1386 313.781 74.5228 313.056 74.5228C312.413 74.5228 311.797 75.0119 311.797 75.7636ZM321.144 79.9115L316.579 80.165L316.525 81.0164C318.662 81.1703 319.233 81.5598 319.233 82.8186V91.1144C319.233 93.922 318.228 95.8601 316.217 97.0374C316.471 97.0646 316.733 97.0918 316.969 97.0918C319.342 97.0918 321.144 95.2623 321.144 91.839V79.9115ZM319.142 75.7636C319.142 76.4066 319.604 77.0224 320.356 77.0224C320.999 77.0224 321.642 76.5605 321.642 75.8088C321.642 75.1386 321.126 74.5228 320.401 74.5228C319.758 74.5228 319.142 75.0119 319.142 75.7636ZM334.059 86.1514V85.1462C334.059 83.0631 333.207 79.8118 329.449 79.8118C326.025 79.8118 324.241 82.9545 324.241 86.2058C324.241 90.1454 326.46 92.2103 329.729 92.2103C331.505 92.2103 333.597 91.6216 333.751 89.8646C332.618 90.408 331.459 90.6616 330.427 90.6616C328.181 90.6616 326.406 89.2941 326.252 86.1514H334.059ZM329.186 81.0707C331.251 81.0707 331.966 83.2896 331.994 85.0103H326.27C326.397 83.0541 327.176 81.0707 329.186 81.0707Z" fill="#828282"/>
<path d="M169.383 61.0013L169.437 60.0503C167.581 59.9507 167.119 59.7696 167.119 58.1213L167.064 46.9907C167.064 45.904 167.191 45.1613 169.229 45.0617L169.283 44.1108H164.284L158.461 58.076H158.361L152.203 44.1108H146.714L146.66 45.0617C148.906 45.2972 149.314 45.8134 149.286 46.9907L149.051 57.8405C149.024 59.5703 148.326 59.9507 146.986 60.0594L146.932 61.0103H153.914L153.969 60.0594C150.98 59.9598 150.618 59.7515 150.645 58.1303L150.799 46.4836H150.899L157.392 61.1733L158.606 61.119L164.864 46.4836H164.963L165.018 58.3115C165.018 59.5975 164.375 59.9869 162.283 60.0594L162.183 61.0103H169.374L169.383 61.0013ZM171.883 61.0013H177.244L177.298 60.1499C175.288 59.9688 175.215 59.842 175.215 58.2209V48.947L171.067 49.2006L171.013 50.0519C173.024 50.233 173.304 50.6224 173.304 52.0624V57.9401C173.304 59.6156 173.205 60.0503 171.937 60.159L171.883 61.0103V61.0013ZM173.169 44.79C173.169 45.433 173.63 46.0489 174.382 46.0489C175.025 46.0489 175.668 45.587 175.668 44.8353C175.668 44.1651 175.152 43.5493 174.427 43.5493C173.784 43.5493 173.169 44.0383 173.169 44.79ZM184.408 61.0013L184.462 60.1499C182.66 59.996 182.379 59.8692 182.379 58.6556V51.3922C183.285 50.876 184.027 50.5138 185.313 50.5138C187.224 50.5138 188.275 51.2836 188.275 53.7832L188.248 57.9854C188.248 59.7605 188.012 60.0684 186.88 60.1499L186.826 61.0013H192.187L192.242 60.1499C190.385 59.996 190.159 59.8964 190.159 58.2933L190.186 52.7779C190.213 50.2511 188.538 48.8383 186.346 48.8383C184.824 48.8383 183.258 49.5628 182.325 51.1839V48.9379L178.231 49.1915L178.177 50.0428C180.187 50.2239 180.468 50.6134 180.468 52.0534V58.393C180.468 59.679 180.233 60.0684 179.101 60.1409L179.046 60.9922H184.408V61.0013ZM193.818 61.0013H199.179L199.233 60.1499C197.223 59.9688 197.15 59.842 197.15 58.2209V48.947L193.002 49.2006L192.948 50.0519C194.959 50.233 195.239 50.6224 195.239 52.0624V57.9401C195.239 59.6156 195.14 60.0503 193.872 60.159L193.818 61.0103V61.0013ZM195.104 44.79C195.104 45.433 195.566 46.0489 196.317 46.0489C196.96 46.0489 197.603 45.587 197.603 44.8353C197.603 44.1651 197.087 43.5493 196.362 43.5493C195.719 43.5493 195.104 44.0383 195.104 44.79ZM204.532 59.9416C202.829 59.9416 201.978 59.2986 201.851 57.3877L200.999 57.442V60.6118C202.005 61.0284 203.753 61.2005 204.713 61.2005C207.91 61.2005 209.476 59.8873 209.476 57.596C209.476 53.0858 202.802 54.6798 202.802 51.9537C202.802 50.9213 203.707 50.0971 205.356 50.0971C207.004 50.0971 207.882 50.7402 208.036 52.6511L208.888 52.5968V49.427C207.882 49.0104 206.388 48.8383 205.437 48.8383C203.092 48.8383 200.981 49.8979 200.981 52.2617C200.981 56.4911 207.656 54.8881 207.656 57.8315C207.656 59.0903 206.705 59.9416 204.541 59.9416H204.532ZM218.298 50.2239C218.714 50.2239 218.787 49.4541 218.787 49.0104H214.892V46.6647H214.584L211.315 49.8888V50.3055H212.99L212.963 58.5741C212.963 60.6843 214.584 61.2277 216.006 61.2277C217.935 61.2277 219.122 60.1952 219.122 59.2171C218.578 59.5522 217.627 59.7605 216.857 59.7605C215.671 59.7605 214.874 59.2986 214.874 57.9854L214.901 50.233H218.307L218.298 50.2239ZM222.726 52.9319C222.518 52.4971 222.445 52.1077 222.445 51.7726C222.445 50.5138 223.686 50.0971 224.556 50.0971C226.023 50.0971 226.901 51.0753 226.847 52.8322L226.793 54.8428C222.717 55.2594 220.399 56.2375 220.399 58.5016C220.399 60.2314 221.585 61.2548 223.469 61.2548C224.99 61.2548 226.43 60.2767 226.793 58.7552C226.793 60.0413 227.155 61.2277 228.649 61.2277C229.22 61.2277 230.352 60.9197 230.171 59.7333C228.984 59.9145 228.622 59.5794 228.622 58.6284L228.703 52.3703C228.731 49.59 226.666 48.8383 224.809 48.8383C222.074 48.8383 220.688 50.4594 220.688 51.6458C220.688 52.47 221.177 53.0677 222.002 53.0677C222.21 53.0677 222.464 53.0134 222.726 52.9409V52.9319ZM224.302 59.7333C223.242 59.7333 222.473 59.2443 222.473 58.1847C222.473 56.2556 224.891 56.1198 226.774 55.8118L226.747 57.2247L226.774 58.6194C226.231 59.3167 225.226 59.7243 224.302 59.7243V59.7333ZM238.14 61.0013L238.195 60.1499C235.849 60.0231 235.487 59.8692 235.487 58.556V51.519C236.211 50.9304 236.9 50.5409 237.651 50.5409C238.811 50.5409 239.119 51.0571 239.272 52.8866L240.124 52.8322V48.9107C239.843 48.8564 239.553 48.8292 239.272 48.8292C237.697 48.8292 236.465 49.1372 235.433 51.3017V48.9289L231.493 49.1824L231.439 50.0338C233.449 50.2149 233.576 50.6043 233.576 52.0443V57.922C233.576 59.5975 233.476 60.0322 232.263 60.1409L232.208 60.9922H238.131L238.14 61.0013ZM245.766 59.9416C244.063 59.9416 243.212 59.2986 243.085 57.3877L242.234 57.442V60.6118C243.239 61.0284 244.987 61.2005 245.947 61.2005C249.144 61.2005 250.711 59.8873 250.711 57.596C250.711 53.0858 244.036 54.6798 244.036 51.9537C244.036 50.9213 244.942 50.0971 246.59 50.0971C248.239 50.0971 249.117 50.7402 249.271 52.6511L250.122 52.5968V49.427C249.117 49.0104 247.623 48.8383 246.672 48.8383C244.326 48.8383 242.216 49.8979 242.216 52.2617C242.216 56.4911 248.891 54.8881 248.891 57.8315C248.891 59.0903 247.94 59.9416 245.775 59.9416H245.766ZM259.523 50.2239C259.94 50.2239 260.012 49.4541 260.012 49.0104H256.118V46.6647H255.81L252.54 49.8888V50.3055H254.216L254.189 58.5741C254.189 60.6843 255.81 61.2277 257.232 61.2277C259.161 61.2277 260.347 60.1952 260.347 59.2171C259.804 59.5522 258.853 59.7605 258.083 59.7605C256.897 59.7605 256.1 59.2986 256.1 57.9854L256.127 50.233H259.532L259.523 50.2239ZM260.945 49.0104L260.863 49.8617C261.769 49.9432 261.968 50.1968 262.72 52.1077L266.225 61.1009L267.9 61.0013L271.152 52.0805C271.722 50.5047 271.849 49.9432 272.727 49.8617L272.782 49.0104H268.453L268.398 49.8617C269.639 49.9432 270.101 50.0428 270.101 50.6134C270.101 50.867 270.02 51.2292 269.847 51.7454L267.475 58.8548H267.375L264.64 51.7907C264.432 51.2473 264.305 50.8851 264.305 50.6043C264.305 50.0881 264.721 49.9613 265.672 49.8526L265.727 49.0013H260.963L260.945 49.0104ZM279.447 50.0971C281.893 50.0971 283.007 52.1802 283.007 55.0149C283.007 57.8496 281.847 59.9869 279.556 59.9869C277.138 59.9869 275.997 57.7681 275.997 54.9062C275.997 52.0443 277.238 50.0881 279.447 50.0881V50.0971ZM279.447 61.2548C283.161 61.2548 285.017 58.2933 285.017 54.8337C285.017 51.1205 282.88 48.8292 279.629 48.8292C275.943 48.8292 273.986 51.9175 273.986 55.3228C273.986 58.7281 275.915 61.2458 279.447 61.2458V61.2548ZM295.115 59.8873L301.844 50.1968L301.79 49.0104H293.204V52.6964L294.056 52.5968C294.21 50.9485 294.753 50.1243 296.474 50.1243H299.725L292.951 59.8692L293.032 61.0013H302.261V57.3152L301.41 57.4149C301.256 59.0632 300.712 59.8873 298.992 59.8873H295.124H295.115ZM306.69 52.9319C306.481 52.4971 306.409 52.1077 306.409 51.7726C306.409 50.5138 307.65 50.0971 308.519 50.0971C309.986 50.0971 310.865 51.0753 310.81 52.8322L310.756 54.8428C306.681 55.2594 304.362 56.2375 304.362 58.5016C304.362 60.2314 305.548 61.2548 307.432 61.2548C308.954 61.2548 310.394 60.2767 310.756 58.7552C310.756 60.0413 311.118 61.2277 312.613 61.2277C313.183 61.2277 314.315 60.9197 314.134 59.7333C312.948 59.9145 312.585 59.5794 312.585 58.6284L312.667 52.3703C312.694 49.59 310.629 48.8383 308.773 48.8383C306.038 48.8383 304.652 50.4594 304.652 51.6458C304.652 52.47 305.141 53.0677 305.965 53.0677C306.173 53.0677 306.427 53.0134 306.69 52.9409V52.9319ZM308.256 59.7333C307.197 59.7333 306.427 59.2443 306.427 58.1847C306.427 56.2556 308.845 56.1198 310.729 55.8118L310.702 57.2247L310.729 58.6194C310.185 59.3167 309.18 59.7243 308.256 59.7243V59.7333ZM320.447 45.4059L318.047 43.3228L317.404 43.9387L319.876 47.027H320.963L323.517 43.8843L322.928 43.3138L320.456 45.3968L320.447 45.4059ZM319.722 59.9416C318.019 59.9416 317.168 59.2986 317.041 57.3877L316.19 57.442V60.6118C317.195 61.0284 318.943 61.2005 319.903 61.2005C323.1 61.2005 324.667 59.8873 324.667 57.596C324.667 53.0858 317.992 54.6798 317.992 51.9537C317.992 50.9213 318.898 50.0971 320.546 50.0971C322.194 50.0971 323.073 50.7402 323.227 52.6511L324.078 52.5968V49.427C323.073 49.0104 321.579 48.8383 320.628 48.8383C318.282 48.8383 316.172 49.8979 316.172 52.2617C316.172 56.4911 322.847 54.8881 322.847 57.8315C322.847 59.0903 321.896 59.9416 319.731 59.9416H319.722ZM333.488 50.2239C333.905 50.2239 333.977 49.4541 333.977 49.0104H330.083V46.6647H329.775L326.505 49.8888V50.3055H328.181L328.154 58.5741C328.154 60.6843 329.775 61.2277 331.197 61.2277C333.126 61.2277 334.312 60.1952 334.312 59.2171C333.769 59.5522 332.818 59.7605 332.048 59.7605C330.862 59.7605 330.065 59.2986 330.065 57.9854L330.092 50.233H333.497L333.488 50.2239ZM335.879 61.0013H341.24L341.295 60.1499C339.284 59.9688 339.212 59.842 339.212 58.2209V48.947L335.064 49.2006L335.009 50.0519C337.02 50.233 337.301 50.6224 337.301 52.0624V57.9401C337.301 59.6156 337.201 60.0503 335.933 60.159L335.879 61.0103V61.0013ZM337.174 44.79C337.174 45.433 337.636 46.0489 338.388 46.0489C339.031 46.0489 339.674 45.587 339.674 44.8353C339.674 44.1651 339.157 43.5493 338.433 43.5493C337.79 43.5493 337.174 44.0383 337.174 44.79ZM349.364 50.2239C349.781 50.2239 349.853 49.4541 349.853 49.0104H345.959V46.6647H345.651L342.382 49.8888V50.3055H344.057L344.03 58.5741C344.03 60.6843 345.651 61.2277 347.073 61.2277C349.002 61.2277 350.188 60.1952 350.188 59.2171C349.645 59.5522 348.694 59.7605 347.924 59.7605C346.738 59.7605 345.941 59.2986 345.941 57.9854L345.968 50.233H349.373L349.364 50.2239ZM361.346 55.1688V54.1636C361.346 52.0805 360.495 48.8292 356.736 48.8292C353.313 48.8292 351.529 51.9719 351.529 55.2232C351.529 59.1628 353.748 61.2277 357.017 61.2277C358.792 61.2277 360.884 60.639 361.038 58.882C359.906 59.4254 358.747 59.679 357.714 59.679C355.468 59.679 353.693 58.3115 353.539 55.1688H361.346ZM356.474 50.0971C358.538 50.0971 359.254 52.316 359.281 54.0368H353.557C353.684 52.0805 354.463 50.0971 356.474 50.0971ZM374.795 50.0971C377.24 50.0971 378.354 52.1802 378.354 55.0149C378.354 57.8496 377.195 59.9869 374.904 59.9869C372.486 59.9869 371.344 57.7681 371.344 54.9062C371.344 52.0443 372.585 50.0881 374.795 50.0881V50.0971ZM374.795 61.2548C378.508 61.2548 380.365 58.2933 380.365 54.8337C380.365 51.1205 378.227 48.8292 374.976 48.8292C371.29 48.8292 369.334 51.9175 369.334 55.3228C369.334 58.7281 371.263 61.2458 374.795 61.2458V61.2548ZM387.737 61.0013L387.791 60.1499C385.781 59.9688 385.708 59.842 385.708 58.2209V55.3862H387.411L389.449 58.2209C389.992 58.9726 390.273 59.4345 390.273 59.7152C390.273 60.0232 389.965 60.1047 389.322 60.1499L389.267 61.0013H394.058L394.113 60.1499C393.47 60.1228 392.981 59.7605 391.821 58.2209L388.887 54.2994L390.798 51.7454C391.93 50.2239 392.319 49.9704 393.533 49.8617L393.587 49.0104H388.489L388.434 49.8617C389.539 49.9613 390.028 50.07 390.028 50.4322C390.028 50.6858 389.793 51.0481 389.385 51.6187L387.456 54.2179H385.726V43.3138L381.578 43.5674L381.524 44.4187C383.381 44.5998 383.815 44.9349 383.815 46.1213V58.3839C383.815 59.6699 383.58 60.0594 382.448 60.1318L382.393 60.9831H387.755L387.737 61.0013ZM400.543 50.0971C402.988 50.0971 404.102 52.1802 404.102 55.0149C404.102 57.8496 402.943 59.9869 400.652 59.9869C398.233 59.9869 397.092 57.7681 397.092 54.9062C397.092 52.0443 398.333 50.0881 400.543 50.0881V50.0971ZM400.543 61.2548C404.256 61.2548 406.113 58.2933 406.113 54.8337C406.113 51.1205 403.975 48.8292 400.724 48.8292C397.038 48.8292 395.082 51.9175 395.082 55.3228C395.082 58.7281 397.011 61.2458 400.543 61.2458V61.2548ZM413.584 61.0013L413.639 60.1499C411.628 59.9688 411.556 59.842 411.556 58.2209V43.3228L407.408 43.5764L407.353 44.4277C409.21 44.6089 409.645 44.944 409.645 46.1304V58.393C409.645 59.679 409.409 60.0684 408.277 60.1409L408.223 60.9922H413.584V61.0013ZM415.332 61.0013H420.694L420.748 60.1499C418.737 59.9688 418.665 59.842 418.665 58.2209V48.947L414.517 49.2006L414.463 50.0519C416.473 50.233 416.754 50.6224 416.754 52.0624V57.9401C416.754 59.6156 416.654 60.0503 415.387 60.159L415.332 61.0103V61.0013ZM416.618 44.79C416.618 45.433 417.08 46.0489 417.832 46.0489C418.475 46.0489 419.118 45.587 419.118 44.8353C419.118 44.1651 418.602 43.5493 417.877 43.5493C417.234 43.5493 416.618 44.0383 416.618 44.79ZM426.771 45.4059L424.371 43.3228L423.728 43.9387L426.2 47.027H427.287L429.841 43.8843L429.252 43.3138L426.78 45.3968L426.771 45.4059ZM426.055 59.9416C424.353 59.9416 423.501 59.2986 423.374 57.3877L422.523 57.442V60.6118C423.528 61.0284 425.276 61.2005 426.236 61.2005C429.433 61.2005 431 59.8873 431 57.596C431 53.0858 424.325 54.6798 424.325 51.9537C424.325 50.9213 425.231 50.0971 426.879 50.0971C428.528 50.0971 429.406 50.7402 429.56 52.6511L430.411 52.5968V49.427C429.406 49.0104 427.912 48.8383 426.961 48.8383C424.615 48.8383 422.505 49.8979 422.505 52.2617C422.505 56.4911 429.18 54.8881 429.18 57.8315C429.18 59.0903 428.229 59.9416 426.064 59.9416H426.055ZM435.537 52.9319C435.329 52.4971 435.257 52.1077 435.257 51.7726C435.257 50.5138 436.497 50.0971 437.367 50.0971C438.834 50.0971 439.712 51.0753 439.658 52.8322L439.604 54.8428C435.528 55.2594 433.21 56.2375 433.21 58.5016C433.21 60.2314 434.396 61.2548 436.28 61.2548C437.802 61.2548 439.242 60.2767 439.604 58.7552C439.604 60.0413 439.966 61.2277 441.46 61.2277C442.031 61.2277 443.163 60.9197 442.982 59.7333C441.796 59.9145 441.433 59.5794 441.433 58.6284L441.515 52.3703C441.542 49.59 439.477 48.8383 437.62 48.8383C434.885 48.8383 433.5 50.4594 433.5 51.6458C433.5 52.47 433.989 53.0677 434.813 53.0677C435.021 53.0677 435.275 53.0134 435.537 52.9409V52.9319ZM437.104 59.7333C436.045 59.7333 435.275 59.2443 435.275 58.1847C435.275 56.2556 437.693 56.1198 439.577 55.8118L439.549 57.2247L439.577 58.6194C439.033 59.3167 438.028 59.7243 437.104 59.7243V59.7333Z" fill="#828282"/>
<path d="M427.559 16.28H427.658L430.212 23.4799H425.131L427.559 16.28ZM426.68 30.055L426.734 28.8414C424.57 28.6875 423.845 28.4792 423.845 27.6822C423.845 27.3471 423.972 26.9305 424.153 26.3962L424.642 24.9471H430.728L431.299 26.5501C431.534 27.166 431.688 27.6369 431.688 27.972C431.688 28.5426 431.227 28.769 429.832 28.8505L429.805 30.0641H437.312L437.34 28.8505C435.737 28.5697 435.356 27.5373 434.813 26.1154L429.832 13.0105L427.278 13.1102L422.143 26.1154C421.237 28.3886 420.748 28.769 419.797 28.8505L419.77 30.0641H426.68V30.055ZM410.297 30.055L410.351 28.8414C407.87 28.5878 407.852 28.1984 407.852 26.3871V22.3388H409.246L412.706 26.5682C413.349 27.3652 413.711 27.8814 413.711 28.2437C413.711 28.606 413.349 28.7871 412.579 28.8414L412.525 30.055H419.951L420.005 28.8414C419.308 28.8143 418.611 28.4248 416.808 26.2875L411.755 20.2739L414.798 16.8958C416.011 15.5283 417.198 14.3419 419.208 14.3419L419.236 13.1283H412.036L412.008 14.3419C413.014 14.4234 413.43 14.7313 413.43 15.1932C413.43 15.5826 413.122 16.0717 412.661 16.6422L409.255 20.6452H407.861V17.086C407.861 15.4105 408.096 14.6045 409.871 14.3509L409.925 13.1373H401.847L401.793 14.3509C404.084 14.6045 404.419 14.9396 404.419 16.4158V26.1154C404.419 27.7909 404.419 28.5878 402.644 28.8505L402.59 30.0641H410.306L410.297 30.055ZM392.809 30.2905C396.495 30.2905 400.289 29.2309 400.289 25.2641C400.289 21.8316 397.427 20.8807 394.973 19.9207C393.144 19.2234 391.541 18.4988 391.541 16.7509C391.541 15.2837 392.673 14.4596 394.43 14.4596C396.187 14.4596 397.5 15.3381 398.116 18.4807L399.329 18.4264V13.5992C398.17 13.1826 396.676 12.8747 394.837 12.8747C391.359 12.8747 387.954 14.1426 387.954 17.6747C387.954 20.4822 390.146 21.5418 392.365 22.3931C394.556 23.2445 396.748 23.9147 396.748 25.9796C396.748 27.6097 395.381 28.7146 393.135 28.7146C390.662 28.7146 389.575 27.3471 389.186 24.3584L387.972 24.4128V29.8286C389.24 30.0822 390.961 30.2905 392.799 30.2905H392.809ZM383.363 30.055L383.417 28.8414C380.528 28.606 380.093 28.1984 380.093 26.3871V14.7041H380.944C383.779 14.7041 384.531 16.2256 384.866 18.8339L386.107 18.7343V13.1373H370.602V18.843L371.843 18.7886C372.151 16.1803 372.902 14.7132 375.737 14.7132H376.67V26.4777C376.67 27.9267 376.154 28.6694 373.862 28.8505L373.808 30.0641H383.381L383.363 30.055ZM361.409 16.28H361.509L364.063 23.4799H358.982L361.409 16.28ZM360.531 30.055L360.585 28.8414C358.421 28.6875 357.696 28.4792 357.696 27.6822C357.696 27.3471 357.823 26.9305 358.004 26.3962L358.493 24.9471H364.579L365.15 26.5501C365.385 27.166 365.539 27.6369 365.539 27.972C365.539 28.5426 365.077 28.769 363.683 28.8505L363.655 30.0641H371.163L371.191 28.8505C369.588 28.5697 369.207 27.5373 368.664 26.1154L363.683 13.0105L361.129 13.1102L355.994 26.1154C355.088 28.3886 354.599 28.769 353.648 28.8505L353.621 30.0641H360.531V30.055ZM348.259 13.1373L348.205 14.3509C350.397 14.4505 351.094 14.686 351.094 15.483C351.094 15.8181 350.967 16.2347 350.786 16.7962L347.381 26.9124H347.281L343.64 16.6422C343.459 16.0988 343.333 15.6913 343.333 15.3743C343.333 14.7041 343.849 14.4234 345.37 14.3419L345.397 13.1283H337.917L337.89 14.3419C339.493 14.6226 339.592 15.6551 340.136 17.0769L345.117 30.1818L347.671 30.0822L352.806 17.0769C353.711 14.8037 354.2 14.4234 355.151 14.3419L355.178 13.1283H348.268L348.259 13.1373ZM327.665 14.7132H329.367C331.74 14.7132 332.8 16.1351 332.8 18.1184C332.8 20.3916 331.378 21.3698 329.63 21.3698H327.665V14.7132ZM330.481 30.055L330.536 28.8414C328.063 28.5878 327.674 28.1984 327.674 26.3871V22.855H329.168C331.387 26.0067 333.787 28.9682 334.738 29.7652C335.49 30.381 336.622 30.7433 337.627 30.689C338.632 30.6165 339.511 30.1184 339.692 29.0135C338.922 28.932 337.89 27.9811 337.165 27.2565C335.852 25.9433 333.787 23.6158 332.447 22.049C334.457 21.8407 336.422 20.3464 336.422 17.8196C336.422 15.2928 334.593 13.1192 330.382 13.1192H321.66L321.606 14.3328C324.087 14.5864 324.241 14.9758 324.241 16.7871V26.0973C324.241 27.7728 324.241 28.5697 322.457 28.8324L322.403 30.0459H330.481V30.055ZM311.807 13.1373L311.752 14.3509C314.053 14.6045 314.388 14.9396 314.388 16.4158V20.5184H305.44V16.7237C305.44 15.3019 305.802 14.6045 307.45 14.3509L307.505 13.1373H299.426L299.372 14.3509C301.663 14.6045 302.007 14.9396 302.007 16.4158V26.1154C302.007 27.7909 302.007 28.5878 300.223 28.8505L300.169 30.0641H308.247L308.302 28.8505C305.829 28.5969 305.44 28.2075 305.44 26.3962V22.1396H314.388V26.1154C314.388 27.7909 314.388 28.5878 312.604 28.8505L312.549 30.0641H320.628L320.682 28.8505C318.336 28.615 317.82 28.2528 317.82 26.6588V17.086C317.82 15.4105 318.056 14.6045 319.831 14.3509L319.885 13.1373H311.807ZM283.441 16.28H283.541L286.095 23.4799H281.014L283.441 16.28ZM282.563 30.055L282.617 28.8414C280.453 28.6875 279.728 28.4792 279.728 27.6822C279.728 27.3471 279.855 26.9305 280.036 26.3962L280.525 24.9471H286.611L287.182 26.5501C287.417 27.166 287.571 27.6369 287.571 27.972C287.571 28.5426 287.109 28.769 285.715 28.8505L285.687 30.0641H293.195L293.223 28.8505C291.619 28.5697 291.239 27.5373 290.696 26.1154L285.715 13.0105L283.161 13.1102L278.026 26.1154C277.12 28.3886 276.631 28.769 275.68 28.8505L275.653 30.0641H282.563V30.055ZM266.18 30.055L266.234 28.8414C263.761 28.5878 263.734 28.1984 263.734 26.3871V22.3388H265.129L268.589 26.5682C269.232 27.3652 269.594 27.8814 269.594 28.2437C269.594 28.606 269.232 28.7871 268.462 28.8414L268.408 30.055H275.834L275.888 28.8414C275.191 28.8143 274.494 28.4248 272.691 26.2875L267.638 20.2739L270.681 16.8958C271.894 15.5283 273.081 14.3419 275.091 14.3419L275.118 13.1283H267.918L267.891 14.3419C268.897 14.4234 269.313 14.7313 269.313 15.1932C269.313 15.5826 269.005 16.0717 268.543 16.6422L265.138 20.6452H263.743V17.086C263.743 15.4105 263.979 14.6045 265.754 14.3509L265.808 13.1373H257.73L257.675 14.3509C259.967 14.6045 260.311 14.9396 260.311 16.4158V26.1154C260.311 27.7909 260.311 28.5878 258.527 28.8505L258.472 30.0641H266.189L266.18 30.055ZM256.688 30.055L256.743 28.8414C254.27 28.5878 253.881 28.1984 253.881 26.3871V17.0769C253.881 15.4015 254.116 14.5954 255.891 14.3419L255.946 13.1283H247.867L247.813 14.3419C250.113 14.5954 250.448 14.9305 250.448 16.4068V26.8037C250.448 28.0173 250.168 28.6331 248.673 28.8414L248.619 30.055H256.697H256.688ZM232.697 13.1373L232.643 14.3509C234.862 14.5864 235.17 14.9215 235.17 16.3071V26.1063C235.17 27.7818 235.17 28.5788 233.386 28.8414L233.331 30.055H246.826V24.3041L245.585 24.3584C245.25 26.9667 244.498 28.4882 241.663 28.4882H240.894C238.983 28.4882 238.593 28.0716 238.593 26.3962V16.7237C238.593 15.3019 239.01 14.5864 241.383 14.3509L241.437 13.1373H232.688H232.697ZM221.839 20.4369V14.7132H223.306C225.606 14.7132 226.43 15.8 226.43 17.6022C226.43 19.64 225.144 20.4369 223.876 20.4369H221.839ZM221.839 21.9584H223.777C226.204 21.9584 227.798 23.0905 227.798 25.2369C227.798 27.3833 226.892 28.4882 224.673 28.4882H224.13C222.219 28.4339 221.839 28.0716 221.839 26.3962V21.9584ZM215.825 13.1373L215.771 14.3237C218.071 14.5773 218.406 14.9396 218.406 16.4158V26.1154C218.406 27.7909 218.406 28.5878 216.622 28.8505L216.568 30.0641H225.416C229.337 30.0641 231.529 28.126 231.529 25.3728C231.529 22.4294 228.821 20.935 226.322 20.8807V20.7811C227.97 20.5275 230.116 19.2867 230.116 16.8324C230.116 14.3781 227.952 13.1464 224.157 13.1464H215.825V13.1373ZM207.104 13.1373L207.049 14.3509C209.449 14.6045 210.663 14.9939 210.663 16.6694V23.3984C210.663 27.3471 208.906 28.7146 205.944 28.7146C203.236 28.7146 201.588 27.5826 201.588 23.7607V16.8505C201.588 15.329 202.132 14.6045 203.834 14.3509L203.861 13.1373H195.864L195.81 14.3509C198.029 14.6045 198.156 14.9939 198.156 16.8052V24.4128C198.156 28.7961 201.326 30.2905 205.455 30.2905C210.174 30.2905 212.447 28.3343 212.501 23.7154L212.583 17.3396C212.61 15.1479 212.864 14.5773 214.593 14.3509L214.648 13.1373H207.113H207.104ZM186.11 14.7132H187.632C189.932 14.7132 191.246 15.9268 191.246 18.7886C191.246 20.8535 190.575 22.4747 187.17 22.4747H186.11V14.7132ZM180.097 13.1373L180.043 14.3509C182.343 14.6045 182.669 14.9396 182.669 16.4158V26.1154C182.669 27.7909 182.669 28.5878 180.894 28.8505L180.84 30.0641H189.688L189.742 28.8505C186.953 28.5697 186.101 28.2075 186.101 26.3962V23.969C186.744 23.9962 187.415 24.0233 187.958 24.0233C191.671 24.0233 194.95 22.4203 194.95 18.4807C194.95 15.3834 192.966 13.1373 188.628 13.1373H180.088H180.097ZM178.657 24.8203L177.416 24.8746C177.054 27.012 176.311 28.4882 173.286 28.4882H172.716C170.914 28.4611 170.415 28.0988 170.415 26.6588V22.375H176.891L176.991 20.6452H170.415V14.7132H172.399C175.415 14.7132 176.166 16.1803 176.529 18.3267L177.769 18.2271V13.1464H164.411L164.357 14.36C166.829 14.6136 166.983 15.003 166.983 16.8143V26.1245C166.983 27.7999 166.983 28.5969 165.208 28.8595L165.154 30.0731H178.648V24.8384L178.657 24.8203ZM152.52 14.7132H154.222C156.595 14.7132 157.655 16.1351 157.655 18.1184C157.655 20.3916 156.233 21.3698 154.485 21.3698H152.52V14.7132ZM155.336 30.055L155.391 28.8414C152.918 28.5878 152.529 28.1984 152.529 26.3871V22.855H154.023C156.242 26.0067 158.642 28.9682 159.593 29.7652C160.345 30.381 161.477 30.7433 162.482 30.689C163.487 30.6165 164.366 30.1184 164.547 29.0135C163.768 28.932 162.735 27.9811 162.02 27.2565C160.707 25.9433 158.642 23.6158 157.302 22.049C159.312 21.8407 161.277 20.3464 161.277 17.8196C161.277 15.2928 159.448 13.1192 155.237 13.1192H146.515L146.461 14.3328C148.933 14.5864 149.087 14.9758 149.087 16.7871V26.0973C149.087 27.7728 149.087 28.5697 147.303 28.8324L147.249 30.0459H155.327L155.336 30.055Z" fill="#828282"/>
<path d="M97.0572 15.5289L97.0391 15.5017C97.0391 15.5017 97.0572 15.4836 97.0753 15.4836L97.4195 14.9402L97.4466 14.9221C97.4466 14.9221 97.4829 14.9673 97.4829 15.0398C97.4829 15.1575 97.4104 15.3296 97.0663 15.547M96.5591 14.279C96.6497 14.3153 96.7131 14.3968 96.7131 14.4964C96.7131 14.6323 96.5953 14.7409 96.4414 14.7409C96.2874 14.7409 96.1697 14.6323 96.1697 14.4964C96.1697 14.4058 96.224 14.3243 96.3146 14.2881C96.1334 14.2338 96.0157 14.0617 95.9523 13.8806C95.898 14.1885 95.7349 14.3153 95.5538 14.3243C95.5991 14.3696 95.6353 14.433 95.6353 14.4964C95.6353 14.6323 95.5176 14.7409 95.3727 14.7409C95.2278 14.7409 95.101 14.6323 95.101 14.4964C95.101 14.3877 95.1825 14.2972 95.2912 14.27C95.0829 14.1885 94.9108 14.0345 94.9017 13.9349C94.9017 13.9168 94.9017 13.8987 94.9199 13.8896L94.9651 13.944H94.9561L94.9742 13.9349C94.9742 13.9349 95.0466 14.0436 95.1553 14.116C95.264 14.1975 95.418 14.2609 95.5448 14.2609C95.7349 14.2609 95.907 14.1341 95.907 13.627H95.9795C95.9795 13.8715 96.1606 14.2428 96.4232 14.2428C96.5681 14.2428 96.7493 14.1432 96.9576 13.8534L97.0119 13.8987C96.8489 14.1251 96.6949 14.2428 96.5591 14.2881V14.279ZM95.9704 16.0994C95.8074 16.0994 95.6172 16.0451 95.427 15.873L95.4451 15.8458C95.4451 15.8458 95.4542 15.8458 95.4632 15.8549H95.9432V15.4564C95.7531 15.4292 95.6625 15.1575 95.6534 15.1575H95.6806H96.3055C96.3055 15.1575 96.3055 15.1575 96.3055 15.1485L96.3327 15.1666C96.2149 15.3477 96.1063 15.4383 96.0066 15.4564V15.8549H96.4866L96.5048 15.8458L96.5229 15.873C96.5229 15.873 96.2874 16.0994 95.9523 16.0994H95.9704ZM94.8655 15.4111V15.4292C94.5123 15.2209 94.4399 15.0398 94.4399 14.9221C94.4399 14.8496 94.4761 14.8043 94.4761 14.8043L94.5033 14.8224L94.8474 15.3749C94.8474 15.3749 94.8655 15.393 94.8746 15.393V15.4111H94.8655ZM98.0987 13.8624L97.5281 14.0617L97.6278 13.1651L97.0119 13.3643C96.6768 13.1651 97.818 12.3138 97.5372 12.0602L96.6315 12.7123L95.9614 11.8157L95.3455 12.6126L94.3946 12.0602C94.1048 12.3138 95.2549 13.1651 94.9199 13.3643L94.304 13.1651L94.3946 14.0617L93.824 13.8624L93.8693 14.8134L93.3893 15.3115L93.8693 15.4655V16.0179L94.2044 16.1175V16.5704L94.8746 16.4164L94.9742 17.1681L95.3546 16.9145L95.59 17.2134L95.9704 17.6662L96.3508 17.2134L96.5863 16.9145L96.9666 17.1681L97.0663 16.4164L97.7364 16.5704V16.1175L98.0715 16.0179V15.4655L98.5515 15.3115L98.0715 14.8134L98.1168 13.8624H98.0987ZM90.2376 14.4964C90.2376 14.6323 90.1199 14.7409 89.975 14.7409C89.8301 14.7409 89.7123 14.6323 89.7123 14.4964C89.7123 14.4058 89.7667 14.3243 89.8482 14.2881C89.6761 14.2338 89.5493 14.0617 89.4859 13.8806C89.4316 14.1885 89.2686 14.3153 89.0874 14.3243C89.1327 14.3696 89.1689 14.433 89.1689 14.4964C89.1689 14.6323 89.0512 14.7409 88.8972 14.7409C88.7433 14.7409 88.6255 14.6323 88.6255 14.4964C88.6255 14.3877 88.707 14.2972 88.8157 14.27C88.6074 14.1885 88.4354 14.0345 88.4263 13.9349C88.4263 13.9168 88.4263 13.8987 88.4444 13.8896L88.4897 13.944L88.5078 13.9349C88.5078 13.9349 88.5803 14.0436 88.6889 14.116C88.7976 14.1975 88.9516 14.2609 89.0784 14.2609C89.2686 14.2609 89.4406 14.1341 89.4406 13.627H89.5131C89.5131 13.8715 89.6942 14.2428 89.9659 14.2428C90.1108 14.2428 90.2919 14.1432 90.5002 13.8534L90.5546 13.8987C90.3916 14.1251 90.2376 14.2428 90.1018 14.2881C90.1923 14.3243 90.2557 14.4058 90.2557 14.5055L90.2376 14.4964ZM89.504 16.0994C89.341 16.0994 89.1508 16.0451 88.9606 15.873L88.9787 15.8458C88.9787 15.8458 88.9878 15.8458 88.9969 15.8549H89.4769V15.4564C89.2867 15.4292 89.1961 15.1575 89.187 15.1575H89.2142H89.8391C89.8391 15.1575 89.8391 15.1575 89.8391 15.1485L89.8663 15.1666C89.7486 15.3477 89.6399 15.4383 89.5403 15.4564V15.8549H90.0202L90.0384 15.8458L90.0565 15.873C90.0565 15.873 89.821 16.0994 89.4859 16.0994H89.504ZM88.3901 15.4111V15.4292C88.0369 15.2209 87.9644 15.0398 87.9644 14.9221C87.9644 14.8496 88.0006 14.8043 88.0006 14.8043L88.0278 14.8224L88.372 15.3749C88.372 15.3749 88.3901 15.393 88.4082 15.393V15.4111H88.3901ZM90.6089 15.4745L90.9531 14.9311L90.9802 14.913C90.9802 14.913 91.0165 14.9583 91.0165 15.0307C91.0165 15.1485 90.944 15.3206 90.5999 15.5379L90.5818 15.5107C90.5818 15.5107 90.5999 15.4926 90.618 15.4926L90.6089 15.4745ZM90.5818 16.4164L91.2519 16.5704V16.1175L91.587 16.0179V15.4655L92.067 15.3115L91.587 14.8134L91.6323 13.8624L91.0618 14.0617L91.1523 13.1651L90.5365 13.3643C90.2014 13.1651 91.3425 12.3138 91.0618 12.0602L90.1561 12.7123L89.4859 11.8157L88.8701 12.6126L87.9191 12.0602C87.6384 12.3138 88.7795 13.1651 88.4444 13.3643L87.8286 13.1651L87.9191 14.0617L87.3486 13.8624L87.3938 14.8134L86.9138 15.3115L87.3938 15.4655V16.0179L87.7289 16.1175V16.5704L88.3991 16.4164L88.4987 17.1681L88.8791 16.9145L89.1146 17.2134L89.495 17.6662L89.8753 17.2134L90.1108 16.9145L90.4912 17.1681L90.5818 16.4164ZM93.9599 21.8141L93.9417 21.7869C93.9417 21.7869 93.9599 21.7688 93.978 21.7688L94.3221 21.2254L94.3493 21.2073C94.3493 21.2073 94.3855 21.2526 94.3855 21.3251C94.3855 21.4428 94.3131 21.6149 93.9689 21.8322L93.9599 21.8141ZM93.4527 20.5643C93.5433 20.6005 93.6066 20.682 93.6066 20.7817C93.6066 20.9175 93.4889 21.0262 93.335 21.0262C93.181 21.0262 93.0633 20.9175 93.0633 20.7817C93.0633 20.6911 93.1267 20.6096 93.2082 20.5734C93.0361 20.519 92.9093 20.3469 92.8459 20.1658C92.7916 20.4737 92.6285 20.6005 92.4474 20.6096C92.4927 20.6549 92.5289 20.7092 92.5289 20.7817C92.5289 20.9175 92.4112 21.0262 92.2572 21.0262C92.1033 21.0262 91.9946 20.9175 91.9946 20.7817C91.9946 20.673 92.0761 20.5824 92.1848 20.5552C91.9765 20.4737 91.8044 20.3198 91.7953 20.2202C91.7953 20.202 91.7953 20.1839 91.8134 20.1749L91.8587 20.2292L91.8768 20.2202C91.8768 20.2202 91.9493 20.3288 92.058 20.4013C92.1667 20.4737 92.3116 20.5462 92.4474 20.5462C92.6376 20.5462 92.8097 20.4194 92.8097 19.9122H92.8821C92.8821 20.1568 93.0633 20.5281 93.335 20.5281C93.4799 20.5281 93.661 20.4285 93.8693 20.1386L93.9236 20.1839C93.7606 20.4013 93.6067 20.5281 93.4708 20.5734L93.4527 20.5643ZM92.864 22.3847C92.701 22.3847 92.5108 22.3303 92.3206 22.1583L92.3387 22.1311C92.3387 22.1311 92.3478 22.1311 92.3568 22.1401H92.8368V21.7417C92.6467 21.7145 92.547 21.4518 92.547 21.4518H92.5742H93.1991C93.1991 21.4518 93.1991 21.4518 93.1991 21.4428L93.2263 21.4609C93.0995 21.642 92.9999 21.7235 92.9002 21.7507V22.1492H93.3712L93.3893 22.1401L93.4074 22.1673C93.4074 22.1673 93.1719 22.3937 92.8368 22.3937L92.864 22.3847ZM91.7591 21.6964V21.7145C91.4059 21.5062 91.3335 21.3251 91.3335 21.2073C91.3335 21.1349 91.3697 21.0896 91.3697 21.0896L91.3968 21.1077L91.741 21.6601C91.741 21.6601 91.7591 21.6692 91.7682 21.6783V21.6964H91.7591ZM94.9923 20.1477L94.4217 20.3469L94.5214 19.4503L93.9055 19.6496C93.5704 19.4503 94.7116 18.599 94.4308 18.3454L93.5251 18.9975L92.855 18.1009L92.2391 18.8979L91.2882 18.3454C90.9984 18.599 92.1485 19.4503 91.8134 19.6496L91.1976 19.4503L91.2972 20.3469L90.7267 20.1477L90.7719 21.0986L90.2919 21.5968L90.7719 21.7417V22.2941L91.107 22.3937V22.8466L91.7772 22.6926L91.8768 23.4443L92.2572 23.1907L92.4927 23.4896L92.8731 23.9424L93.2534 23.4896L93.4889 23.1907L93.8693 23.4443L93.9689 22.6926L94.6391 22.8466V22.3937L94.9742 22.2941V21.7417L95.4542 21.5968L94.9742 21.0986L95.0195 20.1477H94.9923ZM118.956 26.1703H118.965C118.965 26.1703 118.956 26.1703 118.938 26.1703C118.947 26.1703 118.956 26.1703 118.956 26.1703ZM76.5169 82.7195H87.3305V71.3354H76.5169V82.7195ZM62.4702 17.5756L63.1132 17.3221L62.4792 17.5756H62.4702ZM64.6709 15.1485L65.1056 15.5107L64.6709 15.1575V15.1485ZM63.5932 20.8994L64.1909 20.7183L65.4226 20.3379L66.8264 21.2798L67.252 19.6134L68.7373 18.9975L68.366 18.5719L67.4694 17.5394L67.6505 15.8277L67.3517 15.9183L66.0566 16.2896L64.6528 15.1394L64.5441 15.6375L64.2724 16.8511L62.443 17.5666L62.7781 17.9107L63.8015 18.9703L63.5751 20.8813L63.5932 20.8994ZM63.24 25.1832C68.8369 30.128 72.9939 25.0111 71.9071 21.8413C71.7713 23.4081 68.9547 27.5107 63.24 25.1832ZM122.877 26.8405C122.877 26.8405 122.832 26.8314 122.805 26.8224C122.832 26.8224 122.85 26.8314 122.877 26.8405ZM106.177 25.7809C106.177 25.7809 106.177 25.7809 106.168 25.7809H106.177ZM103.243 26.6503C103.243 26.6503 103.225 26.6503 103.216 26.6503H103.234H103.243ZM101.531 24.9567C101.531 24.9567 101.531 24.9567 101.54 24.9567H101.531ZM110.017 20.2473L110.198 19.2873L109.474 19.7945C109.474 19.7945 108.65 19.1968 107.49 19.6043C106.521 19.559 105.561 19.6677 105.561 19.6677C103.967 19.6315 104.203 18.9703 104.203 18.9703L104.438 18.5175L103.904 18.273C105.009 17.8564 104.529 17.6119 104.529 17.6119L104.864 17.4126H104.384L104.284 17.0141C105.435 16.4526 106.467 18.1553 107.382 18.0466C108.088 17.9651 108.487 17.7115 109.021 17.2315C107.816 17.2949 108.251 17.8926 105.969 16.2987C105.969 16.2987 108.333 16.5794 108.333 15.5289C104.955 15.9545 106.059 15.0398 104.321 15.1575C103.424 15.2209 102.962 15.6556 102.256 16.2353L101.875 16.6428L101.006 16.1447C100.481 17.2587 101.404 17.4488 101.404 17.4488L100.743 18.916L101.178 19.3688L101.902 19.2602C101.902 19.2602 101.232 20.0209 102.011 20.3651C102.011 20.3651 100.472 20.9809 101.441 21.7326C101.441 21.7326 102.12 22.3847 100.888 24.6035L100.453 25.4639C100.453 25.4639 100.653 25.6813 101.006 25.6813C101.205 25.6813 101.441 25.6179 101.712 25.4186V25.4096C101.432 25.3552 101.35 25.2737 101.35 25.2013C101.35 25.0835 101.567 24.9658 101.567 24.9658C101.567 24.9658 101.939 23.6526 102.573 23.399L103.152 23.3447C103.152 23.3447 103.116 24.4586 102.681 24.8118C102.681 24.8118 102.881 25.8624 102.31 26.3243C102.31 26.3243 101.848 26.7228 101.848 27.0307C101.848 27.0669 101.848 27.1122 101.875 27.1394C102.038 27.2752 102.238 27.3205 102.428 27.3205C102.817 27.3205 103.188 27.1394 103.188 27.1394V27.1303C103.08 27.0307 103.035 26.9492 103.035 26.8948C103.035 26.7409 103.279 26.6956 103.279 26.6956L103.315 25.636L103.841 25.1288V24.5764L104.456 23.9152L106.295 23.9515C106.295 23.9515 106.395 24.6035 105.77 24.9115L105.661 25.5635C105.661 25.5635 105.054 25.7537 105.054 26.1432C105.054 26.2065 105.072 26.2699 105.099 26.3333C105.136 26.3514 105.172 26.3605 105.208 26.3696C105.244 26.3877 105.281 26.3967 105.317 26.4058C105.371 26.4239 105.416 26.433 105.471 26.442C105.471 26.442 105.48 26.442 105.489 26.442C105.543 26.442 105.598 26.4601 105.652 26.4601C105.942 26.4601 106.168 26.3786 106.168 26.3786V26.3696C106.059 26.279 106.032 26.1975 106.032 26.116C106.032 25.9439 106.213 25.8262 106.213 25.8262C106.884 25.2647 106.784 24.8662 106.784 24.8662C107.309 24.5583 107.499 23.9515 107.499 23.9515L108.179 24.4043C108.179 24.4043 108.333 25.3099 107.717 26.3696C107.717 26.3696 107.137 26.6322 107.137 27.0398C107.137 27.1031 107.155 27.1665 107.182 27.239C107.345 27.3477 107.508 27.393 107.662 27.393C107.916 27.393 108.106 27.2933 108.106 27.2933C108.106 26.8405 108.387 26.6956 108.387 26.6956L108.677 26.4964V26.1432L109.628 24.6216L110.108 24.4677L109.528 24.1235V23.8156L109.999 22.91L109.564 23.1635L109.61 22.2035C110.524 21.3885 110.081 21.0443 110.081 21.0443L110.506 20.1296L110.026 20.3379L110.017 20.2473ZM116.982 17.7839L117.525 17.2677L116.991 17.7839H116.982ZM121.175 14.1341L120.876 14.3787L119.871 15.1847L118.159 14.6685L118.231 15.1032L118.422 16.4073L116.991 17.7839L117.462 17.9832L118.757 18.5537L119.228 20.4194L119.735 19.9937L120.731 19.1786L122.37 19.5047L122.162 17.793L123.321 16.6428L122.995 16.4798L121.628 15.7824L121.184 14.1251L121.175 14.1341ZM113.259 23.7884C113.259 23.7884 113.305 23.7794 113.35 23.7703C113.296 23.7794 113.25 23.7884 113.25 23.7884H113.259ZM76.5169 90.3723V83.109H69.5252C71.3275 85.9618 73.7003 88.4252 76.5169 90.3723ZM114.355 23.1364C114.355 23.1364 114.382 23.1726 114.391 23.1998C114.391 23.1817 114.373 23.1545 114.355 23.1364ZM114.31 25.156H114.319C114.265 25.156 114.219 25.156 114.165 25.1741C114.21 25.1741 114.256 25.1741 114.31 25.156ZM114.265 24.5401L113.83 24.2232L114.256 24.5401H114.265ZM120.324 69.9951V59.5709H109.51V70.955H120.296C120.305 70.6381 120.314 70.3211 120.314 69.9951H120.324ZM109.229 47.8065H98.4157V59.1906H109.229V47.8065ZM128.167 19.0066L121.555 33.9499L121.256 34.6201H121.193L120.541 34.3756C111.321 30.916 102.355 29.2224 93.2082 29.2224C92.7916 29.2224 92.3659 29.2224 91.9493 29.2314C83.1735 29.3763 74.3162 31.1333 65.6309 34.448L65.1962 34.611H64.8973L64.6256 34.0314L57.806 19.2239L57.643 18.8617L57.8241 18.5085L62.5336 9.54246L62.8868 8.87227L63.5751 9.18925L71.7441 12.993L76.9516 6.2187L77.3863 5.64814L77.9931 6.02851L85.5735 10.756L92.2301 5.16814L92.7282 4.74248L93.2353 5.15908L99.8376 10.5296L107.382 5.99229L107.934 5.65719L108.378 6.13719L114.219 12.513L122.108 9.04435L122.769 8.75454L123.122 9.37944L128.13 18.2911L128.33 18.6443L128.167 19.0156V19.0066ZM66.8354 34.611C75.1494 31.559 83.5991 29.9379 91.9674 29.802C92.384 29.802 92.8006 29.7929 93.2172 29.7929C102.029 29.7929 110.66 31.3778 119.545 34.6201H66.8354V34.611ZM120.994 70.149C120.985 85.4456 109.773 96.087 92.9636 96.1051C77.2595 96.1051 65.0332 84.8388 65.0332 69.8592V35.2993L65.3049 35.1997H120.994V70.1581V70.149ZM128.628 18.0104L123.611 9.09869L123.004 8.0119L121.872 8.51001L114.355 11.8157L108.785 5.7387L108.034 4.91455L107.074 5.48512L99.8738 9.81416L93.5885 4.70625L92.7101 3.99078L91.8497 4.71531L85.5101 10.0315L78.2829 5.52134L77.2324 4.86927L76.4807 5.85644L71.5539 12.2685L63.8015 8.65492L62.6151 8.10247L62.0083 9.26171L57.317 18.2458L57 18.8436L57.2808 19.4594L64.1094 34.2669L64.4536 35.0276V69.8502C64.4536 77.5029 67.5871 84.2139 72.7131 89.0048C77.8392 93.7957 84.9667 96.6666 92.9546 96.6666C101.477 96.6666 108.632 93.9497 113.658 89.2584C118.684 84.5761 121.564 77.9286 121.555 70.14V35.3175L121.655 35.1001L122.071 34.1673L128.683 19.2239L128.963 18.59L128.628 17.9922V18.0104ZM76.5169 70.955V59.5709H65.7034V69.7143C65.7034 70.1309 65.7124 70.5475 65.7305 70.955H76.5079H76.5169ZM87.421 47.8065H76.6075V59.1906H87.421V47.8065ZM76.5169 35.9424H65.7034V47.3265H76.5169V35.9424ZM116.918 83.0999H109.32V90.9338C112.481 88.9142 115.053 86.2607 116.918 83.0999ZM120.324 35.9424H109.51V47.3265H120.324V35.9424ZM98.3251 59.5709H87.5116V70.955H98.3251V59.5709ZM98.3251 35.9424H87.5116V47.3265H98.3251V35.9424ZM87.5206 94.8644C89.2776 95.1814 91.098 95.3444 92.9727 95.3444C94.8474 95.3444 96.6134 95.1995 98.3342 94.9459V83.0999H87.5297V94.8644H87.5206ZM109.229 71.3354H98.4157V82.7195H109.229V71.3354ZM124.671 24.2322C118.929 21.8594 114.899 20.7907 112.933 20.356L114.274 13.6632L122.307 10.1311L127.125 18.6896L124.68 24.2232L124.671 24.2322ZM122.896 26.7137V26.8405H122.887C122.407 26.6865 121.963 26.6503 121.628 26.6503C121.293 26.6503 121.048 26.6956 120.985 26.7047C120.976 26.7047 120.967 26.7047 120.967 26.7047L121.311 27.2571L121.447 28.4073V28.4707L120.767 28.516H120.668L120.613 27.8186L119.789 27.1665C119.508 27.1303 119.228 27.1213 118.974 27.1213C118.304 27.1213 117.788 27.2118 117.679 27.2299H117.661L117.761 26.6141C118.195 26.5326 118.721 26.2699 118.902 26.1884C118.929 26.1794 118.938 26.1703 118.956 26.1613C118.902 26.1613 118.702 26.1884 118.44 26.1884C117.96 26.1884 117.308 26.1069 117.054 25.7265C117.045 25.7084 117.027 25.6903 117.018 25.6722C117 25.636 116.991 25.6088 116.973 25.5726C116.954 25.5182 116.945 25.4639 116.945 25.4005C116.945 25.3915 116.945 25.3824 116.945 25.3733C116.465 25.3915 115.922 25.5545 115.351 25.9801C114.899 26.0526 114.554 26.0798 114.292 26.0798C113.667 26.0798 113.531 25.9077 113.531 25.7628C113.531 25.6632 113.594 25.5816 113.594 25.5726L113.993 25.3281L114.301 25.1288C113.993 25.1832 113.739 25.2103 113.531 25.2103C112.807 25.2103 112.68 24.9024 112.68 24.7032C112.68 24.6035 112.707 24.5311 112.716 24.522H114.256L113.658 24.0692L113.25 23.7703C113.25 23.7703 114.002 23.6254 114.301 23.1907C114.319 23.1635 114.346 23.1364 114.355 23.1092C114.473 23.245 114.391 23.3628 114.5 23.4624C114.5 23.4624 114.509 23.4624 114.518 23.4624C114.609 23.4624 114.826 23.1907 114.944 23.1907C114.953 23.1907 114.971 23.1907 114.98 23.1907C115.315 23.399 115.533 24.033 115.904 24.196C116.284 24.359 116.619 24.3771 116.945 24.3862C117.09 24.3862 117.235 24.3862 117.389 24.3862C117.697 24.3862 118.014 24.4043 118.367 24.5401C119.373 24.9115 119.934 25.2556 120.695 26.0345C120.731 26.0345 120.985 25.9982 121.356 25.9982C121.782 25.9982 122.361 26.0435 122.923 26.2247L122.887 26.7047L122.896 26.7137ZM120.677 33.2616C117.869 32.2201 114.609 31.1605 110.95 30.2729L111.575 27.1484C115.723 28.0269 119.635 29.4035 121.981 30.3092L120.677 33.2526V33.2616ZM99.1855 28.3711L100.055 11.6617L107.744 7.04285L113.712 13.5545L110.398 30.1371C106.992 29.3401 103.243 28.7062 99.1855 28.3711ZM93.19 28.1265C91.2429 28.1265 89.2414 28.208 87.1855 28.3711L85.9448 11.8519L92.7463 6.14625L99.4844 11.6255L98.6149 28.3348C96.858 28.208 95.0557 28.1265 93.19 28.1265ZM75.5479 30.2458L74.778 26.4058C79.6595 24.685 83.0014 24.3952 86.3161 24.4767L86.615 28.4254C83.0829 28.7424 79.3878 29.3311 75.5479 30.2458ZM65.5041 33.3341L58.8475 18.8979L63.3668 10.2851L71.735 14.1885L74.9954 30.3816C71.9162 31.1424 68.7554 32.1114 65.5132 33.3431L65.5041 33.3341ZM77.6399 7.08813L85.3652 11.9062L85.3833 12.1055C80.212 11.553 75.249 12.7485 72.3418 13.9892L77.6399 7.09719V7.08813ZM85.6822 16.027L85.9901 20.1839C81.4437 20.03 77.3954 20.7454 73.9177 22.1492L73.0845 18.0375C78.1833 16.0451 82.3131 15.8549 85.6731 16.027H85.6822ZM114.093 13.1198L107.844 6.30021L99.7923 11.1455L92.7372 5.40361L85.6188 11.3809L77.5131 6.31832L71.8981 13.627L63.1041 9.5334L62.9773 9.77793L58.2045 18.8798L65.2053 34.0586L65.4588 33.959C75.5931 30.0918 84.9123 28.6971 93.19 28.6971C104.574 28.6971 113.975 31.3507 120.731 33.8865L120.985 33.9771L127.759 18.6534L122.551 9.3885L114.093 13.1017V13.1198Z" fill="#828282"/>
</g>
<defs>
<clipPath id="clip0_20_159">
<rect width="386" height="98.1007" fill="white" transform="translate(57 1)"/>
</clipPath>
</defs>
</svg>
