<svg width="500" height="100" viewBox="0 0 500 100" fill="none" xmlns="http://www.w3.org/2000/svg">
<g clip-path="url(#clip0_20_26)">
<path d="M254.157 72.5618C254.714 70.0243 258.322 55.1513 262.004 38.4302C265.172 24.0852 267.358 15.138 268.135 8.46418L268.81 7.87747L277.933 6.29337L278.358 6.88007L276.012 16.1647L272.169 32.2258C275.674 30.3043 279.033 28.4562 284.387 28.4562C292.674 28.4562 299.612 34.0592 299.612 44.6053C299.612 48.8736 298.277 56.9114 292.659 63.3505C285.135 71.9751 275.85 72.5471 265.055 72.9725H260.449L254.597 73.0605L254.172 72.5618H254.157ZM264.366 66.4601C269.103 66.6801 276.085 66.5481 281.512 62.8665C287.702 58.5982 290.635 51.147 290.635 45.7934C290.635 38.1808 286.03 35.2473 280.676 35.2473C276.408 35.2473 273.401 37.0954 270.717 38.7675C270.717 38.7675 264.879 64.4066 264.366 66.4601Z" fill="#828282"/>
<path d="M344.466 46.3801C341.532 59.273 340.946 62.4412 339.273 72.4005L338.687 72.9872L330.825 73.1633L330.399 72.5766L330.986 69.2323C329.563 70.4057 325.882 73.5006 318.768 73.5006C310.231 73.5006 303.294 67.4722 303.294 57.0142C303.294 50.3991 306.477 43.2119 309.982 39.0316C317.771 29.9084 328.566 29.4097 336.252 29.4097L347.795 29.4977L348.221 30.1724L344.451 46.4095L344.466 46.3801ZM338.261 35.7461C337 35.7461 335.753 35.6581 334.492 35.6581C331.734 35.6581 326.293 35.8194 321.35 39.1783C312.564 45.2067 312.388 56.0021 312.388 56.4128C312.388 60.4317 314.558 66.8708 322.171 66.8708C324.43 66.8708 328.17 66.3428 332.218 62.7639L338.247 35.7314L338.261 35.7461Z" fill="#828282"/>
<path d="M474.23 46.3801C471.297 59.273 470.71 62.4412 469.038 72.4005L468.451 72.9872L460.589 73.1633L460.164 72.5766L460.751 69.2323C459.328 70.4057 455.646 73.5006 448.533 73.5006C439.996 73.5006 433.058 67.4722 433.058 57.0142C433.058 50.3991 436.241 43.2119 439.747 39.0316C447.535 29.9084 458.331 29.4097 466.017 29.4097L477.56 29.4977L477.985 30.1724L474.216 46.4095L474.23 46.3801ZM468.041 35.7461C466.779 35.7461 465.532 35.6581 464.271 35.6581C461.514 35.6581 456.072 35.8194 451.129 39.1783C442.343 45.2067 442.167 56.0021 442.167 56.4128C442.167 60.4317 444.338 66.8708 451.95 66.8708C454.209 66.8708 457.949 66.3428 461.998 62.7639L468.026 35.7314L468.041 35.7461Z" fill="#828282"/>
<path d="M385.902 72.4885L385.227 72.9872L376.691 73.2365L376.353 72.6498C377.585 67.0175 382.734 48.1402 382.792 42.2731C382.851 37.2568 379.697 35.5847 375.766 35.5847C370.574 35.5847 367.142 38.1809 364.634 40.0143C361.539 54.0659 360.527 58.5102 357.857 72.4738L357.271 72.9725L348.734 73.2219L348.323 72.6352C348.323 72.6352 350.861 62.3825 353.149 51.7338C354.938 43.4025 356.42 36.5234 357.109 30.7884L357.696 30.2017C361.627 29.703 362.551 29.5269 366.57 28.6909L366.981 29.2776L365.807 33.5459C369.063 31.3751 373.258 28.4415 380.196 28.4415C382.954 28.4415 391.989 29.1896 391.989 39.3249C391.989 45.3827 386.694 66.5481 385.887 72.4592L385.902 72.4885Z" fill="#828282"/>
<path d="M417.863 47.5241L430.844 72.2098L430.345 72.8845L421.06 73.1338L420.386 72.6351C418.215 66.7534 408.754 48.2868 408.754 48.2868C406.334 58.9209 405.835 61.4291 403.738 72.4738L403.151 72.9725L394.702 73.1485L394.365 72.6498C394.365 72.6498 398.824 54.0952 402.696 36.9194C404.5 28.8962 407.317 16.1793 408.417 8.46416L409.003 7.96546L418.127 6.4547L418.625 7.0414C416.939 12.8205 409.003 47.1281 409.003 47.1281C415.002 41.8771 424.991 31.3897 426.326 29.9816L427.25 29.4829H436.872L437.121 30.231C434.745 32.1084 430.345 36.0834 428.746 37.5061L417.863 47.5535V47.5241Z" fill="#828282"/>
<path d="M170.713 50.8537C167.119 71.3737 154.344 73.9846 143.534 73.9846C132.723 73.9846 123.028 66.6361 125.815 50.751C127.986 38.3275 135.364 26.8427 153.288 27.7228C165.799 28.3388 173.148 36.9047 170.698 50.8537H170.713ZM151.161 36.5821C147.23 36.5821 142.771 38.5769 140.204 50.7803C137.344 64.3333 143.05 65.1986 145.807 65.1986C148.315 65.1986 153.654 63.8346 156.324 50.8537C158.187 41.7744 156.705 36.5821 151.161 36.5821Z" fill="#828282"/>
<path d="M197.936 72.2245L197.261 72.8992C194.577 73.3979 191.438 73.8233 189.737 73.8233C183.415 73.8233 174.145 72.8699 178.076 56.9262C180.731 46.1454 182.623 38.0929 182.623 38.0929L176.77 38.2543L176.272 37.5795L178.692 29.131L179.279 28.7203H184.808L187.228 17.9249L187.815 17.3382C194.093 15.9154 195.765 15.4901 201.544 13.8179L202.043 14.3166L198.361 28.8816L206.898 28.7203L207.235 29.307C206.062 32.8272 205.724 33.7366 204.639 37.6675L203.964 38.2543L196.264 38.0929C196.264 38.0929 194.709 44.5907 192.509 53.6259C190.147 63.3946 191.394 62.8959 193.756 63.8346C195.78 64.6267 198.435 63.6146 199.945 63.1159L200.444 63.5266L197.936 72.2245Z" fill="#828282"/>
<path d="M228.21 31.8152C230.381 30.3044 233.989 27.7962 239.416 27.7962C247.777 27.7962 253.394 34.074 253.394 44.6934C253.394 50.7218 251.297 57.8356 246.955 63.1013C238.668 73.2219 228.21 73.1486 219.336 73.1486L214.569 93.1406L213.982 93.566C212.061 93.566 210.213 93.478 208.291 93.478C205.446 93.478 202.938 93.6393 199.843 93.7273L199.417 93.1406C199.417 93.1406 202.366 84.2667 206.032 69.027C209.89 53.0246 213.484 34.2793 213.806 30.4657L214.393 29.879L228.709 27.5322L229.207 28.1189L228.21 31.8005V31.8152ZM221.434 63.864C225.394 64.3334 229.721 63.0279 232.64 60.6078C235.984 57.7622 238.991 51.9098 238.991 45.5441C238.991 38.5183 234.473 37.6822 232.801 37.6822C230.381 37.6822 228.533 38.9436 226.773 40.1024L221.419 63.864H221.434Z" fill="#828282"/>
<path fill-rule="evenodd" clip-rule="evenodd" d="M21 47.5975C21 24.7893 39.4812 6.29343 62.2748 6.2641V21.1958C47.7245 21.2251 35.9317 33.0326 35.9317 47.5829C35.9317 62.1332 47.7538 73.97 62.3188 73.97C76.8837 73.97 88.7205 62.2652 88.7205 47.4802H103.652C103.652 70.4057 85.1416 88.9016 62.3188 88.9016C39.4959 88.9016 21 70.4204 21 47.5975Z" fill="#828282"/>
<path d="M44.1015 47.5975C44.1015 37.4768 52.3154 29.2629 62.4361 29.2629C72.5568 29.2629 80.7707 37.4768 80.7707 47.5975C80.7707 57.7182 72.5568 65.932 62.4361 65.932C52.3154 65.932 44.1015 57.7182 44.1015 47.5975Z" fill="#828282"/>
<path d="M75.1384 24.3786C75.1384 18.5703 79.8467 13.8766 85.6404 13.8766C91.4341 13.8766 96.1425 18.5849 96.1425 24.3786C96.1425 30.1724 91.4341 34.8807 85.6404 34.8807C79.8467 34.8807 75.1384 30.1724 75.1384 24.3786Z" fill="#828282"/>
</g>
<defs>
<clipPath id="clip0_20_26">
<rect width="457" height="88.0059" fill="white" transform="translate(21 6.00002)"/>
</clipPath>
</defs>
</svg>
