<svg width="501" height="100" viewBox="0 0 501 100" fill="none" xmlns="http://www.w3.org/2000/svg">
<path d="M328.338 69.3477C328.338 79.0557 321.223 81.3069 317.027 81.3069C314.873 81.3069 312.727 81.2016 310.205 80.177C307.223 78.9618 306.955 77.3822 306.955 71.2033V49.0864C306.955 48.6282 307.132 48.4318 307.49 48.4318C308.902 48.4318 309.838 48.4318 311.515 48.5286C315.169 48.7079 317.301 49.3568 319.264 50.7685C326.363 55.7149 328.338 63.5559 328.338 69.3477ZM295.727 58.137C295.727 66.7236 295.727 74.1206 295.272 78.0311C294.885 80.7434 294.435 82.7812 292.574 83.1626C291.729 83.3504 290.607 83.5468 289.198 83.5468C288.08 83.5468 287.716 83.8229 287.716 84.2925C287.716 84.9385 288.362 85.2175 289.583 85.2175C293.314 85.2175 299.194 84.9385 301.326 84.9385C304.155 84.9385 312.642 85.4935 314.873 85.4935C332.058 85.4935 339.81 75.1338 339.81 65.1497C339.81 54.2264 330.467 47.5865 322.819 44.9653C327.954 40.8726 332.339 36.3047 332.339 28.6373C332.339 23.6965 329.365 14.6317 312.437 14.6317C309.275 14.6317 305.635 14.9049 301.049 14.9049C299.194 14.9049 293.314 14.6317 288.362 14.6317C286.964 14.6317 286.307 14.8139 286.307 15.4799C286.307 16.1231 286.862 16.3194 287.903 16.3194C289.198 16.3194 290.778 16.402 291.538 16.5955C294.614 17.253 295.374 18.7301 295.548 21.9092C295.727 24.9061 295.727 27.5074 295.727 41.7065V58.137ZM306.955 20.23C306.955 19.2025 307.132 18.8325 307.783 18.639C308.717 18.4597 309.568 18.4597 310.868 18.4597C318.886 18.4597 322.54 26.6735 322.54 32.9235C322.54 37.5085 321.126 40.8726 318.707 42.825C317.104 44.2196 315.064 44.6095 311.978 44.6095C309.838 44.6095 308.435 44.5213 307.587 44.3221C307.223 44.2196 306.955 44.0375 306.955 43.2861V20.23Z" fill="#6E7071"/>
<path d="M192.927 28.2332L192.935 28.2275L192.901 28.2047H192.893C192.289 27.8404 191.37 27.6355 190.747 27.8973C186.805 27.5273 183.04 27.5672 179.041 27.6156H178.921L178.765 27.6212C176.764 27.6469 174.692 27.6668 172.623 27.6355L155.891 27.2883C151.969 27.1829 147.671 27.2143 143.453 27.3736C140.334 27.4021 137.303 27.4846 134.218 27.5672C130.999 27.6526 123.317 27.6782 118.729 27.6981C116.285 27.7009 115.012 27.7009 114.833 27.7152C114.29 27.7408 113.638 28.5035 113.624 29.1069C113.618 29.4484 113.814 29.8383 114.403 29.8924C114.833 29.9408 117.608 29.955 122.648 29.9323L127.806 29.9095C129.172 29.9095 129.809 29.9323 130.105 29.8981H130.137C133.927 29.5167 137.73 29.5452 141.41 29.5623H141.689C144.077 29.5765 146.536 29.585 149.012 29.494C149.53 29.6078 150.068 29.4968 150.594 29.3972L150.668 29.3801C150.904 29.3346 151.141 29.2862 151.377 29.2663C151.943 29.4314 152.584 29.4285 153.267 29.4057C153.918 29.3972 154.59 29.383 155.202 29.531V29.5452H155.304V29.5167C155.842 29.3403 156.332 29.437 156.847 29.5452C156.861 29.5452 156.944 29.5594 156.944 29.5594C157.186 29.605 157.419 29.6448 157.638 29.6505C162.428 29.5167 167.719 29.696 174.313 30.2026C174.302 30.2026 177.436 30.5385 177.436 30.5385H177.473C180.248 30.2653 183.114 30.473 185.888 30.6779C185.891 30.6779 185.96 30.6808 185.96 30.6808C188.043 30.8345 190.01 30.9796 191.968 30.9369L191.973 30.9569L192.096 30.9199V30.8914L193.126 30.066H193.137L193.177 30.0205L193.169 30.0148C193.522 29.4627 193.413 28.68 192.927 28.2332Z" fill="#A1A1A1" fill-opacity="0.86"/>
<path d="M165.24 63.7836L165.328 63.7267L165.323 63.5218L165.254 57.0071V56.9701C165.132 55.991 165.109 54.9152 165.081 53.7654C165.052 52.4761 165.027 51.1384 164.856 49.9602C164.822 48.2696 164.486 46.4566 164.164 44.7063L163.945 43.5138L163.925 43.4085L163.84 43.3259C163.581 43.0613 163.49 42.734 163.393 42.3526C163.313 42.031 163.222 41.7037 163.023 41.3906C162.59 40.5937 161.89 39.8196 161.278 39.1365L161.247 39.0995C161.096 38.8946 160.92 38.7864 160.763 38.6868C160.675 38.6271 160.581 38.573 160.487 38.4933L160.348 38.3681L160.268 38.3851L160.154 38.3026C159.599 37.8586 159.09 37.6878 158.489 37.4886H158.475C158.307 37.2439 157.98 37.204 157.758 37.1955V37.0361L157.445 36.9962L155.993 36.7771L155.783 36.7373L155.652 36.9223C155.592 36.9906 155.581 36.9991 155.282 36.8909C155.139 36.8426 154.991 36.7856 154.818 36.7771L154.647 36.7515L154.567 36.8369C154.522 36.8084 154.465 36.7771 154.402 36.7287L153.799 36.558L153.748 36.8369C153.483 36.8369 153.252 36.8824 153.059 36.9906H152.1L151.217 36.9962L151.32 37.3349L151.306 37.352C150.919 37.2524 150.623 37.4886 150.458 37.6281C150.421 37.6508 150.384 37.6793 150.369 37.6935C150.053 37.7448 149.874 37.8757 149.746 37.9753C149.655 38.0436 149.624 38.0635 149.538 38.0749L149.393 38.0891L149.288 38.2001C149.16 38.3624 148.741 38.5502 148.519 38.647L148.033 38.8661L148.132 38.9743C148.058 39.0027 147.976 39.054 147.907 39.1223H147.429V39.4951C147.409 39.4951 147.395 39.4951 147.381 39.4894L147.111 39.3699C147.094 39.3642 146.923 39.5976 146.923 39.5976C146.632 40.0017 146.265 40.3973 145.861 40.8185C145.403 41.3052 144.928 41.8175 144.566 42.3668L144.455 42.529L144.521 42.6998C144.432 42.7453 144.213 42.8905 144.173 43.1552C143.994 43.3516 143.951 43.6105 143.926 43.7842C143.909 43.8382 143.9 43.9094 143.886 43.9435C143.698 44.1769 143.653 44.4131 143.621 44.5924C143.599 44.7262 143.587 44.8059 143.53 44.8771L143.291 45.1759L143.402 45.247C143.331 45.4235 143.325 45.6142 143.325 45.7223C143.325 45.7707 143.325 45.8305 143.314 45.8675L143.163 45.9643L143.2 46.1976C143.263 46.6616 143.206 47.0885 143.146 47.5353C143.083 47.9651 143.038 48.409 143.075 48.8957C142.896 49.169 142.935 49.4877 142.975 49.6898C142.981 49.7609 142.995 49.852 142.989 49.8975L142.759 50.0769L142.924 50.3558C143.049 50.5664 142.952 50.8994 142.856 51.2238C142.765 51.5255 142.656 51.9097 142.773 52.2342C142.742 52.2626 142.713 52.2883 142.691 52.3196C142.648 52.3793 142.608 52.4761 142.625 52.5956C142.625 52.8404 142.594 52.9229 142.591 52.9457L142.415 53.2958L142.392 53.4324L142.699 53.6572C142.665 53.865 142.691 54.0642 142.716 54.2293C142.75 54.4655 142.759 54.568 142.691 54.6619L142.494 55.012L142.691 55.2396V55.3023C142.676 55.4559 142.656 55.7491 142.864 55.954C142.87 55.9967 142.876 56.0394 142.887 56.0707L142.534 56.1589L142.759 56.657C142.759 56.6912 142.748 56.7367 142.73 56.7822C142.699 56.9188 142.637 57.212 142.79 57.4624C142.671 57.7442 142.742 58.0288 142.793 58.2138C142.802 58.265 142.822 58.3333 142.824 58.3903C142.494 58.7375 142.656 59.2042 142.748 59.4547C142.591 59.6881 142.628 59.9698 142.656 60.1491L142.207 60.3028L142.671 60.7667C142.648 60.872 142.648 60.9944 142.725 61.1253C142.773 61.2079 142.844 61.2563 142.913 61.2961L142.773 61.336C142.773 61.353 142.79 61.3644 142.793 61.3787H142.79L142.952 61.8056L142.944 61.8483C142.904 62.0959 142.964 62.3406 143.083 62.5285C143.049 62.5769 143.024 62.6565 143.009 62.7334L142.824 62.9042L143.009 63.1603C143.146 63.3538 143.089 63.6128 142.989 64.0141C142.904 64.3642 142.793 64.8167 142.995 65.2066L142.748 65.4571L143.061 65.6905C143.055 65.699 143.049 65.7218 143.041 65.7275C142.952 65.8897 142.807 66.1686 142.995 66.4731L142.981 66.4418C143.049 66.5756 143.015 66.8232 142.981 67.0708C142.935 67.4408 142.887 67.8848 143.083 68.3231L143.024 68.7671L143.038 68.713C142.981 68.8809 143.024 69.0261 143.075 69.1399L142.935 69.2025L143.038 69.5128C143.14 69.8258 143.14 70.2243 143.14 70.6341C143.146 71.4253 143.146 72.3133 143.858 72.9907L144.008 73.1387L144.21 73.0732C144.734 72.9224 144.765 72.3958 144.78 72.1112C144.782 72.0458 144.782 71.9945 144.791 71.9462L144.805 71.8665L144.78 71.7896C144.566 71.081 144.66 70.1304 144.734 69.3021C144.757 69.0716 144.78 68.8667 144.791 68.6646L144.805 68.565L144.757 68.4739C144.612 68.1808 144.643 67.899 144.689 67.566C144.723 67.2672 144.757 66.9285 144.654 66.5756C144.78 65.0558 144.703 63.2514 144.643 61.6604C144.612 60.9802 144.586 60.3427 144.58 59.7592V59.745L144.572 59.7222C144.481 58.9709 144.504 58.1654 144.529 57.3856C144.552 56.6769 144.572 55.9597 144.504 55.2937C144.674 54.5338 144.66 53.8394 144.643 53.0994V52.0663L144.654 51.9723L144.632 51.9268C144.791 51.7247 144.834 51.5255 144.748 51.3234C144.822 51.0417 144.839 50.7827 144.839 50.5379C144.848 50.3444 144.856 50.1651 144.896 49.9972L144.913 49.9118L144.896 49.8207C144.848 49.6585 144.891 49.4792 144.928 49.2885C144.982 49.038 145.056 48.7591 144.95 48.4802C145.232 47.9053 145.292 47.2137 145.349 46.5221L145.369 46.2916C145.397 46.1407 145.34 46.0013 145.224 45.8817V45.8618C145.224 45.5573 145.386 45.3154 145.574 45.0108C145.79 44.675 146.029 44.2908 146.095 43.7728L146.106 43.6845L146.1 43.6703C146.123 43.6447 146.154 43.6134 146.177 43.5935C146.311 43.4796 146.513 43.3146 146.51 43.0413C146.51 42.9901 146.499 42.9474 146.487 42.9019C146.732 42.6742 146.894 42.4152 147.034 42.1761C147.239 41.8346 147.39 41.5898 147.788 41.4731L147.99 41.4134L148.041 41.2141C148.098 40.9865 148.292 40.8555 148.602 40.6705C148.835 40.5225 149.097 40.3575 149.285 40.1099C149.553 40.1298 149.709 40.0558 149.8 39.9619C150.116 39.8879 150.361 39.6943 150.557 39.5378C150.899 39.2703 151.007 39.2105 151.229 39.313L151.454 39.4154L151.607 39.2703C151.61 39.2703 151.624 39.2646 151.63 39.2646C151.738 39.239 151.92 39.1877 152.026 39.017C152.131 38.997 152.208 38.96 152.296 38.9401C152.47 38.8747 152.518 38.8718 152.584 38.906C152.655 38.943 152.777 38.997 152.931 38.9515L152.937 38.98L153.204 38.943L153.554 38.9003C154.596 38.7665 155.498 38.647 156.315 39.0853L156.608 39.2447L156.782 38.98C156.819 39.0198 156.856 39.0654 156.89 39.0995C157.103 39.3329 157.47 39.7399 157.997 39.6516C158.114 39.7541 158.25 39.8309 158.355 39.8993C158.415 39.9192 158.469 39.9647 158.506 39.9875V40.0131L158.58 40.0985C158.748 40.3262 159.104 40.4286 159.377 40.4429C159.989 41.0804 160.618 41.9627 160.618 42.3526V42.7112H160.888V42.734C160.999 43.2121 161.133 43.8012 161.495 44.1855C161.395 44.4388 161.486 44.7262 161.526 44.8514C161.529 44.8884 161.543 44.9425 161.56 44.9795L161.472 45.2556L161.711 45.5003L161.759 45.5231C161.745 45.7707 161.862 46.0013 161.944 46.1635C161.961 46.2119 161.984 46.2574 162.001 46.3058L161.944 46.4367C161.617 47.06 162.055 47.4015 162.266 47.5723C162.297 47.5979 162.326 47.6121 162.343 47.6292C162.181 47.7544 162.186 47.8882 162.155 48.1074L162.181 48.3834L162.297 48.5627C162.297 48.5627 162.297 48.5713 162.303 48.5713C162.303 48.5798 162.312 48.5912 162.323 48.6026C162.331 48.6567 162.363 48.7335 162.4 48.8103L162.277 48.9327L162.195 49.2629L162.374 49.5162L162.514 49.5873C162.514 49.7382 162.571 49.8662 162.613 49.9516C162.613 49.9744 162.622 49.9915 162.627 50.0114L162.602 50.1708C162.477 50.7628 162.331 51.5312 162.699 52.1516C162.682 52.163 162.679 52.1716 162.67 52.183C162.497 52.4106 162.539 52.6753 162.571 52.8689C162.579 52.9258 162.593 53.0311 162.59 53.0595L162.497 53.4324C162.491 53.4466 162.613 53.4779 162.716 53.5064C162.713 53.5462 162.69 53.569 162.682 53.6231L162.608 54.0443H162.747C162.724 54.198 162.716 54.3374 162.716 54.457C162.713 54.6761 162.701 54.8156 162.627 54.9294L162.593 54.9807L162.579 55.0404C162.477 55.4246 162.622 55.7975 162.741 56.0906C162.758 56.1532 162.781 56.2073 162.801 56.2585C162.741 56.3297 162.679 56.4265 162.682 56.5659C162.682 56.6001 162.699 56.6285 162.701 56.657L162.627 56.731L162.699 56.9445C162.736 57.064 162.81 57.138 162.898 57.1835L162.838 57.2063C162.83 57.2063 162.83 57.4824 162.83 57.4824V57.5877L162.593 57.6531L162.713 57.8837C162.65 57.9947 162.593 58.154 162.659 58.3333L162.497 58.6094C162.505 58.6009 162.528 58.7802 162.664 58.8399C162.516 59.3409 162.875 59.7023 163.091 59.9158C163.18 60.004 163.239 60.0751 163.274 60.1235H163.103L163.236 60.5931L163.239 60.6045C163.208 60.633 163.174 60.6671 163.148 60.7098L162.841 60.855L162.946 61.2563L162.915 61.353C162.841 61.5608 162.898 61.7059 162.96 61.7942C162.972 61.8084 162.989 61.8255 163.003 61.834C162.898 61.9393 162.773 62.0959 162.747 62.3406L162.716 62.6793L162.989 62.722C162.972 62.7988 162.946 62.8643 162.932 62.9355C162.898 63.0607 162.869 63.1745 162.81 63.2599C162.801 63.277 162.79 63.2912 162.79 63.3026L163.271 63.5815C163.208 63.7124 163.157 63.8291 163.128 63.9259C163.117 63.9828 163.1 64.0454 163.08 64.0796H162.636L162.659 64.5492C162.682 64.6232 162.69 64.7086 162.701 64.7996C162.713 64.8907 162.724 64.9875 162.747 65.0899V65.5595C162.747 65.625 162.747 65.7218 162.773 65.8242L162.713 65.8555L162.753 66.1174C162.773 66.2483 162.758 66.3764 162.753 66.5101C162.747 66.5756 162.741 66.6695 162.741 66.7492L162.405 66.9285L162.81 67.364V67.3839C162.758 67.4863 162.701 67.6372 162.701 67.8023H162.414L162.904 68.3999C162.946 68.4426 162.989 68.5792 163.015 68.6789C163.015 68.6931 163.023 68.6988 163.023 68.713C162.815 68.9065 162.79 69.194 162.773 69.3534C162.767 69.4188 162.758 69.5156 162.741 69.5526C162.741 69.5526 162.747 69.5469 162.747 69.5384L162.869 69.7091C162.773 69.7746 162.713 69.8571 162.682 69.9283C162.636 70.0421 162.627 70.1617 162.642 70.2698H162.166L162.556 70.654L162.195 70.7764L162.497 71.0354V72.0002C162.497 72.1795 162.579 72.3247 162.724 72.4044C162.741 72.4044 162.747 72.4072 162.747 72.4072C162.946 72.5381 163.157 72.5325 163.33 72.4841V72.8854L163.794 72.7516C164.136 72.6548 164.398 72.6349 164.668 72.6861L165.052 72.7658L165.101 72.3759C165.289 70.9244 165.254 69.5184 165.212 68.1723C165.18 66.8431 165.143 65.5937 165.317 64.3585C165.419 64.1194 165.308 63.8946 165.24 63.7836Z" fill="#1D1D1B" fill-opacity="0.72"/>
<path d="M137.474 63.7836L137.556 63.7267L137.551 63.5218L137.479 57.0071V56.9701C137.366 55.991 137.346 54.9152 137.317 53.7654C137.292 52.4761 137.26 51.1384 137.081 49.9602C137.058 48.2696 136.717 46.4566 136.392 44.7063L136.173 43.5138L136.15 43.4085L136.073 43.3259C135.806 43.0613 135.726 42.734 135.621 42.3526C135.538 42.031 135.45 41.7037 135.257 41.3906C134.815 40.5937 134.121 39.8196 133.512 39.1365L133.481 39.0995C133.33 38.8946 133.151 38.7864 132.988 38.6868C132.903 38.6271 132.818 38.573 132.724 38.4933L132.584 38.3681L132.493 38.3851L132.382 38.3026C131.833 37.8586 131.315 37.6878 130.726 37.4886H130.709C130.538 37.2439 130.216 37.204 129.983 37.1955V37.0361L129.675 36.9962L128.23 36.7771L128.01 36.7373L127.882 36.9223C127.825 36.9906 127.817 36.9991 127.515 36.8909C127.373 36.8426 127.228 36.7856 127.054 36.7771L126.881 36.7515L126.795 36.8369C126.758 36.8084 126.701 36.7771 126.636 36.7287L126.032 36.558L125.984 36.8369C125.717 36.8369 125.48 36.8824 125.295 36.9906H124.336L123.451 36.9962L123.554 37.3349L123.539 37.352C123.147 37.2524 122.851 37.4886 122.683 37.6281C122.648 37.6508 122.623 37.6793 122.6 37.6935C122.287 37.7448 122.105 37.8757 121.982 37.9753C121.886 38.0436 121.857 38.0635 121.766 38.0749L121.627 38.0891L121.519 38.2001C121.39 38.3624 120.975 38.5502 120.747 38.647L120.258 38.8661L120.369 38.9743C120.286 39.0027 120.209 39.054 120.138 39.1223H119.66V39.4951C119.649 39.4951 119.626 39.4951 119.609 39.4894L119.347 39.3699C119.324 39.3642 119.156 39.5976 119.156 39.5976C118.863 40.0017 118.487 40.3973 118.098 40.8185C117.634 41.3052 117.161 41.8175 116.786 42.3668L116.677 42.529L116.754 42.6998C116.663 42.7453 116.444 42.8905 116.41 43.1552C116.222 43.3516 116.179 43.6105 116.151 43.7842C116.148 43.8382 116.134 43.9094 116.122 43.9435C115.932 44.1769 115.886 44.4131 115.855 44.5924C115.829 44.7262 115.818 44.8059 115.764 44.8771L115.53 45.1759L115.636 45.247C115.562 45.4235 115.562 45.6142 115.562 45.7223C115.562 45.7707 115.55 45.8305 115.55 45.8675L115.397 45.9643L115.436 46.1976C115.499 46.6616 115.442 47.0885 115.382 47.5353C115.317 47.9651 115.26 48.409 115.311 48.8957C115.132 49.169 115.175 49.4877 115.2 49.6898C115.217 49.7609 115.229 49.852 115.223 49.8975L114.987 50.0769L115.152 50.3558C115.277 50.5664 115.18 50.8994 115.086 51.2238C114.995 51.5255 114.89 51.9097 115.004 52.2342C114.975 52.2626 114.941 52.2883 114.921 52.3196C114.876 52.3793 114.842 52.4761 114.853 52.5956C114.853 52.8404 114.827 52.9229 114.813 52.9457L114.645 53.2958L114.617 53.4324L114.936 53.6572C114.899 53.865 114.927 54.0642 114.947 54.2293C114.981 54.4655 114.995 54.568 114.927 54.6619L114.728 55.012L114.927 55.2396C114.927 55.2596 114.927 55.2766 114.921 55.3023C114.913 55.4559 114.899 55.7491 115.092 55.954C115.098 55.9967 115.106 56.0394 115.109 56.0707L114.759 56.1589L114.995 56.657C114.987 56.6912 114.975 56.7367 114.97 56.7822C114.936 56.9188 114.873 57.212 115.015 57.4624C114.904 57.7442 114.975 58.0288 115.015 58.2138C115.035 58.265 115.049 58.3333 115.058 58.3903C114.728 58.7375 114.884 59.2042 114.975 59.4547C114.825 59.6881 114.859 59.9698 114.89 60.1491L114.446 60.3028L114.899 60.7667C114.876 60.872 114.876 60.9944 114.955 61.1253C115.012 61.2079 115.078 61.2563 115.149 61.2961L115.012 61.336C115.012 61.353 115.015 61.3644 115.027 61.3787H115.015L115.18 61.8056V61.8483C115.138 62.0959 115.195 62.3406 115.317 62.5285C115.277 62.5769 115.251 62.6565 115.24 62.7334L115.064 62.9042L115.24 63.1603C115.374 63.3538 115.325 63.6128 115.223 64.0141C115.132 64.3642 115.027 64.8167 115.229 65.2066L114.975 65.4571L115.291 65.6905C115.288 65.699 115.277 65.7218 115.271 65.7275C115.186 65.8897 115.038 66.1686 115.229 66.4731L115.209 66.4418C115.277 66.5756 115.251 66.8232 115.217 67.0708C115.166 67.4408 115.109 67.8848 115.317 68.3231L115.251 68.7671L115.26 68.713C115.209 68.8809 115.251 69.0261 115.311 69.1399L115.166 69.2025L115.26 69.5128C115.368 69.8258 115.374 70.2243 115.374 70.6341C115.374 71.4253 115.382 72.3133 116.083 72.9907L116.245 73.1387L116.444 73.0732C116.971 72.9224 117.002 72.3958 117.016 72.1112C117.016 72.0458 117.016 71.9945 117.019 71.9462L117.036 71.8665L117.016 71.7896C116.803 71.081 116.894 70.1304 116.971 69.3021C116.985 69.0716 117.016 68.8667 117.019 68.6646L117.036 68.565L116.985 68.4739C116.845 68.1808 116.874 67.899 116.916 67.566C116.959 67.2672 116.99 66.9285 116.882 66.5756C117.002 65.0558 116.939 63.2514 116.874 61.6604C116.848 60.9802 116.817 60.3427 116.805 59.7592V59.745L116.803 59.7222C116.712 58.9709 116.737 58.1654 116.76 57.3856C116.786 56.6769 116.803 55.9597 116.737 55.2937C116.905 54.5338 116.894 53.8394 116.882 53.0994C116.874 52.7664 116.874 52.4192 116.882 52.0663V51.9723L116.862 51.9268C117.019 51.7247 117.062 51.5255 116.982 51.3234C117.056 51.0417 117.073 50.7827 117.076 50.5379C117.082 50.3444 117.082 50.1651 117.127 49.9972L117.141 49.9118L117.127 49.8207C117.076 49.6585 117.116 49.4792 117.164 49.2885C117.221 49.038 117.275 48.7591 117.181 48.4802C117.46 47.9053 117.523 47.2137 117.585 46.5221L117.605 46.2916C117.628 46.1407 117.582 46.0013 117.454 45.8817V45.8618C117.454 45.5573 117.611 45.3154 117.807 45.0108C118.018 44.675 118.263 44.2908 118.334 43.7728L118.339 43.6845L118.334 43.6703C118.357 43.6447 118.394 43.6134 118.413 43.5935C118.544 43.4796 118.744 43.3146 118.735 43.0413C118.735 42.9901 118.729 42.9474 118.712 42.9019C118.968 42.6742 119.128 42.4152 119.267 42.1761C119.469 41.8346 119.617 41.5898 120.016 41.4731L120.218 41.4134L120.275 41.2141C120.329 40.9865 120.522 40.8555 120.838 40.6705C121.072 40.5225 121.325 40.3575 121.519 40.1099C121.78 40.1298 121.94 40.0558 122.034 39.9619C122.35 39.8879 122.597 39.6943 122.796 39.5378C123.124 39.2703 123.235 39.2105 123.465 39.313L123.69 39.4154L123.835 39.2703C123.85 39.2703 123.864 39.2646 123.864 39.2646C123.972 39.239 124.151 39.1877 124.262 39.017C124.359 38.997 124.444 38.96 124.527 38.9401C124.712 38.8747 124.757 38.8718 124.817 38.906C124.883 38.943 125.002 38.997 125.159 38.9515L125.173 38.98L125.435 38.943L125.785 38.9003C126.832 38.7665 127.734 38.647 128.548 39.0853L128.836 39.2447L129.015 38.98C129.052 39.0198 129.089 39.0654 129.126 39.0995C129.334 39.3329 129.698 39.7399 130.228 39.6516C130.341 39.7541 130.478 39.8309 130.595 39.8993C130.64 39.9192 130.703 39.9647 130.743 39.9875V40.0131L130.817 40.0985C130.979 40.3262 131.332 40.4286 131.608 40.4429C132.223 41.0804 132.849 41.9627 132.849 42.3526V42.7112H133.114C133.114 42.7226 133.125 42.7283 133.125 42.734C133.225 43.2121 133.364 43.8012 133.728 44.1855C133.62 44.4388 133.714 44.7262 133.757 44.8514C133.765 44.8884 133.779 44.9425 133.791 44.9795L133.7 45.2556L133.942 45.5003L133.996 45.5231C133.982 45.7707 134.093 46.0013 134.178 46.1635C134.189 46.2119 134.218 46.2574 134.229 46.3058L134.178 46.4367C133.851 47.06 134.292 47.4015 134.5 47.5723C134.531 47.5979 134.554 47.6121 134.574 47.6292C134.408 47.7544 134.417 47.8882 134.391 48.1074L134.417 48.3834L134.525 48.5627L134.531 48.5713C134.545 48.5798 134.545 48.5912 134.548 48.6026C134.568 48.6567 134.588 48.7335 134.639 48.8103L134.502 48.9327L134.434 49.2629L134.605 49.5162L134.747 49.5873C134.741 49.7382 134.801 49.8662 134.844 49.9516C134.844 49.9744 134.85 49.9915 134.864 50.0114L134.827 50.1708C134.704 50.7628 134.559 51.5312 134.924 52.1516C134.918 52.163 134.907 52.1716 134.898 52.183C134.727 52.4106 134.776 52.6753 134.801 52.8689C134.81 52.9258 134.827 53.0311 134.815 53.0595L134.727 53.4324C134.719 53.4466 134.844 53.4779 134.949 53.5064C134.941 53.5462 134.918 53.569 134.915 53.6231L134.835 54.0443H134.989C134.958 54.198 134.949 54.3374 134.949 54.457C134.949 54.6761 134.941 54.8156 134.858 54.9294L134.827 54.9807L134.81 55.0404C134.704 55.4246 134.85 55.7975 134.969 56.0906C134.989 56.1532 135.009 56.2073 135.026 56.2585C134.969 56.3297 134.907 56.4265 134.915 56.5659C134.915 56.6001 134.924 56.6285 134.941 56.657L134.858 56.731L134.924 56.9445C134.969 57.064 135.037 57.138 135.129 57.1835L135.074 57.2063C135.06 57.2063 135.06 57.4824 135.06 57.4824V57.5877L134.827 57.6531L134.941 57.8837C134.884 57.9947 134.824 58.154 134.884 58.3333L134.733 58.6094C134.733 58.6009 134.761 58.7802 134.892 58.8399C134.75 59.3409 135.103 59.7023 135.325 59.9158C135.413 60.004 135.47 60.0751 135.516 60.1235H135.333L135.47 60.5931V60.6045C135.439 60.633 135.407 60.6671 135.373 60.7098L135.083 60.855L135.183 61.2563L135.146 61.353C135.077 61.5608 135.14 61.7059 135.188 61.7942C135.203 61.8084 135.225 61.8255 135.237 61.834C135.129 61.9393 135.009 62.0959 134.989 62.3406L134.949 62.6793L135.228 62.722C135.203 62.7988 135.183 62.8643 135.168 62.9355C135.129 63.0607 135.097 63.1745 135.037 63.2599H135.04C135.037 63.277 135.023 63.2912 135.015 63.3026L135.499 63.5815C135.43 63.7124 135.393 63.8291 135.365 63.9259C135.351 63.9828 135.325 64.0454 135.314 64.0796H134.867L134.892 64.5492C134.915 64.6232 134.924 64.7086 134.935 64.7996C134.949 64.8907 134.952 64.9875 134.981 65.0899V65.5595C134.981 65.625 134.989 65.7218 135.006 65.8242L134.949 65.8555L134.989 66.1174C135.006 66.2483 134.995 66.3764 134.989 66.5101C134.981 66.5756 134.972 66.6695 134.972 66.7492L134.645 66.9285L135.049 67.364C135.04 67.3753 135.037 67.3782 135.037 67.3782C134.989 67.4863 134.935 67.6372 134.935 67.8023H134.645L135.14 68.3999C135.183 68.4426 135.214 68.5792 135.242 68.6789C135.251 68.6931 135.251 68.6988 135.257 68.713C135.049 68.9065 135.023 69.194 135.009 69.3534C134.995 69.4188 134.989 69.5156 134.972 69.5526C134.972 69.5526 134.972 69.5469 134.981 69.5384L135.103 69.7091C135.009 69.7746 134.949 69.8571 134.915 69.9283C134.864 70.0421 134.858 70.1617 134.875 70.2698H134.403L134.793 70.654L134.434 70.7764L134.733 71.0354V72.0002C134.733 72.1795 134.81 72.3247 134.958 72.4044C134.969 72.4044 134.972 72.4072 134.972 72.4072C135.174 72.5381 135.385 72.5325 135.558 72.4841V72.8854L136.028 72.7516C136.364 72.6548 136.628 72.6349 136.899 72.6861L137.277 72.7658L137.329 72.3759C137.525 70.9244 137.479 69.5184 137.448 68.1723C137.408 66.8431 137.38 65.5937 137.551 64.3585C137.656 64.1194 137.542 63.8946 137.474 63.7836Z" fill="#787474"/>
<path d="M192.534 64.2817L192.619 64.2133L192.614 64.0141L192.543 57.508V57.4624C192.429 56.4919 192.397 55.4019 192.378 54.2492C192.343 52.9628 192.315 51.6393 192.141 50.4468C192.107 48.7591 191.78 46.949 191.444 45.1987L191.236 44.009L191.211 43.898L191.131 43.8098C190.869 43.5536 190.778 43.2235 190.684 42.845C190.596 42.5233 190.519 42.1932 190.311 41.883C189.873 41.0889 189.181 40.3148 188.575 39.626L188.541 39.5947C188.39 39.3813 188.202 39.2731 188.051 39.1763C187.96 39.1194 187.872 39.0625 187.784 38.98L187.636 38.8633L187.556 38.886L187.445 38.7921C186.896 38.3453 186.381 38.1774 185.783 37.9867L185.769 37.9781C185.592 37.7362 185.268 37.6992 185.043 37.6878V37.5342L184.739 37.4829L183.284 37.2638L183.077 37.2353L182.937 37.4118C182.892 37.4744 182.877 37.4915 182.564 37.3862C182.43 37.3406 182.271 37.278 182.112 37.2638L181.947 37.2524L181.856 37.3349C181.819 37.2979 181.756 37.2638 181.696 37.2353L181.084 37.0503L181.044 37.3235C180.774 37.3235 180.549 37.3805 180.35 37.4744H179.391L178.509 37.4829L178.614 37.8245C178.605 37.8302 178.6 37.8358 178.6 37.8358C178.207 37.7419 177.902 37.9781 177.737 38.1176C177.709 38.1461 177.675 38.1717 177.655 38.1859C177.344 38.2371 177.162 38.3681 177.04 38.4677C176.943 38.5388 176.918 38.5616 176.829 38.5673L176.673 38.5815L176.582 38.6954C176.448 38.8604 176.035 39.0397 175.808 39.1393L175.318 39.3585L175.423 39.461C175.347 39.4951 175.267 39.5435 175.196 39.6118H174.729V39.9875C174.706 39.9875 174.681 39.9846 174.661 39.9818L174.404 39.8679C174.385 39.8594 174.205 40.0956 174.205 40.0956C173.926 40.4969 173.556 40.8954 173.155 41.3052C172.697 41.7976 172.219 42.307 171.846 42.8592L171.741 43.0214L171.815 43.1893C171.721 43.2434 171.501 43.38 171.453 43.6475C171.279 43.8411 171.242 44.1058 171.211 44.2765C171.205 44.3335 171.191 44.4074 171.183 44.4359C170.983 44.675 170.946 44.9055 170.915 45.082C170.892 45.2186 170.875 45.2983 170.81 45.3723L170.585 45.6654L170.69 45.748C170.622 45.913 170.622 46.1009 170.622 46.2119C170.622 46.2574 170.613 46.3229 170.608 46.3656L170.457 46.4566L170.491 46.6957C170.562 47.1511 170.497 47.578 170.434 48.022C170.377 48.4574 170.326 48.8986 170.366 49.3881C170.195 49.6585 170.235 49.9772 170.261 50.1878C170.272 50.2476 170.286 50.3444 170.286 50.3871L170.05 50.5721L170.215 50.8481C170.337 51.0587 170.244 51.3889 170.144 51.7162C170.056 52.0179 169.948 52.4049 170.056 52.7266C170.033 52.7465 169.999 52.7749 169.982 52.8148C169.939 52.8689 169.905 52.9713 169.911 53.0909C169.911 53.3328 169.885 53.4153 169.876 53.4324L169.706 53.7796L169.674 53.9276L169.987 54.1467C169.95 54.3545 169.982 54.5566 170.01 54.7217C170.041 54.9579 170.056 55.0603 169.987 55.1514L169.788 55.5015L169.982 55.7377V55.7918C169.965 55.954 169.95 56.2386 170.15 56.4464C170.158 56.4919 170.164 56.5261 170.175 56.5602L169.819 56.657L170.056 57.1494C170.05 57.1835 170.033 57.2319 170.027 57.2717C169.996 57.4112 169.925 57.6987 170.07 57.9577C169.959 58.2423 170.033 58.5155 170.084 58.7062C170.098 58.7574 170.104 58.8257 170.113 58.8798C169.78 59.227 169.948 59.6966 170.033 59.9442C169.885 60.1833 169.919 60.4679 169.948 60.6387L169.486 60.7924L169.959 61.262C169.939 61.3644 169.939 61.4896 170.013 61.6149C170.07 61.7031 170.138 61.7543 170.207 61.7856L170.064 61.8255C170.07 61.8397 170.073 61.8596 170.084 61.8767H170.073L170.244 62.2951L170.235 62.3406C170.198 62.5939 170.252 62.8358 170.377 63.0237C170.337 63.0664 170.309 63.1432 170.303 63.2201L170.115 63.4022L170.3 63.6527C170.434 63.849 170.377 64.1024 170.275 64.5122C170.195 64.8623 170.084 65.3119 170.286 65.699L170.033 65.9495L170.352 66.18C170.346 66.1999 170.337 66.217 170.326 66.2255C170.246 66.3764 170.098 66.661 170.286 66.9598L170.272 66.9285C170.337 67.0737 170.303 67.307 170.272 67.5632C170.229 67.9332 170.178 68.3715 170.369 68.8098L170.309 69.2566L170.326 69.2054C170.272 69.3733 170.309 69.5156 170.366 69.6323L170.229 69.6949L170.326 70.0051C170.426 70.321 170.434 70.7081 170.434 71.1293C170.434 71.9149 170.434 72.8114 171.146 73.4802L171.299 73.6225L171.501 73.5684C172.028 73.409 172.056 72.8797 172.068 72.5979C172.074 72.5438 172.074 72.4784 172.082 72.4414L172.088 72.3617L172.068 72.282C171.854 71.5619 171.943 70.6227 172.028 69.7888C172.048 69.5697 172.068 69.3591 172.088 69.1598V69.0488L172.042 68.972C171.9 68.6789 171.937 68.3914 171.977 68.0584C172.017 67.7539 172.048 67.4266 171.943 67.0737C172.068 65.5453 171.994 63.7466 171.928 62.1499C171.9 61.4754 171.871 60.8379 171.869 60.2544V60.2288L171.863 60.2089C171.772 59.4632 171.797 58.6549 171.82 57.8694C171.84 57.175 171.863 56.4464 171.797 55.7861C171.963 55.029 171.951 54.3289 171.937 53.5918C171.937 53.2616 171.928 52.9172 171.937 52.5501L171.943 52.4619L171.914 52.4163C172.088 52.2199 172.122 52.0179 172.042 51.8158C172.116 51.5312 172.13 51.2694 172.136 51.0303C172.142 50.8368 172.15 50.6575 172.187 50.4895L172.204 50.4013L172.187 50.3188C172.136 50.1565 172.179 49.9659 172.227 49.7723C172.278 49.5361 172.335 49.2543 172.239 48.9697C172.518 48.4005 172.583 47.6975 172.64 47.0145L172.663 46.7868C172.688 46.6416 172.631 46.4993 172.515 46.3741V46.3513C172.515 46.0553 172.677 45.802 172.865 45.5032C173.078 45.1645 173.323 44.7888 173.391 44.2651L173.397 44.1712L173.391 44.1627C173.408 44.1342 173.448 44.1058 173.477 44.0858C173.602 43.9748 173.804 43.8041 173.798 43.5337C173.798 43.4796 173.79 43.4341 173.775 43.3886C174.029 43.1666 174.185 42.9047 174.328 42.6713C174.527 42.3241 174.681 42.0794 175.079 41.9627L175.275 41.9057L175.332 41.7094C175.389 41.4845 175.58 41.3564 175.902 41.1601C176.129 41.0121 176.388 40.8498 176.582 40.6051C176.844 40.6222 176.997 40.5453 177.088 40.4571C177.407 40.3802 177.646 40.1896 177.857 40.0273C178.184 39.7569 178.298 39.6972 178.523 39.8053L178.748 39.9078L178.893 39.7655C178.907 39.7655 178.913 39.7569 178.921 39.7569C179.032 39.7285 179.214 39.6744 179.323 39.5093C179.416 39.4866 179.508 39.461 179.584 39.4353C179.769 39.3642 179.809 39.3613 179.878 39.3983C179.949 39.4353 180.065 39.4809 180.21 39.4467L180.225 39.4723L180.495 39.4353L180.845 39.3927C181.89 39.2532 182.792 39.1365 183.609 39.5776L183.899 39.7399L184.067 39.4752C184.11 39.515 184.149 39.5606 184.178 39.5947C184.394 39.8224 184.756 40.2266 185.288 40.1355C185.396 40.2379 185.536 40.3262 185.652 40.3916C185.692 40.4172 185.763 40.4571 185.806 40.4855V40.5026L185.874 40.5994C186.039 40.8128 186.389 40.921 186.668 40.9324C187.277 41.5756 187.906 42.4522 187.906 42.845V43.2036H188.174L188.182 43.2235C188.285 43.7073 188.413 44.2965 188.791 44.6835C188.683 44.9283 188.772 45.2186 188.814 45.3438C188.831 45.3808 188.843 45.4292 188.848 45.4747L188.76 45.748L189.005 45.9842L189.056 46.0126C189.036 46.2574 189.153 46.5022 189.238 46.6615C189.25 46.7014 189.275 46.7469 189.292 46.7953L189.241 46.9291C188.914 47.5552 189.346 47.8967 189.551 48.0561C189.585 48.0874 189.614 48.1074 189.637 48.1244C189.472 48.2497 189.477 48.3834 189.437 48.6054L189.477 48.8758L189.585 49.0523L189.594 49.0608C189.603 49.0722 189.603 49.0836 189.605 49.095C189.622 49.149 189.651 49.223 189.694 49.3084L189.566 49.4251L189.48 49.7495L189.659 50.0114L189.805 50.0768C189.802 50.2305 189.856 50.3586 189.896 50.4468C189.904 50.4668 189.918 50.481 189.93 50.4981L189.893 50.666C189.768 51.2551 189.614 52.0236 189.987 52.6469C189.978 52.6582 189.964 52.6639 189.964 52.6639C189.788 52.9059 189.827 53.1677 189.856 53.3527C189.873 53.4238 189.881 53.5263 189.876 53.5576L189.782 53.9276C189.782 53.939 189.904 53.976 190.007 53.9959C189.995 54.0301 189.978 54.0756 189.975 54.1041L189.896 54.5395H190.044C190.015 54.6847 190.007 54.8213 190.007 54.9493C190.001 55.1656 189.995 55.308 189.918 55.4189L189.893 55.473L189.873 55.5243C189.768 55.9227 189.913 56.287 190.027 56.5858C190.049 56.6456 190.069 56.6997 190.084 56.7452C190.027 56.8221 189.964 56.9188 189.975 57.0611C189.975 57.0896 189.987 57.1181 189.995 57.1494L189.918 57.2205L189.987 57.4368C190.021 57.5592 190.095 57.6332 190.189 57.6787L190.132 57.693C190.112 57.693 190.112 57.9804 190.112 57.9804V58.0772L189.881 58.1455L190.001 58.3789C189.947 58.487 189.881 58.6493 189.947 58.8257L189.788 59.1046C189.788 59.1046 189.816 59.2725 189.95 59.3409C189.816 59.8304 190.166 60.1918 190.388 60.4081C190.473 60.4992 190.533 60.5647 190.576 60.6187H190.394L190.522 61.0855L190.533 61.094C190.499 61.1253 190.468 61.1567 190.434 61.1993L190.138 61.3416L190.234 61.7429L190.197 61.8426C190.132 62.0475 190.195 62.1955 190.254 62.2837C190.271 62.3065 190.274 62.315 190.3 62.3292C190.189 62.4289 190.064 62.5939 190.044 62.8273L190.007 63.1745L190.286 63.2087C190.266 63.2827 190.24 63.3538 190.223 63.4278C190.189 63.5559 190.158 63.6641 190.095 63.7523H190.101C190.095 63.7665 190.084 63.7779 190.075 63.8007L190.562 64.071C190.491 64.1963 190.448 64.3243 190.428 64.424C190.414 64.4723 190.388 64.5321 190.374 64.5691H189.93L189.95 65.0416C189.975 65.1184 189.987 65.2009 189.995 65.3006C190.001 65.3745 190.015 65.4742 190.035 65.588V66.0548C190.035 66.1174 190.044 66.217 190.064 66.3138L190.001 66.3479L190.044 66.6041C190.064 66.735 190.049 66.8687 190.044 66.9968C190.035 67.0737 190.035 67.1505 190.035 67.2444L189.702 67.4095L190.101 67.8535C190.101 67.8563 190.095 67.8677 190.095 67.8706C190.049 67.9844 189.995 68.1296 189.995 68.2946H189.702L190.197 68.8866C190.234 68.9322 190.274 69.0716 190.303 69.1684C190.311 69.194 190.311 69.194 190.311 69.2054C190.112 69.3961 190.075 69.6835 190.064 69.8401C190.064 69.9141 190.049 70.008 190.035 70.0421V70.0364L190.158 70.193C190.064 70.2698 190.007 70.3495 189.975 70.4178C189.93 70.5373 189.918 70.654 189.93 70.765H189.457L189.847 71.1521L189.48 71.2688L189.788 71.5249V72.4955C189.788 72.6691 189.873 72.8199 190.015 72.8854C190.015 72.8854 190.035 72.8968 190.044 72.8996C190.234 73.0248 190.442 73.0248 190.621 72.9793V73.3863L191.091 73.244C191.424 73.1415 191.689 73.1244 191.956 73.1757L192.343 73.2525L192.392 72.8654C192.577 71.4196 192.543 70.0194 192.506 68.6561C192.474 67.3298 192.443 66.0832 192.602 64.8566C192.713 64.6146 192.602 64.3927 192.534 64.2817Z" fill="#787474"/>
<path d="M198.215 94.712H108.785V5.27664H198.215V94.712ZM103.5 99.9886H203.503V0H103.5V99.9886Z" fill="#787474"/>
<path d="M241.649 42.2273C241.649 28.1762 241.649 25.5863 241.467 22.6321C241.276 19.49 240.539 18.0043 237.488 17.3611C236.751 17.1704 235.18 17.085 233.885 17.085C232.872 17.085 232.314 16.9029 232.314 16.2511C232.314 15.6079 232.96 15.4172 234.349 15.4172C239.241 15.4172 245.07 15.6962 247.66 15.6962C251.442 15.6962 256.816 15.4172 261.065 15.4172C272.62 15.4172 276.778 19.3021 278.258 20.6882C280.293 22.6321 282.883 26.7873 282.883 31.6883C282.883 44.8173 273.266 54.0614 260.14 54.0614C259.676 54.0614 258.66 54.0614 258.196 53.976C257.738 53.8735 257.092 53.7824 257.092 53.1335C257.092 52.3964 257.738 52.1175 259.676 52.1175C264.856 52.1175 272.068 46.2972 272.068 36.8653C272.068 33.8143 271.783 27.6212 266.609 22.9992C263.285 19.9454 259.491 19.3904 257.365 19.3904C255.979 19.3904 254.596 19.49 253.762 19.7661C253.295 19.9454 253.016 20.4975 253.016 21.5192V58.4927C253.016 66.9997 253.016 74.3056 253.486 78.2787C253.762 80.8658 254.308 82.9007 257.092 83.2707C258.384 83.4614 260.413 83.6436 261.802 83.6436C262.821 83.6436 263.285 83.9196 263.285 84.3807C263.285 85.0324 262.542 85.3 261.526 85.3C255.427 85.3 249.601 85.0324 247.196 85.0324C245.07 85.0324 239.241 85.3 235.547 85.3C234.349 85.3 233.7 85.0324 233.7 84.3807C233.7 83.9196 234.073 83.6436 235.18 83.6436C236.563 83.6436 237.676 83.4614 238.507 83.2707C240.354 82.9007 240.818 80.8658 241.188 78.1876C241.649 74.3056 241.649 66.9997 241.649 58.4927V42.2273Z" fill="#6E7071"/>
<path d="M357.709 79.9323C370.747 60.0552 384.796 38.8917 397.546 18.1893C397.916 17.5376 398.289 16.9854 398.289 16.4304C398.289 15.9694 397.637 15.6933 396.718 15.6933H368.527C364.736 15.6933 360.299 15.7872 351.519 15.4144C349.211 15.3205 348.653 14.7683 347.822 14.7683C347.267 14.7683 346.897 15.2294 346.712 16.5272C346.251 19.2936 344.862 27.7095 344.862 29.8298C344.862 30.9398 344.956 31.4037 345.602 31.4037C346.16 31.4037 346.524 31.0337 346.712 29.7416C346.991 27.6099 348.653 24.1946 351.704 22.5325C354.661 20.8675 360.299 20.5914 365.015 20.5914H383.131C370.747 40.0899 357.06 60.9802 344.034 81.3155C342.921 82.9833 342.651 83.4415 342.651 84.0876C342.651 84.7336 343.197 85.0125 344.222 85.0125C362.886 85.0125 378.417 85.4736 393.852 85.4736C395.517 85.4736 396.169 84.7336 396.627 83.0715C397.27 80.7576 398.471 74.7524 398.471 71.7925C398.471 69.5782 398.289 68.9322 397.546 68.9322C396.994 68.9322 396.809 69.4843 396.627 70.4036C396.345 71.7014 395.79 73.3664 394.959 74.8435C393.485 77.6184 389.876 79.9323 380.447 79.9323H357.709Z" fill="#6E7071"/>
</svg>
