<svg width="500" height="100" viewBox="0 0 500 100" fill="none" xmlns="http://www.w3.org/2000/svg">
<path d="M327.838 69.3477C327.838 79.0557 320.723 81.3069 316.527 81.3069C314.373 81.3069 312.227 81.2016 309.705 80.177C306.723 78.9618 306.455 77.3822 306.455 71.2033V49.0864C306.455 48.6282 306.632 48.4318 306.99 48.4318C308.402 48.4318 309.338 48.4318 311.015 48.5286C314.669 48.7079 316.801 49.3568 318.764 50.7685C325.863 55.7149 327.838 63.5559 327.838 69.3477ZM295.227 58.137C295.227 66.7236 295.227 74.1206 294.772 78.0311C294.385 80.7434 293.935 82.7812 292.074 83.1626C291.229 83.3504 290.107 83.5468 288.698 83.5468C287.58 83.5468 287.216 83.8229 287.216 84.2925C287.216 84.9385 287.862 85.2175 289.083 85.2175C292.814 85.2175 298.694 84.9385 300.826 84.9385C303.655 84.9385 312.142 85.4935 314.373 85.4935C331.558 85.4935 339.31 75.1338 339.31 65.1497C339.31 54.2264 329.967 47.5865 322.319 44.9653C327.454 40.8726 331.839 36.3047 331.839 28.6373C331.839 23.6965 328.865 14.6317 311.937 14.6317C308.775 14.6317 305.135 14.9049 300.549 14.9049C298.694 14.9049 292.814 14.6317 287.862 14.6317C286.464 14.6317 285.807 14.8139 285.807 15.4799C285.807 16.1231 286.362 16.3194 287.403 16.3194C288.698 16.3194 290.278 16.402 291.038 16.5955C294.114 17.253 294.874 18.7301 295.048 21.9092C295.227 24.9061 295.227 27.5074 295.227 41.7065V58.137ZM306.455 20.23C306.455 19.2025 306.632 18.8325 307.283 18.639C308.217 18.4597 309.068 18.4597 310.368 18.4597C318.386 18.4597 322.04 26.6735 322.04 32.9235C322.04 37.5085 320.626 40.8726 318.207 42.825C316.604 44.2196 314.564 44.6095 311.478 44.6095C309.338 44.6095 307.935 44.5213 307.087 44.3221C306.723 44.2196 306.455 44.0375 306.455 43.2861V20.23Z" fill="#828282"/>
<path d="M192.427 28.2332L192.435 28.2275L192.401 28.2047H192.393C191.789 27.8404 190.87 27.6355 190.247 27.8973C186.305 27.5273 182.54 27.5672 178.541 27.6156H178.421L178.265 27.6212C176.264 27.6469 174.192 27.6668 172.123 27.6355L155.391 27.2883C151.469 27.1829 147.171 27.2143 142.953 27.3736C139.834 27.4021 136.803 27.4846 133.718 27.5672C130.499 27.6526 122.817 27.6782 118.229 27.6981C115.785 27.7009 114.512 27.7009 114.333 27.7152C113.79 27.7408 113.138 28.5035 113.124 29.1069C113.118 29.4484 113.314 29.8383 113.903 29.8924C114.333 29.9408 117.108 29.955 122.148 29.9323L127.306 29.9095C128.672 29.9095 129.309 29.9323 129.605 29.8981H129.637C133.427 29.5167 137.23 29.5452 140.91 29.5623H141.189C143.577 29.5765 146.036 29.585 148.512 29.494C149.03 29.6078 149.568 29.4968 150.094 29.3972L150.168 29.3801C150.404 29.3346 150.641 29.2862 150.877 29.2663C151.443 29.4314 152.084 29.4285 152.767 29.4057C153.418 29.3972 154.09 29.383 154.702 29.531V29.5452H154.804V29.5167C155.342 29.3403 155.832 29.437 156.347 29.5452C156.361 29.5452 156.444 29.5594 156.444 29.5594C156.686 29.605 156.919 29.6448 157.138 29.6505C161.928 29.5167 167.219 29.696 173.813 30.2026C173.802 30.2026 176.936 30.5385 176.936 30.5385H176.973C179.748 30.2653 182.614 30.473 185.388 30.6779C185.391 30.6779 185.46 30.6808 185.46 30.6808C187.543 30.8345 189.51 30.9796 191.468 30.9369L191.473 30.9569L191.596 30.9199V30.8914L192.626 30.066H192.637L192.677 30.0205L192.669 30.0148C193.022 29.4627 192.913 28.68 192.427 28.2332Z" fill="#A1A1A1" fill-opacity="0.86"/>
<path d="M164.74 63.7836L164.828 63.7267L164.823 63.5218L164.754 57.0071V56.9701C164.632 55.991 164.609 54.9152 164.581 53.7654C164.552 52.4761 164.527 51.1384 164.356 49.9602C164.322 48.2696 163.986 46.4566 163.664 44.7063L163.445 43.5138L163.425 43.4085L163.34 43.3259C163.081 43.0613 162.99 42.734 162.893 42.3526C162.813 42.031 162.722 41.7037 162.523 41.3906C162.09 40.5937 161.39 39.8196 160.778 39.1365L160.747 39.0995C160.596 38.8946 160.42 38.7864 160.263 38.6868C160.175 38.6271 160.081 38.573 159.987 38.4933L159.848 38.3681L159.768 38.3851L159.654 38.3026C159.099 37.8586 158.59 37.6878 157.989 37.4886H157.975C157.807 37.2439 157.48 37.204 157.258 37.1955V37.0361L156.945 36.9962L155.493 36.7771L155.283 36.7373L155.152 36.9223C155.092 36.9906 155.081 36.9991 154.782 36.8909C154.639 36.8426 154.491 36.7856 154.318 36.7771L154.147 36.7515L154.067 36.8369C154.022 36.8084 153.965 36.7771 153.902 36.7287L153.299 36.558L153.248 36.8369C152.983 36.8369 152.752 36.8824 152.559 36.9906H151.6L150.717 36.9962L150.82 37.3349L150.806 37.352C150.419 37.2524 150.123 37.4886 149.958 37.6281C149.921 37.6508 149.884 37.6793 149.869 37.6935C149.553 37.7448 149.374 37.8757 149.246 37.9753C149.155 38.0436 149.124 38.0635 149.038 38.0749L148.893 38.0891L148.788 38.2001C148.66 38.3624 148.241 38.5502 148.019 38.647L147.533 38.8661L147.632 38.9743C147.558 39.0027 147.476 39.054 147.407 39.1223H146.929V39.4951C146.909 39.4951 146.895 39.4951 146.881 39.4894L146.611 39.3699C146.594 39.3642 146.423 39.5976 146.423 39.5976C146.132 40.0017 145.765 40.3973 145.361 40.8185C144.903 41.3052 144.428 41.8175 144.066 42.3668L143.955 42.529L144.021 42.6998C143.932 42.7453 143.713 42.8905 143.673 43.1552C143.494 43.3516 143.451 43.6105 143.426 43.7842C143.409 43.8382 143.4 43.9094 143.386 43.9435C143.198 44.1769 143.153 44.4131 143.121 44.5924C143.099 44.7262 143.087 44.8059 143.03 44.8771L142.791 45.1759L142.902 45.247C142.831 45.4235 142.825 45.6142 142.825 45.7223C142.825 45.7707 142.825 45.8305 142.814 45.8675L142.663 45.9643L142.7 46.1976C142.763 46.6616 142.706 47.0885 142.646 47.5353C142.583 47.9651 142.538 48.409 142.575 48.8957C142.396 49.169 142.435 49.4877 142.475 49.6898C142.481 49.7609 142.495 49.852 142.489 49.8975L142.259 50.0769L142.424 50.3558C142.549 50.5664 142.452 50.8994 142.356 51.2238C142.265 51.5255 142.156 51.9097 142.273 52.2342C142.242 52.2626 142.213 52.2883 142.191 52.3196C142.148 52.3793 142.108 52.4761 142.125 52.5956C142.125 52.8404 142.094 52.9229 142.091 52.9457L141.915 53.2958L141.892 53.4324L142.199 53.6572C142.165 53.865 142.191 54.0642 142.216 54.2293C142.25 54.4655 142.259 54.568 142.191 54.6619L141.994 55.012L142.191 55.2396V55.3023C142.176 55.4559 142.156 55.7491 142.364 55.954C142.37 55.9967 142.376 56.0394 142.387 56.0707L142.034 56.1589L142.259 56.657C142.259 56.6912 142.248 56.7367 142.23 56.7822C142.199 56.9188 142.137 57.212 142.29 57.4624C142.171 57.7442 142.242 58.0288 142.293 58.2138C142.302 58.265 142.322 58.3333 142.324 58.3903C141.994 58.7375 142.156 59.2042 142.248 59.4547C142.091 59.6881 142.128 59.9698 142.156 60.1491L141.707 60.3028L142.171 60.7667C142.148 60.872 142.148 60.9944 142.225 61.1253C142.273 61.2079 142.344 61.2563 142.413 61.2961L142.273 61.336C142.273 61.353 142.29 61.3644 142.293 61.3787H142.29L142.452 61.8056L142.444 61.8483C142.404 62.0959 142.464 62.3406 142.583 62.5285C142.549 62.5769 142.524 62.6565 142.509 62.7334L142.324 62.9042L142.509 63.1603C142.646 63.3538 142.589 63.6128 142.489 64.0141C142.404 64.3642 142.293 64.8167 142.495 65.2066L142.248 65.4571L142.561 65.6905C142.555 65.699 142.549 65.7218 142.541 65.7275C142.452 65.8897 142.307 66.1686 142.495 66.4731L142.481 66.4418C142.549 66.5756 142.515 66.8232 142.481 67.0708C142.435 67.4408 142.387 67.8848 142.583 68.3231L142.524 68.7671L142.538 68.713C142.481 68.8809 142.524 69.0261 142.575 69.1399L142.435 69.2025L142.538 69.5128C142.64 69.8258 142.64 70.2243 142.64 70.6341C142.646 71.4253 142.646 72.3133 143.358 72.9907L143.508 73.1387L143.71 73.0732C144.234 72.9224 144.265 72.3958 144.28 72.1112C144.282 72.0458 144.282 71.9945 144.291 71.9462L144.305 71.8665L144.28 71.7896C144.066 71.081 144.16 70.1304 144.234 69.3021C144.257 69.0716 144.28 68.8667 144.291 68.6646L144.305 68.565L144.257 68.4739C144.112 68.1808 144.143 67.899 144.189 67.566C144.223 67.2672 144.257 66.9285 144.154 66.5756C144.28 65.0558 144.203 63.2514 144.143 61.6604C144.112 60.9802 144.086 60.3427 144.08 59.7592V59.745L144.072 59.7222C143.981 58.9709 144.004 58.1654 144.029 57.3856C144.052 56.6769 144.072 55.9597 144.004 55.2937C144.174 54.5338 144.16 53.8394 144.143 53.0994V52.0663L144.154 51.9723L144.132 51.9268C144.291 51.7247 144.334 51.5255 144.248 51.3234C144.322 51.0417 144.339 50.7827 144.339 50.5379C144.348 50.3444 144.356 50.1651 144.396 49.9972L144.413 49.9118L144.396 49.8207C144.348 49.6585 144.391 49.4792 144.428 49.2885C144.482 49.038 144.556 48.7591 144.45 48.4802C144.732 47.9053 144.792 47.2137 144.849 46.5221L144.869 46.2916C144.897 46.1407 144.84 46.0013 144.724 45.8817V45.8618C144.724 45.5573 144.886 45.3154 145.074 45.0108C145.29 44.675 145.529 44.2908 145.595 43.7728L145.606 43.6845L145.6 43.6703C145.623 43.6447 145.654 43.6134 145.677 43.5935C145.811 43.4796 146.013 43.3146 146.01 43.0413C146.01 42.9901 145.999 42.9474 145.987 42.9019C146.232 42.6742 146.394 42.4152 146.534 42.1761C146.739 41.8346 146.89 41.5898 147.288 41.4731L147.49 41.4134L147.541 41.2141C147.598 40.9865 147.792 40.8555 148.102 40.6705C148.335 40.5225 148.597 40.3575 148.785 40.1099C149.053 40.1298 149.209 40.0558 149.3 39.9619C149.616 39.8879 149.861 39.6943 150.057 39.5378C150.399 39.2703 150.507 39.2105 150.729 39.313L150.954 39.4154L151.107 39.2703C151.11 39.2703 151.124 39.2646 151.13 39.2646C151.238 39.239 151.42 39.1877 151.526 39.017C151.631 38.997 151.708 38.96 151.796 38.9401C151.97 38.8747 152.018 38.8718 152.084 38.906C152.155 38.943 152.277 38.997 152.431 38.9515L152.437 38.98L152.704 38.943L153.054 38.9003C154.096 38.7665 154.998 38.647 155.815 39.0853L156.108 39.2447L156.282 38.98C156.319 39.0198 156.356 39.0654 156.39 39.0995C156.603 39.3329 156.97 39.7399 157.497 39.6516C157.614 39.7541 157.75 39.8309 157.855 39.8993C157.915 39.9192 157.969 39.9647 158.006 39.9875V40.0131L158.08 40.0985C158.248 40.3262 158.604 40.4286 158.877 40.4429C159.489 41.0804 160.118 41.9627 160.118 42.3526V42.7112H160.388V42.734C160.499 43.2121 160.633 43.8012 160.995 44.1855C160.895 44.4388 160.986 44.7262 161.026 44.8514C161.029 44.8884 161.043 44.9425 161.06 44.9795L160.972 45.2556L161.211 45.5003L161.259 45.5231C161.245 45.7707 161.362 46.0013 161.444 46.1635C161.461 46.2119 161.484 46.2574 161.501 46.3058L161.444 46.4367C161.117 47.06 161.555 47.4015 161.766 47.5723C161.797 47.5979 161.826 47.6121 161.843 47.6292C161.681 47.7544 161.686 47.8882 161.655 48.1074L161.681 48.3834L161.797 48.5627C161.797 48.5627 161.797 48.5713 161.803 48.5713C161.803 48.5798 161.812 48.5912 161.823 48.6026C161.831 48.6567 161.863 48.7335 161.9 48.8103L161.777 48.9327L161.695 49.2629L161.874 49.5162L162.014 49.5873C162.014 49.7382 162.071 49.8662 162.113 49.9516C162.113 49.9744 162.122 49.9915 162.127 50.0114L162.102 50.1708C161.977 50.7628 161.831 51.5312 162.199 52.1516C162.182 52.163 162.179 52.1716 162.17 52.183C161.997 52.4106 162.039 52.6753 162.071 52.8689C162.079 52.9258 162.093 53.0311 162.09 53.0595L161.997 53.4324C161.991 53.4466 162.113 53.4779 162.216 53.5064C162.213 53.5462 162.19 53.569 162.182 53.6231L162.108 54.0443H162.247C162.224 54.198 162.216 54.3374 162.216 54.457C162.213 54.6761 162.201 54.8156 162.127 54.9294L162.093 54.9807L162.079 55.0404C161.977 55.4246 162.122 55.7975 162.241 56.0906C162.258 56.1532 162.281 56.2073 162.301 56.2585C162.241 56.3297 162.179 56.4265 162.182 56.5659C162.182 56.6001 162.199 56.6285 162.201 56.657L162.127 56.731L162.199 56.9445C162.236 57.064 162.31 57.138 162.398 57.1835L162.338 57.2063C162.33 57.2063 162.33 57.4824 162.33 57.4824V57.5877L162.093 57.6531L162.213 57.8837C162.15 57.9947 162.093 58.154 162.159 58.3333L161.997 58.6094C162.005 58.6009 162.028 58.7802 162.164 58.8399C162.016 59.3409 162.375 59.7023 162.591 59.9158C162.68 60.004 162.739 60.0751 162.774 60.1235H162.603L162.736 60.5931L162.739 60.6045C162.708 60.633 162.674 60.6671 162.648 60.7098L162.341 60.855L162.446 61.2563L162.415 61.353C162.341 61.5608 162.398 61.7059 162.46 61.7942C162.472 61.8084 162.489 61.8255 162.503 61.834C162.398 61.9393 162.273 62.0959 162.247 62.3406L162.216 62.6793L162.489 62.722C162.472 62.7988 162.446 62.8643 162.432 62.9355C162.398 63.0607 162.369 63.1745 162.31 63.2599C162.301 63.277 162.29 63.2912 162.29 63.3026L162.771 63.5815C162.708 63.7124 162.657 63.8291 162.628 63.9259C162.617 63.9828 162.6 64.0454 162.58 64.0796H162.136L162.159 64.5492C162.182 64.6232 162.19 64.7086 162.201 64.7996C162.213 64.8907 162.224 64.9875 162.247 65.0899V65.5595C162.247 65.625 162.247 65.7218 162.273 65.8242L162.213 65.8555L162.253 66.1174C162.273 66.2483 162.258 66.3764 162.253 66.5101C162.247 66.5756 162.241 66.6695 162.241 66.7492L161.905 66.9285L162.31 67.364V67.3839C162.258 67.4863 162.201 67.6372 162.201 67.8023H161.914L162.404 68.3999C162.446 68.4426 162.489 68.5792 162.515 68.6789C162.515 68.6931 162.523 68.6988 162.523 68.713C162.315 68.9065 162.29 69.194 162.273 69.3534C162.267 69.4188 162.258 69.5156 162.241 69.5526C162.241 69.5526 162.247 69.5469 162.247 69.5384L162.369 69.7091C162.273 69.7746 162.213 69.8571 162.182 69.9283C162.136 70.0421 162.127 70.1617 162.142 70.2698H161.666L162.056 70.654L161.695 70.7764L161.997 71.0354V72.0002C161.997 72.1795 162.079 72.3247 162.224 72.4044C162.241 72.4044 162.247 72.4072 162.247 72.4072C162.446 72.5381 162.657 72.5325 162.83 72.4841V72.8854L163.294 72.7516C163.636 72.6548 163.898 72.6349 164.168 72.6861L164.552 72.7658L164.601 72.3759C164.789 70.9244 164.754 69.5184 164.712 68.1723C164.68 66.8431 164.643 65.5937 164.817 64.3585C164.919 64.1194 164.808 63.8946 164.74 63.7836Z" fill="black" fill-opacity="0.72"/>
<path d="M136.974 63.7836L137.056 63.7267L137.051 63.5218L136.979 57.0071V56.9701C136.866 55.991 136.846 54.9152 136.817 53.7654C136.792 52.4761 136.76 51.1384 136.581 49.9602C136.558 48.2696 136.217 46.4566 135.892 44.7063L135.673 43.5138L135.65 43.4085L135.573 43.3259C135.306 43.0613 135.226 42.734 135.121 42.3526C135.038 42.031 134.95 41.7037 134.757 41.3906C134.315 40.5937 133.621 39.8196 133.012 39.1365L132.981 39.0995C132.83 38.8946 132.651 38.7864 132.488 38.6868C132.403 38.6271 132.318 38.573 132.224 38.4933L132.084 38.3681L131.993 38.3851L131.882 38.3026C131.333 37.8586 130.815 37.6878 130.226 37.4886H130.209C130.038 37.2439 129.716 37.204 129.483 37.1955V37.0361L129.175 36.9962L127.73 36.7771L127.51 36.7373L127.382 36.9223C127.325 36.9906 127.317 36.9991 127.015 36.8909C126.873 36.8426 126.728 36.7856 126.554 36.7771L126.381 36.7515L126.295 36.8369C126.258 36.8084 126.201 36.7771 126.136 36.7287L125.532 36.558L125.484 36.8369C125.217 36.8369 124.98 36.8824 124.795 36.9906H123.836L122.951 36.9962L123.054 37.3349L123.039 37.352C122.647 37.2524 122.351 37.4886 122.183 37.6281C122.148 37.6508 122.123 37.6793 122.1 37.6935C121.787 37.7448 121.605 37.8757 121.482 37.9753C121.386 38.0436 121.357 38.0635 121.266 38.0749L121.127 38.0891L121.019 38.2001C120.89 38.3624 120.475 38.5502 120.247 38.647L119.758 38.8661L119.869 38.9743C119.786 39.0027 119.709 39.054 119.638 39.1223H119.16V39.4951C119.149 39.4951 119.126 39.4951 119.109 39.4894L118.847 39.3699C118.824 39.3642 118.656 39.5976 118.656 39.5976C118.363 40.0017 117.987 40.3973 117.598 40.8185C117.134 41.3052 116.661 41.8175 116.286 42.3668L116.177 42.529L116.254 42.6998C116.163 42.7453 115.944 42.8905 115.91 43.1552C115.722 43.3516 115.679 43.6105 115.651 43.7842C115.648 43.8382 115.634 43.9094 115.622 43.9435C115.432 44.1769 115.386 44.4131 115.355 44.5924C115.329 44.7262 115.318 44.8059 115.264 44.8771L115.03 45.1759L115.136 45.247C115.062 45.4235 115.062 45.6142 115.062 45.7223C115.062 45.7707 115.05 45.8305 115.05 45.8675L114.897 45.9643L114.936 46.1976C114.999 46.6616 114.942 47.0885 114.882 47.5353C114.817 47.9651 114.76 48.409 114.811 48.8957C114.632 49.169 114.675 49.4877 114.7 49.6898C114.717 49.7609 114.729 49.852 114.723 49.8975L114.487 50.0769L114.652 50.3558C114.777 50.5664 114.68 50.8994 114.586 51.2238C114.495 51.5255 114.39 51.9097 114.504 52.2342C114.475 52.2626 114.441 52.2883 114.421 52.3196C114.376 52.3793 114.342 52.4761 114.353 52.5956C114.353 52.8404 114.327 52.9229 114.313 52.9457L114.145 53.2958L114.117 53.4324L114.436 53.6572C114.399 53.865 114.427 54.0642 114.447 54.2293C114.481 54.4655 114.495 54.568 114.427 54.6619L114.228 55.012L114.427 55.2396C114.427 55.2596 114.427 55.2766 114.421 55.3023C114.413 55.4559 114.399 55.7491 114.592 55.954C114.598 55.9967 114.606 56.0394 114.609 56.0707L114.259 56.1589L114.495 56.657C114.487 56.6912 114.475 56.7367 114.47 56.7822C114.436 56.9188 114.373 57.212 114.515 57.4624C114.404 57.7442 114.475 58.0288 114.515 58.2138C114.535 58.265 114.549 58.3333 114.558 58.3903C114.228 58.7375 114.384 59.2042 114.475 59.4547C114.325 59.6881 114.359 59.9698 114.39 60.1491L113.946 60.3028L114.399 60.7667C114.376 60.872 114.376 60.9944 114.455 61.1253C114.512 61.2079 114.578 61.2563 114.649 61.2961L114.512 61.336C114.512 61.353 114.515 61.3644 114.527 61.3787H114.515L114.68 61.8056V61.8483C114.638 62.0959 114.695 62.3406 114.817 62.5285C114.777 62.5769 114.751 62.6565 114.74 62.7334L114.564 62.9042L114.74 63.1603C114.874 63.3538 114.825 63.6128 114.723 64.0141C114.632 64.3642 114.527 64.8167 114.729 65.2066L114.475 65.4571L114.791 65.6905C114.788 65.699 114.777 65.7218 114.771 65.7275C114.686 65.8897 114.538 66.1686 114.729 66.4731L114.709 66.4418C114.777 66.5756 114.751 66.8232 114.717 67.0708C114.666 67.4408 114.609 67.8848 114.817 68.3231L114.751 68.7671L114.76 68.713C114.709 68.8809 114.751 69.0261 114.811 69.1399L114.666 69.2025L114.76 69.5128C114.868 69.8258 114.874 70.2243 114.874 70.6341C114.874 71.4253 114.882 72.3133 115.583 72.9907L115.745 73.1387L115.944 73.0732C116.471 72.9224 116.502 72.3958 116.516 72.1112C116.516 72.0458 116.516 71.9945 116.519 71.9462L116.536 71.8665L116.516 71.7896C116.303 71.081 116.394 70.1304 116.471 69.3021C116.485 69.0716 116.516 68.8667 116.519 68.6646L116.536 68.565L116.485 68.4739C116.345 68.1808 116.374 67.899 116.416 67.566C116.459 67.2672 116.49 66.9285 116.382 66.5756C116.502 65.0558 116.439 63.2514 116.374 61.6604C116.348 60.9802 116.317 60.3427 116.305 59.7592V59.745L116.303 59.7222C116.212 58.9709 116.237 58.1654 116.26 57.3856C116.286 56.6769 116.303 55.9597 116.237 55.2937C116.405 54.5338 116.394 53.8394 116.382 53.0994C116.374 52.7664 116.374 52.4192 116.382 52.0663V51.9723L116.362 51.9268C116.519 51.7247 116.562 51.5255 116.482 51.3234C116.556 51.0417 116.573 50.7827 116.576 50.5379C116.582 50.3444 116.582 50.1651 116.627 49.9972L116.641 49.9118L116.627 49.8207C116.576 49.6585 116.616 49.4792 116.664 49.2885C116.721 49.038 116.775 48.7591 116.681 48.4802C116.96 47.9053 117.023 47.2137 117.085 46.5221L117.105 46.2916C117.128 46.1407 117.082 46.0013 116.954 45.8817V45.8618C116.954 45.5573 117.111 45.3154 117.307 45.0108C117.518 44.675 117.763 44.2908 117.834 43.7728L117.839 43.6845L117.834 43.6703C117.857 43.6447 117.894 43.6134 117.913 43.5935C118.044 43.4796 118.244 43.3146 118.235 43.0413C118.235 42.9901 118.229 42.9474 118.212 42.9019C118.468 42.6742 118.628 42.4152 118.767 42.1761C118.969 41.8346 119.117 41.5898 119.516 41.4731L119.718 41.4134L119.775 41.2141C119.829 40.9865 120.022 40.8555 120.338 40.6705C120.572 40.5225 120.825 40.3575 121.019 40.1099C121.28 40.1298 121.44 40.0558 121.534 39.9619C121.85 39.8879 122.097 39.6943 122.296 39.5378C122.624 39.2703 122.735 39.2105 122.965 39.313L123.19 39.4154L123.335 39.2703C123.35 39.2703 123.364 39.2646 123.364 39.2646C123.472 39.239 123.651 39.1877 123.762 39.017C123.859 38.997 123.944 38.96 124.027 38.9401C124.212 38.8747 124.257 38.8718 124.317 38.906C124.383 38.943 124.502 38.997 124.659 38.9515L124.673 38.98L124.935 38.943L125.285 38.9003C126.332 38.7665 127.234 38.647 128.048 39.0853L128.336 39.2447L128.515 38.98C128.552 39.0198 128.589 39.0654 128.626 39.0995C128.834 39.3329 129.198 39.7399 129.728 39.6516C129.841 39.7541 129.978 39.8309 130.095 39.8993C130.14 39.9192 130.203 39.9647 130.243 39.9875V40.0131L130.317 40.0985C130.479 40.3262 130.832 40.4286 131.108 40.4429C131.723 41.0804 132.349 41.9627 132.349 42.3526V42.7112H132.614C132.614 42.7226 132.625 42.7283 132.625 42.734C132.725 43.2121 132.864 43.8012 133.228 44.1855C133.12 44.4388 133.214 44.7262 133.257 44.8514C133.265 44.8884 133.279 44.9425 133.291 44.9795L133.2 45.2556L133.442 45.5003L133.496 45.5231C133.482 45.7707 133.593 46.0013 133.678 46.1635C133.689 46.2119 133.718 46.2574 133.729 46.3058L133.678 46.4367C133.351 47.06 133.792 47.4015 134 47.5723C134.031 47.5979 134.054 47.6121 134.074 47.6292C133.908 47.7544 133.917 47.8882 133.891 48.1074L133.917 48.3834L134.025 48.5627L134.031 48.5713C134.045 48.5798 134.045 48.5912 134.048 48.6026C134.068 48.6567 134.088 48.7335 134.139 48.8103L134.002 48.9327L133.934 49.2629L134.105 49.5162L134.247 49.5873C134.241 49.7382 134.301 49.8662 134.344 49.9516C134.344 49.9744 134.35 49.9915 134.364 50.0114L134.327 50.1708C134.204 50.7628 134.059 51.5312 134.424 52.1516C134.418 52.163 134.407 52.1716 134.398 52.183C134.227 52.4106 134.276 52.6753 134.301 52.8689C134.31 52.9258 134.327 53.0311 134.315 53.0595L134.227 53.4324C134.219 53.4466 134.344 53.4779 134.449 53.5064C134.441 53.5462 134.418 53.569 134.415 53.6231L134.335 54.0443H134.489C134.458 54.198 134.449 54.3374 134.449 54.457C134.449 54.6761 134.441 54.8156 134.358 54.9294L134.327 54.9807L134.31 55.0404C134.204 55.4246 134.35 55.7975 134.469 56.0906C134.489 56.1532 134.509 56.2073 134.526 56.2585C134.469 56.3297 134.407 56.4265 134.415 56.5659C134.415 56.6001 134.424 56.6285 134.441 56.657L134.358 56.731L134.424 56.9445C134.469 57.064 134.537 57.138 134.629 57.1835L134.574 57.2063C134.56 57.2063 134.56 57.4824 134.56 57.4824V57.5877L134.327 57.6531L134.441 57.8837C134.384 57.9947 134.324 58.154 134.384 58.3333L134.233 58.6094C134.233 58.6009 134.261 58.7802 134.392 58.8399C134.25 59.3409 134.603 59.7023 134.825 59.9158C134.913 60.004 134.97 60.0751 135.016 60.1235H134.833L134.97 60.5931V60.6045C134.939 60.633 134.907 60.6671 134.873 60.7098L134.583 60.855L134.683 61.2563L134.646 61.353C134.577 61.5608 134.64 61.7059 134.688 61.7942C134.703 61.8084 134.725 61.8255 134.737 61.834C134.629 61.9393 134.509 62.0959 134.489 62.3406L134.449 62.6793L134.728 62.722C134.703 62.7988 134.683 62.8643 134.668 62.9355C134.629 63.0607 134.597 63.1745 134.537 63.2599H134.54C134.537 63.277 134.523 63.2912 134.515 63.3026L134.999 63.5815C134.93 63.7124 134.893 63.8291 134.865 63.9259C134.851 63.9828 134.825 64.0454 134.814 64.0796H134.367L134.392 64.5492C134.415 64.6232 134.424 64.7086 134.435 64.7996C134.449 64.8907 134.452 64.9875 134.481 65.0899V65.5595C134.481 65.625 134.489 65.7218 134.506 65.8242L134.449 65.8555L134.489 66.1174C134.506 66.2483 134.495 66.3764 134.489 66.5101C134.481 66.5756 134.472 66.6695 134.472 66.7492L134.145 66.9285L134.549 67.364C134.54 67.3753 134.537 67.3782 134.537 67.3782C134.489 67.4863 134.435 67.6372 134.435 67.8023H134.145L134.64 68.3999C134.683 68.4426 134.714 68.5792 134.742 68.6789C134.751 68.6931 134.751 68.6988 134.757 68.713C134.549 68.9065 134.523 69.194 134.509 69.3534C134.495 69.4188 134.489 69.5156 134.472 69.5526C134.472 69.5526 134.472 69.5469 134.481 69.5384L134.603 69.7091C134.509 69.7746 134.449 69.8571 134.415 69.9283C134.364 70.0421 134.358 70.1617 134.375 70.2698H133.903L134.293 70.654L133.934 70.7764L134.233 71.0354V72.0002C134.233 72.1795 134.31 72.3247 134.458 72.4044C134.469 72.4044 134.472 72.4072 134.472 72.4072C134.674 72.5381 134.885 72.5325 135.058 72.4841V72.8854L135.528 72.7516C135.864 72.6548 136.128 72.6349 136.399 72.6861L136.777 72.7658L136.829 72.3759C137.025 70.9244 136.979 69.5184 136.948 68.1723C136.908 66.8431 136.88 65.5937 137.051 64.3585C137.156 64.1194 137.042 63.8946 136.974 63.7836Z" fill="#828282"/>
<path d="M192.034 64.2817L192.119 64.2133L192.114 64.0141L192.043 57.508V57.4624C191.929 56.4919 191.897 55.4019 191.878 54.2492C191.843 52.9628 191.815 51.6393 191.641 50.4468C191.607 48.7591 191.28 46.949 190.944 45.1987L190.736 44.009L190.711 43.898L190.631 43.8098C190.369 43.5536 190.278 43.2235 190.184 42.845C190.096 42.5233 190.019 42.1932 189.811 41.883C189.373 41.0889 188.681 40.3148 188.075 39.626L188.041 39.5947C187.89 39.3813 187.702 39.2731 187.551 39.1763C187.46 39.1194 187.372 39.0625 187.284 38.98L187.136 38.8633L187.056 38.886L186.945 38.7921C186.396 38.3453 185.881 38.1774 185.283 37.9867L185.269 37.9781C185.092 37.7362 184.768 37.6992 184.543 37.6878V37.5342L184.239 37.4829L182.784 37.2638L182.577 37.2353L182.437 37.4118C182.392 37.4744 182.377 37.4915 182.064 37.3862C181.93 37.3406 181.771 37.278 181.612 37.2638L181.447 37.2524L181.356 37.3349C181.319 37.2979 181.256 37.2638 181.196 37.2353L180.584 37.0503L180.544 37.3235C180.274 37.3235 180.049 37.3805 179.85 37.4744H178.891L178.009 37.4829L178.114 37.8245C178.105 37.8302 178.1 37.8358 178.1 37.8358C177.707 37.7419 177.402 37.9781 177.237 38.1176C177.209 38.1461 177.175 38.1717 177.155 38.1859C176.844 38.2371 176.662 38.3681 176.54 38.4677C176.443 38.5388 176.418 38.5616 176.329 38.5673L176.173 38.5815L176.082 38.6954C175.948 38.8604 175.535 39.0397 175.308 39.1393L174.818 39.3585L174.923 39.461C174.847 39.4951 174.767 39.5435 174.696 39.6118H174.229V39.9875C174.206 39.9875 174.181 39.9846 174.161 39.9818L173.904 39.8679C173.885 39.8594 173.705 40.0956 173.705 40.0956C173.426 40.4969 173.056 40.8954 172.655 41.3052C172.197 41.7976 171.719 42.307 171.346 42.8592L171.241 43.0214L171.315 43.1893C171.221 43.2434 171.001 43.38 170.953 43.6475C170.779 43.8411 170.742 44.1058 170.711 44.2765C170.705 44.3335 170.691 44.4074 170.683 44.4359C170.483 44.675 170.446 44.9055 170.415 45.082C170.392 45.2186 170.375 45.2983 170.31 45.3723L170.085 45.6654L170.19 45.748C170.122 45.913 170.122 46.1009 170.122 46.2119C170.122 46.2574 170.113 46.3229 170.108 46.3656L169.957 46.4566L169.991 46.6957C170.062 47.1511 169.997 47.578 169.934 48.022C169.877 48.4574 169.826 48.8986 169.866 49.3881C169.695 49.6585 169.735 49.9772 169.761 50.1878C169.772 50.2476 169.786 50.3444 169.786 50.3871L169.55 50.5721L169.715 50.8481C169.837 51.0587 169.744 51.3889 169.644 51.7162C169.556 52.0179 169.448 52.4049 169.556 52.7266C169.533 52.7465 169.499 52.7749 169.482 52.8148C169.439 52.8689 169.405 52.9713 169.411 53.0909C169.411 53.3328 169.385 53.4153 169.376 53.4324L169.206 53.7796L169.174 53.9276L169.487 54.1467C169.45 54.3545 169.482 54.5566 169.51 54.7217C169.541 54.9579 169.556 55.0603 169.487 55.1514L169.288 55.5015L169.482 55.7377V55.7918C169.465 55.954 169.45 56.2386 169.65 56.4464C169.658 56.4919 169.664 56.5261 169.675 56.5602L169.319 56.657L169.556 57.1494C169.55 57.1835 169.533 57.2319 169.527 57.2717C169.496 57.4112 169.425 57.6987 169.57 57.9577C169.459 58.2423 169.533 58.5155 169.584 58.7062C169.598 58.7574 169.604 58.8257 169.613 58.8798C169.28 59.227 169.448 59.6966 169.533 59.9442C169.385 60.1833 169.419 60.4679 169.448 60.6387L168.986 60.7924L169.459 61.262C169.439 61.3644 169.439 61.4896 169.513 61.6149C169.57 61.7031 169.638 61.7543 169.707 61.7856L169.564 61.8255C169.57 61.8397 169.573 61.8596 169.584 61.8767H169.573L169.744 62.2951L169.735 62.3406C169.698 62.5939 169.752 62.8358 169.877 63.0237C169.837 63.0664 169.809 63.1432 169.803 63.2201L169.615 63.4022L169.8 63.6527C169.934 63.849 169.877 64.1024 169.775 64.5122C169.695 64.8623 169.584 65.3119 169.786 65.699L169.533 65.9495L169.852 66.18C169.846 66.1999 169.837 66.217 169.826 66.2255C169.746 66.3764 169.598 66.661 169.786 66.9598L169.772 66.9285C169.837 67.0737 169.803 67.307 169.772 67.5632C169.729 67.9332 169.678 68.3715 169.869 68.8098L169.809 69.2566L169.826 69.2054C169.772 69.3733 169.809 69.5156 169.866 69.6323L169.729 69.6949L169.826 70.0051C169.926 70.321 169.934 70.7081 169.934 71.1293C169.934 71.9149 169.934 72.8114 170.646 73.4802L170.799 73.6225L171.001 73.5684C171.528 73.409 171.556 72.8797 171.568 72.5979C171.574 72.5438 171.574 72.4784 171.582 72.4414L171.588 72.3617L171.568 72.282C171.354 71.5619 171.443 70.6227 171.528 69.7888C171.548 69.5697 171.568 69.3591 171.588 69.1598V69.0488L171.542 68.972C171.4 68.6789 171.437 68.3914 171.477 68.0584C171.517 67.7539 171.548 67.4266 171.443 67.0737C171.568 65.5453 171.494 63.7466 171.428 62.1499C171.4 61.4754 171.371 60.8379 171.369 60.2544V60.2288L171.363 60.2089C171.272 59.4632 171.297 58.6549 171.32 57.8694C171.34 57.175 171.363 56.4464 171.297 55.7861C171.463 55.029 171.451 54.3289 171.437 53.5918C171.437 53.2616 171.428 52.9172 171.437 52.5501L171.443 52.4619L171.414 52.4163C171.588 52.2199 171.622 52.0179 171.542 51.8158C171.616 51.5312 171.63 51.2694 171.636 51.0303C171.642 50.8368 171.65 50.6575 171.687 50.4895L171.704 50.4013L171.687 50.3188C171.636 50.1565 171.679 49.9659 171.727 49.7723C171.778 49.5361 171.835 49.2543 171.739 48.9697C172.018 48.4005 172.083 47.6975 172.14 47.0145L172.163 46.7868C172.188 46.6416 172.131 46.4993 172.015 46.3741V46.3513C172.015 46.0553 172.177 45.802 172.365 45.5032C172.578 45.1645 172.823 44.7888 172.891 44.2651L172.897 44.1712L172.891 44.1627C172.908 44.1342 172.948 44.1058 172.977 44.0858C173.102 43.9748 173.304 43.8041 173.298 43.5337C173.298 43.4796 173.29 43.4341 173.275 43.3886C173.529 43.1666 173.685 42.9047 173.828 42.6713C174.027 42.3241 174.181 42.0794 174.579 41.9627L174.775 41.9057L174.832 41.7094C174.889 41.4845 175.08 41.3564 175.402 41.1601C175.629 41.0121 175.888 40.8498 176.082 40.6051C176.344 40.6222 176.497 40.5453 176.588 40.4571C176.907 40.3802 177.146 40.1896 177.357 40.0273C177.684 39.7569 177.798 39.6972 178.023 39.8053L178.248 39.9078L178.393 39.7655C178.407 39.7655 178.413 39.7569 178.421 39.7569C178.532 39.7285 178.714 39.6744 178.823 39.5093C178.916 39.4866 179.008 39.461 179.084 39.4353C179.269 39.3642 179.309 39.3613 179.378 39.3983C179.449 39.4353 179.565 39.4809 179.71 39.4467L179.725 39.4723L179.995 39.4353L180.345 39.3927C181.39 39.2532 182.292 39.1365 183.109 39.5776L183.399 39.7399L183.567 39.4752C183.61 39.515 183.649 39.5606 183.678 39.5947C183.894 39.8224 184.256 40.2266 184.788 40.1355C184.896 40.2379 185.036 40.3262 185.152 40.3916C185.192 40.4172 185.263 40.4571 185.306 40.4855V40.5026L185.374 40.5994C185.539 40.8128 185.889 40.921 186.168 40.9324C186.777 41.5756 187.406 42.4522 187.406 42.845V43.2036H187.674L187.682 43.2235C187.785 43.7073 187.913 44.2965 188.291 44.6835C188.183 44.9283 188.272 45.2186 188.314 45.3438C188.331 45.3808 188.343 45.4292 188.348 45.4747L188.26 45.748L188.505 45.9842L188.556 46.0126C188.536 46.2574 188.653 46.5022 188.738 46.6615C188.75 46.7014 188.775 46.7469 188.792 46.7953L188.741 46.9291C188.414 47.5552 188.846 47.8967 189.051 48.0561C189.085 48.0874 189.114 48.1074 189.137 48.1244C188.972 48.2497 188.977 48.3834 188.937 48.6054L188.977 48.8758L189.085 49.0523L189.094 49.0608C189.103 49.0722 189.103 49.0836 189.105 49.095C189.122 49.149 189.151 49.223 189.194 49.3084L189.066 49.4251L188.98 49.7495L189.159 50.0114L189.305 50.0768C189.302 50.2305 189.356 50.3586 189.396 50.4468C189.404 50.4668 189.418 50.481 189.43 50.4981L189.393 50.666C189.268 51.2551 189.114 52.0236 189.487 52.6469C189.478 52.6582 189.464 52.6639 189.464 52.6639C189.288 52.9059 189.327 53.1677 189.356 53.3527C189.373 53.4238 189.381 53.5263 189.376 53.5576L189.282 53.9276C189.282 53.939 189.404 53.976 189.507 53.9959C189.495 54.0301 189.478 54.0756 189.475 54.1041L189.396 54.5395H189.544C189.515 54.6847 189.507 54.8213 189.507 54.9493C189.501 55.1656 189.495 55.308 189.418 55.4189L189.393 55.473L189.373 55.5243C189.268 55.9227 189.413 56.287 189.527 56.5858C189.549 56.6456 189.569 56.6997 189.584 56.7452C189.527 56.8221 189.464 56.9188 189.475 57.0611C189.475 57.0896 189.487 57.1181 189.495 57.1494L189.418 57.2205L189.487 57.4368C189.521 57.5592 189.595 57.6332 189.689 57.6787L189.632 57.693C189.612 57.693 189.612 57.9804 189.612 57.9804V58.0772L189.381 58.1455L189.501 58.3789C189.447 58.487 189.381 58.6493 189.447 58.8257L189.288 59.1046C189.288 59.1046 189.316 59.2725 189.45 59.3409C189.316 59.8304 189.666 60.1918 189.888 60.4081C189.973 60.4992 190.033 60.5647 190.076 60.6187H189.894L190.022 61.0855L190.033 61.094C189.999 61.1253 189.968 61.1567 189.934 61.1993L189.638 61.3416L189.734 61.7429L189.697 61.8426C189.632 62.0475 189.695 62.1955 189.754 62.2837C189.771 62.3065 189.774 62.315 189.8 62.3292C189.689 62.4289 189.564 62.5939 189.544 62.8273L189.507 63.1745L189.786 63.2087C189.766 63.2827 189.74 63.3538 189.723 63.4278C189.689 63.5559 189.658 63.6641 189.595 63.7523H189.601C189.595 63.7665 189.584 63.7779 189.575 63.8007L190.062 64.071C189.991 64.1963 189.948 64.3243 189.928 64.424C189.914 64.4723 189.888 64.5321 189.874 64.5691H189.43L189.45 65.0416C189.475 65.1184 189.487 65.2009 189.495 65.3006C189.501 65.3745 189.515 65.4742 189.535 65.588V66.0548C189.535 66.1174 189.544 66.217 189.564 66.3138L189.501 66.3479L189.544 66.6041C189.564 66.735 189.549 66.8687 189.544 66.9968C189.535 67.0737 189.535 67.1505 189.535 67.2444L189.202 67.4095L189.601 67.8535C189.601 67.8563 189.595 67.8677 189.595 67.8706C189.549 67.9844 189.495 68.1296 189.495 68.2946H189.202L189.697 68.8866C189.734 68.9322 189.774 69.0716 189.803 69.1684C189.811 69.194 189.811 69.194 189.811 69.2054C189.612 69.3961 189.575 69.6835 189.564 69.8401C189.564 69.9141 189.549 70.008 189.535 70.0421V70.0364L189.658 70.193C189.564 70.2698 189.507 70.3495 189.475 70.4178C189.43 70.5373 189.418 70.654 189.43 70.765H188.957L189.347 71.1521L188.98 71.2688L189.288 71.5249V72.4955C189.288 72.6691 189.373 72.8199 189.515 72.8854C189.515 72.8854 189.535 72.8968 189.544 72.8996C189.734 73.0248 189.942 73.0248 190.121 72.9793V73.3863L190.591 73.244C190.924 73.1415 191.189 73.1244 191.456 73.1757L191.843 73.2525L191.892 72.8654C192.077 71.4196 192.043 70.0194 192.006 68.6561C191.974 67.3298 191.943 66.0832 192.102 64.8566C192.213 64.6146 192.102 64.3927 192.034 64.2817Z" fill="#828282"/>
<path d="M197.715 94.712H108.285V5.27664H197.715V94.712ZM103 99.9886H203.003V0H103V99.9886Z" fill="#828282"/>
<path d="M241.149 42.2273C241.149 28.1762 241.149 25.5863 240.967 22.6321C240.776 19.49 240.039 18.0043 236.988 17.3611C236.251 17.1704 234.68 17.085 233.385 17.085C232.372 17.085 231.814 16.9029 231.814 16.2511C231.814 15.6079 232.46 15.4172 233.849 15.4172C238.741 15.4172 244.57 15.6962 247.16 15.6962C250.942 15.6962 256.316 15.4172 260.565 15.4172C272.12 15.4172 276.278 19.3021 277.758 20.6882C279.793 22.6321 282.383 26.7873 282.383 31.6883C282.383 44.8173 272.766 54.0614 259.64 54.0614C259.176 54.0614 258.16 54.0614 257.696 53.976C257.238 53.8735 256.592 53.7824 256.592 53.1335C256.592 52.3964 257.238 52.1175 259.176 52.1175C264.356 52.1175 271.568 46.2972 271.568 36.8653C271.568 33.8143 271.283 27.6212 266.109 22.9992C262.785 19.9454 258.991 19.3904 256.865 19.3904C255.479 19.3904 254.096 19.49 253.262 19.7661C252.795 19.9454 252.516 20.4975 252.516 21.5192V58.4927C252.516 66.9997 252.516 74.3056 252.986 78.2787C253.262 80.8658 253.808 82.9007 256.592 83.2707C257.884 83.4614 259.913 83.6436 261.302 83.6436C262.321 83.6436 262.785 83.9196 262.785 84.3807C262.785 85.0324 262.042 85.3 261.026 85.3C254.927 85.3 249.101 85.0324 246.696 85.0324C244.57 85.0324 238.741 85.3 235.047 85.3C233.849 85.3 233.2 85.0324 233.2 84.3807C233.2 83.9196 233.573 83.6436 234.68 83.6436C236.063 83.6436 237.176 83.4614 238.007 83.2707C239.854 82.9007 240.318 80.8658 240.688 78.1876C241.149 74.3056 241.149 66.9997 241.149 58.4927V42.2273Z" fill="#828282"/>
<path d="M357.209 79.9323C370.247 60.0552 384.296 38.8917 397.046 18.1893C397.416 17.5376 397.789 16.9854 397.789 16.4304C397.789 15.9694 397.137 15.6933 396.218 15.6933H368.027C364.236 15.6933 359.799 15.7872 351.019 15.4144C348.711 15.3205 348.153 14.7683 347.322 14.7683C346.767 14.7683 346.397 15.2294 346.212 16.5272C345.751 19.2936 344.362 27.7095 344.362 29.8298C344.362 30.9398 344.456 31.4037 345.102 31.4037C345.66 31.4037 346.024 31.0337 346.212 29.7416C346.491 27.6099 348.153 24.1946 351.204 22.5325C354.161 20.8675 359.799 20.5914 364.515 20.5914H382.631C370.247 40.0899 356.56 60.9802 343.534 81.3155C342.421 82.9833 342.151 83.4415 342.151 84.0876C342.151 84.7336 342.697 85.0125 343.722 85.0125C362.386 85.0125 377.917 85.4736 393.352 85.4736C395.017 85.4736 395.669 84.7336 396.127 83.0715C396.77 80.7576 397.971 74.7524 397.971 71.7925C397.971 69.5782 397.789 68.9322 397.046 68.9322C396.494 68.9322 396.309 69.4843 396.127 70.4036C395.845 71.7014 395.29 73.3664 394.459 74.8435C392.985 77.6184 389.376 79.9323 379.947 79.9323H357.209Z" fill="#828282"/>
</svg>
