<svg width="500" height="100" viewBox="0 0 500 100" fill="none" xmlns="http://www.w3.org/2000/svg">
<mask id="mask0_3_163" style="mask-type:luminance" maskUnits="userSpaceOnUse" x="60" y="0" width="380" height="100">
<path d="M439.487 0H60V100H439.487V0Z" fill="white"/>
</mask>
<g mask="url(#mask0_3_163)">
<path fill-rule="evenodd" clip-rule="evenodd" d="M145.538 51.6608L144.695 49.12C150.594 38.9572 151.858 30.4882 148.487 21.596C145.538 13.5504 140.06 6.77529 131.211 2.96426H130.79C121.519 -1.27022 111.407 -0.423326 102.979 3.81116C95.8156 7.19873 90.3379 13.5504 86.9669 22.0194C86.1241 23.2897 85.2814 25.407 84.8601 27.5241C72.6403 33.4526 64.6342 40.2277 61.6846 48.2731C61.6846 48.6967 61.6846 48.6967 61.2632 49.12C61.2632 49.12 61.2632 49.5436 60.8418 49.5436C59.5777 52.5077 59.5777 55.4718 59.9991 58.4359V58.8592C60.4205 60.9767 61.6846 66.4813 62.9487 70.7159C65.4769 76.2208 70.9548 80.4551 78.1181 82.5723C84.0173 84.2662 91.1807 84.6895 97.9225 83.8428C103.4 92.7351 116.042 100.357 125.733 99.9336C127.84 99.9336 129.947 99.0869 131.632 98.24C132.054 98.24 137.953 95.2759 142.167 92.3115C152.28 84.6895 152.28 66.4813 145.538 51.6608ZM129.104 8.46906C150.594 17.3615 149.33 37.2636 143.431 47.4262C142.588 45.7326 141.745 44.4621 140.903 42.7682C139.638 40.651 137.953 38.9572 136.267 36.84C138.374 22.4428 117.306 8.89252 105.929 25.407C100.029 33.8759 99.6082 47.4262 106.772 57.589C104.243 58.4359 99.6082 59.2828 96.6584 59.2828C90.3379 41.498 92.4448 27.5241 101.715 15.6677C109.721 6.35183 121.519 5.50493 129.104 8.46906ZM134.161 35.1462C133.318 34.2995 130.368 32.1821 129.526 31.3351C129.526 29.6415 128.683 27.1008 127.84 24.9835C130.368 26.6772 133.318 31.3351 134.161 35.1462ZM126.155 29.218C122.784 27.1008 117.306 24.9835 113.092 24.9835C115.62 22.8663 119.413 22.4428 121.941 22.8663C122.784 23.2897 125.312 26.6772 126.155 29.218ZM105.929 47.8498C109.721 48.2731 114.777 50.8139 118.148 53.3546C115.199 55.4718 111.828 56.3187 109.3 57.589C107.614 54.2013 106.35 50.8139 105.929 47.8498ZM110.985 5.50493C105.086 7.62219 102.136 9.31596 98.3441 14.3973C88.6525 27.1008 89.0738 41.498 95.3943 60.1298C94.5515 60.1298 92.8661 60.1298 92.0233 60.1298C91.1807 60.1298 89.4951 60.1298 88.6525 59.7062C86.1241 52.0841 86.1241 39.3808 87.8097 29.6415C92.8661 9.73942 107.193 5.50493 110.985 5.50493ZM86.9669 59.2828C86.5456 59.2828 84.8601 58.4359 84.8601 58.4359C84.8601 58.0123 85.7028 55.8951 86.1241 55.4718C86.1241 55.8951 86.9669 58.8592 86.9669 59.2828ZM84.8601 52.5077C84.0173 53.3546 82.3318 55.0482 81.9105 56.3187C81.0677 55.4718 80.225 54.2013 80.225 52.931C79.8036 49.5436 81.9105 42.7682 84.0173 40.651C84.0173 44.0387 84.4387 49.5436 84.8601 52.5077ZM84.4387 29.6415C84.0173 31.7587 83.5959 36.4167 83.5959 38.9572C79.3822 41.0746 75.5899 47.8498 76.4326 53.3546C76.854 56.7421 79.8036 62.6703 91.602 63.0939C103.4 63.9408 110.564 60.5531 119.413 54.2013C120.255 55.0482 120.677 55.8951 121.519 56.7421L122.362 58.0123C104.243 73.2564 79.8036 70.2923 69.6906 62.2469C58.3136 53.3546 74.3257 34.7228 84.4387 29.6415ZM79.3822 77.9144C68.4265 74.5269 65.8983 67.3282 65.8983 66.058L66.3197 66.4813C78.5395 75.7972 105.507 74.5269 123.205 60.1298C124.469 63.0939 125.312 66.9049 125.312 69.869C105.086 83.4192 90.7592 81.3021 79.3822 77.9144ZM124.048 77.491C123.205 79.1849 121.519 80.4551 119.834 80.8785C117.727 81.3021 115.199 80.8785 113.092 79.6082C115.62 78.7613 118.148 77.491 120.677 76.2208C121.519 76.6441 122.784 77.0674 124.048 77.491ZM121.941 74.5269C122.362 74.1033 125.312 72.4098 125.312 71.9862C125.312 72.4098 124.89 74.1033 124.89 74.5269C124.89 74.1033 122.362 74.5269 121.941 74.5269ZM100.029 83.4192C102.558 82.9959 108.036 81.3021 110.142 80.8785C118.991 88.5005 129.104 84.2662 129.947 71.9862C131.211 55.4718 116.884 48.2731 105.507 45.7326C105.507 42.7682 105.507 37.6869 106.772 33.8759C121.941 36.84 132.475 52.931 135.003 65.211C144.274 109.673 105.086 90.618 100.029 83.4192ZM139.638 89.3475C139.217 89.771 138.374 90.1944 137.532 90.618C140.481 83.8428 141.324 74.1033 138.374 64.3641C133.739 48.6967 124.048 35.5698 107.614 32.1821C108.457 30.4882 108.878 29.218 110.142 27.9477C110.564 27.5241 111.828 26.2539 112.249 25.8305C124.89 28.371 130.368 32.1821 137.953 43.1918C146.802 55.4718 149.752 80.0318 139.638 89.3475Z" fill="#828282"/>
<path fill-rule="evenodd" clip-rule="evenodd" d="M167.87 35.5696C167.027 35.5696 166.606 35.5696 165.763 35.5696H164.92V76.6439H172.926V61.8231C173.348 62.2467 173.769 62.6701 174.612 63.0937C175.455 63.517 176.297 63.9406 177.14 64.3639C177.983 64.7875 179.247 64.7875 180.09 64.7875C183.882 64.7875 186.832 63.517 188.517 60.5529C190.624 58.0121 191.467 54.2011 191.467 49.1198C191.467 44.4619 190.624 41.0744 188.517 38.5337C186.41 35.9929 183.882 34.7226 180.511 34.7226C178.826 34.7226 177.14 35.146 175.876 35.5696C174.612 36.4165 173.348 36.8398 172.505 38.1103C172.505 36.4165 170.82 35.5696 167.87 35.5696ZM177.983 58.4357C177.14 58.4357 176.297 58.4357 175.455 58.0121C174.612 57.5888 173.769 57.1654 173.348 56.7419V44.0385C173.348 43.1916 173.769 42.3447 174.612 41.9213C175.455 41.4978 176.297 41.0744 177.983 41.0744C181.775 41.0744 183.882 44.0385 183.882 49.5434C183.882 55.4716 181.775 58.4357 177.983 58.4357ZM207.058 57.1655C205.794 55.8949 204.951 53.7778 204.951 51.6606H222.227C222.227 51.237 222.227 49.9667 222.227 47.8496C222.227 44.0385 220.963 40.6508 218.856 38.5337C216.749 36.4165 213.8 35.146 210.007 35.146C207.479 35.146 204.951 35.5696 202.844 36.8398C200.737 38.1103 199.052 39.8039 197.787 41.9213C196.523 44.0385 196.102 46.579 196.102 49.5434C196.102 54.6247 197.366 58.4357 199.894 60.9765C202.423 63.517 206.215 64.7875 210.85 64.7875C212.535 64.7875 214.221 64.7875 215.906 64.3639C217.592 63.9406 218.856 63.517 219.699 62.6701C220.542 61.8231 221.384 60.9765 221.384 60.1296C221.384 59.706 220.963 58.859 220.542 58.0121C220.12 57.1655 219.699 56.3185 218.856 55.4716C218.435 55.8949 218.013 56.3185 217.171 56.7419C216.328 57.1654 215.906 57.5888 214.642 58.0121C213.8 58.4357 212.535 58.4357 211.271 58.4357C210.007 58.859 208.322 58.4357 207.058 57.1655ZM204.53 47.0026C204.53 44.8854 204.951 43.6149 205.794 42.3447C206.636 41.0744 207.9 40.6508 209.586 40.6508C212.957 40.6508 214.642 42.768 214.642 47.0026H204.53ZM233.604 36.4165C232.761 35.9929 231.497 35.5696 230.233 35.5696C229.39 35.5696 228.969 35.5696 228.126 35.5696H227.284V63.9406H235.29V45.7324C235.29 44.8855 235.711 44.0385 236.554 43.1916C237.396 42.3447 238.239 41.9213 239.503 41.9213C240.346 41.9213 241.189 41.9213 241.61 42.3447C242.453 42.768 242.874 43.1916 243.717 43.6149C244.138 43.1916 244.56 42.3447 244.56 41.4978C244.981 40.6508 244.981 40.2275 245.403 39.3806C245.403 38.5337 245.824 38.1103 245.824 37.6867C245.824 36.8398 245.403 35.9929 244.56 35.5696C243.717 35.146 242.453 34.7226 241.189 34.7226C239.925 34.7226 238.661 35.146 237.396 35.5696C236.132 36.4165 235.29 37.2634 234.447 38.1103C234.868 37.6867 234.447 36.8398 233.604 36.4165ZM251.723 35.5696C250.88 35.5696 250.459 35.5696 249.616 35.5696H248.774V76.6439H256.78V61.8231C257.201 62.2467 257.622 62.6701 258.465 63.0937C259.308 63.517 260.151 63.9406 260.993 64.3639C261.836 64.7875 263.1 64.7875 263.943 64.7875C267.735 64.7875 270.685 63.517 272.37 60.5529C274.477 58.0121 275.32 54.2011 275.32 49.1198C275.32 44.4619 274.477 41.0744 272.37 38.5337C270.264 35.9929 267.735 34.7226 264.364 34.7226C262.679 34.7226 260.993 35.146 259.729 35.5696C258.465 36.4165 257.201 36.8398 256.358 38.1103C256.358 36.4165 254.673 35.5696 251.723 35.5696ZM261.836 58.4357C260.993 58.4357 260.151 58.4357 259.308 58.0121C258.465 57.5888 257.622 57.1654 257.201 56.7419V44.0385C257.201 43.1916 257.622 42.3447 258.465 41.9213C259.308 41.4978 260.151 41.0744 261.836 41.0744C265.629 41.0744 267.735 44.0385 267.735 49.5434C267.735 55.4716 265.629 58.4357 261.836 58.4357ZM290.489 57.1655C289.225 55.8949 288.383 53.7778 288.383 51.6606H305.659C305.659 51.237 305.659 49.9667 305.659 47.8496C305.659 44.0385 304.395 40.6508 302.288 38.5337C300.181 36.4165 297.231 35.146 293.439 35.146C290.911 35.146 288.383 35.5696 286.276 36.8398C284.169 38.1103 282.483 39.8039 281.219 41.9213C279.955 44.0385 279.534 46.579 279.534 49.5434C279.534 54.6247 280.798 58.4357 283.326 60.9765C285.854 63.517 289.647 64.7875 294.282 64.7875C295.967 64.7875 297.653 64.7875 299.338 64.3639C301.024 63.9406 302.288 63.517 303.131 62.6701C303.973 61.8231 304.816 60.9765 304.816 60.1296C304.816 59.706 304.395 58.859 303.973 58.0121C303.552 57.1655 303.131 56.3185 302.288 55.4716C301.866 55.8949 301.445 56.3185 300.602 56.7419C299.76 57.1654 299.338 57.5888 298.074 58.0121C297.231 58.4357 295.967 58.4357 294.703 58.4357C293.86 58.859 291.754 58.4357 290.489 57.1655ZM288.383 47.0026C288.383 44.8854 288.804 43.6149 289.647 42.3447C290.489 41.0744 291.754 40.6508 293.439 40.6508C296.81 40.6508 298.495 42.768 298.495 47.0026H288.383ZM319.985 64.7875C321.672 64.7875 322.936 64.7875 324.2 64.3639C325.464 63.9406 326.728 63.517 327.569 62.6701C328.413 61.8231 328.833 61.3998 328.833 60.5529C328.833 60.1296 328.833 59.706 328.413 58.859C327.992 58.4357 327.569 57.5888 327.149 56.3185C326.728 56.7419 325.885 57.5888 325.041 58.0121C324.2 58.4357 323.356 58.4357 322.513 58.4357C320.408 58.4357 319.144 57.1654 319.144 54.2011V41.4978H327.569V35.5696H319.144V31.3349C319.144 27.9475 317.456 26.6772 313.665 26.6772C313.244 26.6772 312.401 26.6772 311.979 26.6772H311.137V54.2011C311.137 56.3185 311.558 58.0121 311.979 59.2826C312.822 63.0937 315.772 64.7875 319.985 64.7875ZM358.331 40.6508C358.331 38.957 357.908 37.6867 357.067 36.8398C356.223 35.9929 354.959 35.5696 353.274 35.5696C352.851 35.5696 352.01 35.5696 351.587 35.5696C351.167 35.5696 350.746 35.5696 350.323 35.5696V55.048C350.323 55.8949 349.903 56.7419 348.639 57.1655C347.795 57.5888 346.531 58.0121 344.846 58.0121C343.582 58.0121 342.738 58.0121 342.318 57.5888C341.897 57.1655 341.474 56.7419 341.054 55.8949C340.633 55.048 340.633 53.7778 340.633 52.0839V40.2275C340.633 37.2634 338.946 35.5696 335.154 35.5696C334.733 35.5696 333.89 35.5696 333.469 35.5696C333.049 35.5696 332.626 35.5696 332.205 35.5696V52.0839C332.205 54.6247 332.205 56.7419 332.626 58.4357C333.049 60.5529 333.89 62.2467 335.577 63.0937C336.841 63.9406 338.946 64.7875 341.474 64.7875C345.267 64.7875 348.218 63.517 350.323 60.9765C350.323 62.2467 350.323 63.0937 350.746 63.517C351.167 63.9406 351.587 63.9406 352.431 63.9406H357.908V40.6508H358.331ZM390.777 40.6508C390.777 38.957 390.354 37.6867 389.513 36.8398C388.669 35.9929 387.405 35.5696 385.721 35.5696C385.297 35.5696 384.456 35.5696 384.033 35.5696C383.613 35.5696 383.192 35.5696 382.769 35.5696V55.048C382.769 55.8949 382.349 56.7419 381.085 57.1655C380.241 57.5888 378.977 58.0121 377.292 58.0121C376.028 58.0121 375.185 58.0121 374.764 57.5888C374.344 57.1655 373.921 56.7419 373.5 55.8949C373.08 55.048 373.08 53.7778 373.08 52.0839V40.2275C373.08 37.2634 371.392 35.5696 367.6 35.5696C367.18 35.5696 366.336 35.5696 365.915 35.5696C365.495 35.5696 365.072 35.5696 364.651 35.5696V52.0839C364.651 54.6247 364.651 56.7419 365.072 58.4357C365.495 60.5529 366.336 62.2467 368.023 63.0937C369.287 63.9406 371.392 64.7875 373.921 64.7875C377.713 64.7875 380.664 63.517 382.769 60.9765C382.769 62.2467 382.769 63.0937 383.192 63.517C383.613 63.9406 384.033 63.9406 384.877 63.9406H390.354V40.6508H390.777ZM405.523 44.8855C405.523 44.0385 405.946 43.1916 406.787 42.768C407.631 42.3447 408.895 41.9213 410.159 41.9213C411.423 41.9213 412.267 41.9213 412.687 42.3447C413.108 42.768 413.531 43.1916 413.951 44.0385C414.372 44.8854 414.372 46.1557 414.372 47.8496V64.3639H422.38V47.8496C422.38 46.579 422.38 45.3088 422.38 44.4619C422.8 43.6149 423.644 43.1916 424.485 42.768C425.328 42.3447 426.592 41.9213 427.436 41.9213C428.277 41.9213 429.121 41.9213 429.964 42.3447C430.385 42.768 430.805 43.1916 431.228 44.0385C431.649 44.8854 431.649 46.1557 431.649 47.8496V64.3639H439.233V47.426C439.233 44.8854 439.233 43.1916 438.813 41.0744C438.392 38.957 437.549 37.6867 436.285 36.4165C435.021 35.5696 432.913 34.7226 430.385 34.7226C426.592 34.7226 423.644 35.9929 421.536 38.5337C420.692 37.2634 419.851 35.9929 418.587 35.5696C417.323 34.7226 415.636 34.7226 413.951 34.7226C410.159 34.7226 407.21 35.9929 405.103 38.5337C404.682 36.4165 402.995 35.5696 400.046 35.5696C399.203 35.5696 398.782 35.5696 397.939 35.5696H397.097V63.9406H405.523V44.8855Z" fill="#828282"/>
</g>
</svg>
