<svg width="501" height="100" viewBox="0 0 501 100" fill="none" xmlns="http://www.w3.org/2000/svg">
<mask id="mask0_3_163" style="mask-type:luminance" maskUnits="userSpaceOnUse" x="60" y="0" width="380" height="100">
<path d="M439.987 0H60.5V100H439.987V0Z" fill="white"/>
</mask>
<g mask="url(#mask0_3_163)">
<path fill-rule="evenodd" clip-rule="evenodd" d="M146.038 51.6608L145.195 49.12C151.094 38.9572 152.358 30.4882 148.987 21.596C146.038 13.5504 140.56 6.77529 131.711 2.96426H131.29C122.019 -1.27022 111.907 -0.423326 103.479 3.81116C96.3156 7.19873 90.8379 13.5504 87.4669 22.0194C86.6241 23.2897 85.7814 25.407 85.3601 27.5241C73.1403 33.4526 65.1342 40.2277 62.1846 48.2731C62.1846 48.6967 62.1846 48.6967 61.7632 49.12C61.7632 49.12 61.7632 49.5436 61.3418 49.5436C60.0777 52.5077 60.0777 55.4718 60.4991 58.4359V58.8592C60.9205 60.9767 62.1846 66.4813 63.4487 70.7159C65.9769 76.2208 71.4548 80.4551 78.6181 82.5723C84.5173 84.2662 91.6807 84.6895 98.4225 83.8428C103.9 92.7351 116.542 100.357 126.233 99.9336C128.34 99.9336 130.447 99.0869 132.132 98.24C132.554 98.24 138.453 95.2759 142.667 92.3115C152.78 84.6895 152.78 66.4813 146.038 51.6608ZM129.604 8.46906C151.094 17.3615 149.83 37.2636 143.931 47.4262C143.088 45.7326 142.245 44.4621 141.403 42.7682C140.138 40.651 138.453 38.9572 136.767 36.84C138.874 22.4428 117.806 8.89252 106.429 25.407C100.529 33.8759 100.108 47.4262 107.272 57.589C104.743 58.4359 100.108 59.2828 97.1584 59.2828C90.8379 41.498 92.9448 27.5241 102.215 15.6677C110.221 6.35183 122.019 5.50493 129.604 8.46906ZM134.661 35.1462C133.818 34.2995 130.868 32.1821 130.026 31.3351C130.026 29.6415 129.183 27.1008 128.34 24.9835C130.868 26.6772 133.818 31.3351 134.661 35.1462ZM126.655 29.218C123.284 27.1008 117.806 24.9835 113.592 24.9835C116.12 22.8663 119.913 22.4428 122.441 22.8663C123.284 23.2897 125.812 26.6772 126.655 29.218ZM106.429 47.8498C110.221 48.2731 115.277 50.8139 118.648 53.3546C115.699 55.4718 112.328 56.3187 109.8 57.589C108.114 54.2013 106.85 50.8139 106.429 47.8498ZM111.485 5.50493C105.586 7.62219 102.636 9.31596 98.8441 14.3973C89.1525 27.1008 89.5738 41.498 95.8943 60.1298C95.0515 60.1298 93.3661 60.1298 92.5233 60.1298C91.6807 60.1298 89.9951 60.1298 89.1525 59.7062C86.6241 52.0841 86.6241 39.3808 88.3097 29.6415C93.3661 9.73942 107.693 5.50493 111.485 5.50493ZM87.4669 59.2828C87.0456 59.2828 85.3601 58.4359 85.3601 58.4359C85.3601 58.0123 86.2028 55.8951 86.6241 55.4718C86.6241 55.8951 87.4669 58.8592 87.4669 59.2828ZM85.3601 52.5077C84.5173 53.3546 82.8318 55.0482 82.4105 56.3187C81.5677 55.4718 80.725 54.2013 80.725 52.931C80.3036 49.5436 82.4105 42.7682 84.5173 40.651C84.5173 44.0387 84.9387 49.5436 85.3601 52.5077ZM84.9387 29.6415C84.5173 31.7587 84.0959 36.4167 84.0959 38.9572C79.8822 41.0746 76.0899 47.8498 76.9326 53.3546C77.354 56.7421 80.3036 62.6703 92.102 63.0939C103.9 63.9408 111.064 60.5531 119.913 54.2013C120.755 55.0482 121.177 55.8951 122.019 56.7421L122.862 58.0123C104.743 73.2564 80.3036 70.2923 70.1906 62.2469C58.8136 53.3546 74.8257 34.7228 84.9387 29.6415ZM79.8822 77.9144C68.9265 74.5269 66.3983 67.3282 66.3983 66.058L66.8197 66.4813C79.0395 75.7972 106.007 74.5269 123.705 60.1298C124.969 63.0939 125.812 66.9049 125.812 69.869C105.586 83.4192 91.2592 81.3021 79.8822 77.9144ZM124.548 77.491C123.705 79.1849 122.019 80.4551 120.334 80.8785C118.227 81.3021 115.699 80.8785 113.592 79.6082C116.12 78.7613 118.648 77.491 121.177 76.2208C122.019 76.6441 123.284 77.0674 124.548 77.491ZM122.441 74.5269C122.862 74.1033 125.812 72.4098 125.812 71.9862C125.812 72.4098 125.39 74.1033 125.39 74.5269C125.39 74.1033 122.862 74.5269 122.441 74.5269ZM100.529 83.4192C103.058 82.9959 108.536 81.3021 110.642 80.8785C119.491 88.5005 129.604 84.2662 130.447 71.9862C131.711 55.4718 117.384 48.2731 106.007 45.7326C106.007 42.7682 106.007 37.6869 107.272 33.8759C122.441 36.84 132.975 52.931 135.503 65.211C144.774 109.673 105.586 90.618 100.529 83.4192ZM140.138 89.3475C139.717 89.771 138.874 90.1944 138.032 90.618C140.981 83.8428 141.824 74.1033 138.874 64.3641C134.239 48.6967 124.548 35.5698 108.114 32.1821C108.957 30.4882 109.378 29.218 110.642 27.9477C111.064 27.5241 112.328 26.2539 112.749 25.8305C125.39 28.371 130.868 32.1821 138.453 43.1918C147.302 55.4718 150.252 80.0318 140.138 89.3475Z" fill="#6E7071"/>
<path fill-rule="evenodd" clip-rule="evenodd" d="M168.37 35.5696C167.527 35.5696 167.106 35.5696 166.263 35.5696H165.42V76.6439H173.426V61.8231C173.848 62.2467 174.269 62.6701 175.112 63.0937C175.955 63.517 176.797 63.9406 177.64 64.3639C178.483 64.7875 179.747 64.7875 180.59 64.7875C184.382 64.7875 187.332 63.517 189.017 60.5529C191.124 58.0121 191.967 54.2011 191.967 49.1198C191.967 44.4619 191.124 41.0744 189.017 38.5337C186.91 35.9929 184.382 34.7226 181.011 34.7226C179.326 34.7226 177.64 35.146 176.376 35.5696C175.112 36.4165 173.848 36.8398 173.005 38.1103C173.005 36.4165 171.32 35.5696 168.37 35.5696ZM178.483 58.4357C177.64 58.4357 176.797 58.4357 175.955 58.0121C175.112 57.5888 174.269 57.1654 173.848 56.7419V44.0385C173.848 43.1916 174.269 42.3447 175.112 41.9213C175.955 41.4978 176.797 41.0744 178.483 41.0744C182.275 41.0744 184.382 44.0385 184.382 49.5434C184.382 55.4716 182.275 58.4357 178.483 58.4357ZM207.558 57.1655C206.294 55.8949 205.451 53.7778 205.451 51.6606H222.727C222.727 51.237 222.727 49.9667 222.727 47.8496C222.727 44.0385 221.463 40.6508 219.356 38.5337C217.249 36.4165 214.3 35.146 210.507 35.146C207.979 35.146 205.451 35.5696 203.344 36.8398C201.237 38.1103 199.552 39.8039 198.287 41.9213C197.023 44.0385 196.602 46.579 196.602 49.5434C196.602 54.6247 197.866 58.4357 200.394 60.9765C202.923 63.517 206.715 64.7875 211.35 64.7875C213.035 64.7875 214.721 64.7875 216.406 64.3639C218.092 63.9406 219.356 63.517 220.199 62.6701C221.042 61.8231 221.884 60.9765 221.884 60.1296C221.884 59.706 221.463 58.859 221.042 58.0121C220.62 57.1655 220.199 56.3185 219.356 55.4716C218.935 55.8949 218.513 56.3185 217.671 56.7419C216.828 57.1654 216.406 57.5888 215.142 58.0121C214.3 58.4357 213.035 58.4357 211.771 58.4357C210.507 58.859 208.822 58.4357 207.558 57.1655ZM205.03 47.0026C205.03 44.8854 205.451 43.6149 206.294 42.3447C207.136 41.0744 208.4 40.6508 210.086 40.6508C213.457 40.6508 215.142 42.768 215.142 47.0026H205.03ZM234.104 36.4165C233.261 35.9929 231.997 35.5696 230.733 35.5696C229.89 35.5696 229.469 35.5696 228.626 35.5696H227.784V63.9406H235.79V45.7324C235.79 44.8855 236.211 44.0385 237.054 43.1916C237.896 42.3447 238.739 41.9213 240.003 41.9213C240.846 41.9213 241.689 41.9213 242.11 42.3447C242.953 42.768 243.374 43.1916 244.217 43.6149C244.638 43.1916 245.06 42.3447 245.06 41.4978C245.481 40.6508 245.481 40.2275 245.903 39.3806C245.903 38.5337 246.324 38.1103 246.324 37.6867C246.324 36.8398 245.903 35.9929 245.06 35.5696C244.217 35.146 242.953 34.7226 241.689 34.7226C240.425 34.7226 239.161 35.146 237.896 35.5696C236.632 36.4165 235.79 37.2634 234.947 38.1103C235.368 37.6867 234.947 36.8398 234.104 36.4165ZM252.223 35.5696C251.38 35.5696 250.959 35.5696 250.116 35.5696H249.274V76.6439H257.28V61.8231C257.701 62.2467 258.122 62.6701 258.965 63.0937C259.808 63.517 260.651 63.9406 261.493 64.3639C262.336 64.7875 263.6 64.7875 264.443 64.7875C268.235 64.7875 271.185 63.517 272.87 60.5529C274.977 58.0121 275.82 54.2011 275.82 49.1198C275.82 44.4619 274.977 41.0744 272.87 38.5337C270.764 35.9929 268.235 34.7226 264.864 34.7226C263.179 34.7226 261.493 35.146 260.229 35.5696C258.965 36.4165 257.701 36.8398 256.858 38.1103C256.858 36.4165 255.173 35.5696 252.223 35.5696ZM262.336 58.4357C261.493 58.4357 260.651 58.4357 259.808 58.0121C258.965 57.5888 258.122 57.1654 257.701 56.7419V44.0385C257.701 43.1916 258.122 42.3447 258.965 41.9213C259.808 41.4978 260.651 41.0744 262.336 41.0744C266.129 41.0744 268.235 44.0385 268.235 49.5434C268.235 55.4716 266.129 58.4357 262.336 58.4357ZM290.989 57.1655C289.725 55.8949 288.883 53.7778 288.883 51.6606H306.159C306.159 51.237 306.159 49.9667 306.159 47.8496C306.159 44.0385 304.895 40.6508 302.788 38.5337C300.681 36.4165 297.731 35.146 293.939 35.146C291.411 35.146 288.883 35.5696 286.776 36.8398C284.669 38.1103 282.983 39.8039 281.719 41.9213C280.455 44.0385 280.034 46.579 280.034 49.5434C280.034 54.6247 281.298 58.4357 283.826 60.9765C286.354 63.517 290.147 64.7875 294.782 64.7875C296.467 64.7875 298.153 64.7875 299.838 64.3639C301.524 63.9406 302.788 63.517 303.631 62.6701C304.473 61.8231 305.316 60.9765 305.316 60.1296C305.316 59.706 304.895 58.859 304.473 58.0121C304.052 57.1655 303.631 56.3185 302.788 55.4716C302.366 55.8949 301.945 56.3185 301.102 56.7419C300.26 57.1654 299.838 57.5888 298.574 58.0121C297.731 58.4357 296.467 58.4357 295.203 58.4357C294.36 58.859 292.254 58.4357 290.989 57.1655ZM288.883 47.0026C288.883 44.8854 289.304 43.6149 290.147 42.3447C290.989 41.0744 292.254 40.6508 293.939 40.6508C297.31 40.6508 298.995 42.768 298.995 47.0026H288.883ZM320.485 64.7875C322.172 64.7875 323.436 64.7875 324.7 64.3639C325.964 63.9406 327.228 63.517 328.069 62.6701C328.913 61.8231 329.333 61.3998 329.333 60.5529C329.333 60.1296 329.333 59.706 328.913 58.859C328.492 58.4357 328.069 57.5888 327.649 56.3185C327.228 56.7419 326.385 57.5888 325.541 58.0121C324.7 58.4357 323.856 58.4357 323.013 58.4357C320.908 58.4357 319.644 57.1654 319.644 54.2011V41.4978H328.069V35.5696H319.644V31.3349C319.644 27.9475 317.956 26.6772 314.165 26.6772C313.744 26.6772 312.901 26.6772 312.479 26.6772H311.637V54.2011C311.637 56.3185 312.058 58.0121 312.479 59.2826C313.322 63.0937 316.272 64.7875 320.485 64.7875ZM358.831 40.6508C358.831 38.957 358.408 37.6867 357.567 36.8398C356.723 35.9929 355.459 35.5696 353.774 35.5696C353.351 35.5696 352.51 35.5696 352.087 35.5696C351.667 35.5696 351.246 35.5696 350.823 35.5696V55.048C350.823 55.8949 350.403 56.7419 349.139 57.1655C348.295 57.5888 347.031 58.0121 345.346 58.0121C344.082 58.0121 343.238 58.0121 342.818 57.5888C342.397 57.1655 341.974 56.7419 341.554 55.8949C341.133 55.048 341.133 53.7778 341.133 52.0839V40.2275C341.133 37.2634 339.446 35.5696 335.654 35.5696C335.233 35.5696 334.39 35.5696 333.969 35.5696C333.549 35.5696 333.126 35.5696 332.705 35.5696V52.0839C332.705 54.6247 332.705 56.7419 333.126 58.4357C333.549 60.5529 334.39 62.2467 336.077 63.0937C337.341 63.9406 339.446 64.7875 341.974 64.7875C345.767 64.7875 348.718 63.517 350.823 60.9765C350.823 62.2467 350.823 63.0937 351.246 63.517C351.667 63.9406 352.087 63.9406 352.931 63.9406H358.408V40.6508H358.831ZM391.277 40.6508C391.277 38.957 390.854 37.6867 390.013 36.8398C389.169 35.9929 387.905 35.5696 386.221 35.5696C385.797 35.5696 384.956 35.5696 384.533 35.5696C384.113 35.5696 383.692 35.5696 383.269 35.5696V55.048C383.269 55.8949 382.849 56.7419 381.585 57.1655C380.741 57.5888 379.477 58.0121 377.792 58.0121C376.528 58.0121 375.685 58.0121 375.264 57.5888C374.844 57.1655 374.421 56.7419 374 55.8949C373.58 55.048 373.58 53.7778 373.58 52.0839V40.2275C373.58 37.2634 371.892 35.5696 368.1 35.5696C367.68 35.5696 366.836 35.5696 366.415 35.5696C365.995 35.5696 365.572 35.5696 365.151 35.5696V52.0839C365.151 54.6247 365.151 56.7419 365.572 58.4357C365.995 60.5529 366.836 62.2467 368.523 63.0937C369.787 63.9406 371.892 64.7875 374.421 64.7875C378.213 64.7875 381.164 63.517 383.269 60.9765C383.269 62.2467 383.269 63.0937 383.692 63.517C384.113 63.9406 384.533 63.9406 385.377 63.9406H390.854V40.6508H391.277ZM406.023 44.8855C406.023 44.0385 406.446 43.1916 407.287 42.768C408.131 42.3447 409.395 41.9213 410.659 41.9213C411.923 41.9213 412.767 41.9213 413.187 42.3447C413.608 42.768 414.031 43.1916 414.451 44.0385C414.872 44.8854 414.872 46.1557 414.872 47.8496V64.3639H422.88V47.8496C422.88 46.579 422.88 45.3088 422.88 44.4619C423.3 43.6149 424.144 43.1916 424.985 42.768C425.828 42.3447 427.092 41.9213 427.936 41.9213C428.777 41.9213 429.621 41.9213 430.464 42.3447C430.885 42.768 431.305 43.1916 431.728 44.0385C432.149 44.8854 432.149 46.1557 432.149 47.8496V64.3639H439.733V47.426C439.733 44.8854 439.733 43.1916 439.313 41.0744C438.892 38.957 438.049 37.6867 436.785 36.4165C435.521 35.5696 433.413 34.7226 430.885 34.7226C427.092 34.7226 424.144 35.9929 422.036 38.5337C421.192 37.2634 420.351 35.9929 419.087 35.5696C417.823 34.7226 416.136 34.7226 414.451 34.7226C410.659 34.7226 407.71 35.9929 405.603 38.5337C405.182 36.4165 403.495 35.5696 400.546 35.5696C399.703 35.5696 399.282 35.5696 398.439 35.5696H397.597V63.9406H406.023V44.8855Z" fill="#6E7071"/>
</g>
</svg>
