<svg width="500" height="100" viewBox="0 0 500 100" fill="none" xmlns="http://www.w3.org/2000/svg">
<g clip-path="url(#clip0_20_387)">
<mask id="mask0_20_387" style="mask-type:luminance" maskUnits="userSpaceOnUse" x="198" y="6" width="93" height="93">
<path d="M198.728 51.141C198.636 62.3519 202.71 72.6431 209.528 80.5781C217.752 91.2417 230.665 98.181 245.213 98.3026C270.241 98.5154 290.786 78.4803 290.991 53.6416C291.113 39.2005 284.34 26.2643 273.738 17.9265C265.863 11.0328 255.565 6.80686 244.27 6.70805C244.141 6.70805 244.012 6.70805 243.883 6.70805C219.158 6.70805 198.948 26.5608 198.735 51.1486" fill="white"/>
</mask>
<g mask="url(#mask0_20_387)">
<path d="M291.113 6.70038H198.636V98.5153H291.113V6.70038Z" fill="#A1A1A1"/>
</g>
<path fill-rule="evenodd" clip-rule="evenodd" d="M202.718 37.2472L204.413 36.966C208.297 26.6216 216.194 18.2153 226.204 13.6018V11.9601C215.282 16.7788 206.701 25.9299 202.718 37.2396" fill="white"/>
<path fill-rule="evenodd" clip-rule="evenodd" d="M261.995 12.1651L261.98 13.7916C269.641 17.4247 276.018 23.2847 280.274 30.5129L280.403 30.4901L282.889 33.9788C283.071 33.7507 283.246 33.5227 283.436 33.3023C279.058 23.9764 271.435 16.4442 261.995 12.1651Z" fill="white"/>
<path fill-rule="evenodd" clip-rule="evenodd" d="M243.533 93.3166C230.027 93.2026 218.033 86.7497 210.41 76.8385C209.855 76.9297 209.3 77.0285 208.73 77.1197C216.597 87.7454 229.221 94.6771 243.525 94.7987C262.534 94.9659 278.807 83.0254 284.911 66.2281C284.417 66.2509 283.869 66.2813 283.276 66.3269C277.204 82.2197 261.638 93.4838 243.533 93.3318" fill="white"/>
<path fill-rule="evenodd" clip-rule="evenodd" d="M243.533 93.3166C261.638 93.4686 277.204 82.2046 283.277 66.3118C274.384 66.9274 254.113 69.542 210.41 76.831C218.033 86.7421 230.027 93.2026 243.533 93.309" fill="#A1A1A1"/>
<path fill-rule="evenodd" clip-rule="evenodd" d="M261.98 13.7916L261.919 21.2326L226.158 18.1847L226.196 13.6016C216.186 18.2151 208.289 26.6214 204.405 36.9658L213.541 35.4457C215.077 35.1872 216.011 35.2252 217.288 35.2784C221.666 35.4761 224.973 37.2622 226.743 40.1352C226.903 39.9528 227.086 39.7932 227.268 39.664C227.131 39.2915 227.025 38.9115 226.979 38.5239L226.964 38.0983C227.086 35.3468 229.046 32.1014 234.177 31.2425C235.689 31.1209 238.266 31.3945 239.938 32.9679C240.888 33.8647 241.39 35.0656 241.352 36.3501C241.352 36.5629 241.321 36.7834 241.283 37.0038L249.682 35.6129L250.617 36.5477C250.929 36.2057 251.255 35.8865 251.628 35.6129C252.471 34.944 253.452 34.4956 254.501 34.3284C256.872 33.9255 259.183 34.982 259.935 37.323C259.973 37.4294 260.004 37.5282 260.034 37.6346C261.881 34.7464 264.146 32.9527 266.624 32.5422C268.425 32.413 270.257 32.679 271.42 32.9147L271.625 31.957L280.282 30.5205C276.026 23.2847 269.649 17.4323 261.987 13.7992" fill="#A1A1A1"/>
<path d="M226.379 79.7115L225.132 78.8603C224.98 78.7463 224.737 78.7615 224.554 78.8451L222.267 81.0036L221.773 81.5205L221.719 81.4825L222.023 80.844L223.088 77.857C223.141 77.6746 223.072 77.4314 222.92 77.3325L221.324 76.2457C221.195 76.1621 221.028 76.1925 220.944 76.3141L220.306 77.2413C220.222 77.3629 220.253 77.5378 220.382 77.6214L220.952 78.0166L219.956 81.7561C219.903 81.9385 219.979 82.1665 220.131 82.2729L221.613 83.2914C221.765 83.3902 222.008 83.3826 222.16 83.2686L226.379 80.122C226.531 80.0003 226.531 79.8331 226.379 79.7267" fill="white"/>
<path d="M269.101 78.4498C269.003 78.3282 268.82 78.313 268.699 78.4194L267.65 79.2707C267.536 79.3695 267.513 79.5519 267.619 79.6735L267.893 80.008L266.563 81.1024L265.012 79.2251L266.266 78.199L266.358 78.313C266.464 78.4346 266.639 78.4574 266.768 78.3586L267.802 77.515C267.923 77.4162 267.946 77.2262 267.84 77.1121L266.905 75.9873C266.806 75.8657 266.624 75.8504 266.494 75.9493L262.725 79.0351C262.603 79.1339 262.588 79.3163 262.687 79.4303L265.932 83.3446C266.031 83.4662 266.213 83.4814 266.335 83.3826L270.188 80.236C270.31 80.1372 270.333 79.9548 270.226 79.8332L269.109 78.4802L269.101 78.4498Z" fill="white"/>
<path d="M245.882 84.9026L242.613 84.9254C241.899 84.9254 241.321 85.5107 241.329 86.2175L241.352 89.2502C241.352 89.9646 241.945 90.5347 242.659 90.5271L245.935 90.5043C246.649 90.5043 247.219 89.919 247.219 89.2046L247.197 86.1719C247.197 85.4651 246.604 84.895 245.882 84.9026ZM245.319 88.8169L243.237 88.8321L243.221 86.514L245.304 86.4988L245.319 88.8169Z" fill="white"/>
<path d="M230.84 87.6922L230.719 86.3545C231.099 86.3697 231.418 86.2176 231.608 85.8072L232.391 84.1047C232.687 83.4586 232.391 82.6758 231.737 82.3794L227.215 80.3272C227.07 80.2588 226.895 80.3272 226.827 80.4716L226.401 81.4065C226.333 81.5433 226.401 81.7181 226.546 81.7865L227.032 82.0069L225.467 85.412C225.406 85.5564 225.467 85.7312 225.611 85.792L226.827 86.3469C226.971 86.4153 227.139 86.3469 227.207 86.21L227.595 85.3664L228.78 85.8984L228.872 86.9549C228.887 87.1373 229.016 87.3425 229.168 87.4033L230.498 88.0114C230.65 88.0798 230.848 87.867 230.825 87.6922M229.974 84.5683L228.324 83.8235L228.796 82.805L230.445 83.5498L229.981 84.5683H229.974Z" fill="white"/>
<path d="M256.279 88.0874L255.329 87.1373C255.633 86.9093 255.785 86.5824 255.656 86.1492L255.154 84.3403C254.964 83.6562 254.227 83.2382 253.543 83.4282L248.747 84.7431C248.587 84.7811 248.511 84.9483 248.549 85.1003L248.831 86.096C248.876 86.248 249.028 86.3316 249.18 86.2936L249.697 86.1568L250.7 89.7671C250.746 89.9267 250.898 90.0103 251.05 89.9647L252.342 89.6151C252.502 89.5695 252.593 89.4099 252.547 89.2654L252.304 88.3762L253.566 88.0342L254.318 88.7866C254.455 88.9158 254.683 88.9842 254.843 88.9386L256.264 88.551C256.416 88.513 256.431 88.2242 256.294 88.1026M253.596 86.2556L251.848 86.7345L251.552 85.6476L253.3 85.1687L253.604 86.2556H253.596Z" fill="white"/>
<path d="M264.359 84.3859L260.125 80.9656C259.988 80.8364 259.745 80.7832 259.585 80.8668L257.016 82.1893C256.849 82.2805 256.781 82.4857 256.872 82.6529L257.199 83.2762C257.282 83.451 257.495 83.5118 257.67 83.4282L257.936 83.2838L258.438 87.4337C258.468 87.6237 258.628 87.7073 258.787 87.6237L260.133 86.9245C260.292 86.8409 260.399 86.628 260.361 86.438L260.148 85.4955L261.729 84.6747L262.436 85.3663C262.572 85.4955 262.808 85.5412 262.968 85.4499L264.313 84.7583C264.465 84.6747 264.488 84.4999 264.351 84.3707M259.813 84.1274L259.441 82.5237L259.525 82.4857L260.718 83.6714L259.813 84.135V84.1274Z" fill="white"/>
<path fill-rule="evenodd" clip-rule="evenodd" d="M266.722 29.8744L259.631 26.1578L251.802 25.1013L251.058 23.1707L238.973 22.1447L226.842 18.2608L221.605 31.0677L214.658 35.1492L214.757 35.4533C215.669 35.3773 216.422 35.4077 217.296 35.4381C221.529 35.6357 224.843 37.3306 226.629 40.2188L226.743 40.4088L227.481 39.7172L227.435 39.5956C227.291 39.2307 227.199 38.8583 227.161 38.5087C227.161 38.5087 227.146 38.0831 227.146 38.1059C227.268 35.4077 229.191 32.2382 234.215 31.4022C235.94 31.2653 238.319 31.6378 239.854 33.0895C240.766 33.9483 241.253 35.1112 241.215 36.3425C241.207 36.5249 241.184 36.7378 241.146 36.9734L241.108 37.2014L249.652 35.7801L250.647 36.7758L250.761 36.6466C251.103 36.2741 251.415 35.9701 251.742 35.7269C252.57 35.0732 253.543 34.64 254.539 34.4728C256.994 34.0624 259.107 35.2328 259.798 37.361L259.882 37.6194L260.003 37.9995L260.186 37.7106C262.025 34.83 264.26 33.0895 266.646 32.6943C266.928 32.6715 267.832 32.6563 267.832 32.6563L266.738 29.8592L266.722 29.8744Z" fill="white"/>
<mask id="mask1_20_387" style="mask-type:luminance" maskUnits="userSpaceOnUse" x="226" y="1" width="37" height="21">
<path d="M249.013 2.14769L245.084 2.11728L245.068 4.38226L230.232 4.24545L230.224 5.24112L226.272 5.20312L226.158 18.1849L261.919 21.2327L262.086 1.10641L249.021 1L249.013 2.14769Z" fill="white"/>
</mask>
<g mask="url(#mask1_20_387)">
<path d="M262.086 1H226.158V21.2327H262.086V1Z" fill="#A1A1A1"/>
</g>
<path fill-rule="evenodd" clip-rule="evenodd" d="M238.342 17.9795L239.505 17.0143L255.793 16.4594L259.259 18.77L259.396 3.22682L250.67 3.15082L250.662 4.00208L246.771 3.95648L246.748 6.34306L231.859 6.22145V7.04231L227.944 7.00431L227.853 17.8047L231.859 16.7787L238.342 17.9795Z" fill="white"/>
<mask id="mask2_20_387" style="mask-type:luminance" maskUnits="userSpaceOnUse" x="227" y="2" width="33" height="18">
<path d="M250.054 3.58418L246.345 3.54618L246.323 5.76554L231.266 5.63633L231.251 6.63201L227.549 6.60161L227.45 18.0709L228.218 18.0785L228.309 7.36927L231.251 7.39207L231.167 17.0372L232.337 17.0524L232.421 6.76882L234.428 6.79162L234.412 8.44855L236.715 8.46375L236.731 6.80682L238.737 6.82962L238.722 8.48655L241.063 8.50935L241.071 6.85243L243.108 6.86763L243.1 8.51695L245.365 8.53975L245.388 6.88283L247.379 6.89803L247.371 8.56256L249.674 8.57776L249.69 6.92083L251.719 6.93603L251.643 16.6648L254.615 16.6876L254.698 7.29326L252.859 7.27806L252.874 5.82635L251.202 5.80355L251.217 3.72099L254.03 3.75139L254.007 5.49192L256.082 5.51472L256.097 3.75899L258.833 3.78179L258.704 18.8841L259.798 19.4694L259.943 2.66451L250.062 2.5809L250.054 3.58418Z" fill="white"/>
</mask>
<g mask="url(#mask2_20_387)">
<path d="M259.943 2.5809H227.45V19.4618H259.943V2.5809Z" fill="#A1A1A1"/>
</g>
<path d="M238.973 86.803L236.837 86.3318C236.677 86.3014 236.525 86.3926 236.487 86.5522L236.328 87.2287C236.297 87.3807 236.388 87.5327 236.548 87.5707L237.095 87.6923L237.012 88.1711L235.438 87.8215L235.978 85.4501L238.912 86.0962C239.071 86.1266 239.224 86.0354 239.254 85.8834L239.482 84.8801C239.52 84.7281 239.421 84.5685 239.262 84.5381L234.724 83.5348C234.572 83.4968 234.428 83.6032 234.39 83.7552L233.28 88.688C233.249 88.8476 233.341 88.9996 233.5 89.03L238.251 90.0865C238.403 90.1245 238.562 90.0181 238.6 89.8661L239.201 87.1527C239.231 87.0006 239.132 86.8486 238.98 86.8106" fill="white"/>
<path fill-rule="evenodd" clip-rule="evenodd" d="M243.64 80.8212C253.916 80.9048 262.998 75.7744 268.357 67.923C258.719 69.1695 244.939 71.1988 225.406 74.3683C230.399 78.351 236.731 80.768 243.64 80.8288" fill="white"/>
<mask id="mask3_20_387" style="mask-type:luminance" maskUnits="userSpaceOnUse" x="227" y="68" width="40" height="12">
<path d="M264.397 68.4474C256.127 69.5647 245.266 71.176 231.083 73.4486C229.882 73.6386 228.659 73.8362 227.42 74.0414C231.988 77.3401 237.582 79.3162 243.655 79.3694C252.912 79.4531 261.182 75.0371 266.35 68.189C265.719 68.2726 265.073 68.3638 264.397 68.455" fill="white"/>
</mask>
<g mask="url(#mask3_20_387)">
<path d="M266.35 68.1815H227.42V79.4455H266.35V68.1815Z" fill="#A1A1A1"/>
</g>
<path fill-rule="evenodd" clip-rule="evenodd" d="M244.726 77.5833C252.639 77.6517 259.73 74.0794 264.397 68.455C256.127 69.5723 245.266 71.1836 231.083 73.4562C234.998 76.0252 239.68 77.5453 244.726 77.5833Z" fill="white"/>
<path d="M232.011 74.8243L257.457 75.0371C257.678 75.0371 257.868 74.8623 257.868 74.6419C257.868 74.4215 257.693 74.2467 257.465 74.2467L232.011 74.0262C231.79 74.0262 231.608 74.2011 231.608 74.4215C231.6 74.6419 231.783 74.8167 232.003 74.8243" fill="#A1A1A1"/>
<path d="M230.734 72.6201L260.688 72.8786C260.908 72.8786 261.09 72.7037 261.09 72.4833C261.09 72.2629 260.916 72.0881 260.695 72.0881L230.741 71.8297C230.513 71.8297 230.339 72.0045 230.339 72.2249C230.339 72.4377 230.513 72.6201 230.734 72.6201Z" fill="#A1A1A1"/>
<path d="M231.501 70.5225L263.044 70.7885C263.264 70.7885 263.447 70.6213 263.447 70.4008C263.447 70.1804 263.272 70.0056 263.051 69.998L231.509 69.732C231.281 69.732 231.106 69.9068 231.106 70.1272C231.106 70.3476 231.281 70.5301 231.501 70.5301" fill="#A1A1A1"/>
<path d="M236.807 76.9525L252.639 77.0894C252.859 77.0894 253.041 76.9145 253.049 76.6941C253.049 76.4737 252.867 76.2989 252.646 76.2913L236.814 76.1545C236.594 76.1545 236.411 76.3293 236.411 76.5497C236.411 76.7701 236.586 76.9525 236.807 76.9601" fill="#A1A1A1"/>
<mask id="mask4_20_387" style="mask-type:luminance" maskUnits="userSpaceOnUse" x="209" y="16" width="67" height="23">
<path d="M239.505 16.87L238.342 17.8353L231.859 16.6344L225.915 18.1621L219.865 30.2243L209.452 36.4947L211.55 37.1788L221.735 31.1895L226.941 18.4662L227.473 18.6334L225.421 30.7563L219.629 35.7271C220.465 35.8867 221.241 36.1223 221.97 36.4187L233.698 25.0483L231.904 25.1471L227.891 28.6129L228.864 19.3706L236.305 23.4217L248.542 24.8963L251.423 35.9931C251.521 35.9019 251.628 35.8259 251.727 35.7423C252.555 35.0886 253.528 34.6554 254.524 34.4882C256.979 34.0777 259.092 35.2482 259.783 37.3764L259.867 37.6348L259.988 38.0148L260.171 37.726C260.817 36.7075 261.524 35.8335 262.253 35.1114L259.517 33.6597L253.627 25.5195L259.563 26.31L266.593 29.9962L268.699 35.3546L275.699 34.1918L272.431 27.4728L259.365 18.451H259.008L255.808 16.3228L239.52 16.8776L239.505 16.87Z" fill="white"/>
</mask>
<g mask="url(#mask4_20_387)">
<path d="M275.691 16.3152H209.452V38.0148H275.691V16.3152Z" fill="#A1A1A1"/>
</g>
<mask id="mask5_20_387" style="mask-type:luminance" maskUnits="userSpaceOnUse" x="257" y="25" width="8" height="10">
<path d="M262.899 34.5262C263.348 34.1462 263.819 33.8193 264.29 33.5533L261.311 26.462L257.913 25.7703L262.907 34.5186L262.899 34.5262Z" fill="white"/>
</mask>
<g mask="url(#mask5_20_387)">
<path d="M264.29 25.7777H257.913V34.526H264.29V25.7777Z" fill="#A1A1A1"/>
</g>
<mask id="mask6_20_387" style="mask-type:luminance" maskUnits="userSpaceOnUse" x="187" y="27" width="115" height="59">
<path d="M295.848 39.7097C295.848 39.7097 295.871 39.7097 295.886 39.7097C295.878 39.7097 295.878 39.7249 295.871 39.7325L295.856 39.7173L295.848 39.7097ZM292.99 27.9288C292.177 28.0656 291.417 28.248 290.657 28.4761C287.563 29.4185 284.888 31.3643 282.889 33.9789L280.404 30.4902L271.617 31.9571L271.412 32.9224C270.249 32.6792 268.417 32.4132 266.616 32.5424C264.138 32.9528 261.873 34.7389 260.026 37.6348C259.996 37.5283 259.966 37.4295 259.928 37.3231C259.175 34.9746 256.865 33.9257 254.493 34.3285C253.452 34.4957 252.471 34.9442 251.62 35.613C251.248 35.8866 250.921 36.2134 250.609 36.5479L249.674 35.613L241.276 37.0039C241.306 36.7835 241.337 36.5631 241.352 36.3503C241.382 35.0734 240.881 33.8725 239.93 32.968C238.266 31.3871 235.689 31.1211 234.169 31.2427C229.031 32.0939 227.078 35.3394 226.956 38.0984L226.971 38.524C227.017 38.9117 227.116 39.2917 227.26 39.6641C227.078 39.7933 226.903 39.9529 226.736 40.1353C224.965 37.2623 221.659 35.4762 217.281 35.2786C216.004 35.233 215.069 35.1874 213.534 35.4458L197.337 38.1364L195.505 41.6555C195.505 41.6555 195.931 42.3927 196.037 42.8259C196.136 43.2896 196.189 44.1028 196.144 44.5057C195.748 47.7739 191.454 72.6126 191.454 72.6126C190.169 80.1144 187.517 82.2653 187.509 82.2653L190.626 85.8148C195.3 85.4272 203.569 83.1318 206.906 75.3108L208.206 77.1882C265.613 67.5734 283.657 65.8329 288.27 66.1825L290.459 66.2813L292.116 61.9186C292.466 61.1585 292.671 60.7329 293.195 59.7752C293.864 58.5515 296.699 55.9369 299.261 54.7361L295.947 50.6849C297.68 48.9292 298.964 46.6566 299.739 43.9584C299.853 43.6012 296.578 40.2038 296.053 39.6565C296.593 39.5197 297.224 39.3069 297.824 38.9269C298.508 38.5164 299.109 38.0224 299.58 37.4827C300.712 36.2286 301.366 34.7009 301.434 33.1732C301.526 31.1895 300.537 29.4109 298.865 28.5293C298.105 28.1264 296.912 27.7312 295.171 27.7312C294.518 27.7312 293.788 27.792 292.982 27.9212" fill="white"/>
</mask>
<g mask="url(#mask6_20_387)">
<path d="M301.526 27.7386H187.509V85.8299H301.526V27.7386Z" fill="#A1A1A1"/>
</g>
<path d="M225.048 60.7786C225.603 59.9198 226.059 59.0761 226.553 57.138C226.629 56.8415 226.675 56.5983 226.728 56.3019L228.674 45.1291C228.682 44.9542 228.104 42.9857 228.157 41.7848C228.18 41.2908 228.302 40.9259 228.537 40.8803L237.24 39.4362L234.519 55.0022C234.473 55.291 234.39 55.5799 234.382 55.8687C234.314 57.3204 235.104 58.2325 235.096 58.7949C235.096 59.0001 235.013 59.1217 234.777 59.1597L225.048 60.771V60.7786ZM229.259 37.2929C229.343 35.3547 230.855 33.5534 234.184 33.0061C235.302 32.9301 238.22 33.3862 238.167 35.3623C238.099 36.9508 236.647 38.699 233.325 39.2538C230.635 39.5274 229.404 38.5394 229.259 37.3005" fill="white"/>
<path d="M239.854 50.2593L241.124 43.0235C241.169 42.7043 241.222 42.3775 241.268 42.0202C241.321 41.5566 241.336 41.169 241.359 40.7889C241.39 39.9377 241.2 39.3828 241.017 38.8128L249.674 37.3687L247.288 51.2169L247.158 51.901L247.06 52.5774C247.052 52.7522 247.044 52.9651 247.067 53.1779C247.136 53.8619 247.508 54.4624 248.276 54.3408C248.549 54.2952 248.945 54.1736 249.264 54.0139C250.594 53.3451 252.54 50.5709 253.209 47.4394C253.277 47.143 253.338 46.8922 253.383 46.6034L253.437 46.2462L253.49 45.8205V45.4709L253.551 45.1061C252.137 45.1745 250.769 44.0572 250.716 41.3362C250.814 39.1548 251.681 37.6879 252.806 36.8366C253.376 36.3958 253.931 36.1602 254.478 36.069C255.648 35.8714 256.644 36.373 257.146 37.4067C257.457 38.0907 257.594 38.904 257.594 40.4773C257.488 42.8335 256.94 45.3037 255.952 47.7055C253.931 52.6838 250.822 55.9293 247.706 57.1834C246.946 57.4874 246.186 57.7154 245.494 57.8294C241.686 58.4679 239.353 56.2029 239.497 52.7142C239.512 52.2582 239.611 51.6502 239.847 50.2517" fill="white"/>
<path d="M270.333 36.0461C270.88 35.9321 270.956 36.6694 270.903 37.7107C270.819 39.4132 270.363 41.7998 269.975 43.6619C269.132 47.7054 269.048 49.8412 267.171 50.434C266.532 50.5632 266.19 49.8792 266.206 48.8151C266.213 47.1354 266.624 44.5512 267.072 42.7194C267.695 40.1808 268.607 36.4034 270.325 36.0461M266.616 34.298C263.591 34.7996 261.037 38.6531 259.532 43.3807C259.137 44.6728 258.833 45.9801 258.711 47.333C258.658 47.7662 258.635 48.1843 258.62 48.5719C258.552 50.1908 258.704 51.3917 259.129 52.547C259.768 54.3939 261.296 55.268 263.181 54.9488C264.427 54.7436 265.78 54.0671 267.125 52.7826C267.695 52.2734 268.197 51.6349 268.6 50.9661L268.144 53.5959L277.204 52.091C276.968 51.4449 276.71 51.0877 276.717 50.244C276.732 49.826 276.763 49.2559 276.824 48.5871C276.869 48.3363 276.877 48.0854 276.922 47.865L278.876 36.7758C278.921 36.4186 279.005 36.0841 279.089 35.7269C279.431 34.1688 279.871 33.1883 280.388 32.261L271.602 33.7204L271.412 34.906C271.412 34.906 268.752 34.1612 266.601 34.3056" fill="white"/>
<path d="M293.674 30.9157C291.933 31.3413 290.018 33.5227 289.562 38.3871C289.471 39.3067 289.479 40.3328 289.539 41.1309C289.729 43.3503 291.151 44.5663 292.815 44.2927C293.499 44.1787 294.054 43.7911 294.677 43.3731C295.65 42.689 296.357 42.0202 296.965 41.1765C296.889 41.5033 296.805 41.8681 296.684 42.233C295.437 46.5501 292.884 49.1647 289.691 50.3808C288.939 50.6468 288.224 50.8748 287.578 50.9812C283.474 51.6653 281.171 49.1115 281.369 43.8367C281.407 43.1678 281.467 42.461 281.597 41.7769C282.585 36.0461 286.233 31.6226 291.014 30.1632C291.728 29.9428 292.374 29.7984 292.982 29.6996C295.019 29.3652 296.365 29.6312 297.125 30.0264C297.885 30.4217 298.288 31.2349 298.25 32.1546C298.219 32.9983 297.832 33.9407 297.094 34.7692C296.775 35.134 296.387 35.4381 295.977 35.6889C295.529 35.9777 295.042 36.0993 294.639 36.1905C293.644 36.4109 292.587 35.7573 292.397 34.6324C292.352 34.222 292.283 33.8039 292.39 33.3403C292.64 32.185 292.998 31.7062 293.674 30.9309" fill="white"/>
<path d="M212.584 41.8833C213.427 43.3655 213.731 44.4675 213.815 45.9649C213.883 46.9833 213.815 48.0322 213.587 49.4535C213.07 52.737 212.622 54.7207 211.216 58.0954C210.547 59.7827 208.221 60.7404 207.088 60.9912C206.587 61.0976 206.328 61.0596 206.268 60.9836L209.665 41.1613C210.919 40.8877 211.998 40.7889 212.576 41.8833M189.326 82.9569C189.326 82.9569 202.642 81.8472 204.854 70.3095C205.454 67.1629 206.04 64.115 206.04 64.115L209.277 63.5754C210.683 63.3398 216.49 61.3408 219.987 57.4797C223.278 53.8619 224.342 50.0692 224.897 46.1169C224.957 45.752 224.98 45.4024 224.995 45.0604C225.223 39.664 221.393 37.285 216.718 37.0722C215.517 37.019 214.795 36.9886 213.534 37.2014L197.329 39.892L197.861 40.9865C198.006 41.5489 198.439 42.8486 198.401 43.9507C197.694 49.0659 197.132 51.4221 196.288 56.408C195.308 62.4201 194.745 66.1368 193.689 72.1488C192.336 79.8862 189.311 82.9417 189.311 82.9417" fill="white"/>
<path d="M209.156 65.8557C224.038 63.8036 263.865 56.4614 296.19 52.5015C296.19 52.5015 291.333 55.2681 289.98 57.7611C289.015 59.5397 289.342 59.0532 287.571 62.7015C277.759 62.0783 236.016 68.7744 207.788 73.5095C209.49 67.201 209.156 65.8557 209.156 65.8557Z" fill="white"/>
</g>
<defs>
<clipPath id="clip0_20_387">
<rect width="116" height="97.3026" fill="white" transform="translate(187 1)"/>
</clipPath>
</defs>
</svg>
