<svg width="500" height="100" viewBox="0 0 500 100" fill="none" xmlns="http://www.w3.org/2000/svg">
<path d="M154.906 29.6108V29.5341C154.906 24.745 150.854 21.4691 144.829 21.4691H133V49.5627H135.395V38.0685H144.216L153.009 49.5052L153.057 49.5722H156.103L146.917 37.6279C151.927 36.8904 154.906 33.8924 154.906 29.6108ZM135.395 23.7104H144.705C149.59 23.7104 152.511 25.9134 152.511 29.6108V29.6874C152.511 33.4421 149.398 35.8655 144.59 35.8655H135.395V23.7104Z" fill="#6E7071"/>
<path d="M173.478 21.278H171.285L158.316 49.3237L158.201 49.5631H160.71L164.245 41.795H180.404L183.928 49.5631H186.563L173.526 21.345L173.478 21.278ZM179.379 39.5918H165.289L172.358 24.1036L179.379 39.5918Z" fill="#6E7071"/>
<path d="M200.413 21.4691H191.007V49.5627H200.413C209.034 49.5627 215.327 43.6527 215.327 35.5207V35.4344C215.327 27.3503 209.053 21.4691 200.413 21.4691ZM200.413 47.3309H193.402V23.7104H200.413C207.626 23.7104 212.865 28.672 212.865 35.5207V35.5973C212.856 42.5033 207.741 47.3214 200.413 47.3214V47.3309Z" fill="#6E7071"/>
<path d="M223.698 21.4691H221.304V49.5627H223.698V21.4691Z" fill="#6E7071"/>
<path d="M243.832 21C234.963 21 229.666 28.385 229.666 35.5209V35.5976C229.666 43.8254 235.719 50.0418 243.746 50.0418C252.597 50.0418 257.884 42.6951 257.913 35.5784C257.931 35.5482 257.941 35.5134 257.941 35.4778C257.941 35.4422 257.931 35.4074 257.913 35.3772C257.884 27.178 251.84 21 243.832 21ZM243.832 47.8196C237.271 47.8196 232.137 42.4077 232.137 35.5017V35.4155C232.137 28.4425 237.127 23.1743 243.746 23.1743C250.365 23.1743 255.441 28.586 255.441 35.5017V35.5784C255.441 42.5801 250.451 47.8388 243.832 47.8388V47.8196Z" fill="#6E7071"/>
<path d="M276.264 45.3962C270.948 45.3962 267.098 40.9517 267.098 35.4825C267.098 30.0133 270.929 25.6454 276.264 25.6454C279.435 25.6454 281.81 27.0343 284.033 29.0937L287.165 25.4826C285.755 24.0459 284.06 22.9195 282.19 22.1756C280.32 21.4316 278.314 21.0867 276.303 21.1628C274.416 21.1496 272.545 21.5081 270.797 22.2179C269.049 22.9278 267.457 23.975 266.114 25.2997C263.401 27.9753 261.861 31.6193 261.835 35.4297C261.808 39.2403 263.296 42.9054 265.972 45.6187C268.647 48.3321 272.291 49.8713 276.102 49.898C278.226 49.9678 280.34 49.5628 282.289 48.7128C284.237 47.8628 285.972 46.5891 287.366 44.9842L284.234 41.8139C281.849 44.0072 279.674 45.3962 276.264 45.3962Z" fill="#6E7071"/>
<path d="M309.607 33.1742H296.369V21.6418H291.484V49.4002H296.369V37.6952H309.607V49.4002H314.482V21.6418H309.607V33.1742Z" fill="#6E7071"/>
<path d="M325.785 21.6418H320.91V49.4002H325.785V21.6418Z" fill="#6E7071"/>
<path d="M354.883 30.4445C354.883 25.0134 350.966 21.6418 344.577 21.6418H332.203V49.4194H337.087V39.745H343.189L350.009 49.4194H355.755L348.265 38.883C352.153 37.8198 354.883 35.0422 354.883 30.4445ZM337.087 35.3966V26.0767H344.186C347.787 26.0767 349.932 27.6667 349.932 30.7222C349.932 33.5957 347.71 35.3966 344.186 35.3966H337.087Z" fill="#6E7071"/>
<path d="M378.322 37.6282C378.322 42.7432 375.67 45.3581 371.341 45.3581C367.01 45.3581 364.328 42.5898 364.328 37.4272V21.6418H359.443V37.6282C359.443 45.6742 364.051 49.8408 371.264 49.8408C378.477 49.8408 383.199 45.6742 383.199 37.3888V21.6418H378.322V37.6282Z" fill="#6E7071"/>
<path d="M411.587 30.4445C411.587 25.0134 407.662 21.6418 401.281 21.6418H388.907V49.4194H393.782V39.745H399.894L406.713 49.4194H412.459L404.97 38.883C408.85 37.8198 411.587 35.0422 411.587 30.4445ZM393.782 35.3966V26.0767H400.917C404.529 26.0767 406.666 27.6667 406.666 30.7222C406.666 33.5957 404.452 35.3966 400.917 35.3966H393.782Z" fill="#6E7071"/>
<path d="M429.51 38.1357H436.608V43.3752C434.653 44.7729 432.305 45.511 429.903 45.4825C424.232 45.4825 420.469 41.2776 420.469 35.5304C420.469 30.1377 424.357 25.6934 429.472 25.6934C432.352 25.6156 435.145 26.6836 437.238 28.6628L440.334 24.9749C437.408 22.3557 433.576 20.987 429.654 21.1628C427.762 21.1408 425.888 21.4978 424.137 22.2128C422.388 22.9279 420.799 23.9862 419.464 25.3256C418.13 26.665 417.079 28.258 416.371 30.0107C415.663 31.7636 415.313 33.6404 415.343 35.5304C415.343 43.6626 421.089 49.8406 429.711 49.8406C433.963 49.8363 438.075 48.3032 441.291 45.5206V33.8926H429.51V38.1357Z" fill="#6E7071"/>
<path d="M451.828 21.6418H446.952V49.4002H451.828V21.6418Z" fill="#6E7071"/>
<path d="M472.613 21.4401H468.092L455.878 49.3994H460.869L463.743 42.6944H476.866L479.681 49.3994H484.844L472.613 21.4401ZM465.514 38.3746L470.304 27.2732L475.093 38.3746H465.514Z" fill="#6E7071"/>
<path d="M207.817 67.2447H216.237L207.549 78.2887L207.53 78.3173V79.4476H218.583V77.9151H209.857L218.564 66.8616L218.583 66.8425V65.7025H207.817V67.2447Z" fill="#6E7071"/>
<path d="M247.596 65.606H246.054L239.838 79.3318L239.79 79.4469H241.543L243.152 75.8549H250.441L252.031 79.4469H253.861L247.663 65.6538L247.596 65.606ZM249.771 74.3224H243.832L246.811 67.6652L249.771 74.3224Z" fill="#6E7071"/>
<path d="M281.887 73.566H285.977V76.8225C284.879 77.6717 283.533 78.1362 282.146 78.1443C278.985 78.1443 276.858 75.8935 276.858 72.5603C276.824 71.8633 276.928 71.1664 277.165 70.5101C277.403 69.8539 277.768 69.2516 278.241 68.738C278.713 68.2245 279.283 67.8102 279.917 67.5192C280.552 67.2283 281.237 67.0664 281.935 67.0431C282.683 67.0158 283.43 67.1383 284.13 67.403C284.831 67.6679 285.472 68.0697 286.015 68.5853L286.082 68.6331L287.126 67.407V67.3496L287.069 67.2921C285.66 66.0462 283.824 65.3941 281.944 65.4722C281.021 65.477 280.107 65.6661 279.257 66.0289C278.408 66.3916 277.639 66.9205 276.997 67.5843C276.354 68.2482 275.851 69.0337 275.516 69.8948C275.182 70.7558 275.022 71.6751 275.048 72.5984C274.993 73.5354 275.136 74.4733 275.467 75.3517C275.798 76.23 276.309 77.0289 276.968 77.697C277.627 78.3651 278.419 78.8876 279.293 79.2301C280.167 79.5729 281.103 79.7284 282.04 79.6865C284.071 79.6851 286.031 78.9388 287.548 77.5889V72.0622H281.801L281.887 73.566Z" fill="#6E7071"/>
<path d="M321.264 69.8405C321.264 67.3214 319.349 65.7025 316.274 65.7025H310.345V79.4476H312.04V74.1699H315.804L319.722 79.4189H321.81L317.615 73.8442C319.942 73.4132 321.264 71.9478 321.264 69.8405ZM312.04 67.3214H316.159C318.276 67.3214 319.55 68.2793 319.55 69.9363C319.55 71.5933 318.209 72.6661 316.14 72.6661H312.04V67.3214Z" fill="#6E7071"/>
<path d="M345.478 73.2982H352.893V71.737H345.478V67.2639H353.764V65.7025H343.782V79.4476H353.859V77.8864H345.478V73.2982Z" fill="#6E7071"/>
<path d="M384.539 72.3308C385.152 72.0669 385.669 71.6256 386.027 71.0638C386.387 70.502 386.569 69.8458 386.551 69.1796C386.551 67.0627 384.788 65.7025 382.048 65.7025H376.178V79.4476H382.297C385.391 79.4476 387.306 77.9918 387.306 75.6162C387.306 74.0262 386.407 72.9438 384.539 72.3308ZM381.914 67.2447C383.744 67.2447 384.788 68.0494 384.788 69.3904C384.788 70.7313 383.657 71.7562 381.752 71.7562H377.814V67.2447H381.914ZM382.335 77.9056H377.864V73.279H382.068C384.337 73.279 385.592 74.0837 385.592 75.5492C385.592 77.0147 384.377 77.9056 382.335 77.9056Z" fill="#6E7071"/>
<path d="M454.202 56.9948H159.858C159.667 56.9948 159.485 57.0703 159.35 57.2051C159.215 57.3399 159.139 57.5225 159.139 57.7131C159.139 57.9036 159.215 58.0863 159.35 58.2211C159.485 58.3557 159.667 58.4314 159.858 58.4314H454.202C454.394 58.4314 454.576 58.3557 454.71 58.2211C454.844 58.0863 454.922 57.9036 454.922 57.7131C454.922 57.5225 454.844 57.3399 454.71 57.2051C454.576 57.0703 454.394 56.9948 454.202 56.9948Z" fill="#6E7071"/>
<path fill-rule="evenodd" clip-rule="evenodd" d="M18.4446 34.2012C15.7215 31.6357 14.1291 28.0935 14.0177 24.354C13.9062 20.6144 15.2849 16.9837 17.8503 14.2606C20.4158 11.5376 23.9579 9.94511 27.6975 9.83366C31.4371 9.72221 35.0678 11.1009 37.7908 13.6663L38.4008 14.245L47.0182 22.8625C50.5616 26.4095 53.3693 30.6214 55.2803 35.2565C57.1912 39.8916 58.1676 44.8586 58.1537 49.8722C58.1659 54.8854 57.1887 59.8518 55.2778 64.4867C53.367 69.1216 50.5602 73.3337 47.0182 76.8816L38.4008 85.4992L37.7908 86.109C35.0636 88.6745 31.429 90.0517 27.6865 89.9371C23.9439 89.8228 20.4002 88.2264 17.8347 85.4992C15.2692 82.772 13.8922 79.1373 14.0066 75.3947C14.121 71.6522 15.7174 68.1084 18.4446 65.5429L18.7887 65.2303L27.0464 57.0037C28.8955 55.128 29.9321 52.5999 29.9321 49.9659C29.9321 47.332 28.8955 44.8039 27.0464 42.928L18.7731 34.6391L18.429 34.295" fill="white"/>
<path fill-rule="evenodd" clip-rule="evenodd" d="M79.4387 95.212C82.0042 97.935 85.5465 99.5275 89.2859 99.639C93.0255 99.7505 96.6563 98.3718 99.3793 95.8064C102.102 93.2409 103.695 89.6988 103.806 85.9592C103.918 82.2196 102.539 78.5888 99.9737 75.8658L99.3793 75.2714L90.762 66.6697C87.2255 63.1099 83.0197 60.285 78.3868 58.3578C73.754 56.4306 68.7857 55.4391 63.768 55.4405C58.7515 55.4263 53.7819 56.4057 49.1462 58.3224C44.5104 60.239 40.3 63.0548 36.7583 66.6071L28.1251 75.209L27.5308 75.8031C24.9654 78.5263 23.5867 82.1569 23.6982 85.8965C23.8096 89.6362 25.4021 93.1782 28.1251 95.7437C30.8482 98.3092 34.4789 99.6879 38.2185 99.5764C41.9581 99.465 45.5002 97.8726 48.0657 95.1496C48.1908 95.0399 48.3002 94.9149 48.4098 94.8054L56.6987 86.532C58.5664 84.6679 61.0976 83.6207 63.7366 83.6207C66.3755 83.6207 68.9066 84.6679 70.7744 86.532L79.0634 94.8054C79.1729 94.9149 79.2823 95.0399 79.4076 95.1496" fill="white"/>
<path fill-rule="evenodd" clip-rule="evenodd" d="M109.561 65.434C112.286 67.9995 113.881 71.5423 113.994 75.2835C114.107 79.0244 112.729 82.6571 110.163 85.3824C107.598 88.1075 104.055 89.702 100.314 89.8148C96.5728 89.9278 92.9401 88.5499 90.2148 85.9844L89.605 85.3901L80.9718 76.7884C77.4299 73.2395 74.622 69.0276 72.7086 64.3931C70.7954 59.7587 69.814 54.7925 69.8208 49.7787C69.814 44.7648 70.7954 39.7987 72.7086 35.1642C74.622 30.5298 77.4299 26.3177 80.9718 22.7691L89.605 14.1516L90.2148 13.5573C92.9401 10.9918 96.5728 9.61398 100.314 9.72689C104.055 9.83981 107.598 11.4343 110.163 14.1594C112.729 16.8846 114.107 20.5172 113.994 24.2583C113.881 27.9993 112.286 31.5423 109.561 34.1078L109.217 34.4519L100.944 42.7408C99.0947 44.6166 98.058 47.1448 98.058 49.7787C98.058 52.4127 99.0947 54.9408 100.944 56.8165L109.217 65.0899L109.561 65.4184" fill="white"/>
<path fill-rule="evenodd" clip-rule="evenodd" d="M48.5657 4.43897C46.0002 1.7138 42.4572 0.119352 38.7162 0.00643157C34.9751 -0.106489 31.3424 1.27135 28.6173 3.83682C25.8921 6.40229 24.2977 9.94526 24.1848 13.6863C24.0719 17.4273 25.4497 21.06 28.0152 23.7851L28.6095 24.3795L37.2425 32.9968C44.4115 40.1474 54.1268 44.1584 64.2521 44.148C74.3776 44.1584 84.0927 40.1474 91.2618 32.9968L99.895 24.3795L100.489 23.7851C103.055 21.06 104.433 17.4273 104.32 13.6863C104.207 9.94526 102.612 6.40229 99.8871 3.83682C97.162 1.27135 93.5293 -0.106489 89.7882 0.00643157C86.0472 0.119352 82.5042 1.7138 79.9387 4.43897L79.5946 4.78299L71.3057 13.0564C70.3836 13.9886 69.285 14.7275 68.0738 15.2297C66.8625 15.7319 65.5632 15.9873 64.2521 15.981C61.6063 15.9799 59.0691 14.9279 57.1987 13.0564L48.9253 4.78299L48.5813 4.43897" fill="white"/>
<path fill-rule="evenodd" clip-rule="evenodd" d="M18.4446 34.2012C15.7215 31.6357 14.1291 28.0935 14.0177 24.354C13.9062 20.6144 15.2849 16.9837 17.8503 14.2606C20.4158 11.5376 23.9579 9.94511 27.6975 9.83366C31.4371 9.72221 35.0678 11.1009 37.7908 13.6663L38.4008 14.245L47.0182 22.8625C50.5616 26.4095 53.3693 30.6214 55.2803 35.2565C57.1912 39.8916 58.1676 44.8586 58.1537 49.8722C58.1659 54.8854 57.1887 59.8518 55.2778 64.4867C53.367 69.1216 50.5602 73.3337 47.0182 76.8816L38.4008 85.4992L37.7908 86.109C35.0636 88.6745 31.429 90.0517 27.6865 89.9371C23.9439 89.8228 20.4002 88.2264 17.8347 85.4992C15.2692 82.772 13.8922 79.1373 14.0066 75.3947C14.121 71.6522 15.7174 68.1084 18.4446 65.5429L18.7887 65.2303L27.0464 57.0037C28.8955 55.128 29.9321 52.5999 29.9321 49.9659C29.9321 47.332 28.8955 44.8039 27.0464 42.928L18.7731 34.6391L18.429 34.295" fill="white"/>
<path fill-rule="evenodd" clip-rule="evenodd" d="M79.4387 95.212C82.0042 97.935 85.5465 99.5275 89.2859 99.639C93.0255 99.7505 96.6563 98.3718 99.3793 95.8064C102.102 93.2409 103.695 89.6988 103.806 85.9592C103.918 82.2196 102.539 78.5888 99.9737 75.8658L99.3793 75.2714L90.762 66.6697C87.2255 63.1099 83.0197 60.285 78.3868 58.3578C73.754 56.4306 68.7857 55.4391 63.768 55.4405C58.7515 55.4263 53.7819 56.4057 49.1462 58.3224C44.5104 60.239 40.3 63.0548 36.7583 66.6071L28.1251 75.209L27.5308 75.8031C24.9654 78.5263 23.5867 82.1569 23.6982 85.8965C23.8096 89.6362 25.4021 93.1782 28.1251 95.7437C30.8482 98.3092 34.4789 99.6879 38.2185 99.5764C41.9581 99.465 45.5002 97.8726 48.0657 95.1496C48.1908 95.0399 48.3002 94.9149 48.4098 94.8054L56.6987 86.532C58.5664 84.6679 61.0976 83.6207 63.7366 83.6207C66.3755 83.6207 68.9066 84.6679 70.7744 86.532L79.0634 94.8054C79.1729 94.9149 79.2823 95.0399 79.4076 95.1496" fill="white"/>
<path fill-rule="evenodd" clip-rule="evenodd" d="M109.561 65.434C112.286 67.9995 113.881 71.5423 113.994 75.2835C114.107 79.0244 112.729 82.6571 110.163 85.3824C107.598 88.1075 104.055 89.702 100.314 89.8148C96.5728 89.9278 92.9401 88.5499 90.2148 85.9844L89.605 85.3901L80.9718 76.7884C77.4299 73.2395 74.622 69.0276 72.7086 64.3931C70.7954 59.7587 69.814 54.7925 69.8208 49.7787C69.814 44.7648 70.7954 39.7987 72.7086 35.1642C74.622 30.5298 77.4299 26.3177 80.9718 22.7691L89.605 14.1516L90.2148 13.5573C92.9401 10.9918 96.5728 9.61398 100.314 9.72689C104.055 9.83981 107.598 11.4343 110.163 14.1594C112.729 16.8846 114.107 20.5172 113.994 24.2583C113.881 27.9993 112.286 31.5423 109.561 34.1078L109.217 34.4519L100.944 42.7408C99.0947 44.6166 98.058 47.1448 98.058 49.7787C98.058 52.4127 99.0947 54.9408 100.944 56.8165L109.217 65.0899L109.561 65.4184" fill="white"/>
<path fill-rule="evenodd" clip-rule="evenodd" d="M48.5657 4.43897C46.0002 1.7138 42.4572 0.119352 38.7162 0.00643157C34.9751 -0.106489 31.3424 1.27135 28.6173 3.83682C25.8921 6.40229 24.2977 9.94526 24.1848 13.6863C24.0719 17.4273 25.4497 21.06 28.0152 23.7851L28.6095 24.3795L37.2425 32.9968C44.4115 40.1474 54.1268 44.1584 64.2521 44.148C74.3776 44.1584 84.0927 40.1474 91.2618 32.9968L99.895 24.3795L100.489 23.7851C103.055 21.06 104.433 17.4273 104.32 13.6863C104.207 9.94526 102.612 6.40229 99.8871 3.83682C97.162 1.27135 93.5293 -0.106489 89.7882 0.00643157C86.0472 0.119352 82.5042 1.7138 79.9387 4.43897L79.5946 4.78299L71.3057 13.0564C70.3836 13.9886 69.285 14.7275 68.0738 15.2297C66.8625 15.7319 65.5632 15.9873 64.2521 15.981C61.6063 15.9799 59.0691 14.9279 57.1987 13.0564L48.9253 4.78299L48.5813 4.43897" fill="white"/>
<g style="mix-blend-mode:multiply">
<path fill-rule="evenodd" clip-rule="evenodd" d="M18.4446 34.2012C15.7215 31.6357 14.1291 28.0935 14.0177 24.354C13.9062 20.6144 15.2849 16.9837 17.8503 14.2606C20.4158 11.5376 23.9579 9.94511 27.6975 9.83366C31.4371 9.72221 35.0678 11.1009 37.7908 13.6663L38.4008 14.245L47.0182 22.8625C50.5616 26.4095 53.3693 30.6214 55.2803 35.2565C57.1912 39.8916 58.1676 44.8586 58.1537 49.8722C58.1659 54.8854 57.1887 59.8518 55.2778 64.4867C53.367 69.1216 50.5602 73.3337 47.0182 76.8816L38.4008 85.4992L37.7908 86.109C35.0636 88.6745 31.429 90.0517 27.6865 89.9371C23.9439 89.8228 20.4002 88.2264 17.8347 85.4992C15.2692 82.772 13.8922 79.1373 14.0066 75.3947C14.121 71.6522 15.7174 68.1084 18.4446 65.5429L18.7887 65.2303L27.0464 57.0037C28.8955 55.128 29.9321 52.5999 29.9321 49.9659C29.9321 47.332 28.8955 44.8039 27.0464 42.928L18.7731 34.6391L18.429 34.295" fill="#119C8E"/>
</g>
<g style="mix-blend-mode:multiply">
<path fill-rule="evenodd" clip-rule="evenodd" d="M79.4387 95.212C82.0042 97.935 85.5465 99.5275 89.2859 99.639C93.0255 99.7505 96.6563 98.3718 99.3793 95.8064C102.102 93.2409 103.695 89.6988 103.806 85.9592C103.918 82.2196 102.539 78.5888 99.9737 75.8658L99.3793 75.2714L90.762 66.6697C87.2255 63.1099 83.0197 60.285 78.3868 58.3578C73.754 56.4306 68.7857 55.4391 63.768 55.4405C58.7515 55.4263 53.7819 56.4057 49.1462 58.3224C44.5104 60.239 40.3 63.0548 36.7583 66.6071L28.1251 75.209L27.5308 75.8031C24.9654 78.5263 23.5867 82.1569 23.6982 85.8965C23.8096 89.6362 25.4021 93.1782 28.1251 95.7437C30.8482 98.3092 34.4789 99.6879 38.2185 99.5764C41.9581 99.465 45.5002 97.8726 48.0657 95.1496C48.1908 95.0399 48.3002 94.9149 48.4098 94.8054L56.6987 86.532C58.5664 84.6679 61.0976 83.6207 63.7366 83.6207C66.3755 83.6207 68.9066 84.6679 70.7744 86.532L79.0634 94.8054C79.1729 94.9149 79.2823 95.0399 79.4076 95.1496" fill="#388ECC"/>
</g>
<g style="mix-blend-mode:multiply">
<path fill-rule="evenodd" clip-rule="evenodd" d="M109.561 65.434C112.286 67.9995 113.881 71.5423 113.994 75.2835C114.107 79.0244 112.729 82.6571 110.163 85.3824C107.598 88.1075 104.055 89.702 100.314 89.8148C96.5728 89.9278 92.9401 88.5499 90.2148 85.9844L89.605 85.3901L80.9718 76.7884C77.4299 73.2395 74.622 69.0276 72.7086 64.3931C70.7954 59.7587 69.814 54.7925 69.8208 49.7787C69.814 44.7648 70.7954 39.7987 72.7086 35.1642C74.622 30.5298 77.4299 26.3177 80.9718 22.7691L89.605 14.1516L90.2148 13.5573C92.9401 10.9918 96.5728 9.61398 100.314 9.72689C104.055 9.83981 107.598 11.4343 110.163 14.1594C112.729 16.8846 114.107 20.5172 113.994 24.2583C113.881 27.9993 112.286 31.5423 109.561 34.1078L109.217 34.4519L100.944 42.7408C99.0947 44.6166 98.058 47.1448 98.058 49.7787C98.058 52.4127 99.0947 54.9408 100.944 56.8165L109.217 65.0899L109.561 65.4184" fill="#6CCCF3"/>
</g>
<g style="mix-blend-mode:multiply">
<path fill-rule="evenodd" clip-rule="evenodd" d="M48.5657 4.43897C46.0002 1.7138 42.4572 0.119352 38.7162 0.00643157C34.9751 -0.106489 31.3424 1.27135 28.6173 3.83682C25.8921 6.40229 24.2977 9.94526 24.1848 13.6863C24.0719 17.4273 25.4497 21.06 28.0152 23.7851L28.6095 24.3795L37.2425 32.9968C44.4115 40.1474 54.1268 44.1584 64.2521 44.148C74.3776 44.1584 84.0927 40.1474 91.2618 32.9968L99.895 24.3795L100.489 23.7851C103.055 21.06 104.433 17.4273 104.32 13.6863C104.207 9.94526 102.612 6.40229 99.8871 3.83682C97.162 1.27135 93.5293 -0.106489 89.7882 0.00643157C86.0472 0.119352 82.5042 1.7138 79.9387 4.43897L79.5946 4.78299L71.3057 13.0564C70.3836 13.9886 69.285 14.7275 68.0738 15.2297C66.8625 15.7319 65.5632 15.9873 64.2521 15.981C61.6063 15.9799 59.0691 14.9279 57.1987 13.0564L48.9253 4.78299L48.5813 4.43897" fill="#8AC644"/>
</g>
</svg>
