<svg width="501" height="100" viewBox="0 0 501 100" fill="none" xmlns="http://www.w3.org/2000/svg">
<g clip-path="url(#clip0_3_170)">
<path d="M155.406 29.6108V29.5341C155.406 24.745 151.354 21.4691 145.329 21.4691H133.5V49.5627H135.895V38.0685H144.716L153.509 49.5052L153.557 49.5722H156.603L147.417 37.6279C152.427 36.8904 155.406 33.8924 155.406 29.6108ZM135.895 23.7104H145.205C150.09 23.7104 153.011 25.9134 153.011 29.6108V29.6874C153.011 33.4421 149.898 35.8655 145.09 35.8655H135.895V23.7104Z" fill="#6E7071"/>
<path d="M173.978 21.278H171.785L158.816 49.3237L158.701 49.5631H161.21L164.745 41.795H180.904L184.428 49.5631H187.063L174.026 21.345L173.978 21.278ZM179.879 39.5918H165.789L172.858 24.1036L179.879 39.5918Z" fill="#6E7071"/>
<path d="M200.913 21.4691H191.507V49.5627H200.913C209.534 49.5627 215.827 43.6527 215.827 35.5207V35.4344C215.827 27.3503 209.553 21.4691 200.913 21.4691ZM200.913 47.3309H193.902V23.7104H200.913C208.126 23.7104 213.365 28.672 213.365 35.5207V35.5973C213.356 42.5033 208.241 47.3214 200.913 47.3214V47.3309Z" fill="#6E7071"/>
<path d="M224.198 21.4691H221.804V49.5627H224.198V21.4691Z" fill="#6E7071"/>
<path d="M244.332 21C235.463 21 230.166 28.385 230.166 35.5209V35.5976C230.166 43.8254 236.219 50.0418 244.246 50.0418C253.097 50.0418 258.384 42.6951 258.413 35.5784C258.431 35.5482 258.441 35.5134 258.441 35.4778C258.441 35.4422 258.431 35.4074 258.413 35.3772C258.384 27.178 252.34 21 244.332 21ZM244.332 47.8196C237.771 47.8196 232.637 42.4077 232.637 35.5017V35.4155C232.637 28.4425 237.627 23.1743 244.246 23.1743C250.865 23.1743 255.941 28.586 255.941 35.5017V35.5784C255.941 42.5801 250.951 47.8388 244.332 47.8388V47.8196Z" fill="#6E7071"/>
<path d="M276.764 45.3962C271.448 45.3962 267.598 40.9517 267.598 35.4825C267.598 30.0133 271.429 25.6454 276.764 25.6454C279.935 25.6454 282.31 27.0343 284.533 29.0937L287.665 25.4826C286.255 24.0459 284.56 22.9195 282.69 22.1756C280.82 21.4316 278.814 21.0867 276.803 21.1628C274.916 21.1496 273.045 21.5081 271.297 22.2179C269.549 22.9278 267.957 23.975 266.614 25.2997C263.901 27.9753 262.361 31.6193 262.335 35.4297C262.308 39.2403 263.796 42.9054 266.472 45.6187C269.147 48.3321 272.791 49.8713 276.602 49.898C278.726 49.9678 280.84 49.5628 282.789 48.7128C284.737 47.8628 286.472 46.5891 287.866 44.9842L284.734 41.8139C282.349 44.0072 280.174 45.3962 276.764 45.3962Z" fill="#6E7071"/>
<path d="M310.107 33.1742H296.869V21.6418H291.984V49.4002H296.869V37.6952H310.107V49.4002H314.982V21.6418H310.107V33.1742Z" fill="#6E7071"/>
<path d="M326.285 21.6418H321.41V49.4002H326.285V21.6418Z" fill="#6E7071"/>
<path d="M355.383 30.4445C355.383 25.0134 351.466 21.6418 345.077 21.6418H332.703V49.4194H337.587V39.745H343.689L350.509 49.4194H356.255L348.765 38.883C352.653 37.8198 355.383 35.0422 355.383 30.4445ZM337.587 35.3966V26.0767H344.686C348.287 26.0767 350.432 27.6667 350.432 30.7222C350.432 33.5957 348.21 35.3966 344.686 35.3966H337.587Z" fill="#6E7071"/>
<path d="M378.822 37.6282C378.822 42.7432 376.17 45.3581 371.841 45.3581C367.51 45.3581 364.828 42.5898 364.828 37.4272V21.6418H359.943V37.6282C359.943 45.6742 364.551 49.8408 371.764 49.8408C378.977 49.8408 383.699 45.6742 383.699 37.3888V21.6418H378.822V37.6282Z" fill="#6E7071"/>
<path d="M412.087 30.4445C412.087 25.0134 408.162 21.6418 401.781 21.6418H389.407V49.4194H394.282V39.745H400.394L407.213 49.4194H412.959L405.47 38.883C409.35 37.8198 412.087 35.0422 412.087 30.4445ZM394.282 35.3966V26.0767H401.417C405.029 26.0767 407.166 27.6667 407.166 30.7222C407.166 33.5957 404.952 35.3966 401.417 35.3966H394.282Z" fill="#6E7071"/>
<path d="M430.01 38.1357H437.108V43.3752C435.153 44.7729 432.805 45.511 430.403 45.4825C424.732 45.4825 420.969 41.2776 420.969 35.5304C420.969 30.1377 424.857 25.6934 429.972 25.6934C432.852 25.6156 435.645 26.6836 437.738 28.6628L440.834 24.9749C437.908 22.3557 434.076 20.987 430.154 21.1628C428.262 21.1408 426.388 21.4978 424.637 22.2128C422.888 22.9279 421.299 23.9862 419.964 25.3256C418.63 26.665 417.579 28.258 416.871 30.0107C416.163 31.7636 415.813 33.6404 415.843 35.5304C415.843 43.6626 421.589 49.8406 430.211 49.8406C434.463 49.8363 438.575 48.3032 441.791 45.5206V33.8926H430.01V38.1357Z" fill="#6E7071"/>
<path d="M452.328 21.6418H447.452V49.4002H452.328V21.6418Z" fill="#6E7071"/>
<path d="M473.113 21.4401H468.592L456.378 49.3994H461.369L464.243 42.6944H477.366L480.181 49.3994H485.344L473.113 21.4401ZM466.014 38.3746L470.804 27.2732L475.593 38.3746H466.014Z" fill="#6E7071"/>
<path d="M208.317 67.2447H216.737L208.049 78.2887L208.03 78.3173V79.4476H219.083V77.9151H210.357L219.064 66.8616L219.083 66.8425V65.7025H208.317V67.2447Z" fill="#6E7071"/>
<path d="M248.096 65.606H246.554L240.338 79.3318L240.29 79.4469H242.043L243.652 75.8549H250.941L252.531 79.4469H254.361L248.163 65.6538L248.096 65.606ZM250.271 74.3224H244.332L247.311 67.6652L250.271 74.3224Z" fill="#6E7071"/>
<path d="M282.387 73.566H286.477V76.8225C285.379 77.6717 284.033 78.1362 282.646 78.1443C279.485 78.1443 277.358 75.8935 277.358 72.5603C277.324 71.8633 277.428 71.1664 277.665 70.5101C277.903 69.8539 278.268 69.2516 278.741 68.738C279.213 68.2245 279.783 67.8102 280.417 67.5192C281.052 67.2283 281.737 67.0664 282.435 67.0431C283.183 67.0158 283.93 67.1383 284.63 67.403C285.331 67.6679 285.972 68.0697 286.515 68.5853L286.582 68.6331L287.626 67.407V67.3496L287.569 67.2921C286.16 66.0462 284.324 65.3941 282.444 65.4722C281.521 65.477 280.607 65.6661 279.757 66.0289C278.908 66.3916 278.139 66.9205 277.497 67.5843C276.854 68.2482 276.351 69.0337 276.016 69.8948C275.682 70.7558 275.522 71.6751 275.548 72.5984C275.493 73.5354 275.636 74.4733 275.967 75.3517C276.298 76.23 276.809 77.0289 277.468 77.697C278.127 78.3651 278.919 78.8876 279.793 79.2301C280.667 79.5729 281.603 79.7284 282.54 79.6865C284.571 79.6851 286.531 78.9388 288.048 77.5889V72.0622H282.301L282.387 73.566Z" fill="#6E7071"/>
<path d="M321.764 69.8405C321.764 67.3214 319.849 65.7025 316.774 65.7025H310.845V79.4476H312.54V74.1699H316.304L320.222 79.4189H322.31L318.115 73.8442C320.442 73.4132 321.764 71.9478 321.764 69.8405ZM312.54 67.3214H316.659C318.776 67.3214 320.05 68.2793 320.05 69.9363C320.05 71.5933 318.709 72.6661 316.64 72.6661H312.54V67.3214Z" fill="#6E7071"/>
<path d="M345.978 73.2982H353.393V71.737H345.978V67.2639H354.264V65.7025H344.282V79.4476H354.359V77.8864H345.978V73.2982Z" fill="#6E7071"/>
<path d="M385.039 72.3308C385.652 72.0669 386.169 71.6256 386.527 71.0638C386.887 70.502 387.069 69.8458 387.051 69.1796C387.051 67.0627 385.288 65.7025 382.548 65.7025H376.678V79.4476H382.797C385.891 79.4476 387.806 77.9918 387.806 75.6162C387.806 74.0262 386.907 72.9438 385.039 72.3308ZM382.414 67.2447C384.244 67.2447 385.288 68.0494 385.288 69.3904C385.288 70.7313 384.157 71.7562 382.252 71.7562H378.314V67.2447H382.414ZM382.835 77.9056H378.364V73.279H382.568C384.837 73.279 386.092 74.0837 386.092 75.5492C386.092 77.0147 384.877 77.9056 382.835 77.9056Z" fill="#6E7071"/>
<path d="M454.702 56.9948H160.358C160.167 56.9948 159.985 57.0703 159.85 57.2051C159.715 57.3399 159.639 57.5225 159.639 57.7131C159.639 57.9036 159.715 58.0863 159.85 58.2211C159.985 58.3557 160.167 58.4314 160.358 58.4314H454.702C454.894 58.4314 455.076 58.3557 455.21 58.2211C455.344 58.0863 455.422 57.9036 455.422 57.7131C455.422 57.5225 455.344 57.3399 455.21 57.2051C455.076 57.0703 454.894 56.9948 454.702 56.9948Z" fill="#6E7071"/>
<path opacity="0.6" fill-rule="evenodd" clip-rule="evenodd" d="M18.9446 34.2012C16.2215 31.6357 14.6291 28.0935 14.5177 24.354C14.4062 20.6144 15.7849 16.9837 18.3503 14.2606C20.9158 11.5376 24.4579 9.94511 28.1975 9.83366C31.9371 9.72221 35.5678 11.1009 38.2908 13.6663L38.9008 14.245L47.5182 22.8625C51.0616 26.4095 53.8693 30.6214 55.7803 35.2565C57.6912 39.8916 58.6676 44.8586 58.6537 49.8722C58.6659 54.8854 57.6887 59.8518 55.7778 64.4867C53.867 69.1216 51.0602 73.3337 47.5182 76.8816L38.9008 85.4992L38.2908 86.109C35.5636 88.6745 31.929 90.0517 28.1865 89.9371C24.4439 89.8228 20.9002 88.2264 18.3347 85.4992C15.7692 82.772 14.3922 79.1373 14.5066 75.3947C14.621 71.6522 16.2174 68.1084 18.9446 65.5429L19.2887 65.2303L27.5464 57.0037C29.3955 55.128 30.4321 52.5999 30.4321 49.9659C30.4321 47.332 29.3955 44.8039 27.5464 42.928L19.2731 34.6391L18.929 34.295" fill="#6E7071"/>
<path opacity="0.6" fill-rule="evenodd" clip-rule="evenodd" d="M79.9387 95.212C82.5042 97.935 86.0465 99.5275 89.7859 99.639C93.5255 99.7505 97.1563 98.3718 99.8793 95.8064C102.602 93.2409 104.195 89.6988 104.306 85.9592C104.418 82.2196 103.039 78.5888 100.474 75.8658L99.8793 75.2714L91.262 66.6697C87.7255 63.1099 83.5197 60.285 78.8868 58.3578C74.254 56.4306 69.2857 55.4391 64.268 55.4405C59.2515 55.4263 54.2819 56.4057 49.6462 58.3224C45.0104 60.239 40.8 63.0548 37.2583 66.6071L28.6251 75.209L28.0308 75.8031C25.4654 78.5263 24.0867 82.1569 24.1982 85.8965C24.3096 89.6362 25.9021 93.1782 28.6251 95.7437C31.3482 98.3092 34.9789 99.6879 38.7185 99.5764C42.4581 99.465 46.0002 97.8726 48.5657 95.1496C48.6908 95.0399 48.8002 94.9149 48.9098 94.8054L57.1987 86.532C59.0664 84.6679 61.5976 83.6207 64.2366 83.6207C66.8755 83.6207 69.4066 84.6679 71.2744 86.532L79.5634 94.8054C79.6729 94.9149 79.7823 95.0399 79.9076 95.1496" fill="#6E7071"/>
<path opacity="0.6" fill-rule="evenodd" clip-rule="evenodd" d="M110.061 65.434C112.786 67.9995 114.381 71.5423 114.494 75.2835C114.607 79.0244 113.229 82.6571 110.663 85.3824C108.098 88.1075 104.555 89.702 100.814 89.8148C97.0728 89.9278 93.4401 88.5499 90.7148 85.9844L90.105 85.3901L81.4718 76.7884C77.9299 73.2395 75.122 69.0276 73.2086 64.3931C71.2954 59.7587 70.314 54.7925 70.3208 49.7787C70.314 44.7648 71.2954 39.7987 73.2086 35.1642C75.122 30.5298 77.9299 26.3177 81.4718 22.7691L90.105 14.1516L90.7148 13.5573C93.4401 10.9918 97.0728 9.61398 100.814 9.72689C104.555 9.83981 108.098 11.4343 110.663 14.1594C113.229 16.8846 114.607 20.5172 114.494 24.2583C114.381 27.9993 112.786 31.5423 110.061 34.1078L109.717 34.4519L101.444 42.7408C99.5947 44.6166 98.558 47.1448 98.558 49.7787C98.558 52.4127 99.5947 54.9408 101.444 56.8165L109.717 65.0899L110.061 65.4184" fill="#6E7071"/>
<path opacity="0.6" fill-rule="evenodd" clip-rule="evenodd" d="M49.0657 4.43897C46.5002 1.7138 42.9572 0.119352 39.2162 0.00643161C35.4751 -0.106489 31.8424 1.27135 29.1173 3.83682C26.3921 6.40229 24.7977 9.94526 24.6848 13.6863C24.5719 17.4273 25.9497 21.06 28.5152 23.7851L29.1095 24.3795L37.7425 32.9968C44.9115 40.1474 54.6268 44.1584 64.7521 44.148C74.8776 44.1584 84.5927 40.1474 91.7618 32.9968L100.395 24.3795L100.989 23.7851C103.555 21.06 104.933 17.4273 104.82 13.6863C104.707 9.94526 103.112 6.40229 100.387 3.83682C97.662 1.27135 94.0293 -0.106489 90.2882 0.00643161C86.5472 0.119352 83.0042 1.7138 80.4387 4.43897L80.0946 4.78299L71.8057 13.0564C70.8836 13.9886 69.785 14.7275 68.5738 15.2297C67.3625 15.7319 66.0632 15.9873 64.7521 15.981C62.1063 15.9799 59.5691 14.9279 57.6987 13.0564L49.4253 4.78299L49.0813 4.43897" fill="#6E7071"/>
<path opacity="0.6" fill-rule="evenodd" clip-rule="evenodd" d="M18.9446 34.2012C16.2215 31.6357 14.6291 28.0935 14.5177 24.354C14.4062 20.6144 15.7849 16.9837 18.3503 14.2606C20.9158 11.5376 24.4579 9.94511 28.1975 9.83366C31.9371 9.72221 35.5678 11.1009 38.2908 13.6663L38.9008 14.245L47.5182 22.8625C51.0616 26.4095 53.8693 30.6214 55.7803 35.2565C57.6912 39.8916 58.6676 44.8586 58.6537 49.8722C58.6659 54.8854 57.6887 59.8518 55.7778 64.4867C53.867 69.1216 51.0602 73.3337 47.5182 76.8816L38.9008 85.4992L38.2908 86.109C35.5636 88.6745 31.929 90.0517 28.1865 89.9371C24.4439 89.8228 20.9002 88.2264 18.3347 85.4992C15.7692 82.772 14.3922 79.1373 14.5066 75.3947C14.621 71.6522 16.2174 68.1084 18.9446 65.5429L19.2887 65.2303L27.5464 57.0037C29.3955 55.128 30.4321 52.5999 30.4321 49.9659C30.4321 47.332 29.3955 44.8039 27.5464 42.928L19.2731 34.6391L18.929 34.295" fill="#6E7071"/>
<path opacity="0.6" fill-rule="evenodd" clip-rule="evenodd" d="M79.9387 95.212C82.5042 97.935 86.0465 99.5275 89.7859 99.639C93.5255 99.7505 97.1563 98.3718 99.8793 95.8064C102.602 93.2409 104.195 89.6988 104.306 85.9592C104.418 82.2196 103.039 78.5888 100.474 75.8658L99.8793 75.2714L91.262 66.6697C87.7255 63.1099 83.5197 60.285 78.8868 58.3578C74.254 56.4306 69.2857 55.4391 64.268 55.4405C59.2515 55.4263 54.2819 56.4057 49.6462 58.3224C45.0104 60.239 40.8 63.0548 37.2583 66.6071L28.6251 75.209L28.0308 75.8031C25.4654 78.5263 24.0867 82.1569 24.1982 85.8965C24.3096 89.6362 25.9021 93.1782 28.6251 95.7437C31.3482 98.3092 34.9789 99.6879 38.7185 99.5764C42.4581 99.465 46.0002 97.8726 48.5657 95.1496C48.6908 95.0399 48.8002 94.9149 48.9098 94.8054L57.1987 86.532C59.0664 84.6679 61.5976 83.6207 64.2366 83.6207C66.8755 83.6207 69.4066 84.6679 71.2744 86.532L79.5634 94.8054C79.6729 94.9149 79.7823 95.0399 79.9076 95.1496" fill="#6E7071"/>
<path opacity="0.6" fill-rule="evenodd" clip-rule="evenodd" d="M110.061 65.434C112.786 67.9995 114.381 71.5423 114.494 75.2835C114.607 79.0244 113.229 82.6571 110.663 85.3824C108.098 88.1075 104.555 89.702 100.814 89.8148C97.0728 89.9278 93.4401 88.5499 90.7148 85.9844L90.105 85.3901L81.4718 76.7884C77.9299 73.2395 75.122 69.0276 73.2086 64.3931C71.2954 59.7587 70.314 54.7925 70.3208 49.7787C70.314 44.7648 71.2954 39.7987 73.2086 35.1642C75.122 30.5298 77.9299 26.3177 81.4718 22.7691L90.105 14.1516L90.7148 13.5573C93.4401 10.9918 97.0728 9.61398 100.814 9.72689C104.555 9.83981 108.098 11.4343 110.663 14.1594C113.229 16.8846 114.607 20.5172 114.494 24.2583C114.381 27.9993 112.786 31.5423 110.061 34.1078L109.717 34.4519L101.444 42.7408C99.5947 44.6166 98.558 47.1448 98.558 49.7787C98.558 52.4127 99.5947 54.9408 101.444 56.8165L109.717 65.0899L110.061 65.4184" fill="#6E7071"/>
<path opacity="0.6" fill-rule="evenodd" clip-rule="evenodd" d="M49.0657 4.43897C46.5002 1.7138 42.9572 0.119352 39.2162 0.00643161C35.4751 -0.106489 31.8424 1.27135 29.1173 3.83682C26.3921 6.40229 24.7977 9.94526 24.6848 13.6863C24.5719 17.4273 25.9497 21.06 28.5152 23.7851L29.1095 24.3795L37.7425 32.9968C44.9115 40.1474 54.6268 44.1584 64.7521 44.148C74.8776 44.1584 84.5927 40.1474 91.7618 32.9968L100.395 24.3795L100.989 23.7851C103.555 21.06 104.933 17.4273 104.82 13.6863C104.707 9.94526 103.112 6.40229 100.387 3.83682C97.662 1.27135 94.0293 -0.106489 90.2882 0.00643161C86.5472 0.119352 83.0042 1.7138 80.4387 4.43897L80.0946 4.78299L71.8057 13.0564C70.8836 13.9886 69.785 14.7275 68.5738 15.2297C67.3625 15.7319 66.0632 15.9873 64.7521 15.981C62.1063 15.9799 59.5691 14.9279 57.6987 13.0564L49.4253 4.78299L49.0813 4.43897" fill="#6E7071"/>
<g style="mix-blend-mode:multiply" opacity="0.6">
<path fill-rule="evenodd" clip-rule="evenodd" d="M18.9446 34.2012C16.2215 31.6357 14.6291 28.0935 14.5177 24.354C14.4062 20.6144 15.7849 16.9837 18.3503 14.2606C20.9158 11.5376 24.4579 9.94511 28.1975 9.83366C31.9371 9.72221 35.5678 11.1009 38.2908 13.6663L38.9008 14.245L47.5182 22.8625C51.0616 26.4095 53.8693 30.6214 55.7803 35.2565C57.6912 39.8916 58.6676 44.8586 58.6537 49.8722C58.6659 54.8854 57.6887 59.8518 55.7778 64.4867C53.867 69.1216 51.0602 73.3337 47.5182 76.8816L38.9008 85.4992L38.2908 86.109C35.5636 88.6745 31.929 90.0517 28.1865 89.9371C24.4439 89.8228 20.9002 88.2264 18.3347 85.4992C15.7692 82.772 14.3922 79.1373 14.5066 75.3947C14.621 71.6522 16.2174 68.1084 18.9446 65.5429L19.2887 65.2303L27.5464 57.0037C29.3955 55.128 30.4321 52.5999 30.4321 49.9659C30.4321 47.332 29.3955 44.8039 27.5464 42.928L19.2731 34.6391L18.929 34.295" fill="#6E7071"/>
</g>
<g style="mix-blend-mode:multiply" opacity="0.6">
<path fill-rule="evenodd" clip-rule="evenodd" d="M79.9387 95.212C82.5042 97.935 86.0465 99.5275 89.7859 99.639C93.5255 99.7505 97.1563 98.3718 99.8793 95.8064C102.602 93.2409 104.195 89.6988 104.306 85.9592C104.418 82.2196 103.039 78.5888 100.474 75.8658L99.8793 75.2714L91.262 66.6697C87.7255 63.1099 83.5197 60.285 78.8868 58.3578C74.254 56.4306 69.2857 55.4391 64.268 55.4405C59.2515 55.4263 54.2819 56.4057 49.6462 58.3224C45.0104 60.239 40.8 63.0548 37.2583 66.6071L28.6251 75.209L28.0308 75.8031C25.4654 78.5263 24.0867 82.1569 24.1982 85.8965C24.3096 89.6362 25.9021 93.1782 28.6251 95.7437C31.3482 98.3092 34.9789 99.6879 38.7185 99.5764C42.4581 99.465 46.0002 97.8726 48.5657 95.1496C48.6908 95.0399 48.8002 94.9149 48.9098 94.8054L57.1987 86.532C59.0664 84.6679 61.5976 83.6207 64.2366 83.6207C66.8755 83.6207 69.4066 84.6679 71.2744 86.532L79.5634 94.8054C79.6729 94.9149 79.7823 95.0399 79.9076 95.1496" fill="#6E7071"/>
</g>
<g style="mix-blend-mode:multiply" opacity="0.6">
<path fill-rule="evenodd" clip-rule="evenodd" d="M110.061 65.434C112.786 67.9995 114.381 71.5423 114.494 75.2835C114.607 79.0244 113.229 82.6571 110.663 85.3824C108.098 88.1075 104.555 89.702 100.814 89.8148C97.0728 89.9278 93.4401 88.5499 90.7148 85.9844L90.105 85.3901L81.4718 76.7884C77.9299 73.2395 75.122 69.0276 73.2086 64.3931C71.2954 59.7587 70.314 54.7925 70.3208 49.7787C70.314 44.7648 71.2954 39.7987 73.2086 35.1642C75.122 30.5298 77.9299 26.3177 81.4718 22.7691L90.105 14.1516L90.7148 13.5573C93.4401 10.9918 97.0728 9.61398 100.814 9.72689C104.555 9.83981 108.098 11.4343 110.663 14.1594C113.229 16.8846 114.607 20.5172 114.494 24.2583C114.381 27.9993 112.786 31.5423 110.061 34.1078L109.717 34.4519L101.444 42.7408C99.5947 44.6166 98.558 47.1448 98.558 49.7787C98.558 52.4127 99.5947 54.9408 101.444 56.8165L109.717 65.0899L110.061 65.4184" fill="#6E7071"/>
</g>
<g style="mix-blend-mode:multiply" opacity="0.6">
<path fill-rule="evenodd" clip-rule="evenodd" d="M49.0657 4.43897C46.5002 1.7138 42.9572 0.119352 39.2162 0.00643161C35.4751 -0.106489 31.8424 1.27135 29.1173 3.83682C26.3921 6.40229 24.7977 9.94526 24.6848 13.6863C24.5719 17.4273 25.9497 21.06 28.5152 23.7851L29.1095 24.3795L37.7425 32.9968C44.9115 40.1474 54.6268 44.1584 64.7521 44.148C74.8776 44.1584 84.5927 40.1474 91.7618 32.9968L100.395 24.3795L100.989 23.7851C103.555 21.06 104.933 17.4273 104.82 13.6863C104.707 9.94526 103.112 6.40229 100.387 3.83682C97.662 1.27135 94.0293 -0.106489 90.2882 0.00643161C86.5472 0.119352 83.0042 1.7138 80.4387 4.43897L80.0946 4.78299L71.8057 13.0564C70.8836 13.9886 69.785 14.7275 68.5738 15.2297C67.3625 15.7319 66.0632 15.9873 64.7521 15.981C62.1063 15.9799 59.5691 14.9279 57.6987 13.0564L49.4253 4.78299L49.0813 4.43897" fill="#6E7071"/>
</g>
</g>
<defs>
<clipPath id="clip0_3_170">
<rect width="500" height="100" fill="white" transform="translate(0.5)"/>
</clipPath>
</defs>
</svg>
