<svg width="500" height="100" viewBox="0 0 500 100" fill="none" xmlns="http://www.w3.org/2000/svg">
<g clip-path="url(#clip0_20_558)">
<g clip-path="url(#clip1_20_558)">
<path d="M443 111.419H57V-12H443V111.419ZM57.0342 111.367H442.949V-11.9658H57.0342V111.367ZM441.604 110.006H58.4131V-10.5869H441.604V110.006ZM122.173 17.4971C104.454 17.4972 90.0381 31.9485 90.0381 49.7012C90.0383 67.4537 104.454 81.9042 122.173 81.9043H377.844C395.545 81.9043 409.945 67.4538 409.945 49.7012C409.945 31.9484 395.546 17.4971 377.844 17.4971H122.173ZM284.229 43.6416C284.807 44.3224 285.386 45.0033 285.965 45.7012C286.067 45.8372 286.169 45.9899 286.288 46.126C286.356 46.2792 286.442 46.4328 286.544 46.5859C286.629 46.756 286.697 46.9091 286.799 47.0791C286.85 47.2492 286.935 47.4198 287.003 47.5898C287.071 47.777 287.139 47.9476 287.207 48.1348C287.241 48.339 287.293 48.5266 287.344 48.7139C287.378 48.935 287.412 49.1221 287.463 49.3262C287.497 49.5304 287.531 49.7518 287.565 49.9561C287.582 50.1773 287.582 50.3988 287.616 50.6201L287.685 50.6025C287.702 50.8238 287.701 51.0629 287.701 51.2842V51.999C287.684 52.254 287.65 52.509 287.65 52.7471C287.616 53.0024 287.599 53.2584 287.582 53.5137C287.548 53.7859 287.514 54.0412 287.497 54.3135C287.429 54.5858 287.394 54.841 287.36 55.1133C287.292 55.3685 287.241 55.6237 287.207 55.8789C287.156 56.1341 287.088 56.3727 287.037 56.6279C286.969 56.8661 286.884 57.1046 286.816 57.3428C286.748 57.5811 286.663 57.8027 286.595 58.041C286.493 58.2623 286.425 58.4838 286.356 58.7051C286.271 58.9093 286.169 59.1308 286.084 59.335C285.982 59.5391 285.88 59.7432 285.795 59.9473C285.693 60.1345 285.573 60.3391 285.488 60.5264C285.369 60.6964 285.25 60.8834 285.148 61.0703C285.029 61.2575 284.893 61.4284 284.791 61.5986C284.655 61.7687 284.519 61.9217 284.399 62.0918C284.263 62.245 284.127 62.3986 284.008 62.5518C283.872 62.7049 283.718 62.841 283.582 62.9941C283.412 63.1303 283.242 63.2662 283.105 63.4023C282.935 63.5215 282.765 63.6582 282.612 63.7773C282.51 63.8453 282.442 63.896 282.374 63.9639C282.289 64.0149 282.187 64.0837 282.102 64.1348C281.999 64.1858 281.914 64.2536 281.829 64.3047C281.727 64.3727 281.642 64.4236 281.557 64.4746C281.455 64.5257 281.369 64.5769 281.284 64.6279C281.165 64.679 281.063 64.7302 280.978 64.7812C280.876 64.8322 280.757 64.8836 280.672 64.9346C280.57 64.9856 280.45 65.0193 280.365 65.0703C280.263 65.1214 280.144 65.173 280.059 65.207C279.957 65.258 279.837 65.2917 279.752 65.3428C279.633 65.3768 279.514 65.4279 279.412 65.4619C279.31 65.5129 279.191 65.5471 279.089 65.5811C278.97 65.6321 278.85 65.6662 278.748 65.7002C278.612 65.7342 278.509 65.7687 278.407 65.8027C278.288 65.8367 278.152 65.8703 278.05 65.9043C277.931 65.9383 277.794 65.9728 277.692 66.0068C277.573 66.0408 277.437 66.0578 277.318 66.0918C277.199 66.1258 277.08 66.1428 276.944 66.1768C276.825 66.2108 276.688 66.2277 276.569 66.2617C276.433 66.2787 276.297 66.3131 276.178 66.3301C276.025 66.3471 275.889 66.3644 275.77 66.3984C275.633 66.4324 275.48 66.4498 275.361 66.4668C275.225 66.4838 275.071 66.5176 274.952 66.5176C274.816 66.5346 274.663 66.5684 274.544 66.5684C274.391 66.5854 274.255 66.6191 274.102 66.6191C273.931 66.6362 273.795 66.6533 273.642 66.6533C273.489 66.6703 273.352 66.6875 273.199 66.6875C273.029 66.7045 272.876 66.7216 272.74 66.7217C272.57 66.7387 272.399 66.7383 272.263 66.7383H269.369C269.199 66.7213 269.029 66.7217 268.876 66.7217C268.723 66.6877 268.57 66.6875 268.434 66.6875C268.281 66.6705 268.127 66.6533 267.991 66.6533C267.838 66.6363 267.702 66.6191 267.565 66.6191C267.429 66.6021 267.276 66.5854 267.14 66.5684C266.987 66.5513 266.85 66.5176 266.714 66.5176C266.561 66.5006 266.425 66.4838 266.306 66.4668C266.17 66.4328 266.033 66.4155 265.914 66.3984C265.778 66.3814 265.659 66.3471 265.54 66.3301C265.404 66.3131 265.284 66.2958 265.165 66.2617C265.046 66.2447 264.927 66.2113 264.808 66.1943C264.689 66.1603 264.569 66.1434 264.45 66.1094C264.331 66.0923 264.212 66.0574 264.093 66.0234C263.974 66.0064 263.855 65.9725 263.753 65.9385C263.634 65.9044 263.514 65.871 263.412 65.8369C263.293 65.8029 263.208 65.7684 263.105 65.7344C262.987 65.7004 262.902 65.6492 262.8 65.6152C262.698 65.5812 262.612 65.5301 262.51 65.4961C262.408 65.4621 262.323 65.4109 262.221 65.377C262.119 65.326 262.034 65.2922 261.932 65.2412C261.83 65.1901 261.727 65.1556 261.659 65.1045C261.557 65.0705 261.455 65.0198 261.387 64.9688C261.302 64.9177 261.2 64.8831 261.132 64.832C261.047 64.781 260.962 64.7298 260.894 64.6787C260.826 64.6277 260.74 64.5774 260.672 64.5264C260.604 64.4753 260.518 64.4065 260.45 64.3555C260.382 64.3045 260.297 64.2365 260.229 64.1855C260.145 64.1346 260.076 64.0836 260.025 64.0156C259.94 63.9476 259.872 63.8961 259.821 63.8281C259.702 63.709 259.565 63.5732 259.446 63.4541C258.851 62.7392 258.254 62.0235 257.676 61.3086C259.871 62.7553 263.242 63.4873 267.735 63.4873H267.753C273.029 63.4873 277.046 62.466 279.735 60.4746C281.131 59.4364 282.237 58.1091 283.037 56.5264C283.871 54.8925 284.45 52.9691 284.757 50.8076C285.063 48.646 285.046 46.7219 284.688 45.0879C284.569 44.5774 284.416 44.1011 284.229 43.6416ZM315.395 52.2881C316.024 53.0539 316.671 53.8025 317.335 54.5684C317.386 54.6534 317.454 54.7386 317.522 54.8066C317.573 54.8747 317.625 54.9599 317.676 55.0449C317.727 55.13 317.777 55.2157 317.828 55.3008C317.845 55.3857 317.896 55.4707 317.947 55.5557C317.964 55.6406 318.015 55.7431 318.066 55.8281C318.1 55.9303 318.118 56.016 318.169 56.1182C318.203 56.2201 318.22 56.3052 318.254 56.4072C318.271 56.5093 318.288 56.6118 318.322 56.7139C318.322 56.8157 318.339 56.9177 318.373 57.0195C318.39 57.1385 318.39 57.2408 318.424 57.3428L318.492 57.3945V58.3984C318.458 58.5176 318.458 58.6367 318.458 58.7559C318.441 58.892 318.407 59.0117 318.407 59.1309C318.39 59.2669 318.356 59.4031 318.356 59.5391C318.305 59.6752 318.254 59.8112 318.254 59.9473C318.22 60.0664 318.186 60.2027 318.169 60.3389C318.101 60.475 318.067 60.5943 318.033 60.7305C317.982 60.8495 317.914 60.9854 317.88 61.1045C317.829 61.2236 317.76 61.3428 317.709 61.4619C317.641 61.5809 317.574 61.7003 317.522 61.8193C317.454 61.9214 317.369 62.041 317.318 62.1602C317.233 62.2793 317.148 62.3818 317.08 62.501C316.995 62.6031 316.91 62.7221 316.842 62.8242C316.74 62.9433 316.637 63.0454 316.569 63.1475C316.467 63.2496 316.364 63.352 316.279 63.4541C316.16 63.556 316.059 63.6579 315.974 63.7598C315.872 63.8619 315.752 63.9647 315.633 64.0498C315.497 64.1348 315.394 64.2363 315.275 64.3213C315.139 64.4234 315.003 64.5087 314.884 64.5938C314.748 64.6788 314.629 64.7645 314.51 64.8496C314.374 64.9347 314.237 65.0198 314.101 65.0879C313.948 65.1559 313.812 65.2406 313.676 65.3086C313.523 65.3767 313.403 65.4456 313.267 65.5137C313.114 65.5817 312.96 65.6322 312.824 65.7002C312.654 65.7513 312.501 65.82 312.348 65.8711C312.178 65.9221 312.024 65.9724 311.871 66.0234C311.701 66.0575 311.565 66.1091 311.412 66.1602C311.242 66.1942 311.054 66.2453 310.918 66.2793C310.748 66.3133 310.578 66.3469 310.425 66.3809C310.238 66.3979 310.067 66.4328 309.88 66.4668C309.693 66.4838 309.523 66.5171 309.353 66.5342C309.165 66.5512 309.012 66.5689 308.842 66.5859C308.655 66.5859 308.467 66.6191 308.28 66.6191C308.093 66.6191 307.905 66.6367 307.718 66.6367H306.221C306.119 66.6197 306.016 66.6191 305.931 66.6191C305.829 66.6022 305.727 66.586 305.625 66.5859C305.523 66.5689 305.42 66.5518 305.335 66.5518C305.233 66.5348 305.131 66.5001 305.029 66.5C304.927 66.483 304.825 66.4493 304.757 66.4492C304.655 66.4322 304.552 66.3979 304.45 66.3809C304.365 66.3638 304.263 66.3305 304.178 66.3135C304.076 66.2965 303.99 66.2621 303.905 66.2451C303.82 66.2281 303.718 66.2108 303.616 66.1768C303.531 66.1427 303.429 66.1258 303.344 66.0918C303.242 66.0748 303.123 66.0408 303.055 66.0068C302.97 65.9728 302.867 65.9383 302.765 65.9043C302.663 65.8704 302.561 65.8367 302.493 65.8027C302.391 65.7687 302.289 65.7342 302.221 65.7002C302.119 65.6491 302.016 65.6151 301.948 65.5811C301.846 65.547 301.76 65.496 301.692 65.4619C301.591 65.4279 301.489 65.3768 301.421 65.3428C301.353 65.2917 301.267 65.2411 301.199 65.207C301.114 65.156 301.029 65.1214 300.961 65.0703C300.893 65.0363 300.807 64.9856 300.739 64.9346C300.671 64.8837 300.587 64.8497 300.519 64.7988C300.451 64.7478 300.365 64.6966 300.297 64.6455C300.229 64.5945 300.144 64.5432 300.076 64.4922C299.991 64.4411 299.922 64.3899 299.871 64.3389C299.803 64.2879 299.718 64.2365 299.667 64.1855C299.582 64.1177 299.531 64.0665 299.48 64.0156C299.395 63.9646 299.344 63.8958 299.293 63.8447C299.191 63.7937 299.14 63.7429 299.089 63.6748C299.004 63.6238 298.952 63.5729 298.901 63.5049C298.782 64.3218 298.68 65.1216 298.561 65.9385H291.923C291.004 64.8492 290.085 63.7601 289.183 62.6709H295.548C295.718 62.6709 295.871 62.5518 295.889 62.3818L296.144 60.6113C297.012 61.3773 298.084 62.0244 299.344 62.501C300.893 63.0797 302.442 63.3682 304.093 63.3682C307.208 63.3681 309.863 62.6534 311.974 61.2236C314.101 59.7939 315.343 57.8707 315.649 55.5391C315.82 54.3136 315.735 53.2242 315.395 52.2881ZM172.266 58.8926C173.117 59.9818 173.968 61.0538 174.836 62.126C174.615 63.4025 174.377 64.6795 174.155 65.9561H158.224C157.356 64.8668 156.521 63.7943 155.688 62.7051H171.295C171.465 62.7051 171.602 62.5857 171.636 62.4326L172.266 58.8926ZM210.614 58.875C211.465 59.9473 212.333 61.0371 213.218 62.1094C213.014 63.4028 212.792 64.6796 212.588 65.9561H196.401C195.516 64.8838 194.665 63.7944 193.797 62.7051H209.694C209.865 62.7051 210.001 62.5853 210.035 62.415H210.019L210.614 58.875ZM240.145 58.8584C241.013 59.9477 241.915 61.0371 242.817 62.1094C242.613 63.3858 242.408 64.6796 242.204 65.9561H225.967C225.065 64.8667 224.197 63.7768 223.312 62.6875H239.243C239.413 62.6873 239.566 62.5685 239.583 62.3984L240.145 58.8584ZM344.177 57.6494H336.126C335.837 58.16 335.564 58.671 335.274 59.1816C336.091 60.1348 336.909 61.105 337.743 62.0752C337.573 63.3687 337.419 64.6625 337.249 65.9561H322.832C321.896 64.8669 320.978 63.7601 320.059 62.6709H334.186C334.356 62.6709 334.508 62.5517 334.525 62.3818L335.02 58.5176C335.02 58.4155 335.003 58.3132 334.935 58.2451C334.866 58.16 334.781 58.126 334.679 58.126H331.173C331.632 57.292 332.109 56.4414 332.586 55.6074L333.267 54.3818H343.104L344.177 57.6494ZM359.529 62.0576C359.376 63.3511 359.223 64.645 359.07 65.9385H343.377C342.424 64.8492 341.504 63.7426 340.568 62.6533H355.921C356.091 62.6533 356.245 62.5345 356.262 62.3643C356.413 61.1843 356.564 60.0042 356.699 58.8242C357.642 59.9022 358.586 60.9797 359.529 62.0576ZM189.542 58.8584C190.393 59.9476 191.244 61.0196 192.129 62.0918C191.908 63.3684 191.686 64.6453 191.465 65.9219H183.874C183.772 65.9049 183.67 65.9043 183.567 65.9043C183.465 65.9043 183.38 65.8711 183.295 65.8711C183.193 65.8541 183.125 65.8363 183.04 65.8193C182.955 65.8023 182.887 65.769 182.802 65.752C182.734 65.7179 182.649 65.7 182.598 65.666C182.53 65.632 182.444 65.5985 182.393 65.5645C182.325 65.5304 182.239 65.4793 182.188 65.4453C182.137 65.4113 182.086 65.3596 182.035 65.3086C181.984 65.2577 181.934 65.2062 181.883 65.1553C181.1 64.2022 180.266 63.3177 179.551 62.3477C180.027 62.5688 180.623 62.6875 181.32 62.6875H188.605C188.776 62.6875 188.912 62.5853 188.946 62.415L188.929 62.3984L189.542 58.8584ZM271.48 38.8076C276.519 38.8076 280.076 39.7434 282.051 41.5986C283.021 42.5178 283.684 43.7438 284.008 45.2246C284.348 46.7905 284.383 48.6287 284.076 50.7051C283.77 52.7986 283.225 54.6538 282.425 56.2197C281.676 57.7005 280.638 58.9605 279.327 59.9307C276.774 61.8369 272.876 62.8066 267.753 62.8066H267.719C262.596 62.8066 259.021 61.8537 257.063 59.9814C256.093 59.0453 255.429 57.8196 255.123 56.3389C254.8 54.807 254.8 52.9684 255.123 50.8408C255.446 48.7134 256.026 46.8755 256.809 45.3438C257.575 43.863 258.613 42.6202 259.906 41.667C262.442 39.7777 266.306 38.8076 271.48 38.8076ZM301.828 38.8584C303.411 38.8584 304.961 39.1134 306.441 39.624C307.939 40.1517 309.199 40.8671 310.322 41.8203C310.424 41.8882 310.543 41.905 310.662 41.8711C310.764 41.82 310.867 41.7178 310.867 41.5986C310.969 40.884 311.054 40.1863 311.156 39.4717H316.994L316.16 45.7178H310.271C309.488 44.6286 308.449 43.76 307.173 43.1133C305.794 42.4156 304.433 42.0752 302.986 42.0752C301.795 42.0752 300.842 42.2629 300.127 42.6543C299.344 43.0798 298.884 43.6587 298.782 44.3906C298.697 45.0203 298.884 45.5646 299.344 45.9561C299.752 46.2965 300.535 46.6032 301.761 46.8926L308.416 48.4072C310.952 48.9859 312.756 49.8542 313.794 50.9775C314.832 52.1009 315.207 53.5648 314.952 55.4541C314.663 57.6327 313.556 59.3351 311.564 60.6797C309.556 62.0412 307.037 62.7216 304.059 62.7217C302.493 62.7217 301.029 62.4494 299.548 61.8877C298.135 61.343 296.994 60.6115 296.109 59.6924C296.058 59.6243 295.956 59.5898 295.871 59.5898H295.77C295.65 59.6239 295.548 59.7261 295.548 59.8623L295.582 59.8789L295.275 62.0234H289.301L290.441 54.0068H296.246C296.62 55.5215 297.403 56.7641 298.577 57.7002C299.837 58.6874 301.318 59.1816 303.021 59.1816C304.059 59.1816 304.96 58.9428 305.658 58.4492C306.39 57.9556 306.816 57.292 306.918 56.458C307.037 55.59 306.798 54.9258 306.22 54.4492C305.692 54.0068 304.569 53.615 302.782 53.2236C300.689 52.7641 298.628 52.2877 296.552 51.8281L295.854 51.6748C294.016 51.2663 292.723 50.5859 291.974 49.6328C291.242 48.6967 291.003 47.4538 291.241 45.8027C291.548 43.6242 292.603 41.9559 294.476 40.7305C296.331 39.4881 298.799 38.8585 301.828 38.8584ZM212.639 42.7227H208.281C208.111 42.7229 207.975 42.8417 207.941 43.0117C207.72 44.2712 207.516 45.5139 207.295 46.7734L207.312 46.79C207.073 48.1006 206.852 49.4286 206.631 50.7393L205.32 58.4834C205.303 58.5854 205.32 58.6708 205.388 58.7559C205.456 58.8239 205.541 58.875 205.644 58.875H209.933L209.405 62.041H193.933L194.478 58.875H198.886C199.056 58.875 199.192 58.756 199.227 58.5859L201.865 43.1475C201.882 43.0454 201.865 42.943 201.797 42.875C201.729 42.79 201.643 42.7559 201.541 42.7559H197.27L197.797 39.6416L213.167 39.6074L212.639 42.7227ZM179.551 39.6582C182.342 39.6582 184.18 39.7267 185.219 39.8799C186.24 40.016 187.074 40.2544 187.652 40.5947C188.503 41.0883 189.082 41.7521 189.423 42.6201C189.78 43.4711 189.865 44.4922 189.661 45.6494C189.355 47.4026 188.52 48.8328 187.176 49.8711C185.814 50.9433 184.146 51.4879 182.104 51.5049L182.035 51.5215C181.882 51.5217 181.746 51.6243 181.712 51.7773C181.644 52.0837 181.593 52.4071 181.525 52.7305C181.508 52.8326 181.525 52.9348 181.593 53.0029C181.661 53.071 181.747 53.1221 181.849 53.1221H182.836C183.091 53.1221 183.312 53.1901 183.482 53.3262C183.653 53.4453 183.755 53.6328 183.806 53.8711C183.925 54.4497 184.027 55.0113 184.129 55.5898C184.248 56.1856 184.351 56.7818 184.47 57.3945C184.572 57.8709 184.81 58.2457 185.134 58.501C185.474 58.756 185.899 58.875 186.427 58.875H188.844L188.3 62.0234H181.304C180.555 62.0234 179.942 61.8704 179.517 61.5811C179.125 61.2917 178.835 60.8319 178.665 60.2021C178.206 58.4663 177.764 56.7472 177.321 55.0283L177.27 54.8408C177.014 53.8708 176.623 53.1392 176.112 52.6797C175.585 52.2032 174.921 51.9649 174.07 51.9648H168.504C168.334 51.9649 168.198 52.0842 168.164 52.2373L167.04 58.4668C167.023 58.5518 167.04 58.6543 167.108 58.7393C167.176 58.8071 167.261 58.8583 167.363 58.8584H171.567L171.006 62.0068H155.823L156.402 58.8584H160.726C160.896 58.8584 161.031 58.7559 161.065 58.5859L163.874 43.1816C163.891 43.0966 163.875 42.9943 163.807 42.9092C163.739 42.8241 163.653 42.79 163.551 42.79H159.364L159.942 39.6924L179.551 39.6582ZM249.643 47.8115H243.855L244.604 43.0801C244.604 42.9781 244.587 42.8757 244.52 42.8076C244.451 42.7395 244.366 42.7051 244.264 42.7051H237.643C237.473 42.7052 237.337 42.8242 237.303 42.9941L234.834 58.4668C234.834 58.5688 234.851 58.6712 234.919 58.7393C234.987 58.8073 235.073 58.8584 235.175 58.8584H239.481L238.987 62.0234H223.464L223.975 58.8584H228.332C228.502 58.8584 228.639 58.7215 228.673 58.5684L231.175 43.0967C231.192 42.9946 231.175 42.8923 231.106 42.8242C231.038 42.7563 230.954 42.7217 230.852 42.7217H224.23C224.06 42.7217 223.924 42.8415 223.89 43.0117L223.09 47.8457H217.337L218.698 39.6074L250.885 39.5566H250.919L249.643 47.8115ZM348.908 48.833C349.351 50.2455 349.81 51.675 350.27 53.1045C350.848 54.9087 351.427 56.7305 352.006 58.5518C352.057 58.6878 352.176 58.7899 352.329 58.79H356.022L356.04 58.7725C355.904 59.8447 355.785 60.9004 355.648 61.9727H340.688L341.096 58.79H344.789C344.891 58.79 344.993 58.7384 345.062 58.6533C345.112 58.5683 345.146 58.4496 345.112 58.3477L343.648 53.9219C343.597 53.7688 343.461 53.6836 343.325 53.6836H333.045C332.926 53.6836 332.823 53.7514 332.755 53.8535L331.973 55.25C331.411 56.2542 330.832 57.2751 330.287 58.2793C330.219 58.3814 330.219 58.518 330.287 58.6201C330.355 58.7222 330.458 58.79 330.577 58.79H334.271L333.861 61.9902H320.126C320.262 60.9349 320.416 59.8619 320.552 58.8066H324.33C324.449 58.8066 324.551 58.7388 324.619 58.6367C325.623 56.8155 326.645 54.9946 327.649 53.1904C328.449 51.7607 329.249 50.3477 330.032 48.918C331.785 45.7351 333.556 42.5862 335.343 39.4033H345.93L348.908 48.833ZM270.919 41.6162C268.4 41.6332 266.443 42.3649 265.081 43.8115C263.719 45.2583 262.8 47.573 262.323 50.7217C261.847 53.9555 262.051 56.2364 262.987 57.7002H263.004C263.957 59.181 265.762 59.9307 268.298 59.9307C270.834 59.9306 272.825 59.1981 274.187 57.7344C275.531 56.3046 276.451 53.9725 276.91 50.8066C277.387 47.6069 277.165 45.3265 276.212 43.8457C275.276 42.365 273.489 41.6163 270.953 41.6162H270.919ZM366.883 59.6924H365.572L365.827 58.501C365.027 59.4198 364.176 59.8622 363.309 59.8623C362.526 59.8623 361.878 59.5724 361.351 59.0107C360.823 58.4321 360.568 57.5983 360.568 56.5264C360.568 55.5392 360.772 54.6197 361.181 53.8027C361.589 52.9857 362.117 52.3728 362.729 51.9473C363.359 51.5389 363.972 51.335 364.602 51.335C365.64 51.335 366.406 51.8286 366.934 52.7988L367.87 48.4072H369.266L366.883 59.6924ZM378.304 51.335C379.308 51.335 380.108 51.6412 380.721 52.2539C381.333 52.8667 381.64 53.701 381.64 54.7393C381.64 55.6753 381.453 56.5605 381.062 57.3604C380.687 58.1603 380.125 58.7903 379.427 59.2158C378.712 59.6411 377.963 59.8622 377.181 59.8623C376.534 59.8623 375.954 59.7264 375.427 59.4541C374.899 59.1818 374.508 58.7895 374.219 58.2959C373.981 57.864 373.833 57.3672 373.8 56.8164L373.793 56.5938C373.793 54.994 374.27 53.6831 375.223 52.6279C376.006 51.7599 377.044 51.335 378.304 51.335ZM391.614 51.335C392.618 51.335 393.419 51.6412 394.031 52.2539C394.644 52.8666 394.95 53.7011 394.95 54.7393C394.95 55.6753 394.763 56.5605 394.371 57.3604C393.997 58.1602 393.435 58.7904 392.737 59.2158C392.023 59.6412 391.274 59.8623 390.508 59.8623C389.861 59.8623 389.282 59.7263 388.755 59.4541C388.227 59.1818 387.818 58.7895 387.546 58.2959C387.274 57.8024 387.12 57.2238 387.12 56.5771L387.104 56.5938C387.104 54.994 387.58 53.6831 388.533 52.6279C389.316 51.76 390.355 51.335 391.614 51.335ZM371.121 59.6924H369.521L369.861 58.1094H371.461L371.121 59.6924ZM384.414 59.6924H382.814L383.154 58.1094H384.755L384.414 59.6924ZM397.708 59.6924H396.107L396.448 58.1094H398.048L397.708 59.6924ZM356.699 58.8242C356.689 58.813 356.68 58.8013 356.67 58.79H356.704C356.703 58.8015 356.701 58.8128 356.699 58.8242ZM378.253 52.4072C377.81 52.4072 377.401 52.5096 377.044 52.7139C376.687 52.9181 376.346 53.2244 376.057 53.6328C375.767 54.0412 375.546 54.5008 375.41 55.0283C375.274 55.556 375.206 56.0329 375.206 56.4414V56.458C375.206 57.2239 375.393 57.8024 375.768 58.2109C376.142 58.6024 376.619 58.8066 377.197 58.8066C377.504 58.8066 377.793 58.7393 378.1 58.6201C378.389 58.501 378.678 58.3133 378.916 58.0752C379.171 57.8369 379.393 57.547 379.563 57.2236C379.734 56.9175 379.886 56.5772 379.988 56.2031C380.141 55.6926 380.228 55.2157 380.228 54.7393C380.228 54.0074 380.039 53.428 379.665 53.0195C379.291 52.6113 378.814 52.4073 378.253 52.4072ZM391.597 52.4072C391.154 52.4073 390.746 52.5097 390.389 52.7139C390.031 52.9181 389.691 53.2243 389.401 53.6328C389.112 54.0413 388.891 54.5008 388.755 55.0283C388.619 55.556 388.55 56.0329 388.55 56.4414L388.517 56.458C388.517 57.2239 388.704 57.8024 389.078 58.2109C389.453 58.6024 389.929 58.8066 390.508 58.8066C390.814 58.8066 391.104 58.7393 391.41 58.6201C391.716 58.501 391.989 58.3134 392.244 58.0752C392.499 57.8369 392.72 57.547 392.891 57.2236C393.078 56.9174 393.214 56.5773 393.333 56.2031C393.486 55.6926 393.571 55.2157 393.571 54.7393C393.571 54.0074 393.384 53.428 393.01 53.0195C392.635 52.6111 392.158 52.4072 391.597 52.4072ZM270.885 42.2793C273.217 42.2793 274.749 42.892 275.583 44.1855C275.855 44.611 276.059 45.156 276.195 45.7686C276.093 45.7515 275.991 45.7352 275.889 45.7012C275.753 45.6842 275.634 45.6498 275.515 45.6328C275.379 45.6158 275.242 45.599 275.123 45.582C274.97 45.582 274.833 45.5479 274.697 45.5479C274.561 45.5309 274.408 45.5303 274.271 45.5303H273.387C273.251 45.5473 273.097 45.5479 272.961 45.5479C272.825 45.5649 272.689 45.5986 272.536 45.5986C272.4 45.6157 272.246 45.6324 272.127 45.6494C271.991 45.6664 271.854 45.7008 271.735 45.7178C271.6 45.7348 271.464 45.7688 271.345 45.8027C271.226 45.8367 271.089 45.8713 270.987 45.9053C270.868 45.9393 270.732 45.9904 270.63 46.0244C270.511 46.0584 270.391 46.1091 270.289 46.1602C270.17 46.2112 270.05 46.2624 269.948 46.3135C269.846 46.3644 269.728 46.4324 269.643 46.4834C269.54 46.5514 269.421 46.6029 269.336 46.6709C269.251 46.7389 269.149 46.8069 269.063 46.875C268.978 46.9431 268.876 47.0286 268.791 47.0967C268.706 47.1817 268.604 47.2669 268.519 47.335C268.434 47.42 268.348 47.5048 268.28 47.5898C268.195 47.6749 268.11 47.7772 268.042 47.8623C267.974 47.9644 267.889 48.0502 267.821 48.1523C267.753 48.2544 267.668 48.356 267.6 48.458C267.532 48.5772 267.447 48.6797 267.396 48.7988C267.31 48.9179 267.259 49.0371 267.191 49.1562C267.106 49.2923 267.055 49.4113 266.987 49.5303C266.919 49.6664 266.868 49.8028 266.8 49.9219C266.732 50.058 266.664 50.1949 266.63 50.3311C266.562 50.4671 266.493 50.6198 266.459 50.7559C266.391 50.8919 266.358 51.0452 266.307 51.1982C266.256 51.3683 266.221 51.5217 266.17 51.6748C266.119 51.845 266.085 51.9987 266.034 52.1689C265.983 52.3391 265.932 52.5095 265.915 52.6797C265.864 52.8498 265.813 53.0369 265.796 53.207C265.745 53.3942 265.727 53.5814 265.693 53.7686C265.659 53.9728 265.642 54.1604 265.608 54.3477C265.591 54.5517 265.557 54.7387 265.523 54.9258C265.489 55.113 265.455 55.301 265.455 55.4883C265.421 55.6584 265.421 55.8455 265.421 56.0156C265.387 56.1858 265.387 56.3562 265.387 56.5264V57.9561C265.387 58.0922 265.404 58.2457 265.421 58.3818C265.421 58.5179 265.438 58.654 265.455 58.79L265.404 58.7725V58.79C264.57 58.4667 263.924 57.9732 263.498 57.3096C262.664 56.0161 262.476 53.8371 262.936 50.8076C263.395 47.795 264.263 45.5986 265.506 44.2539C266.765 42.9263 268.502 42.2793 270.851 42.2793H270.885ZM364.704 52.4756C364.364 52.4756 364.057 52.5432 363.785 52.6963C363.513 52.8494 363.24 53.1046 362.968 53.4619C362.695 53.8194 362.475 54.2796 362.271 54.8242C362.083 55.3688 361.998 55.8451 361.998 56.2705H361.98C361.98 56.832 362.031 57.2919 362.15 57.6152C362.27 57.9386 362.457 58.2113 362.729 58.4326C363.002 58.6539 363.325 58.7559 363.717 58.7559C364.364 58.7559 364.925 58.4324 365.453 57.7686C366.151 56.9006 366.508 55.8114 366.508 54.5352C366.508 53.8884 366.338 53.377 365.998 53.0195C365.658 52.6621 365.232 52.4756 364.704 52.4756ZM131.023 45.1729C132.521 45.1729 133.628 45.3437 134.36 45.7012C135.092 46.0585 135.602 46.4839 135.892 47.0283C136.181 47.556 136.334 48.5435 136.334 49.9902L136.301 53.8369C136.301 54.9262 136.352 55.7433 136.471 56.2539C136.573 56.7645 136.777 57.3262 137.066 57.9219H133.765C133.68 57.7007 133.577 57.3775 133.44 56.9521C133.389 56.748 133.355 56.6286 133.321 56.5605C132.743 57.105 132.147 57.5134 131.483 57.8027C130.837 58.075 130.139 58.2109 129.407 58.2109C128.114 58.2109 127.075 57.8707 126.343 57.1729C125.594 56.4751 125.22 55.5902 125.22 54.5352C125.22 53.8373 125.39 53.2072 125.73 52.6455C126.071 52.0838 126.547 51.6755 127.16 51.3691C127.773 51.0798 128.658 50.8238 129.815 50.6025C131.364 50.3132 132.454 50.0414 133.05 49.7861V49.4629C133.05 48.8332 132.897 48.3729 132.573 48.1006C132.25 47.8283 131.653 47.6924 130.785 47.6924C130.19 47.6924 129.73 47.8116 129.39 48.0498C129.066 48.271 128.794 48.6794 128.59 49.2578L125.561 48.7139C125.901 47.5054 126.479 46.6197 127.313 46.041C128.147 45.4625 129.373 45.1729 131.023 45.1729ZM143.143 45.4629H145.406V48.1006H143.126V53.1221C143.126 54.1433 143.142 54.7394 143.193 54.8926C143.244 55.0627 143.33 55.1983 143.483 55.3174C143.637 55.4195 143.824 55.4883 144.045 55.4883C144.351 55.4883 144.794 55.3853 145.39 55.1641L145.679 57.7178C144.896 58.0411 144.028 58.2109 143.041 58.2109C142.445 58.2109 141.9 58.1091 141.424 57.9219C140.947 57.7176 140.589 57.4621 140.368 57.1387C140.147 56.8153 139.994 56.3898 139.892 55.8623C139.824 55.4878 139.79 54.7046 139.79 53.5303V48.1006H138.258V45.4629H139.79V42.9775L143.143 41.0537V45.4629ZM213.831 39.6758C214.682 40.731 215.533 41.8032 216.418 42.8584C216.214 44.1179 215.992 45.3948 215.788 46.6543H211.124C210.699 49.2243 210.257 51.8118 209.831 54.3818C209.61 55.6582 209.405 56.9345 209.184 58.2109H206.035L207.277 50.8584C207.499 49.5478 207.737 48.2198 207.958 46.9092C208.162 45.7518 208.35 44.5773 208.555 43.4199H212.911C213.081 43.4199 213.218 43.301 213.252 43.1309V43.165L213.831 39.6758ZM174.104 52.6279C174.767 52.6279 175.278 52.7984 175.687 53.1729C176.112 53.5473 176.435 54.1602 176.64 54.9941L176.69 55.1982C176.741 55.4195 176.81 55.641 176.861 55.8623H171.363C171.21 56.6453 171.074 57.4114 170.938 58.1943H167.789L168.793 52.6279H174.104ZM104.965 46.8926C105.986 45.7352 107.211 45.1563 108.624 45.1562C110.156 45.1562 111.433 45.7013 112.438 46.8076C113.441 47.9139 113.935 49.4798 113.935 51.5391C113.935 53.5986 113.424 55.3176 112.386 56.458C111.364 57.6154 110.122 58.1768 108.658 58.1768C107.943 58.1767 107.229 58.0067 106.531 57.6494C105.833 57.292 105.22 56.7643 104.727 56.0664V57.9053H101.629V40.6963H104.965V46.8926ZM190.206 42.7227C190.751 43.4204 191.312 44.1015 191.856 44.7822C191.924 44.8843 192.01 44.9862 192.095 45.0713C192.146 45.1734 192.214 45.2758 192.282 45.3779C192.35 45.497 192.402 45.5991 192.47 45.7012C192.504 45.8201 192.538 45.9221 192.605 46.041C192.639 46.1601 192.674 46.2793 192.742 46.3984C192.759 46.5176 192.81 46.6543 192.844 46.7734C192.861 46.8925 192.878 47.0284 192.912 47.1475V47.1992C192.912 47.3181 192.929 47.454 192.946 47.5898C192.946 47.726 192.963 47.8629 192.98 47.999V48.4238C192.946 48.577 192.946 48.714 192.946 48.8672C192.912 49.0202 192.878 49.1565 192.861 49.3096C192.827 49.4285 192.81 49.5305 192.793 49.6494C192.742 49.7686 192.725 49.8881 192.708 49.9902C192.657 50.1094 192.622 50.2114 192.605 50.3135C192.554 50.4156 192.52 50.518 192.486 50.6201C192.435 50.7222 192.401 50.8247 192.367 50.9268C192.299 51.0118 192.265 51.1139 192.231 51.2158C192.163 51.3179 192.129 51.4028 192.095 51.5049L191.755 52.0498C191.687 52.1348 191.636 52.2197 191.585 52.3047C191.517 52.3898 191.431 52.4754 191.38 52.5605C191.312 52.6286 191.227 52.7138 191.176 52.7988C191.108 52.8838 191.023 52.9521 190.955 53.0371C190.87 53.1051 190.785 53.1898 190.717 53.2578C190.632 53.3258 190.547 53.4114 190.479 53.4795C190.393 53.5646 190.291 53.6331 190.223 53.7012C190.121 53.7692 190.036 53.8373 189.934 53.9053C189.848 53.9733 189.746 54.0237 189.678 54.0918C189.593 54.1428 189.491 54.1947 189.406 54.2627C189.304 54.3307 189.185 54.3816 189.1 54.4326C188.998 54.4836 188.896 54.5349 188.811 54.5859C188.709 54.6369 188.589 54.6707 188.504 54.7217C188.402 54.7557 188.283 54.8068 188.181 54.8408C188.079 54.8919 187.959 54.9259 187.856 54.96C187.737 54.994 187.619 55.0285 187.517 55.0625C187.38 55.0965 187.278 55.1134 187.176 55.1475C187.04 55.1645 186.938 55.1988 186.836 55.2158C186.717 55.2498 186.581 55.2662 186.479 55.2832C186.359 55.3002 186.223 55.3179 186.104 55.335C185.984 55.352 185.848 55.3691 185.729 55.3691H185.661C186.035 55.8285 186.41 56.2877 186.784 56.7471C186.801 56.7811 186.818 56.799 186.853 56.833C186.87 56.8501 186.903 56.884 186.903 56.918C186.92 56.9519 186.938 56.9856 186.972 57.0195C186.972 57.0536 187.006 57.088 187.006 57.1221C187.006 57.173 187.04 57.2072 187.04 57.2412C187.023 57.2753 187.057 57.3263 187.057 57.3604C187.108 57.6325 187.159 57.9046 187.21 58.1768H186.495C186.121 58.1767 185.815 58.0916 185.61 57.9385C185.406 57.8023 185.269 57.5646 185.201 57.2412C185.099 56.6455 184.98 56.0498 184.878 55.4541C184.759 54.8924 184.657 54.3131 184.555 53.7344C184.47 53.3431 184.283 53.0024 183.977 52.7812C183.687 52.56 183.329 52.4414 182.921 52.4414H182.342C182.359 52.3563 182.377 52.254 182.394 52.1689C184.453 52.1008 186.206 51.5046 187.618 50.3984C189.082 49.241 190.001 47.6753 190.342 45.752C190.529 44.6288 190.495 43.6076 190.206 42.7227ZM243.345 46.5859H240.536C240.128 49.1561 239.719 51.7263 239.311 54.3135C239.106 55.59 238.902 56.8836 238.698 58.1602H235.549L237.898 43.3691H243.855L243.345 46.5859ZM346.747 39.7266C347.581 40.6966 348.415 41.6667 349.266 42.6367C350.27 45.8537 351.309 49.0883 352.33 52.3223C352.943 54.2455 353.555 56.1691 354.185 58.1094H352.568C352.024 56.3732 351.479 54.6365 350.917 52.9004C350.458 51.4709 349.998 50.0414 349.556 48.6289L349.572 48.6455L346.747 39.7266ZM122.462 45.1562C123.228 45.1562 123.96 45.3606 124.658 45.7861L123.62 48.6621C123.058 48.3047 122.547 48.1182 122.054 48.1182C121.56 48.1182 121.186 48.2369 120.862 48.4922C120.539 48.7475 120.284 49.2073 120.097 49.8711C119.909 50.5349 119.824 51.931 119.824 54.0586V57.9219H116.488V45.4453H119.586V47.2158C120.114 46.3818 120.59 45.8198 121.016 45.5645C121.441 45.2923 121.917 45.1563 122.462 45.1562ZM151.074 57.9219H147.738V45.4453H151.074V57.9219ZM292.927 51.2666C293.676 51.7091 294.594 52.0498 295.684 52.2881L296.382 52.4414C298.458 52.901 300.518 53.3774 302.611 53.8369C304.279 54.1943 305.335 54.5514 305.777 54.9258C306.169 55.2492 306.321 55.7095 306.236 56.3223C306.202 56.6455 306.1 56.9181 305.947 57.1562C305.879 57.1393 305.795 57.1046 305.727 57.1045C303.395 56.5939 301.096 56.0663 298.781 55.5557C298.662 55.5386 298.543 55.5047 298.424 55.4707C298.305 55.4537 298.186 55.4197 298.084 55.3857C298.016 55.3517 297.948 55.3344 297.88 55.3174C298.408 55.9641 298.951 56.5945 299.496 57.2412C299.513 57.3433 299.53 57.4458 299.564 57.5479C299.36 57.4287 299.156 57.2919 298.969 57.1387C297.863 56.2536 297.131 55.0618 296.824 53.5811C296.79 53.4111 296.654 53.3096 296.501 53.3096H294.646C294.067 52.6288 293.505 51.9474 292.927 51.2666ZM133.066 51.9473C132.641 52.0834 131.96 52.2538 131.041 52.458C130.122 52.6623 129.509 52.8499 129.22 53.0371C128.794 53.3434 128.573 53.7346 128.573 54.2109C128.573 54.6874 128.743 55.062 129.101 55.4023C129.458 55.7427 129.883 55.913 130.428 55.9131C131.023 55.9131 131.603 55.7094 132.147 55.335C132.556 55.0286 132.811 54.6706 132.947 54.2451C133.032 53.9557 133.083 53.4277 133.083 52.6279V51.9648L133.066 51.9473ZM107.739 47.6758C106.922 47.6758 106.276 47.982 105.748 48.5947C105.22 49.2075 104.948 50.1438 104.948 51.4033V51.4199C104.948 52.7134 105.152 53.6665 105.561 54.2793C106.139 55.1643 106.905 55.5897 107.875 55.5898C108.607 55.5898 109.237 55.284 109.748 54.6543C110.276 54.0245 110.53 53.0536 110.53 51.709C110.53 50.2797 110.275 49.2587 109.748 48.6289C109.237 47.9991 108.556 47.6758 107.739 47.6758ZM229.915 46.6025H227.124L227.141 46.6201C226.868 48.3221 226.579 50.0412 226.307 51.7432H219.855C218.953 50.671 218.086 49.5986 217.218 48.5264H223.379C223.532 48.5264 223.685 48.4073 223.702 48.2373L224.503 43.3857H230.442L229.915 46.6025ZM251.565 39.5732C252.451 40.6455 253.319 41.7011 254.221 42.7734C253.982 44.2712 253.745 45.7693 253.523 47.25C253.285 48.7478 253.063 50.2288 252.825 51.7266H246.341C245.456 50.6542 244.587 49.5815 243.702 48.4922H249.881C250.051 48.4921 250.204 48.3732 250.221 48.2031L251.565 39.5732ZM339.683 41.6836C339.547 41.6667 339.427 41.7354 339.359 41.8545C338.985 42.5352 338.611 43.1991 338.236 43.8799C337.777 44.7138 337.317 45.5303 336.874 46.3643L336.449 47.165C335.768 48.3904 335.105 49.6326 334.424 50.875C334.356 50.9941 334.356 51.1137 334.424 51.2158C334.492 51.3177 334.594 51.3691 334.713 51.3691H342.423C342.525 51.3691 342.627 51.3175 342.695 51.2324C342.746 51.1475 342.781 51.0287 342.747 50.9268C342.56 50.314 342.355 49.7006 342.168 49.0879C341.896 48.2028 341.606 47.3177 341.351 46.4326C341.061 45.4285 340.738 44.4241 340.432 43.4199L339.973 41.9219C339.922 41.7858 339.819 41.6836 339.683 41.6836ZM339.785 43.6416C340.091 44.6456 340.415 45.6327 340.704 46.6367C340.857 47.1983 341.028 47.7773 341.215 48.3389C340.892 48.9345 340.568 49.5304 340.245 50.126C340.143 50.3132 340.041 50.5008 339.938 50.7051H335.292C335.888 49.6328 336.466 48.5605 337.045 47.4883L337.471 46.6885C337.913 45.8715 338.372 45.0367 338.832 44.2197C339.07 43.7773 339.326 43.335 339.564 42.8926L339.785 43.6416ZM170.172 42.8076C170.019 42.8077 169.883 42.927 169.849 43.0801L168.726 49.2754C168.709 49.3775 168.725 49.4628 168.793 49.5479C168.861 49.633 168.947 49.667 169.049 49.667H177.202C178.955 49.667 180.197 49.4113 180.997 48.8838V48.9004C181.797 48.3557 182.308 47.4711 182.529 46.2627C182.751 45.0883 182.478 44.1861 181.746 43.6074C181.065 43.0798 179.942 42.8076 178.342 42.8076H170.172ZM317.692 39.4541C318.594 40.5264 319.514 41.5986 320.433 42.6709C320.126 44.9857 319.82 47.2838 319.514 49.5986H313.301C313.216 49.5476 313.113 49.4798 313.028 49.4287C312.739 49.1054 312.467 48.7647 312.178 48.4414C312.059 48.3393 311.939 48.2368 311.82 48.1348C311.701 48.0326 311.564 47.9137 311.445 47.8115C311.292 47.7094 311.139 47.607 311.02 47.5049C310.866 47.4199 310.714 47.3344 310.561 47.2324C310.39 47.1473 310.22 47.0626 310.05 46.9775C309.982 46.9435 309.896 46.8924 309.828 46.8584C309.726 46.8244 309.641 46.7733 309.573 46.7393C309.471 46.7053 309.386 46.6707 309.318 46.6367C309.216 46.6027 309.131 46.5692 309.062 46.5352C308.961 46.5182 308.876 46.4842 308.808 46.4502C308.705 46.4162 308.62 46.3983 308.552 46.3643C308.45 46.3472 308.365 46.3139 308.297 46.2969C308.195 46.2799 308.109 46.2455 308.041 46.2285C307.939 46.1945 307.871 46.1772 307.786 46.1602C307.701 46.1431 307.616 46.1264 307.548 46.1094C307.446 46.0924 307.377 46.0586 307.292 46.0586C307.19 46.0416 307.122 46.0244 307.037 46.0244C306.935 46.0074 306.867 45.9903 306.782 45.9902C306.697 45.9732 306.611 45.9736 306.526 45.9736H305.607C305.471 46.0077 305.335 46.0068 305.216 46.0068C305.097 46.0238 304.961 46.0585 304.842 46.0586C304.706 46.0756 304.603 46.0924 304.501 46.1094C304.365 46.1434 304.262 46.1773 304.16 46.1943C304.041 46.2114 303.939 46.2453 303.854 46.2793C303.752 46.3303 303.667 46.3644 303.582 46.3984C303.497 46.4495 303.411 46.5011 303.326 46.5352C303.309 46.5518 303.275 46.5518 303.275 46.5518L301.948 46.2451C300.587 45.9217 300.042 45.6325 299.82 45.4453C299.531 45.1901 299.429 44.8839 299.479 44.4756C299.548 43.965 299.871 43.5558 300.467 43.2324C301.08 42.892 301.931 42.7227 303.003 42.7227C304.331 42.7227 305.607 43.0456 306.884 43.6924C308.126 44.3222 309.113 45.1736 309.828 46.2119C309.879 46.2969 309.982 46.3476 310.101 46.3477H316.449C316.619 46.3477 316.773 46.2286 316.79 46.0586L316.807 46.0752L317.692 39.4541ZM178.325 43.4541C179.755 43.4541 180.759 43.6756 181.304 44.1182C181.848 44.5436 182.019 45.1901 181.849 46.126C181.815 46.3132 181.763 46.5007 181.712 46.6709H172.98C172.844 47.4368 172.708 48.2204 172.572 48.9863H169.44L170.444 43.4541H178.325ZM162.563 46.6885H161.747C160.896 45.6162 160.062 44.5606 159.228 43.4883H163.143L162.563 46.6885ZM200.555 46.6543H199.703C198.818 45.5821 197.967 44.5097 197.116 43.4375H201.099L200.555 46.6543ZM151.074 43.7607H147.738V40.7139H151.074V43.7607ZM315.19 33.9229L314.952 35.2334H298.765L299.156 33.8887L315.19 33.9229ZM299.956 28.5439C302.696 28.561 305.437 28.5947 308.126 28.5947C310.798 28.6117 313.437 28.6455 316.058 28.6455C315.99 29.1561 315.905 29.6843 315.837 30.2119C315.769 30.7395 315.683 31.2673 315.615 31.7949H299.411C299.496 31.2504 299.598 30.7057 299.684 30.1611C299.769 29.6165 299.871 29.0886 299.956 28.5439Z" fill="#828282"/>
</g>
</g>
<defs>
<clipPath id="clip0_20_558">
<rect width="500" height="100" fill="white"/>
</clipPath>
<clipPath id="clip1_20_558">
<rect width="386" height="123.419" fill="white" transform="translate(57 -12)"/>
</clipPath>
</defs>
</svg>
