<svg width="500" height="100" viewBox="0 0 500 100" fill="none" xmlns="http://www.w3.org/2000/svg">
<path d="M55.0479 14.3395L55.0293 14.3117C55.0293 14.3117 55.0479 14.2931 55.0664 14.2931L55.4191 13.7363L55.4469 13.7177C55.4469 13.7177 55.4841 13.7641 55.4841 13.8384C55.4841 13.959 55.4098 14.1353 55.0572 14.3581M54.5374 13.0588C54.6303 13.0959 54.6952 13.1795 54.6952 13.2815C54.6952 13.4207 54.5746 13.5321 54.4168 13.5321C54.259 13.5321 54.1384 13.4207 54.1384 13.2815C54.1384 13.1887 54.1941 13.1052 54.2869 13.0681C54.1013 13.0124 53.9806 12.8361 53.9156 12.6505C53.86 12.966 53.6929 13.0959 53.5073 13.1052C53.5537 13.1516 53.5908 13.2166 53.5908 13.2815C53.5908 13.4207 53.4702 13.5321 53.3217 13.5321C53.1732 13.5321 53.0433 13.4207 53.0433 13.2815C53.0433 13.1702 53.1268 13.0774 53.2382 13.0495C53.0247 12.966 52.8484 12.8082 52.8391 12.7061C52.8391 12.6876 52.8391 12.669 52.8577 12.6597L52.9041 12.7154H52.8948L52.9134 12.7061C52.9134 12.7061 52.9876 12.8175 53.099 12.8918C53.2103 12.9753 53.3681 13.0402 53.498 13.0402C53.6929 13.0402 53.8692 12.9103 53.8692 12.3906H53.9435C53.9435 12.6412 54.1291 13.0217 54.3982 13.0217C54.5467 13.0217 54.7323 12.9196 54.9458 12.6226L55.0015 12.669C54.8344 12.901 54.6767 13.0217 54.5374 13.0681V13.0588ZM53.9342 14.9242C53.7672 14.9242 53.5723 14.8685 53.3774 14.6922L53.3959 14.6643C53.3959 14.6643 53.4052 14.6643 53.4145 14.6736H53.9064V14.2653C53.7115 14.2374 53.6187 13.959 53.6094 13.959H53.6372H54.2776C54.2776 13.959 54.2776 13.959 54.2776 13.9497L54.3054 13.9683C54.1848 14.1539 54.0734 14.2467 53.9713 14.2653V14.6736H54.4632L54.4818 14.6643L54.5003 14.6922C54.5003 14.6922 54.259 14.9242 53.9156 14.9242H53.9342ZM52.802 14.2189V14.2374C52.44 14.024 52.3658 13.8384 52.3658 13.7177C52.3658 13.6435 52.4029 13.5971 52.4029 13.5971L52.4308 13.6156L52.7834 14.1818C52.7834 14.1818 52.802 14.2003 52.8113 14.2003V14.2189H52.802ZM56.1151 12.6319L55.5305 12.8361L55.6326 11.9173L55.0015 12.1215C54.6581 11.9173 55.8274 11.0449 55.5397 10.7851L54.6117 11.4533L53.9249 10.5345L53.2939 11.3512L52.3194 10.7851C52.0224 11.0449 53.201 11.9173 52.8577 12.1215L52.2266 11.9173L52.3194 12.8361L51.7347 12.6319L51.7811 13.6064L51.2893 14.1168L51.7811 14.2746V14.8407L52.1245 14.9428V15.4068L52.8113 15.249L52.9134 16.0193L53.3031 15.7594L53.5444 16.0657L53.9342 16.5297L54.324 16.0657L54.5653 15.7594L54.9551 16.0193L55.0572 15.249L55.7439 15.4068V14.9428L56.0873 14.8407V14.2746L56.5792 14.1168L56.0873 13.6064L56.1337 12.6319H56.1151ZM48.0596 13.2815C48.0596 13.4207 47.939 13.5321 47.7905 13.5321C47.642 13.5321 47.5214 13.4207 47.5214 13.2815C47.5214 13.1887 47.577 13.1052 47.6606 13.0681C47.4842 13.0124 47.3543 12.8361 47.2893 12.6505C47.2337 12.966 47.0666 13.0959 46.881 13.1052C46.9274 13.1516 46.9645 13.2166 46.9645 13.2815C46.9645 13.4207 46.8439 13.5321 46.6861 13.5321C46.5283 13.5321 46.4077 13.4207 46.4077 13.2815C46.4077 13.1702 46.4912 13.0774 46.6026 13.0495C46.3891 12.966 46.2128 12.8082 46.2035 12.7061C46.2035 12.6876 46.2035 12.669 46.2221 12.6597L46.2685 12.7154L46.287 12.7061C46.287 12.7061 46.3613 12.8175 46.4727 12.8918C46.584 12.9753 46.7418 13.0402 46.8717 13.0402C47.0666 13.0402 47.2429 12.9103 47.2429 12.3906H47.3172C47.3172 12.6412 47.5028 13.0217 47.7812 13.0217C47.9297 13.0217 48.1153 12.9196 48.3288 12.6226L48.3844 12.669C48.2174 12.901 48.0596 13.0217 47.9204 13.0681C48.0132 13.1052 48.0782 13.1887 48.0782 13.2908L48.0596 13.2815ZM47.3079 14.9242C47.1409 14.9242 46.946 14.8685 46.7511 14.6922L46.7696 14.6643C46.7696 14.6643 46.7789 14.6643 46.7882 14.6736H47.2801V14.2653C47.0852 14.2374 46.9924 13.959 46.9831 13.959H47.0109H47.6513C47.6513 13.959 47.6513 13.959 47.6513 13.9497L47.6791 13.9683C47.5585 14.1539 47.4471 14.2467 47.345 14.2653V14.6736H47.8369L47.8555 14.6643L47.874 14.6922C47.874 14.6922 47.6327 14.9242 47.2893 14.9242H47.3079ZM46.1664 14.2189V14.2374C45.8045 14.024 45.7302 13.8384 45.7302 13.7177C45.7302 13.6435 45.7673 13.5971 45.7673 13.5971L45.7952 13.6156L46.1478 14.1818C46.1478 14.1818 46.1664 14.2003 46.185 14.2003V14.2189H46.1664ZM48.4401 14.2838L48.7928 13.727L48.8206 13.7084C48.8206 13.7084 48.8578 13.7548 48.8578 13.8291C48.8578 13.9497 48.7835 14.1261 48.4308 14.3488L48.4123 14.321C48.4123 14.321 48.4308 14.3024 48.4494 14.3024L48.4401 14.2838ZM48.4123 15.249L49.099 15.4068V14.9428L49.4424 14.8407V14.2746L49.9343 14.1168L49.4424 13.6064L49.4888 12.6319L48.9042 12.8361L48.997 11.9173L48.3659 12.1215C48.0225 11.9173 49.1919 11.0449 48.9042 10.7851L47.9761 11.4533L47.2893 10.5345L46.6583 11.3512L45.6838 10.7851C45.3961 11.0449 46.5655 11.9173 46.2221 12.1215L45.591 11.9173L45.6838 12.8361L45.0991 12.6319L45.1455 13.6064L44.6537 14.1168L45.1455 14.2746V14.8407L45.4889 14.9428V15.4068L46.1757 15.249L46.2778 16.0193L46.6675 15.7594L46.9088 16.0657L47.2986 16.5297L47.6884 16.0657L47.9297 15.7594L48.3195 16.0193L48.4123 15.249ZM51.8739 20.7802L51.8554 20.7524C51.8554 20.7524 51.8739 20.7338 51.8925 20.7338L52.2452 20.177L52.273 20.1584C52.273 20.1584 52.3101 20.2048 52.3101 20.2791C52.3101 20.3997 52.2359 20.5761 51.8832 20.7988L51.8739 20.7802ZM51.3542 19.4995C51.447 19.5366 51.512 19.6202 51.512 19.7222C51.512 19.8615 51.3913 19.9728 51.2336 19.9728C51.0758 19.9728 50.9552 19.8615 50.9552 19.7222C50.9552 19.6294 51.0201 19.5459 51.1036 19.5088C50.9273 19.4531 50.7974 19.2768 50.7324 19.0912C50.6767 19.4067 50.5097 19.5366 50.3241 19.5459C50.3705 19.5923 50.4076 19.648 50.4076 19.7222C50.4076 19.8615 50.287 19.9728 50.1292 19.9728C49.9714 19.9728 49.8601 19.8615 49.8601 19.7222C49.8601 19.6109 49.9436 19.5181 50.0549 19.4902C49.8415 19.4067 49.6652 19.2489 49.6559 19.1468C49.6559 19.1283 49.6559 19.1097 49.6744 19.1004L49.7208 19.1561L49.7394 19.1468C49.7394 19.1468 49.8136 19.2582 49.925 19.3325C50.0364 19.4067 50.1849 19.4809 50.3241 19.4809C50.519 19.4809 50.6953 19.351 50.6953 18.8313H50.7695C50.7695 19.0819 50.9552 19.4624 51.2336 19.4624C51.3821 19.4624 51.5677 19.3603 51.7811 19.0633L51.8368 19.1097C51.6698 19.3325 51.512 19.4624 51.3728 19.5088L51.3542 19.4995ZM50.751 21.3649C50.5839 21.3649 50.389 21.3092 50.1942 21.1329L50.2127 21.105C50.2127 21.105 50.222 21.105 50.2313 21.1143H50.7231V20.706C50.5283 20.6781 50.4262 20.409 50.4262 20.409H50.454H51.0944C51.0944 20.409 51.0944 20.409 51.0944 20.3997L51.1222 20.4183C50.9923 20.6039 50.8902 20.6874 50.7881 20.7153V21.1236H51.2707L51.2893 21.1143L51.3078 21.1422C51.3078 21.1422 51.0665 21.3742 50.7231 21.3742L50.751 21.3649ZM49.6188 20.6596V20.6781C49.2568 20.4647 49.1826 20.2791 49.1826 20.1584C49.1826 20.0842 49.2197 20.0378 49.2197 20.0378L49.2475 20.0563L49.6002 20.6225C49.6002 20.6225 49.6188 20.6317 49.628 20.641V20.6596H49.6188ZM52.9319 19.0726L52.3472 19.2768L52.4493 18.358L51.8182 18.5622C51.4749 18.358 52.6442 17.4856 52.3565 17.2258L51.4285 17.894L50.7417 16.9752L50.1106 17.7919L49.1362 17.2258C48.8392 17.4856 50.0178 18.358 49.6744 18.5622L49.0434 18.358L49.1454 19.2768L48.5608 19.0726L48.6072 20.0471L48.1153 20.5575L48.6072 20.706V21.2721L48.9506 21.3742V21.8382L49.6373 21.6804L49.7394 22.4507L50.1292 22.1909L50.3705 22.4971L50.7603 22.9612L51.15 22.4971L51.3913 22.1909L51.7811 22.4507L51.8832 21.6804L52.57 21.8382V21.3742L52.9134 21.2721V20.706L53.4052 20.5575L52.9134 20.0471L52.9598 19.0726H52.9319ZM77.4883 25.2442H77.4975C77.4975 25.2442 77.4883 25.2442 77.4697 25.2442C77.479 25.2442 77.4883 25.2442 77.4883 25.2442ZM33.9996 83.1919H45.0806V71.5263H33.9996V83.1919ZM19.6055 16.4369L20.2644 16.1771L19.6147 16.4369H19.6055ZM21.8606 13.9497L22.3061 14.321L21.8606 13.959V13.9497ZM20.7562 19.8429L21.3688 19.6573L22.6309 19.2675L24.0694 20.2327L24.5056 18.525L26.0276 17.894L25.6471 17.4578L24.7283 16.3998L24.9139 14.6458L24.6077 14.7386L23.2806 15.1191L21.8421 13.9405L21.7307 14.4509L21.4523 15.6945L19.5776 16.4276L19.921 16.7803L20.9697 17.8661L20.7377 19.8243L20.7562 19.8429ZM20.3943 24.2326C26.1297 29.2998 30.3895 24.0563 29.2758 20.8081C29.1366 22.4136 26.2503 26.6177 20.3943 24.2326ZM81.5067 25.9309C81.5067 25.9309 81.4603 25.9216 81.4325 25.9124C81.4603 25.9124 81.4789 25.9216 81.5067 25.9309ZM64.3934 24.8451C64.3934 24.8451 64.3934 24.8451 64.3841 24.8451H64.3934ZM61.3865 25.736C61.3865 25.736 61.3679 25.736 61.3587 25.736H61.3772H61.3865ZM59.6325 24.0006C59.6325 24.0006 59.6325 24.0006 59.6418 24.0006H59.6325ZM68.3284 19.1747L68.514 18.1909L67.7715 18.7107C67.7715 18.7107 66.927 18.0981 65.7391 18.5158C64.7461 18.4694 63.7623 18.5807 63.7623 18.5807C62.1289 18.5436 62.3702 17.8661 62.3702 17.8661L62.6115 17.4021L62.064 17.1515C63.1962 16.7246 62.7043 16.474 62.7043 16.474L63.0477 16.2699H62.5558L62.4538 15.8615C63.6324 15.2861 64.6904 17.0309 65.6277 16.9195C66.3516 16.836 66.7599 16.5761 67.3075 16.0843C66.0732 16.1492 66.5186 16.7617 64.1799 15.1284C64.1799 15.1284 66.6022 15.4161 66.6022 14.3395C63.1405 14.7757 64.2727 13.8384 62.4909 13.959C61.5721 14.024 61.0988 14.4694 60.3749 15.0634L59.9851 15.481L59.0942 14.9706C58.5559 16.1121 59.5025 16.307 59.5025 16.307L58.8251 17.8104L59.2705 18.2745L60.013 18.1631C60.013 18.1631 59.3262 18.9427 60.1243 19.2953C60.1243 19.2953 58.5466 19.9264 59.5397 20.6967C59.5397 20.6967 60.2357 21.3649 58.9736 23.6386L58.5281 24.5203C58.5281 24.5203 58.7323 24.743 59.0942 24.743C59.2984 24.743 59.5397 24.6781 59.8181 24.4739V24.4646C59.5304 24.4089 59.4469 24.3254 59.4469 24.2512C59.4469 24.1305 59.6696 24.0099 59.6696 24.0099C59.6696 24.0099 60.0501 22.6642 60.6997 22.4043L61.2937 22.3486C61.2937 22.3486 61.2566 23.4901 60.8111 23.8521C60.8111 23.8521 61.0153 24.9286 60.4306 25.4019C60.4306 25.4019 59.9573 25.8103 59.9573 26.1258C59.9573 26.1629 59.9573 26.2093 59.9851 26.2372C60.1522 26.3764 60.3564 26.4228 60.5512 26.4228C60.9503 26.4228 61.3308 26.2372 61.3308 26.2372V26.2279C61.2194 26.1258 61.173 26.0423 61.173 25.9866C61.173 25.8288 61.4236 25.7824 61.4236 25.7824L61.4607 24.6966L61.999 24.1769V23.6108L62.6301 22.9333L64.514 22.9704C64.514 22.9704 64.6161 23.6386 63.9758 23.9542L63.8644 24.6224C63.8644 24.6224 63.2426 24.8173 63.2426 25.2163C63.2426 25.2813 63.2612 25.3463 63.289 25.4112C63.3261 25.4298 63.3633 25.4391 63.4004 25.4483C63.4375 25.4669 63.4746 25.4762 63.5117 25.4855C63.5674 25.504 63.6138 25.5133 63.6695 25.5226C63.6695 25.5226 63.6788 25.5226 63.6881 25.5226C63.7438 25.5226 63.7994 25.5411 63.8551 25.5411C64.1521 25.5411 64.3841 25.4576 64.3841 25.4576V25.4483C64.2728 25.3555 64.2449 25.272 64.2449 25.1885C64.2449 25.0122 64.4305 24.8915 64.4305 24.8915C65.1173 24.3161 65.0152 23.9078 65.0152 23.9078C65.5535 23.5922 65.7484 22.9704 65.7484 22.9704L66.4444 23.4345C66.4444 23.4345 66.6022 24.3625 65.9711 25.4483C65.9711 25.4483 65.3771 25.7175 65.3771 26.1351C65.3771 26.2001 65.3957 26.265 65.4235 26.3393C65.5906 26.4506 65.7576 26.497 65.9154 26.497C66.1753 26.497 66.3702 26.395 66.3702 26.395C66.3702 25.9309 66.6579 25.7824 66.6579 25.7824L66.9548 25.5783V25.2163L67.9293 23.6572L68.4212 23.4994L67.8272 23.1468V22.8312L68.3098 21.9032L67.8643 22.163L67.9107 21.1793C68.8481 20.344 68.3933 19.9914 68.3933 19.9914L68.8295 19.054L68.3376 19.2675L68.3284 19.1747ZM75.4651 16.6504L76.0219 16.1214L75.4744 16.6504H75.4651ZM79.762 12.9103L79.4557 13.1609L78.4256 13.9869L76.6716 13.4579L76.7458 13.9033L76.9407 15.2397L75.4744 16.6504L75.957 16.8546L77.2841 17.4392L77.7667 19.351L78.2864 18.9148L79.3072 18.0796L80.987 18.4137L80.7736 16.6597L81.9615 15.481L81.6274 15.314L80.226 14.5994L79.7713 12.901L79.762 12.9103ZM71.6508 22.8034C71.6508 22.8034 71.6972 22.7941 71.7436 22.7848C71.6879 22.7941 71.6415 22.8034 71.6415 22.8034H71.6508ZM33.9996 91.034V83.591H26.835C28.6818 86.5144 31.1133 89.0387 33.9996 91.034ZM72.7737 22.1352C72.7737 22.1352 72.8016 22.1723 72.8109 22.2001C72.8109 22.1816 72.7923 22.1537 72.7737 22.1352ZM72.7273 24.2047H72.7366C72.6809 24.2047 72.6345 24.2047 72.5788 24.2233C72.6252 24.2233 72.6716 24.2233 72.7273 24.2047ZM72.6809 23.5737L72.2355 23.2488L72.6716 23.5737H72.6809ZM78.8896 70.1528V59.4708H67.8086V71.1365H78.8618C78.8711 70.8117 78.8803 70.4869 78.8803 70.1528H78.8896ZM67.5209 47.4154H56.44V59.0811H67.5209V47.4154ZM86.9266 17.9033L80.1518 33.2162L79.8455 33.9029H79.7805L79.1124 33.6523C69.6648 30.1072 60.477 28.3717 51.1036 28.3717C50.6767 28.3717 50.2406 28.3717 49.8136 28.381C40.8208 28.5295 31.7444 30.3299 22.8444 33.7266L22.3989 33.8936H22.0926L21.8142 33.2997L14.826 18.126L14.6589 17.7548L14.8445 17.3928L19.6704 8.20508L20.0324 7.51832L20.7377 7.84313L29.1087 11.741L34.4451 4.79911L34.8905 4.21444L35.5123 4.60422L43.2801 9.44867L50.1013 3.72257L50.6118 3.28638L51.1315 3.71329L57.897 9.21666L65.6277 4.5671L66.1938 4.22372L66.6486 4.71559L72.6345 11.2491L80.7179 7.69465L81.3954 7.39767L81.7573 8.03803L86.8895 17.1701L87.0936 17.532L86.9266 17.9125V17.9033ZM24.0787 33.8936C32.5982 30.7661 41.257 29.1049 49.8322 28.9657C50.2591 28.9657 50.686 28.9564 51.1129 28.9564C60.1429 28.9564 68.9873 30.5805 78.0915 33.9029H24.0787V33.8936ZM79.5764 70.3105C79.5671 85.9854 68.0778 96.89 50.8531 96.9086C34.7606 96.9086 22.2318 85.3636 22.2318 70.0135V34.599L22.5103 34.4969H79.5764V70.3198V70.3105ZM87.3999 16.8824L82.2585 7.75033L81.6367 6.63666L80.4766 7.14709L72.7737 10.5345L67.0662 4.30724L66.2959 3.46271L65.3122 4.04739L57.9341 8.48349L51.4934 3.24926L50.5932 2.5161L49.7116 3.25854L43.2152 8.70623L35.8093 4.08451L34.7328 3.41631L33.9625 4.42789L28.9138 10.9985L20.9697 7.29558L19.7539 6.72947L19.1321 7.91738L14.3248 17.1237L14 17.7362L14.2877 18.3673L21.2852 33.541L21.6379 34.3205V70.0043C21.6379 77.8463 24.849 84.7232 30.1018 89.6326C35.3545 94.5421 42.6583 97.484 50.8438 97.484C59.5768 97.484 66.9084 94.6998 72.0591 89.8925C77.2098 85.0945 80.161 78.2825 80.1518 70.3012V34.6175L80.2539 34.3948L80.6808 33.4389L87.4556 18.126L87.7433 17.4763L87.3999 16.8638V16.8824ZM33.9996 71.1365V59.4708H22.9186V69.8651C22.9186 70.292 22.9279 70.7189 22.9465 71.1365H33.9903H33.9996ZM45.1734 47.4154H34.0924V59.0811H45.1734V47.4154ZM33.9996 35.2579H22.9186V46.9235H33.9996V35.2579ZM75.4001 83.5817H67.6137V91.6094C70.8527 89.5398 73.4883 86.8206 75.4001 83.5817ZM78.8896 35.2579H67.8086V46.9235H78.8896V35.2579ZM56.3472 59.4708H45.2662V71.1365H56.3472V59.4708ZM56.3472 35.2579H45.2662V46.9235H56.3472V35.2579ZM45.2755 95.6372C47.0759 95.962 48.9413 96.129 50.8624 96.129C52.7834 96.129 54.5931 95.9805 56.3564 95.7207V83.5817H45.2847V95.6372H45.2755ZM67.5209 71.5263H56.44V83.1919H67.5209V71.5263ZM83.3443 23.2581C77.4604 20.8266 73.3306 19.7315 71.3167 19.2861L72.6902 12.4277L80.9221 8.80831L85.8593 17.5784L83.3536 23.2488L83.3443 23.2581ZM81.5253 25.801V25.9309H81.516C81.0241 25.7732 80.5694 25.736 80.226 25.736C79.8826 25.736 79.6321 25.7824 79.5671 25.7917C79.5578 25.7917 79.5485 25.7917 79.5485 25.7917L79.9012 26.3578L80.0404 27.5365V27.6014L79.3444 27.6478H79.2423L79.1866 26.9332L78.3421 26.265C78.0544 26.2279 77.7667 26.2186 77.5068 26.2186C76.8201 26.2186 76.2911 26.3114 76.1797 26.33H76.1611L76.2632 25.6989C76.7087 25.6154 77.247 25.3463 77.4326 25.2627C77.4604 25.2535 77.4697 25.2442 77.4883 25.2349C77.4326 25.2349 77.2284 25.2627 76.9593 25.2627C76.4674 25.2627 75.7992 25.1792 75.5393 24.7894C75.5301 24.7709 75.5115 24.7523 75.5022 24.7337C75.4837 24.6966 75.4744 24.6688 75.4558 24.6317C75.4373 24.576 75.428 24.5203 75.428 24.4553C75.428 24.446 75.428 24.4368 75.428 24.4275C74.9361 24.446 74.3793 24.6131 73.7946 25.0493C73.3306 25.1235 72.9779 25.1514 72.7088 25.1514C72.0684 25.1514 71.9292 24.975 71.9292 24.8265C71.9292 24.7245 71.9942 24.6409 71.9942 24.6317L72.4025 24.3811L72.7181 24.1769C72.4025 24.2326 72.1427 24.2604 71.9292 24.2604C71.1868 24.2604 71.0568 23.9449 71.0568 23.7407C71.0568 23.6386 71.0847 23.5644 71.094 23.5551H72.6716L72.0591 23.0911L71.6415 22.7848C71.6415 22.7848 72.4118 22.6363 72.7181 22.1909C72.7366 22.163 72.7645 22.1352 72.7737 22.1073C72.8944 22.2466 72.8109 22.3672 72.9222 22.4693C72.9222 22.4693 72.9315 22.4693 72.9408 22.4693C73.0336 22.4693 73.2563 22.1909 73.377 22.1909C73.3862 22.1909 73.4048 22.1909 73.4141 22.1909C73.7575 22.4043 73.9802 23.054 74.3607 23.221C74.7505 23.3881 75.0939 23.4066 75.428 23.4159C75.5765 23.4159 75.7249 23.4159 75.8827 23.4159C76.1983 23.4159 76.5231 23.4345 76.885 23.5737C77.9152 23.9542 78.4906 24.3068 79.2701 25.105C79.3072 25.105 79.5671 25.0678 79.9476 25.0678C80.3838 25.0678 80.9777 25.1142 81.5531 25.2999L81.516 25.7917L81.5253 25.801ZM79.2516 32.5108C76.3746 31.4436 73.0336 30.3578 69.2842 29.4483L69.9246 26.2465C74.1751 27.1467 78.1843 28.5573 80.588 29.4854L79.2516 32.5016V32.5108ZM57.2288 27.4993L58.1197 10.3767L65.9989 5.64364L72.1148 12.3164L68.7181 29.3091C65.2286 28.4924 61.3865 27.8427 57.2288 27.4993ZM51.0851 27.2488C49.0898 27.2488 47.0388 27.3323 44.9321 27.4993L43.6606 10.5716L50.6303 4.72487L57.5351 10.3396L56.6441 27.4622C54.8437 27.3323 52.9969 27.2488 51.0851 27.2488ZM33.0066 29.4204L32.2177 25.4855C37.2199 23.7222 40.6445 23.4252 44.0411 23.5087L44.3474 27.555C40.728 27.8798 36.9415 28.4831 33.0066 29.4204ZM22.7144 32.5851L15.8932 17.7919L20.5242 8.96608L29.0995 12.966L32.4405 29.5596C29.2851 30.3392 26.0462 31.3322 22.7237 32.5944L22.7144 32.5851ZM35.1504 5.69005L43.0667 10.6273L43.0852 10.8315C37.7861 10.2654 32.7003 11.4904 29.7213 12.7618L35.1504 5.69933V5.69005ZM43.3915 14.85L43.707 19.1097C39.0482 18.952 34.8998 19.6851 31.3361 21.1236L30.4823 16.9102C35.7072 14.8685 39.9391 14.6736 43.3822 14.85H43.3915ZM72.5046 11.8709L66.101 4.88264L57.8506 9.84773L50.6211 3.96386L43.3265 10.089L35.0204 4.9012L29.2665 12.3906L20.2551 8.1958L20.1252 8.44637L15.2343 17.7733L22.4082 33.3275L22.668 33.2254C33.053 29.2626 42.6027 27.8334 51.0851 27.8334C62.7507 27.8334 72.384 30.5526 79.3072 33.1512L79.5671 33.244L86.5089 17.5413L81.1726 8.04731L72.5046 11.8523V11.8709Z" fill="#828282"/>
<path d="M133.956 62.9364H129.998V52.0061H118.836V62.9364H114.861V38.7241H118.836V48.6276H129.998V38.7241H133.956V62.9364ZM153.955 38.7241C156.042 38.7241 157.764 38.978 159.122 39.4859C160.491 39.9938 161.507 40.7666 162.169 41.8045C162.843 42.8423 163.18 44.1616 163.18 45.7626C163.18 46.955 162.959 47.9707 162.517 48.8098C162.075 49.6489 161.496 50.3445 160.778 50.8965C160.061 51.4485 159.293 51.8902 158.476 52.2214L165.349 62.9364H160.861L155.015 53.2316H151.123V62.9364H147.148V38.7241H153.955ZM153.69 42.0363H151.123V49.9525H153.872C155.716 49.9525 157.052 49.6102 157.88 48.9257C158.719 48.2412 159.139 47.231 159.139 45.895C159.139 44.4929 158.691 43.4992 157.797 42.914C156.914 42.3289 155.545 42.0363 153.69 42.0363ZM193.546 38.7241L185.083 62.9364H180.877L172.414 38.7241H176.488L181.589 53.894C181.743 54.3357 181.909 54.8712 182.086 55.5005C182.273 56.1298 182.444 56.7646 182.599 57.405C182.765 58.0454 182.892 58.614 182.98 59.1108C183.068 58.614 183.19 58.0454 183.344 57.405C183.51 56.7646 183.681 56.1298 183.858 55.5005C184.034 54.8712 184.2 54.3302 184.355 53.8775L189.472 38.7241H193.546ZM218.513 62.9364L216.145 56.2126H206.888L204.519 62.9364H200.329L209.339 38.6247H213.744L222.736 62.9364H218.513ZM215.118 52.801L212.816 46.1766C212.728 45.8895 212.601 45.4865 212.435 44.9676C212.27 44.4377 212.104 43.9022 211.939 43.3612C211.773 42.8092 211.635 42.3454 211.525 41.9701C211.414 42.4227 211.276 42.9306 211.111 43.4937C210.956 44.0457 210.801 44.5646 210.647 45.0504C210.503 45.5362 210.393 45.9116 210.316 46.1766L207.997 52.801H215.118ZM241.113 62.9364H237.121V42.1026H230.033V38.7241H248.184V42.1026H241.113V62.9364ZM272.655 56.3451C272.655 57.7804 272.302 59.0169 271.595 60.0548C270.899 61.0926 269.895 61.8875 268.581 62.4396C267.278 62.9916 265.721 63.2676 263.911 63.2676C263.027 63.2676 262.183 63.2179 261.377 63.1186C260.571 63.0192 259.809 62.8757 259.091 62.688C258.385 62.4893 257.739 62.2519 257.154 61.9759V58.2331C258.136 58.6636 259.235 59.0556 260.449 59.4089C261.664 59.7512 262.9 59.9223 264.159 59.9223C265.186 59.9223 266.036 59.7898 266.709 59.5248C267.394 59.2488 267.902 58.8624 268.233 58.3655C268.564 57.8577 268.73 57.267 268.73 56.5935C268.73 55.8759 268.537 55.2686 268.15 54.7718C267.764 54.275 267.179 53.8223 266.395 53.4138C265.622 52.9942 264.65 52.5471 263.48 52.0723C262.685 51.7521 261.923 51.3878 261.195 50.9793C260.477 50.5708 259.837 50.0905 259.274 49.5385C258.71 48.9864 258.263 48.335 257.932 47.5843C257.612 46.8225 257.452 45.9282 257.452 44.9014C257.452 43.5323 257.778 42.362 258.429 41.3904C259.091 40.4188 260.019 39.6736 261.211 39.1547C262.415 38.6358 263.817 38.3763 265.418 38.3763C266.687 38.3763 267.88 38.5088 268.995 38.7738C270.121 39.0388 271.225 39.4141 272.307 39.8999L271.048 43.0962C270.055 42.6877 269.089 42.362 268.15 42.1191C267.223 41.8762 266.273 41.7548 265.302 41.7548C264.463 41.7548 263.751 41.8817 263.165 42.1357C262.58 42.3896 262.133 42.7484 261.824 43.2121C261.526 43.6648 261.377 44.2058 261.377 44.8351C261.377 45.5417 261.548 46.1379 261.89 46.6237C262.244 47.0985 262.785 47.5346 263.513 47.9321C264.253 48.3295 265.202 48.7712 266.362 49.2569C267.698 49.809 268.829 50.3886 269.757 50.9959C270.695 51.6031 271.413 52.3318 271.91 53.1819C272.407 54.021 272.655 55.0754 272.655 56.3451ZM302.574 62.9364H298.003L290.468 51.9398L288.083 53.8775V62.9364H284.109V38.7241H288.083V50.3003C288.569 49.7041 289.06 49.1079 289.557 48.5117C290.054 47.9155 290.551 47.3193 291.048 46.7231L297.871 38.7241H302.359L293.317 49.3232L302.574 62.9364ZM312.554 62.9364V38.7241H316.529V62.9364H312.554ZM359.276 56.3451C359.276 57.7804 358.923 59.0169 358.216 60.0548C357.521 61.0926 356.516 61.8875 355.202 62.4396C353.899 62.9916 352.342 63.2676 350.532 63.2676C349.649 63.2676 348.804 63.2179 347.998 63.1186C347.192 63.0192 346.43 62.8757 345.712 62.688C345.006 62.4893 344.36 62.2519 343.775 61.9759V58.2331C344.757 58.6636 345.856 59.0556 347.071 59.4089C348.285 59.7512 349.522 59.9223 350.78 59.9223C351.807 59.9223 352.657 59.7898 353.331 59.5248C354.015 59.2488 354.523 58.8624 354.854 58.3655C355.185 57.8577 355.351 57.267 355.351 56.5935C355.351 55.8759 355.158 55.2686 354.771 54.7718C354.385 54.275 353.8 53.8223 353.016 53.4138C352.243 52.9942 351.272 52.5471 350.101 52.0723C349.306 51.7521 348.544 51.3878 347.816 50.9793C347.098 50.5708 346.458 50.0905 345.895 49.5385C345.332 48.9864 344.884 48.335 344.553 47.5843C344.233 46.8225 344.073 45.9282 344.073 44.9014C344.073 43.5323 344.399 42.362 345.05 41.3904C345.712 40.4188 346.64 39.6736 347.832 39.1547C349.036 38.6358 350.438 38.3763 352.039 38.3763C353.309 38.3763 354.501 38.5088 355.616 38.7738C356.742 39.0388 357.846 39.4141 358.928 39.8999L357.67 43.0962C356.676 42.6877 355.71 42.362 354.771 42.1191C353.844 41.8762 352.894 41.7548 351.923 41.7548C351.084 41.7548 350.372 41.8817 349.787 42.1357C349.201 42.3896 348.754 42.7484 348.445 43.2121C348.147 43.6648 347.998 44.2058 347.998 44.8351C347.998 45.5417 348.169 46.1379 348.511 46.6237C348.865 47.0985 349.406 47.5346 350.134 47.9321C350.874 48.3295 351.824 48.7712 352.983 49.2569C354.319 49.809 355.45 50.3886 356.378 50.9959C357.316 51.6031 358.034 52.3318 358.531 53.1819C359.028 54.021 359.276 55.0754 359.276 56.3451ZM385.734 62.9364L383.366 56.2126H374.108L371.74 62.9364H367.55L376.559 38.6247H380.964L389.957 62.9364H385.734ZM382.339 52.801L380.037 46.1766C379.949 45.8895 379.822 45.4865 379.656 44.9676C379.49 44.4377 379.325 43.9022 379.159 43.3612C378.994 42.8092 378.856 42.3454 378.745 41.9701C378.635 42.4227 378.497 42.9306 378.331 43.4937C378.177 44.0457 378.022 44.5646 377.867 45.0504C377.724 45.5362 377.614 45.9116 377.536 46.1766L375.218 52.801H382.339ZM399.937 38.7241H407.141C410.265 38.7241 412.623 39.1768 414.212 40.0821C415.802 40.9874 416.597 42.5497 416.597 44.7689C416.597 45.6963 416.432 46.5354 416.1 47.2862C415.78 48.0259 415.311 48.6387 414.693 49.1245C414.074 49.5992 413.313 49.9194 412.407 50.085V50.2506C413.346 50.4162 414.179 50.7088 414.908 51.1283C415.648 51.5479 416.227 52.1496 416.647 52.9335C417.078 53.7174 417.293 54.7331 417.293 55.9807C417.293 57.4602 416.94 58.7188 416.233 59.7567C415.537 60.7945 414.538 61.5839 413.235 62.1249C411.944 62.6659 410.409 62.9364 408.631 62.9364H399.937V38.7241ZM403.911 48.7104H407.721C409.52 48.7104 410.768 48.4178 411.463 47.8327C412.159 47.2475 412.507 46.3919 412.507 45.2657C412.507 44.1175 412.093 43.2894 411.265 42.7816C410.448 42.2737 409.145 42.0197 407.356 42.0197H403.911V48.7104ZM403.911 51.9233V59.6076H408.101C409.956 59.6076 411.259 59.2488 412.01 58.5312C412.761 57.8135 413.136 56.8419 413.136 55.6164C413.136 54.8656 412.965 54.2142 412.623 53.6622C412.291 53.1102 411.745 52.6851 410.983 52.387C410.221 52.0778 409.194 51.9233 407.903 51.9233H403.911ZM450.574 50.7971C450.574 52.663 450.337 54.3633 449.862 55.8979C449.398 57.4216 448.697 58.7354 447.759 59.8395C446.82 60.9325 445.644 61.7771 444.231 62.3733C442.818 62.9695 441.162 63.2676 439.263 63.2676C437.331 63.2676 435.652 62.9695 434.228 62.3733C432.815 61.7771 431.639 60.927 430.701 59.8229C429.773 58.7188 429.078 57.3995 428.614 55.8648C428.15 54.3302 427.918 52.6299 427.918 50.764C427.918 48.2688 428.327 46.0938 429.144 44.2389C429.972 42.3731 431.225 40.9267 432.903 39.8999C434.593 38.8621 436.723 38.3432 439.296 38.3432C441.813 38.3432 443.905 38.8566 445.573 39.8834C447.24 40.9102 448.487 42.3565 449.315 44.2224C450.154 46.0772 450.574 48.2688 450.574 50.7971ZM432.092 50.7971C432.092 52.663 432.346 54.2805 432.854 55.6495C433.362 57.0075 434.14 58.0564 435.189 58.7961C436.249 59.5248 437.607 59.8892 439.263 59.8892C440.93 59.8892 442.288 59.5248 443.337 58.7961C444.386 58.0564 445.159 57.0075 445.655 55.6495C446.152 54.2805 446.401 52.663 446.401 50.7971C446.401 47.9597 445.832 45.7405 444.695 44.1396C443.569 42.5276 441.769 41.7216 439.296 41.7216C437.64 41.7216 436.276 42.086 435.205 42.8147C434.145 43.5434 433.362 44.5867 432.854 45.9447C432.346 47.2917 432.092 48.9092 432.092 50.7971ZM469.364 38.7241C471.451 38.7241 473.173 38.978 474.531 39.4859C475.9 39.9938 476.916 40.7666 477.579 41.8045C478.252 42.8423 478.589 44.1616 478.589 45.7626C478.589 46.955 478.368 47.9707 477.926 48.8098C477.485 49.6489 476.905 50.3445 476.187 50.8965C475.47 51.4485 474.702 51.8902 473.885 52.2214L480.758 62.9364H476.27L470.424 53.2316H466.532V62.9364H462.558V38.7241H469.364ZM469.099 42.0363H466.532V49.9525H469.281C471.125 49.9525 472.461 49.6102 473.289 48.9257C474.128 48.2412 474.548 47.231 474.548 45.895C474.548 44.4929 474.101 43.4992 473.206 42.914C472.323 42.3289 470.954 42.0363 469.099 42.0363Z" fill="#828282"/>
</svg>
