<svg width="500" height="100" viewBox="0 0 500 100" fill="none" xmlns="http://www.w3.org/2000/svg">
<path d="M389.111 79.7123H203.913L237.699 23.184H423L389.111 79.7123ZM328.286 73.8158C328.874 74.1616 332.359 76.7952 332.624 76.6068V76.6107L354.926 41.2133C355.051 40.6646 351.599 39.1087 351.085 38.5902L328.286 73.8158ZM313.351 25.8715C313.195 25.7116 310.629 26.2251 310.136 26.2856C309.501 26.3632 308.521 26.0832 308.063 26.4936L298.331 45.3266H295.339V29.0727C295.339 28.8867 292.69 26.6709 292.431 26.7875L272.229 45.0629C267.684 43.2181 262.845 41.3855 258.071 40.2104C255.815 39.6574 249.755 39.1004 248.38 37.8822C244.717 34.6421 252.133 32.0759 254.346 31.4018C259.591 29.8032 265.692 29.3533 271.166 30.0316C276.64 30.71 276.64 33.2676 271.503 34.6674C269.313 35.2636 263.834 35.6057 262.369 36.932C261.449 37.7659 261.091 39.3381 262.68 39.5414C266.257 39.9994 273.236 38.4002 276.485 36.7455C281.116 34.3908 281.241 30.1012 276.471 27.8373C269.752 24.6489 248.924 26.9166 243.825 32.9047C240.555 36.7456 243.264 41.0704 247.619 42.1635C251.223 43.0708 255.055 43.1492 258.853 44.1947C259.808 44.4627 263.008 45.3653 263.687 45.7455C263.903 45.8665 263.877 46.3157 263.825 46.3676C263.683 46.5144 261.312 45.9792 260.827 45.9486C252.562 45.4215 237.306 46.8345 230.592 51.9975C228.039 53.9591 226.51 58.2702 229.556 60.4174C232.831 62.7286 243.691 62.9622 247.757 62.7289C249.502 62.6295 251.434 62.2882 253.145 61.9037C253.266 62.0549 253.517 62.1114 253.357 62.3188C253.114 62.6386 251.508 63.4551 251.599 63.8568C252.657 64.5267 253.94 66.734 254.795 67.3002C254.985 67.4298 255.124 67.568 255.383 67.4731L266.409 57.7602C269.265 56.6454 272.929 54.6669 274.359 51.8285C274.574 51.4015 274.54 50.7243 274.596 50.7221H289.312V68.3236L295.088 67.0541L295.482 64.0297L309.104 37.057C310.357 44.0043 311.446 51.163 314.418 57.6264C315.563 60.1235 318.259 66.1203 321.646 63.6107C326.675 54.8705 331.57 46.0346 336.875 37.4672H340.915L320.838 68.6693C320.743 69.2828 324.204 71.3315 324.645 72.0443L346.822 37.6752H359.152V33.5316L339.256 33.3236L341.948 28.4721L337.602 26.0785C336.902 27.0678 333.645 33.1371 333.039 33.432C331.903 33.985 329.181 33.0953 327.855 33.3285V37.4721C328.378 37.5755 330.87 37.1263 330.74 37.9643L320.186 56.3129C318.341 53.8373 317.265 50.4499 316.518 47.4516C314.794 40.5217 314.124 32.9655 313.351 25.8715ZM385.165 62.7377C386.6 63.4679 387.935 64.6867 389.309 65.4428C389.486 65.5422 389.615 65.7572 389.844 65.5414L412.013 29.6088H412.017L407.048 26.9125L385.165 62.7377ZM345.897 62.4262C345.901 62.7286 350.386 64.3536 351.081 64.5092L367.862 37.683C369.058 44.5785 370.641 51.8718 373.099 58.4389C373.997 60.8324 375.38 65.0357 378.546 64.6127L401.216 28.6703C401.211 28.4301 397.66 26.1392 397.288 25.9838C397.103 25.906 396.896 25.7896 396.701 25.9018L378.439 55.0727C375.345 45.4382 372.847 35.4836 373.046 25.2572H368.795L345.897 62.4262ZM242.422 51.1977C249.87 49.2363 257.781 49.6169 265.264 51.142V51.1371C265.359 51.4957 265.117 51.5519 264.957 51.7592C264.374 52.5196 261.488 55.22 260.693 55.7816C258.359 57.4406 248.837 58.4521 245.688 58.599C243.294 58.7113 237.785 58.6548 235.625 57.8686C234.55 57.4753 233.604 56.343 234.204 55.2025C235.056 53.5867 240.586 51.6815 242.422 51.1977ZM296.562 50.519L295.322 52.7924L295.529 50.515L296.562 50.519ZM289.312 45.5463H280.399L289.312 37.4721V45.5463Z" fill="#828282"/>
<path d="M157.624 3.25773C176.288 -1.41696 194.737 7.34074 205.192 22.8251H233.076L198.016 79.3202L178.298 79.3974C166.408 93.1018 149.212 102.171 130.733 96.8007C119.863 93.6425 111.331 85.9257 104.673 77.0732H77L111.335 20.1689L133.23 20.1386C139.059 11.9168 147.782 5.72473 157.624 3.25773ZM203.227 25.7245C190.451 4.41605 161.724 -2.55724 142.286 14.6425C139.409 17.1915 137.167 20.2896 134.683 23.1972L113.201 23.2704L92.873 56.7978L82.5947 74.1747H106.534C116.285 88.3285 131.243 98.3993 149.169 94.6103C160.471 92.2211 169.298 84.8023 176.842 76.4941L195.973 76.3476L227.478 25.7245H203.227ZM162.48 49.1415C169.272 58.0935 167.388 71.1112 158.972 78.3134C149.259 86.63 135.084 85.913 125.203 78.3134C124.555 77.8122 119.998 73.994 119.919 73.6474C119.763 72.9907 130.111 67.2536 131.209 66.3114C134.091 68.1432 136.713 70.195 140.178 70.8085C147.246 72.0614 153.351 67.6933 152.66 60.206C152.457 57.9941 150.992 57.0782 150.392 55.1386H150.383L162.48 49.1415ZM139.958 56.0068C149.433 54.5164 149.575 67.5894 140.347 66.4921C133.849 65.7187 133.797 56.9745 139.958 56.0068ZM165.047 15.0224C171.437 14.4824 177.93 16.1335 183.184 19.7626C185.685 21.4907 187.798 23.724 190.161 25.6249L178.66 32.9091C174.202 29.7208 169.497 26.9777 163.794 28.6884C158.856 30.1703 156.25 35.3202 157.469 40.2714C157.706 41.2262 159.555 44.1989 159.184 44.7821L147.169 50.7704C143.557 44.6744 142.208 37.8782 144.295 30.957C147 21.979 155.84 15.8049 165.038 15.0273L165.047 15.0224ZM168.546 32.6376C176.254 32.5469 176.587 42.9676 168.931 43.3349C161.007 43.7107 160.454 32.7372 168.546 32.6376Z" fill="#828282"/>
</svg>
