<svg width="500" height="100" viewBox="0 0 500 100" fill="none" xmlns="http://www.w3.org/2000/svg">
<path d="M118.702 5.71306H91.7225V32.6928H118.702V5.71306Z" fill="#828282"/>
<path d="M149.101 5.71304H122.122V32.6928H149.101V5.71304Z" fill="#828282"/>
<path d="M102.075 72.1921C105.42 72.2957 112.193 76.0073 112.099 79.3515C111.995 82.6957 107.257 87.2457 103.912 87.1515C100.568 87.0479 98.5616 82.837 98.6558 79.5022C98.7594 76.158 98.7312 72.0979 102.075 72.2015V72.1921Z" fill="#828282"/>
<path d="M92.4949 67.2935H117.93V92.7378H92.4949V67.2935ZM118.702 66.5305H91.7225V93.5102H118.702V66.5305Z" fill="#828282"/>
<path d="M149.101 66.5305H122.122V93.5102H149.101V66.5305Z" fill="#828282"/>
<path d="M179.51 66.5305H152.531V93.5102H179.51V66.5305Z" fill="#828282"/>
<path d="M153.303 6.49494H178.747V31.9297H153.303V6.49494ZM179.51 5.72247H152.531V32.7022H179.51V5.72247Z" fill="#828282"/>
<path d="M167.48 26.8051C164.174 26.2964 157.909 21.7652 158.428 18.4681C158.946 15.1616 164.212 11.2333 167.518 11.742C170.825 12.2507 172.294 16.6782 171.786 19.9848C171.277 23.2913 170.796 27.3232 167.49 26.8051H167.48Z" fill="#828282"/>
<path d="M118.702 36.1217H91.7225V63.1015H118.702V36.1217Z" fill="#828282"/>
<path d="M179.51 36.1217H152.531V63.1015H179.51V36.1217Z" fill="#828282"/>
<path d="M122.894 36.8942H148.338V62.3384H122.894V36.8942ZM149.101 36.1217H122.122V63.1015H149.101V36.1217Z" fill="#828282"/>
<path d="M142.78 46.4935C142.78 49.8377 139.276 56.724 135.932 56.724C132.588 56.724 127.896 52.1174 127.896 48.7732C127.896 45.429 132.041 43.2906 135.386 43.2906C138.73 43.2906 142.78 43.1399 142.78 46.4841V46.4935Z" fill="#828282"/>
<path d="M191.888 31.0725C191.945 30.5072 192.001 29.8196 192.058 29.0283C192.105 28.2275 192.133 27.408 192.133 26.5696C192.133 25.9196 192.133 25.213 192.152 24.4594C192.162 23.7058 192.18 22.8014 192.199 21.7369C192.218 20.6819 192.218 19.8906 192.218 19.363V17.8087C192.218 17.6203 192.209 17.3 192.19 16.8572C192.171 16.4051 192.162 16.1601 192.162 16.1036H192.878C194.394 18.0253 195.949 19.9188 197.531 21.8029C199.114 23.6775 200.734 25.5427 202.383 27.3985V21.5391C202.383 21.2942 202.383 21.021 202.364 20.7101C202.326 19.9377 202.317 19.429 202.317 19.1746C202.317 18.892 202.298 18.5623 202.27 18.1855C202.194 17.2717 202.157 16.6782 202.157 16.3768L202.552 16.4333H202.957H203.362L203.73 16.3862C203.645 17.0739 203.588 17.771 203.541 18.5058C203.494 19.2311 203.475 19.9188 203.475 20.5877C203.475 21.2565 203.475 21.9913 203.457 22.7732C203.447 23.5645 203.428 24.4971 203.409 25.5898C203.391 26.6826 203.391 27.5116 203.391 28.0674V29.358L203.447 31.308H202.797C202.345 30.6674 201.836 29.9891 201.271 29.2826C200.706 28.5761 199.962 27.6812 199.029 26.6167L193.273 19.9753V25.8159C193.273 26.1645 193.283 26.6449 193.301 27.2667C193.32 27.8884 193.33 28.3406 193.33 28.6326C193.33 29.113 193.358 29.6406 193.415 30.1964C193.424 30.3471 193.462 30.6485 193.518 31.0913L193.085 31.0159L192.689 30.9877L192.312 31.0159C192.256 31.0159 192.199 31.0159 192.133 31.0348C192.067 31.0442 191.983 31.063 191.888 31.0913V31.0725Z" fill="#828282" stroke="#828282" stroke-width="0.235507" stroke-miterlimit="10"/>
<path d="M210.672 24.384L211.709 24.4405H213.64C213.913 24.4405 214.205 24.4123 214.535 24.3557L212.622 19.0427L210.663 24.384H210.672ZM206.848 31.0536C207.149 30.3282 207.46 29.5557 207.79 28.7456C208.025 28.1615 208.336 27.3702 208.741 26.3717C209.316 24.921 209.636 24.1202 209.712 23.9412C209.891 23.4797 210.22 22.6412 210.691 21.4354C210.927 20.8231 211.266 19.9565 211.699 18.826C212.048 17.9217 212.396 17.0173 212.745 16.113L212.999 16.1695H213.225H213.461C213.555 16.1507 213.63 16.1412 213.687 16.113C213.932 16.8101 214.224 17.6391 214.572 18.5905C214.912 19.542 215.222 20.3992 215.505 21.1623C215.778 21.9253 216.089 22.7449 216.428 23.621C217.361 26.0985 218.312 28.576 219.301 31.0441L218.604 30.9782L217.992 30.9499L217.389 30.9876L216.758 31.0536C216.457 29.942 216.165 28.9528 215.891 28.0956C215.618 27.2289 215.317 26.3623 214.996 25.4768L213.894 25.4202H211.539C211.341 25.4202 211.125 25.4202 210.917 25.4297C210.701 25.4297 210.484 25.4485 210.249 25.4768L209.486 27.7847C209.41 28.0391 209.354 28.2275 209.307 28.3499C209.203 28.6891 209.109 29.0282 209.005 29.3673L208.581 31.063L208.148 30.9876L207.733 30.9594L207.328 30.9876C207.272 30.9876 207.206 30.9876 207.14 31.0065C207.074 31.0159 206.98 31.0347 206.876 31.063L206.848 31.0536Z" fill="#828282" stroke="#828282" stroke-width="0.235507" stroke-miterlimit="10"/>
<path d="M222.128 27.8318L222.307 27.7847C222.589 28.6043 223.022 29.2355 223.597 29.6688C224.172 30.1116 224.85 30.3282 225.641 30.3282C226.536 30.3282 227.243 30.0645 227.77 29.5369C228.298 29.0094 228.562 28.3029 228.562 27.4362C228.562 26.7203 228.383 26.155 228.015 25.7217C227.648 25.2884 226.838 24.7985 225.575 24.2427C224.191 23.6681 223.258 23.084 222.768 22.5C222.278 21.9159 222.033 21.1434 222.033 20.2014C222.033 18.9202 222.42 17.9123 223.183 17.1775C223.946 16.4427 225.001 16.0753 226.348 16.0753C227.535 16.0753 228.646 16.3768 229.683 16.9891C229.607 17.1775 229.541 17.3565 229.475 17.5166C229.419 17.6768 229.362 17.8463 229.306 18.0253C229.259 18.2043 229.212 18.3833 229.174 18.5434C229.165 18.5905 229.127 18.7789 229.061 19.0992H228.863C228.741 18.4021 228.449 17.8558 227.978 17.4789C227.507 17.0927 226.904 16.9043 226.141 16.9043C225.378 16.9043 224.784 17.1398 224.332 17.6014C223.87 18.063 223.644 18.6753 223.644 19.4195C223.644 20.0601 223.833 20.5876 224.219 20.9927C224.605 21.3978 225.378 21.8311 226.517 22.2927C228.015 22.8862 229.023 23.4891 229.522 24.1014C230.031 24.7137 230.286 25.5145 230.286 26.513C230.286 27.9072 229.824 29.0565 228.901 29.9703C227.978 30.884 226.8 31.3456 225.378 31.3456C224.643 31.3456 223.965 31.242 223.343 31.0348C223.041 30.9311 222.768 30.7992 222.504 30.6485C222.241 30.4978 221.996 30.3094 221.77 30.1021C221.826 29.9043 221.873 29.7253 221.901 29.5652C221.901 29.5463 221.949 29.3485 222.015 28.9905C222.043 28.8021 222.071 28.6137 222.099 28.4253C222.118 28.2181 222.137 28.0108 222.137 27.8318H222.128Z" fill="#828282" stroke="#828282" stroke-width="0.235507" stroke-miterlimit="10"/>
<path d="M237.379 17.5638H236.173C235.938 17.5638 235.759 17.5638 235.655 17.5732C235.551 17.5732 235.344 17.6014 235.033 17.6485C234.76 17.6485 234.449 17.6768 234.082 17.7522C233.715 17.8181 233.451 17.8652 233.281 17.8935L233.347 17.5167L233.366 17.121L233.338 16.7348L233.281 16.3862L235.9 16.4898L238.387 16.5181L241.025 16.4898C241.288 16.4898 241.599 16.4804 241.948 16.4616C242.767 16.4145 243.276 16.3862 243.493 16.3862L243.427 16.8666V17.1587C243.417 17.3 243.427 17.413 243.427 17.4978L243.483 17.884C242.843 17.7898 242.249 17.7051 241.694 17.6485C241.439 17.6203 241.222 17.6014 241.034 17.592C240.846 17.5732 240.667 17.5732 240.488 17.5732H239.376L239.301 18.9862V20.0319C239.301 21.1811 239.301 22.1138 239.301 22.8109C239.301 23.508 239.31 24.3181 239.32 25.2507C239.329 26.1739 239.329 26.7674 239.329 27.0217C239.329 27.8601 239.348 28.6043 239.386 29.2543C239.423 29.8949 239.47 30.5072 239.527 31.063L239.009 30.9877L238.378 30.9594L237.746 30.9877C237.68 30.9877 237.605 30.9877 237.53 31.0065C237.454 31.0159 237.351 31.0348 237.219 31.063C237.266 30.5072 237.313 29.9138 237.36 29.2732C237.407 28.6326 237.426 28.0014 237.426 27.3891C237.426 26.6072 237.426 25.9855 237.426 25.5427C237.445 23.3007 237.454 22.0101 237.454 21.6804V19.2782C237.454 19.071 237.454 18.8543 237.436 18.6282C237.398 18.0536 237.388 17.7051 237.388 17.5826L237.379 17.5638Z" fill="#828282" stroke="#828282" stroke-width="0.235507" stroke-miterlimit="10"/>
<path d="M248.052 24.384L249.088 24.4405H251.02C251.293 24.4405 251.585 24.4123 251.915 24.3557L250.002 19.0427L248.043 24.384H248.052ZM244.228 31.0536C244.529 30.3282 244.84 29.5557 245.17 28.7456C245.405 28.1615 245.716 27.3702 246.121 26.3717C246.696 24.921 247.016 24.1202 247.091 23.9412C247.27 23.4797 247.6 22.6412 248.071 21.4354C248.307 20.8231 248.646 19.9565 249.079 18.826C249.428 17.9217 249.776 17.0173 250.125 16.113L250.379 16.1695H250.605H250.841C250.935 16.1507 251.01 16.1412 251.067 16.113C251.312 16.8101 251.604 17.6391 251.952 18.5905C252.291 19.542 252.602 20.3992 252.885 21.1623C253.158 21.9253 253.469 22.7449 253.808 23.621C254.741 26.0985 255.692 28.576 256.681 31.0441L255.984 30.9782L255.372 30.9499L254.769 30.9876L254.138 31.0536C253.836 29.942 253.544 28.9528 253.271 28.0956C252.998 27.2289 252.696 26.3623 252.376 25.4768L251.274 25.4202H248.919C248.721 25.4202 248.514 25.4202 248.297 25.4297C248.08 25.4297 247.864 25.4485 247.638 25.4768L246.875 27.7847C246.799 28.0391 246.743 28.2275 246.696 28.3499C246.592 28.6891 246.498 29.0282 246.394 29.3673L245.97 31.063L245.537 30.9876L245.123 30.9594L244.717 30.9876C244.661 30.9876 244.595 30.9876 244.529 31.0065C244.463 31.0159 244.378 31.0347 244.265 31.063L244.228 31.0536Z" fill="#828282" stroke="#828282" stroke-width="0.235507" stroke-miterlimit="10"/>
<path d="M263.03 31.0536C262.87 30.4036 262.644 29.6217 262.343 28.7174C262.041 27.8036 261.655 26.692 261.184 25.3826C260.261 22.8485 259.102 19.8435 257.699 16.3862L258.311 16.4522L258.97 16.471H259.423C259.517 16.4522 259.583 16.4522 259.63 16.4522L260.223 16.3862C260.572 17.6862 261.146 19.4855 261.947 21.8029L262.173 22.4529L264.293 28.642L266.224 23.1594C266.733 21.7275 267.147 20.4746 267.477 19.3819C267.609 18.9391 267.722 18.5435 267.825 18.1949C267.957 17.7145 268.117 17.1116 268.306 16.3862H268.353L269.21 16.471H269.559L270.105 16.3862C268.909 19.1464 267.844 21.7652 266.921 24.2333C265.988 26.7014 265.216 28.9812 264.575 31.0536L264.189 30.9877L263.822 30.95L263.445 30.9783C263.388 30.9783 263.313 30.9971 263.209 31.0159C263.115 31.0442 263.059 31.0536 263.04 31.0536H263.03Z" fill="#828282" stroke="#828282" stroke-width="0.235507" stroke-miterlimit="10"/>
<path d="M273.459 31.0725C273.515 30.5072 273.572 29.8196 273.628 29.0283C273.675 28.2275 273.704 27.408 273.704 26.5696C273.704 25.9196 273.704 25.213 273.723 24.4594C273.732 23.7058 273.751 22.8014 273.77 21.7369C273.788 20.6819 273.788 19.8906 273.788 19.363V17.8087C273.788 17.6203 273.779 17.3 273.76 16.8572C273.741 16.4051 273.732 16.1601 273.732 16.1036H274.448C275.965 18.0253 277.519 19.9188 279.092 21.8029C280.675 23.6775 282.295 25.5427 283.944 27.3985V21.5391C283.944 21.2942 283.944 21.021 283.925 20.7101C283.887 19.9377 283.878 19.429 283.878 19.1746C283.878 18.892 283.859 18.5623 283.83 18.1855C283.755 17.2717 283.717 16.6782 283.717 16.3768L284.113 16.4333H284.518H284.923L285.291 16.3862C285.206 17.0739 285.149 17.771 285.102 18.5058C285.055 19.2311 285.036 19.9188 285.036 20.5877C285.036 21.2565 285.036 21.9913 285.017 22.7732C285.008 23.5645 284.989 24.4971 284.97 25.5898C284.952 26.6826 284.952 27.5116 284.952 28.0674V29.358L285.008 31.308H284.358C283.906 30.6674 283.397 29.9891 282.832 29.2826C282.267 28.5761 281.523 27.6812 280.59 26.6167L274.834 19.9753V25.8159C274.834 26.1645 274.844 26.6449 274.862 27.2667C274.881 27.8884 274.891 28.3406 274.891 28.6326C274.891 29.113 274.919 29.6406 274.975 30.1964C274.985 30.3471 275.023 30.6485 275.079 31.0913L274.646 31.0159L274.25 30.9877L273.873 31.0159C273.817 31.0159 273.76 31.0159 273.694 31.0348C273.628 31.0442 273.544 31.063 273.449 31.0913L273.459 31.0725Z" fill="#828282" stroke="#828282" stroke-width="0.235507" stroke-miterlimit="10"/>
<path d="M290.293 31.0536C290.293 30.771 290.331 30.0645 290.406 28.9435C290.444 28.3877 290.462 27.9355 290.462 27.5869C290.462 27.1725 290.472 26.513 290.5 25.6369C290.519 24.7514 290.538 24.1203 290.538 23.734C290.538 23.1123 290.528 22.321 290.5 21.3696C290.481 20.4181 290.462 19.8435 290.462 19.6551C290.462 19.1369 290.444 18.5717 290.406 17.95C290.396 17.7145 290.359 17.1964 290.293 16.3956L290.896 16.471L291.47 16.4898H291.847C291.932 16.471 291.989 16.471 292.026 16.471L292.648 16.3862C292.591 17.1022 292.554 17.5826 292.535 17.8181C292.497 18.4022 292.478 18.9485 292.478 19.4572C292.478 20.0507 292.478 20.5123 292.469 20.8514C292.431 22.5471 292.422 23.508 292.422 23.734C292.422 24.2616 292.431 24.9869 292.45 25.8819C292.469 26.7862 292.478 27.4174 292.478 27.7942C292.478 28.3029 292.497 28.8681 292.535 29.4899C292.544 29.7254 292.582 30.2435 292.648 31.0536L292.111 30.9783L291.461 30.95L290.802 30.9783C290.726 30.9783 290.641 30.9783 290.557 30.9971C290.472 31.0065 290.378 31.0254 290.283 31.0536H290.293Z" fill="#828282" stroke="#828282" stroke-width="0.235507" stroke-miterlimit="10"/>
<path d="M301.757 31.0536V30.4978C302.313 29.7159 302.812 29 303.265 28.35C303.707 27.7 304.197 26.984 304.734 26.2021C305.186 25.5427 305.667 24.8173 306.185 24.0449C306.505 23.5644 306.967 22.8485 307.588 21.897C308.173 21.0021 308.634 20.2862 308.973 19.7492C309.369 19.1369 309.821 18.421 310.33 17.6014H307.946C307.391 17.6014 306.741 17.6108 305.978 17.6391C305.224 17.6673 304.791 17.6768 304.706 17.6768C304.32 17.6768 303.933 17.705 303.547 17.7521C303.312 17.7804 302.973 17.8369 302.511 17.9311L302.567 17.5637L302.586 17.1586V16.876C302.577 16.8195 302.567 16.7724 302.567 16.7441C302.567 16.6311 302.549 16.5181 302.52 16.405C302.699 16.405 303.02 16.4239 303.491 16.471C303.952 16.5181 304.329 16.5369 304.621 16.5369C305.252 16.5369 305.817 16.5369 306.326 16.5463C306.835 16.5463 307.315 16.5557 307.777 16.5652C308.465 16.5652 309.067 16.5652 309.586 16.5557C310.104 16.5557 310.603 16.5463 311.093 16.5369C311.536 16.5369 311.875 16.5369 312.11 16.5181C312.346 16.4992 312.741 16.471 313.316 16.4144V16.8854C312.591 17.8934 311.799 18.9956 310.952 20.2014C310.198 21.2753 309.454 22.3586 308.719 23.442C307.984 24.5253 307.278 25.5992 306.59 26.6637C305.931 27.6905 305.262 28.755 304.583 29.8384H307.852C308.154 29.8384 308.436 29.8384 308.7 29.8195C309.614 29.7724 310.151 29.7442 310.311 29.7442C310.782 29.7442 311.328 29.6971 311.959 29.6217C312.591 29.5369 313.043 29.4804 313.316 29.4521L313.26 29.8289L313.241 30.2528V30.4695C313.241 30.5355 313.241 30.6108 313.26 30.705L313.316 31.0913C313.033 31.063 312.694 31.0347 312.308 31.0159C311.912 30.9876 311.545 30.9782 311.196 30.9782C310.452 30.9782 309.689 30.9782 308.898 30.9688C308.107 30.9688 307.344 30.95 306.618 30.95C305.883 30.95 305.28 30.95 304.8 30.9594C304.32 30.9594 303.877 30.9688 303.453 30.9782C303.133 30.9782 302.86 30.9782 302.615 31.0065C302.37 31.0253 302.096 31.0536 301.776 31.1007L301.757 31.0536Z" fill="#828282" stroke="#828282" stroke-width="0.235507" stroke-miterlimit="10"/>
<path d="M319.175 24.384L320.212 24.4405H322.143C322.416 24.4405 322.708 24.4123 323.038 24.3557L321.125 19.0427L319.166 24.384H319.175ZM315.341 31.0536C315.643 30.3282 315.954 29.5557 316.283 28.7456C316.519 28.1615 316.83 27.3702 317.235 26.3717C317.81 24.921 318.13 24.1202 318.205 23.9412C318.384 23.4797 318.714 22.6412 319.185 21.4354C319.42 20.8231 319.76 19.9565 320.193 18.826C320.541 17.9217 320.89 17.0173 321.239 16.113L321.493 16.1695H321.719H321.954C322.049 16.1507 322.124 16.1412 322.181 16.113C322.425 16.8101 322.718 17.6391 323.066 18.5905C323.405 19.542 323.716 20.3992 323.999 21.1623C324.272 21.9253 324.583 22.7449 324.922 23.621C325.854 26.0985 326.806 28.576 327.795 31.0441L327.098 30.9782L326.486 30.9499L325.883 30.9876L325.252 31.0536C324.95 29.942 324.658 28.9528 324.385 28.0956C324.112 27.2289 323.81 26.3623 323.49 25.4768L322.388 25.4202H320.033C319.835 25.4202 319.628 25.4202 319.411 25.4297C319.194 25.4297 318.978 25.4485 318.742 25.4768L317.979 27.7847C317.904 28.0391 317.847 28.2275 317.8 28.3499C317.696 28.6891 317.602 29.0282 317.499 29.3673L317.075 31.063L316.641 30.9876L316.227 30.9594L315.822 30.9876C315.765 30.9876 315.699 30.9876 315.633 31.0065C315.567 31.0159 315.483 31.0347 315.37 31.063L315.341 31.0536Z" fill="#828282" stroke="#828282" stroke-width="0.235507" stroke-miterlimit="10"/>
<path d="M334.144 31.0536C333.984 30.4036 333.758 29.6217 333.457 28.7174C333.155 27.8036 332.769 26.692 332.298 25.3826C331.375 22.8485 330.216 19.8435 328.812 16.3862L329.425 16.4522L330.084 16.471H330.536C330.631 16.4522 330.696 16.4522 330.744 16.4522L331.337 16.3862C331.686 17.6862 332.26 19.4855 333.061 21.8029L333.287 22.4529L335.407 28.642L337.338 23.1594C337.846 21.7275 338.261 20.4746 338.591 19.3819C338.723 18.9391 338.836 18.5435 338.939 18.1949C339.071 17.7145 339.231 17.1116 339.42 16.3862H339.467L340.324 16.471H340.673L341.219 16.3862C340.023 19.1464 338.958 21.7652 338.035 24.2333C337.102 26.7014 336.33 28.9812 335.689 31.0536L335.303 30.9877L334.936 30.95L334.559 30.9783C334.502 30.9783 334.427 30.9971 334.323 31.0159C334.229 31.0442 334.173 31.0536 334.154 31.0536H334.144Z" fill="#828282" stroke="#828282" stroke-width="0.235507" stroke-miterlimit="10"/>
<path d="M351.28 17.0551C349.641 17.0551 348.369 17.6297 347.474 18.7695C346.57 19.9094 346.118 21.5297 346.118 23.621C346.118 25.8254 346.56 27.5022 347.446 28.6609C348.331 29.8196 349.612 30.3942 351.28 30.3942C352.947 30.3942 354.2 29.8196 355.095 28.6703C355.99 27.521 356.433 25.8725 356.433 23.734C356.433 21.5956 355.99 19.9565 355.095 18.7978C354.2 17.6391 352.928 17.0551 351.28 17.0551ZM351.299 31.3362C349.019 31.3362 347.21 30.658 345.882 29.292C344.554 27.9355 343.894 26.0797 343.894 23.7246C343.894 21.3696 344.554 19.5043 345.873 18.1478C347.191 16.7819 348.991 16.1036 351.28 16.1036C353.569 16.1036 355.425 16.7724 356.715 18.1101C358.006 19.4478 358.656 21.3225 358.656 23.734C358.656 26.1456 358.006 27.9638 356.715 29.3109C355.415 30.658 353.616 31.3362 351.289 31.3362H351.299Z" fill="#828282" stroke="#828282" stroke-width="0.235507" stroke-miterlimit="10"/>
<path d="M362.952 31.0536C362.952 30.7427 362.97 30.3376 363.018 29.8478C363.102 28.7833 363.149 28.0579 363.149 27.6717C363.149 27.2572 363.159 26.5884 363.178 25.684C363.197 24.7797 363.206 24.1297 363.206 23.734C363.206 23.1782 363.197 22.434 363.178 21.5202C363.159 20.6065 363.149 19.9659 363.149 19.5985C363.149 19.0615 363.131 18.5528 363.102 18.0913C363.065 17.6202 363.027 17.055 362.952 16.3862L363.762 16.4333H364.515C364.939 16.4239 365.288 16.405 365.589 16.3862C365.891 16.3673 366.211 16.3673 366.56 16.3673L368.736 16.292C371.025 16.292 372.777 16.8949 373.973 18.1101C375.17 19.3253 375.773 21.1057 375.773 23.442C375.773 25.7782 375.085 27.7094 373.719 29.0471C372.353 30.3847 370.431 31.0442 367.973 31.0442C367.831 31.0442 367.558 31.0442 367.153 31.0159C366.739 30.9971 366.447 30.9876 366.249 30.9876L364.487 30.9405L363.752 30.9688C363.649 30.9688 363.526 30.9688 363.394 30.9876C363.262 30.9971 363.112 31.0159 362.933 31.0442L362.952 31.0536ZM365.175 29.8855C365.373 29.9231 365.58 29.9514 365.787 29.9797C365.994 30.0079 366.183 30.0268 366.352 30.0268L367.304 30.0739C369.386 30.0739 370.949 29.5275 372.014 28.4347C373.069 27.342 373.597 25.7029 373.597 23.5173C373.597 21.4637 373.088 19.9094 372.08 18.8637C371.072 17.8181 369.574 17.2905 367.586 17.2905L366.39 17.3188C366.202 17.3188 366.004 17.3188 365.825 17.3376C365.636 17.3565 365.429 17.3753 365.184 17.3942L365.137 20.55L365.09 23.734V25.9101C365.09 26.0608 365.109 26.6637 365.137 27.7C365.175 28.7362 365.184 29.471 365.184 29.8855H365.175Z" fill="#828282" stroke="#828282" stroke-width="0.235507" stroke-miterlimit="10"/>
<path d="M384.015 31.0536V30.4978C384.571 29.7159 385.07 29 385.523 28.35C385.965 27.7 386.455 26.984 386.992 26.2021C387.444 25.5427 387.925 24.8173 388.443 24.0449C388.763 23.5644 389.225 22.8485 389.847 21.897C390.431 21.0021 390.892 20.2862 391.231 19.7492C391.627 19.1369 392.079 18.421 392.588 17.6014H390.205C389.649 17.6014 388.999 17.6108 388.236 17.6391C387.482 17.6673 387.049 17.6768 386.964 17.6768C386.578 17.6768 386.191 17.705 385.815 17.7521C385.579 17.7804 385.24 17.8369 384.778 17.9311L384.835 17.5637L384.854 17.1586V16.876C384.844 16.8195 384.835 16.7724 384.835 16.7441C384.835 16.6311 384.816 16.5181 384.788 16.405C384.967 16.405 385.287 16.4239 385.758 16.471C386.22 16.5181 386.597 16.5369 386.889 16.5369C387.52 16.5369 388.085 16.5369 388.594 16.5463C389.102 16.5463 389.583 16.5557 390.044 16.5652C390.732 16.5652 391.335 16.5652 391.853 16.5557C392.371 16.5557 392.87 16.5463 393.36 16.5369C393.803 16.5369 394.142 16.5369 394.378 16.5181C394.613 16.4992 395.009 16.471 395.584 16.4144V16.8854C394.858 17.8934 394.067 18.9956 393.219 20.2014C392.465 21.2753 391.721 22.3586 390.986 23.442C390.252 24.5253 389.545 25.5992 388.857 26.6637C388.198 27.6905 387.529 28.755 386.851 29.8384H390.129C390.431 29.8384 390.704 29.8384 390.968 29.8195C391.881 29.7724 392.418 29.7442 392.578 29.7442C393.049 29.7442 393.596 29.6971 394.227 29.6217C394.858 29.5369 395.31 29.4804 395.584 29.4521L395.527 29.8289L395.508 30.2528V30.4695C395.508 30.5355 395.508 30.6108 395.527 30.705L395.584 31.0913C395.301 31.063 394.962 31.0347 394.576 31.0159C394.189 30.9876 393.812 30.9782 393.464 30.9782C392.72 30.9782 391.957 30.9782 391.165 30.9688C390.374 30.9688 389.611 30.95 388.886 30.95C388.151 30.95 387.548 30.95 387.068 30.9594C386.587 30.9594 386.144 30.9688 385.72 30.9782C385.4 30.9782 385.127 30.9782 384.882 31.0065C384.637 31.0253 384.364 31.0536 384.044 31.1007L384.015 31.0536Z" fill="#828282" stroke="#828282" stroke-width="0.235507" stroke-miterlimit="10"/>
<path d="M401.434 24.384L402.47 24.4405H404.401C404.674 24.4405 404.966 24.4123 405.296 24.3557L403.384 19.0427L401.424 24.384H401.434ZM397.609 31.0536C397.91 30.3282 398.221 29.5557 398.551 28.7456C398.786 28.1615 399.097 27.3702 399.502 26.3717C400.077 24.921 400.397 24.1202 400.473 23.9412C400.652 23.4797 400.981 22.6412 401.452 21.4354C401.688 20.8231 402.027 19.9565 402.46 18.826C402.809 17.9217 403.157 17.0173 403.506 16.113L403.76 16.1695H403.986H404.222C404.316 16.1507 404.391 16.1412 404.448 16.113C404.693 16.8101 404.985 17.6391 405.334 18.5905C405.673 19.542 405.984 20.3992 406.266 21.1623C406.539 21.9253 406.85 22.7449 407.189 23.621C408.122 26.0985 409.073 28.576 410.063 31.0441L409.365 30.9782L408.753 30.9499L408.15 30.9876L407.519 31.0536C407.218 29.942 406.926 28.9528 406.652 28.0956C406.379 27.2289 406.078 26.3623 405.757 25.4768L404.655 25.4202H402.3C402.102 25.4202 401.886 25.4202 401.678 25.4297C401.462 25.4297 401.245 25.4485 401.01 25.4768L400.247 27.7847C400.171 28.0391 400.115 28.2275 400.068 28.3499C399.964 28.6891 399.87 29.0282 399.766 29.3673L399.342 31.063L398.909 30.9876L398.494 30.9594L398.089 30.9876C398.033 30.9876 397.967 30.9876 397.901 31.0065C397.835 31.0159 397.741 31.0347 397.637 31.063L397.609 31.0536Z" fill="#828282" stroke="#828282" stroke-width="0.235507" stroke-miterlimit="10"/>
<path d="M190.796 60.4073C191.351 60.3036 191.804 60.1718 192.152 60.0022C192.51 59.842 192.821 59.6254 193.094 59.3805C193.424 59.0507 193.659 58.5609 193.801 57.9203C193.942 57.2797 194.017 56.0834 194.017 54.3594C194.017 53.2855 194.017 52.2964 193.999 51.4015C193.961 48.7073 193.942 47.3413 193.942 47.2942C193.942 46.3993 193.923 45.608 193.876 44.9297C193.829 44.2515 193.772 43.5732 193.697 42.8855L194.366 42.9703L194.988 42.9891H195.393C195.478 42.9703 195.553 42.9703 195.591 42.9703L196.259 42.8855C196.212 43.4036 196.165 43.95 196.118 44.5247C196.071 45.0993 196.052 45.6457 196.052 46.1544C196.052 46.7573 196.052 47.2189 196.043 47.5486C196.005 49.1877 195.986 50.092 195.986 50.2428L196.033 54.6609V55.4428C196.043 57.4493 195.666 58.8718 194.893 59.7007C194.507 60.1247 193.97 60.4638 193.301 60.7087C192.633 60.9536 191.832 61.0761 190.918 61.0761L190.796 60.4261V60.4073Z" fill="#828282" stroke="#828282" stroke-width="0.235507" stroke-miterlimit="10"/>
<path d="M203.946 50.8833L205.067 50.9398H207.159C207.46 50.9398 207.771 50.9116 208.129 50.8551L206.066 45.542L203.946 50.8833ZM199.801 57.5529C200.122 56.8275 200.461 56.0551 200.819 55.2449C201.073 54.6609 201.412 53.8695 201.846 52.871C202.467 51.4203 202.816 50.6195 202.891 50.4406C203.089 49.979 203.438 49.1406 203.946 47.9348C204.201 47.3224 204.568 46.4558 205.039 45.3253C205.416 44.421 205.793 43.5166 206.17 42.6123L206.443 42.6688H206.688H206.942C207.046 42.65 207.13 42.6406 207.178 42.6123C207.451 43.3094 207.762 44.1384 208.129 45.0898C208.496 46.0413 208.836 46.8985 209.137 47.6616C209.438 48.4246 209.768 49.2442 210.136 50.1203C211.144 52.5978 212.18 55.0753 213.254 57.5435L212.5 57.4775L211.841 57.4493L211.191 57.4869L210.512 57.5529C210.183 56.4413 209.872 55.4522 209.57 54.5949C209.269 53.7282 208.949 52.8616 208.6 51.9761L207.404 51.9195H204.851C204.634 51.9195 204.408 51.9195 204.172 51.929C203.937 51.929 203.701 51.9478 203.457 51.9761L202.628 54.284C202.543 54.5384 202.477 54.7268 202.439 54.8493C202.326 55.1884 202.222 55.5275 202.109 55.8666L201.648 57.5623L201.177 57.4869L200.725 57.4587L200.282 57.4869C200.216 57.4869 200.15 57.4869 200.075 57.5058C199.999 57.5152 199.905 57.534 199.792 57.5623L199.801 57.5529Z" fill="#828282" stroke="#828282" stroke-width="0.235507" stroke-miterlimit="10"/>
<path d="M220.178 57.5529C219.999 56.9029 219.754 56.121 219.433 55.2167C219.113 54.3123 218.689 53.1913 218.18 51.8819C217.182 49.3478 215.92 46.3428 214.403 42.8855L215.062 42.9515L215.778 42.9703H216.268C216.372 42.9515 216.438 42.9515 216.494 42.9515L217.135 42.8855C217.512 44.1855 218.133 45.9848 219 48.3022L219.245 48.9522L221.543 55.1413L223.635 49.6587C224.181 48.2268 224.633 46.9739 224.991 45.8812C225.133 45.4384 225.255 45.0428 225.368 44.6942C225.519 44.2138 225.688 43.6109 225.886 42.8855H225.943L226.875 42.9703H227.252L227.836 42.8855C226.546 45.6457 225.387 48.2645 224.388 50.7326C223.38 53.2007 222.542 55.4805 221.854 57.5529L221.44 57.487L221.044 57.4493L220.63 57.4776C220.573 57.4776 220.479 57.4964 220.375 57.5152C220.272 57.5435 220.215 57.5529 220.196 57.5529H220.178Z" fill="#828282" stroke="#828282" stroke-width="0.235507" stroke-miterlimit="10"/>
<path d="M231.482 57.5718C231.548 57.0066 231.604 56.3189 231.661 55.5276C231.717 54.7268 231.746 53.9073 231.746 53.0689C231.746 52.4189 231.746 51.7123 231.765 50.9587C231.783 50.2051 231.793 49.3007 231.812 48.2363C231.83 47.1812 231.84 46.3899 231.84 45.8623V44.308C231.84 44.1196 231.83 43.7993 231.812 43.3565C231.793 42.9044 231.783 42.6594 231.783 42.6029H232.556C234.195 44.5247 235.881 46.4181 237.586 48.3022C239.301 50.1768 241.053 52.0421 242.843 53.8979V48.0384C242.843 47.7935 242.843 47.5203 242.824 47.2094C242.786 46.437 242.767 45.9283 242.767 45.6739C242.767 45.3913 242.749 45.0616 242.72 44.6848C242.636 43.771 242.598 43.1776 242.598 42.8761L243.031 42.9326H243.474H243.917L244.312 42.8855C244.218 43.5732 244.152 44.2703 244.105 45.0051C244.058 45.7305 244.039 46.4181 244.039 47.087C244.039 47.7558 244.039 48.4906 244.02 49.2725C244.002 50.0638 243.992 50.9964 243.973 52.0892C243.954 53.1819 243.945 54.0109 243.945 54.5667V55.8573L244.002 57.8073H243.295C242.805 57.1667 242.249 56.4884 241.646 55.7819C241.034 55.0754 240.224 54.1805 239.216 53.116L232.989 46.4747V52.3152C232.989 52.6638 232.999 53.1442 233.017 53.766C233.036 54.3877 233.046 54.8399 233.046 55.1319C233.046 55.6123 233.074 56.1399 233.14 56.6957C233.149 56.8464 233.187 57.1479 233.253 57.5906L232.782 57.5152L232.349 57.487L231.944 57.5152C231.887 57.5152 231.821 57.5153 231.755 57.5341C231.68 57.5435 231.595 57.5624 231.482 57.5906V57.5718Z" fill="#828282" stroke="#828282" stroke-width="0.235507" stroke-miterlimit="10"/>
<path d="M256.775 43.5544C255.004 43.5544 253.629 44.129 252.649 45.2689C251.67 46.4087 251.189 48.029 251.189 50.1203C251.189 52.3247 251.67 54.0015 252.621 55.1602C253.582 56.3189 254.967 56.8935 256.775 56.8935C258.584 56.8935 259.941 56.3189 260.901 55.1696C261.872 54.0203 262.352 52.3718 262.352 50.2334C262.352 48.095 261.872 46.4558 260.901 45.2971C259.931 44.1384 258.556 43.5544 256.766 43.5544H256.775ZM256.794 57.8355C254.326 57.8355 252.367 57.1573 250.935 55.7913C249.503 54.4348 248.787 52.579 248.787 50.2239C248.787 47.8689 249.503 46.0036 250.925 44.6471C252.348 43.2812 254.298 42.6029 256.775 42.6029C259.253 42.6029 261.259 43.2718 262.663 44.6094C264.067 45.9471 264.764 47.8123 264.764 50.2334C264.764 52.6544 264.067 54.4631 262.663 55.8102C261.259 57.1573 259.309 57.8355 256.794 57.8355Z" fill="#828282" stroke="#828282" stroke-width="0.235507" stroke-miterlimit="10"/>
<path d="M273.723 57.5529V56.9971C274.325 56.2152 274.872 55.4993 275.352 54.8492C275.833 54.1992 276.37 53.4833 276.944 52.7014C277.434 52.042 277.962 51.3166 278.517 50.5442C278.866 50.0637 279.365 49.3478 280.044 48.3963C280.675 47.5014 281.174 46.7855 281.541 46.2485C281.965 45.6362 282.455 44.9203 283.011 44.1007H280.43C279.827 44.1007 279.12 44.1101 278.301 44.1384C277.481 44.1666 277.02 44.1761 276.925 44.1761C276.502 44.1761 276.087 44.2043 275.673 44.2514C275.418 44.2797 275.041 44.3362 274.552 44.4304L274.608 44.063L274.627 43.6579V43.3753C274.617 43.3188 274.608 43.2717 274.608 43.2434C274.608 43.1304 274.589 43.0174 274.561 42.9043C274.749 42.9043 275.107 42.9232 275.607 42.9703C276.106 43.0174 276.52 43.0362 276.831 43.0362C277.509 43.0362 278.122 43.0362 278.678 43.0456C279.224 43.0456 279.752 43.055 280.241 43.0645C280.986 43.0645 281.636 43.0645 282.201 43.055C282.766 43.055 283.303 43.0456 283.831 43.0362C284.311 43.0362 284.669 43.0362 284.933 43.0174C285.187 42.9985 285.62 42.9702 286.233 42.9137V43.3847C285.441 44.3927 284.594 45.4949 283.68 46.7007C282.86 47.7746 282.05 48.8579 281.259 49.9413C280.467 51.0246 279.695 52.0985 278.96 53.163C278.244 54.1898 277.528 55.2449 276.794 56.3377H280.336C280.656 56.3377 280.967 56.3377 281.249 56.3188C282.238 56.2717 282.823 56.2435 282.992 56.2435C283.501 56.2435 284.094 56.1964 284.773 56.121C285.46 56.0362 285.95 55.9797 286.242 55.9514L286.186 56.3282L286.167 56.7521V56.9688C286.167 57.0348 286.167 57.1101 286.186 57.2043L286.242 57.5906C285.931 57.5623 285.573 57.534 285.149 57.5152C284.725 57.4869 284.33 57.4775 283.953 57.4775C283.143 57.4775 282.314 57.4775 281.457 57.4681C280.599 57.4681 279.78 57.4492 278.988 57.4492C278.188 57.4492 277.538 57.4492 277.02 57.4587C276.502 57.4587 276.021 57.4681 275.559 57.4775C275.211 57.4775 274.919 57.4775 274.655 57.5058C274.391 57.5246 274.09 57.5529 273.751 57.5906L273.723 57.5529Z" fill="#828282" stroke="#828282" stroke-width="0.235507" stroke-miterlimit="10"/>
<path d="M290.444 57.5529C290.444 57.242 290.462 56.8369 290.509 56.3471C290.604 55.2826 290.651 54.5572 290.651 54.171C290.651 53.7471 290.66 53.0877 290.679 52.1833C290.698 51.279 290.707 50.629 290.707 50.2333C290.707 49.6775 290.698 48.9333 290.679 48.0195C290.66 47.1058 290.651 46.4652 290.651 46.0978C290.651 45.5608 290.632 45.0522 290.594 44.5906C290.557 44.1195 290.509 43.5543 290.434 42.8855L291.31 42.9326H292.13C292.582 42.9232 292.968 42.9043 293.298 42.8855C293.628 42.8666 293.967 42.8666 294.344 42.8666L296.699 42.7913C299.176 42.7913 301.07 43.3942 302.37 44.6094C303.67 45.8246 304.32 47.6051 304.32 49.9413C304.32 52.2775 303.575 54.2087 302.096 55.5464C300.617 56.884 298.545 57.5435 295.879 57.5435C295.728 57.5435 295.436 57.5435 294.994 57.5152C294.551 57.4964 294.221 57.4869 294.014 57.4869L292.102 57.4398L291.301 57.4681C291.188 57.4681 291.065 57.4681 290.915 57.4869C290.773 57.4964 290.604 57.5152 290.415 57.5435L290.444 57.5529ZM292.846 56.3848C293.062 56.4224 293.279 56.4507 293.505 56.479C293.731 56.5072 293.929 56.5166 294.117 56.5166L295.144 56.5638C297.396 56.5638 299.091 56.0174 300.241 54.9246C301.39 53.8319 301.955 52.1927 301.955 50.0072C301.955 47.9536 301.409 46.3993 300.316 45.3536C299.223 44.3079 297.603 43.7804 295.446 43.7804L294.155 43.8087C293.948 43.8087 293.741 43.8087 293.543 43.8275C293.345 43.8463 293.109 43.8652 292.846 43.884L292.789 47.0398L292.733 50.2145V52.3906C292.733 52.5413 292.752 53.1442 292.789 54.1804C292.827 55.2167 292.846 55.9514 292.846 56.3659V56.3848Z" fill="#828282" stroke="#828282" stroke-width="0.235507" stroke-miterlimit="10"/>
<path d="M311.215 52.7109L311.244 54.7928C311.244 54.9718 311.272 55.4993 311.319 56.3942C311.347 56.9029 311.366 57.2892 311.366 57.5435L310.829 57.4681L310.188 57.4399L309.538 57.4681L309.02 57.5341C309.02 57.0348 309.049 56.3 309.105 55.3203C309.162 54.3406 309.19 53.6058 309.19 53.116C309.19 52.3906 309.19 51.8442 309.199 51.4768C309.237 49.6587 309.256 48.7355 309.256 48.7355C309.256 48.3305 309.246 47.7841 309.228 47.0776C309.209 46.371 309.199 45.8623 309.199 45.5515C309.199 45.1276 309.181 44.7036 309.152 44.2892C309.124 43.8747 309.086 43.3942 309.03 42.8384L309.755 42.8855L310.537 42.9326C310.65 42.9326 310.904 42.9326 311.291 42.9138C311.677 42.8949 311.997 42.8949 312.27 42.8949L313.796 42.8478C315.313 42.8478 316.472 43.1399 317.263 43.7239C318.054 44.308 318.45 45.1464 318.45 46.2486C318.45 47.2283 318.092 48.0573 317.367 48.7073C316.651 49.3573 315.605 49.8094 314.239 50.0638C314.55 50.4783 314.87 50.8928 315.181 51.3167C315.464 51.6935 315.775 52.108 316.123 52.5602C316.425 52.9652 316.745 53.3892 317.084 53.8225L319.976 57.5435L319.157 57.4681L318.412 57.4399L317.696 57.4681C317.602 57.4681 317.489 57.4681 317.357 57.487C317.235 57.4964 317.075 57.5152 316.886 57.5435C316.133 56.2906 315.323 55.0754 314.465 53.879C313.608 52.692 312.694 51.5239 311.724 50.3652H311.206V52.7015L311.215 52.7109ZM311.215 49.621H311.941C313.344 49.621 314.409 49.3573 315.144 48.8297C315.878 48.3116 316.246 47.5391 316.246 46.5218C316.246 45.6268 315.935 44.9297 315.304 44.4305C314.673 43.9312 313.778 43.6862 312.619 43.6862H311.969C311.884 43.6862 311.781 43.6862 311.686 43.7051C311.592 43.7239 311.479 43.7333 311.375 43.7616L311.262 44.892C311.262 45.2123 311.262 45.4949 311.253 45.7587C311.253 46.0225 311.234 46.2674 311.234 46.5029V49.621H311.215Z" fill="#828282" stroke="#828282" stroke-width="0.235507" stroke-miterlimit="10"/>
<path d="M325.572 50.8833L326.693 50.9398H328.784C329.086 50.9398 329.397 50.9116 329.754 50.8551L327.691 45.542L325.572 50.8833ZM321.427 57.5529C321.747 56.8275 322.086 56.0551 322.444 55.2449C322.699 54.6609 323.038 53.8695 323.471 52.871C324.093 51.4203 324.441 50.6195 324.517 50.4406C324.715 49.979 325.063 49.1406 325.572 47.9348C325.826 47.3224 326.194 46.4558 326.665 45.3253C327.041 44.421 327.418 43.5166 327.795 42.6123L328.068 42.6688H328.313H328.568C328.671 42.65 328.756 42.6406 328.803 42.6123C329.076 43.3094 329.387 44.1384 329.754 45.0898C330.122 46.0413 330.461 46.8985 330.762 47.6616C331.064 48.4246 331.394 49.2442 331.761 50.1203C332.769 52.5978 333.805 55.0753 334.879 57.5435L334.125 57.4775L333.466 57.4493L332.816 57.4869L332.138 57.5529C331.808 56.4413 331.497 55.4522 331.196 54.5949C330.894 53.7282 330.574 52.8616 330.225 51.9761L329.029 51.9195H326.476C326.26 51.9195 326.033 51.9195 325.798 51.929C325.562 51.929 325.327 51.9478 325.082 51.9761L324.253 54.284C324.168 54.5384 324.102 54.7268 324.065 54.8493C323.952 55.1884 323.848 55.5275 323.735 55.8666L323.273 57.5623L322.802 57.4869L322.35 57.4587L321.907 57.4869C321.841 57.4869 321.775 57.4869 321.7 57.5058C321.625 57.5152 321.531 57.534 321.418 57.5623L321.427 57.5529Z" fill="#828282" stroke="#828282" stroke-width="0.235507" stroke-miterlimit="10"/>
<path d="M341.803 57.5529C341.624 56.9029 341.379 56.121 341.059 55.2167C340.739 54.3123 340.315 53.1913 339.806 51.8819C338.807 49.3478 337.545 46.3428 336.028 42.8855L336.688 42.9515L337.404 42.9703H337.894C337.997 42.9515 338.063 42.9515 338.12 42.9515L338.76 42.8855C339.137 44.1855 339.759 45.9848 340.625 48.3022L340.87 48.9522L343.169 55.1413L345.251 49.6587C345.797 48.2268 346.249 46.9739 346.607 45.8812C346.749 45.4384 346.871 45.0428 346.984 44.6942C347.135 44.2138 347.304 43.6109 347.502 42.8855H347.559L348.491 42.9703H348.868L349.452 42.8855C348.162 45.6457 347.003 48.2645 346.004 50.7326C344.997 53.2007 344.158 55.4805 343.47 57.5529L343.056 57.487L342.66 57.4493L342.246 57.4776C342.189 57.4776 342.095 57.4964 341.991 57.5152C341.888 57.5435 341.831 57.5529 341.812 57.5529H341.803Z" fill="#828282" stroke="#828282" stroke-width="0.235507" stroke-miterlimit="10"/>
<path d="M352.768 54.3312L352.957 54.2841C353.268 55.1036 353.729 55.7348 354.351 56.1681C354.973 56.6109 355.707 56.8275 356.565 56.8275C357.535 56.8275 358.298 56.5638 358.863 56.0362C359.428 55.5087 359.72 54.8022 359.72 53.9355C359.72 53.2196 359.523 52.6544 359.127 52.221C358.731 51.7877 357.846 51.2978 356.48 50.742C354.982 50.1674 353.974 49.5833 353.437 48.9993C352.91 48.4152 352.646 47.6428 352.646 46.7007C352.646 45.4196 353.06 44.4116 353.889 43.6768C354.718 42.942 355.858 42.5746 357.318 42.5746C358.599 42.5746 359.805 42.8761 360.936 43.4884C360.851 43.6768 360.776 43.8558 360.71 44.0159C360.644 44.1761 360.587 44.3457 360.531 44.5246C360.474 44.7036 360.427 44.8826 360.38 45.0428C360.361 45.0899 360.323 45.2783 360.257 45.5986H360.05C359.918 44.9015 359.598 44.3551 359.089 43.9783C358.581 43.592 357.921 43.4036 357.102 43.4036C356.282 43.4036 355.641 43.6391 355.142 44.1007C354.643 44.5623 354.398 45.1746 354.398 45.9188C354.398 46.5594 354.605 47.087 355.02 47.492C355.434 47.8971 356.273 48.3304 357.507 48.792C359.127 49.3855 360.22 49.9884 360.766 50.6007C361.312 51.213 361.586 52.0138 361.586 53.0123C361.586 54.4065 361.086 55.5558 360.088 56.479C359.089 57.3928 357.818 57.8544 356.273 57.8544C355.472 57.8544 354.737 57.7507 354.068 57.5435C353.748 57.4399 353.447 57.308 353.154 57.1573C352.872 57.0065 352.599 56.8181 352.354 56.6109C352.42 56.4131 352.467 56.2341 352.504 56.0739C352.504 56.0551 352.552 55.8573 352.627 55.4993C352.655 55.3109 352.683 55.1225 352.721 54.9341C352.749 54.7268 352.759 54.5196 352.759 54.3406L352.768 54.3312Z" fill="#828282" stroke="#828282" stroke-width="0.235507" stroke-miterlimit="10"/>
<path d="M369.291 44.0631H367.982C367.728 44.0631 367.539 44.0631 367.417 44.0725C367.304 44.0725 367.078 44.1007 366.739 44.1478C366.447 44.1478 366.098 44.1761 365.712 44.2515C365.316 44.3174 365.024 44.3645 364.845 44.3928L364.92 44.016L364.939 43.6203L364.911 43.2341L364.845 42.8855L367.681 42.9891L370.375 43.0174L373.229 42.9891C373.512 42.9891 373.851 42.9797 374.228 42.9609C375.113 42.9138 375.669 42.8855 375.895 42.8855L375.82 43.366V43.658C375.81 43.7993 375.82 43.9123 375.82 43.9971L375.886 44.3833C375.198 44.2891 374.548 44.2044 373.945 44.1478C373.672 44.1196 373.436 44.1007 373.229 44.0913C373.022 44.0725 372.824 44.0725 372.636 44.0725H371.43L371.345 45.4855V46.5312C371.345 47.6804 371.345 48.6131 371.345 49.3102C371.345 50.0073 371.355 50.8174 371.364 51.75C371.373 52.6732 371.373 53.2667 371.373 53.521C371.373 54.3594 371.392 55.1036 371.43 55.7536C371.468 56.3942 371.524 57.0065 371.581 57.5623L371.015 57.487L370.328 57.4587L369.64 57.487C369.565 57.487 369.48 57.487 369.405 57.5058C369.32 57.5152 369.207 57.5341 369.075 57.5623C369.131 57.016 369.178 56.4131 369.226 55.7725C369.273 55.1319 369.291 54.5007 369.291 53.8884C369.291 53.1065 369.291 52.4848 369.291 52.042C369.32 49.8 369.329 48.5094 369.329 48.1797V45.7775C369.329 45.5703 369.329 45.3536 369.31 45.1275C369.273 44.5529 369.254 44.2044 369.254 44.0819L369.291 44.0631Z" fill="#828282" stroke="#828282" stroke-width="0.235507" stroke-miterlimit="10"/>
<path d="M383.949 57.5529C383.77 56.9029 383.526 56.121 383.205 55.2167C382.885 54.3123 382.461 53.1913 381.952 51.8819C380.954 49.3478 379.691 46.3428 378.175 42.8855L378.834 42.9515L379.55 42.9703H380.04C380.144 42.9515 380.21 42.9515 380.266 42.9515L380.907 42.8855C381.283 44.1855 381.905 45.9848 382.772 48.3022L383.017 48.9522L385.315 55.1413L387.407 49.6587C387.953 48.2268 388.405 46.9739 388.763 45.8812C388.905 45.4384 389.027 45.0428 389.14 44.6942C389.291 44.2138 389.46 43.6109 389.658 42.8855H389.715L390.647 42.9703H391.024L391.608 42.8855C390.318 45.6457 389.159 48.2645 388.16 50.7326C387.152 53.2007 386.314 55.4805 385.626 57.5529L385.212 57.487L384.816 57.4493L384.402 57.4776C384.345 57.4776 384.251 57.4964 384.147 57.5152C384.044 57.5435 383.987 57.5529 383.968 57.5529H383.949Z" fill="#828282" stroke="#828282" stroke-width="0.235507" stroke-miterlimit="10"/>
<path d="M402.517 43.5544C400.746 43.5544 399.37 44.129 398.391 45.2689C397.411 46.4087 396.931 48.029 396.931 50.1203C396.931 52.3247 397.411 54.0015 398.363 55.1602C399.323 56.3189 400.708 56.8935 402.517 56.8935C404.326 56.8935 405.682 56.3189 406.643 55.1696C407.613 54.0203 408.094 52.3718 408.094 50.2334C408.094 48.095 407.613 46.4558 406.643 45.2971C405.673 44.1384 404.297 43.5544 402.507 43.5544H402.517ZM402.536 57.8355C400.058 57.8355 398.108 57.1573 396.676 55.7913C395.244 54.4348 394.528 52.579 394.528 50.2239C394.528 47.8689 395.244 46.0036 396.667 44.6471C398.089 43.2812 400.039 42.6029 402.517 42.6029C404.994 42.6029 407.001 43.2718 408.405 44.6094C409.808 45.9471 410.505 47.8123 410.505 50.2334C410.505 52.6544 409.808 54.4631 408.405 55.8102C407.001 57.1573 405.051 57.8355 402.536 57.8355Z" fill="#828282" stroke="#828282" stroke-width="0.235507" stroke-miterlimit="10"/>
<path d="M191.973 84.0522C191.973 83.7413 191.992 83.3363 192.03 82.8464C192.114 81.7819 192.152 81.0565 192.152 80.6703C192.152 80.2558 192.162 79.587 192.18 78.6826C192.199 77.7783 192.209 77.1377 192.209 76.7326C192.209 76.1768 192.209 75.4326 192.18 74.5189C192.162 73.6051 192.152 72.9645 192.152 72.5971C192.152 72.0602 192.133 71.5515 192.105 71.0899C192.077 70.6189 192.03 70.0536 191.964 69.3848L192.736 69.4319H193.462C193.867 69.4225 194.206 69.4036 194.488 69.3848C194.771 69.3754 195.082 69.366 195.412 69.366L197.493 69.2906C199.679 69.2906 201.346 69.8935 202.496 71.1087C203.635 72.3239 204.21 74.1044 204.21 76.4406C204.21 78.7768 203.56 80.708 202.251 82.0457C200.941 83.3834 199.123 84.0428 196.778 84.0428C196.646 84.0428 196.382 84.0428 195.996 84.0145C195.609 83.9863 195.317 83.9863 195.129 83.9863L193.452 83.9392L192.746 83.9674C192.651 83.9674 192.538 83.9674 192.406 83.9863C192.284 83.9957 192.133 84.0145 191.964 84.0428L191.973 84.0522ZM194.083 82.8841C194.272 82.9218 194.47 82.95 194.667 82.9783C194.865 83.0065 195.044 83.016 195.204 83.016L196.109 83.0631C198.096 83.0631 199.585 82.5167 200.602 81.4239C201.61 80.3312 202.119 78.692 202.119 76.5065C202.119 74.4529 201.638 72.8986 200.668 71.8529C199.707 70.8073 198.275 70.2797 196.382 70.2797L195.242 70.308C195.063 70.308 194.875 70.308 194.705 70.3268C194.526 70.3457 194.328 70.3645 194.093 70.3833L194.046 73.5391L193.999 76.7232V78.8993C193.999 79.05 194.017 79.6529 194.046 80.6892C194.074 81.7254 194.093 82.4602 194.093 82.8747L194.083 82.8841Z" fill="#828282" stroke="#828282" stroke-width="0.235507" stroke-miterlimit="10"/>
<path d="M210.107 79.2102L210.136 81.3015C210.136 81.4804 210.154 82.008 210.201 82.8935C210.23 83.4022 210.239 83.7884 210.239 84.0428L209.768 83.9674L209.203 83.9391L208.628 83.9674L208.176 84.0333C208.176 83.5341 208.204 82.7993 208.251 81.8196C208.299 80.8399 208.327 80.1051 208.327 79.6152C208.327 78.8804 208.327 78.3435 208.336 77.9761C208.364 76.158 208.383 75.2348 208.383 75.2348C208.383 74.8297 208.374 74.2833 208.355 73.5768C208.336 72.8703 208.327 72.3616 208.327 72.0507C208.327 71.6268 208.317 71.2029 208.289 70.7884C208.261 70.3739 208.233 69.8935 208.176 69.3377L208.817 69.3848L209.504 69.4319C209.608 69.4319 209.834 69.4319 210.173 69.413C210.512 69.3942 210.795 69.3942 211.03 69.3942L212.368 69.3471C213.706 69.3471 214.723 69.6391 215.42 70.2232C216.117 70.8072 216.466 71.6457 216.466 72.7478C216.466 73.7275 216.146 74.5565 215.515 75.2065C214.883 75.8565 213.96 76.3087 212.764 76.563C213.037 76.987 213.32 77.4015 213.593 77.8159C213.838 78.1928 214.12 78.6072 214.422 79.0594C214.695 79.4645 214.978 79.8884 215.27 80.3217L217.822 84.0428L217.097 83.9674L216.438 83.9391L215.807 83.9674C215.722 83.9674 215.618 83.9674 215.515 83.9862C215.401 83.9957 215.27 84.0145 215.1 84.0428C214.431 82.7899 213.725 81.5746 212.971 80.3783C212.217 79.1913 211.407 78.0232 210.559 76.8645H210.107V79.2007V79.2102ZM210.107 76.1203H210.748C211.982 76.1203 212.924 75.8565 213.564 75.329C214.214 74.8109 214.535 74.0384 214.535 73.021C214.535 72.1261 214.262 71.429 213.706 70.9297C213.15 70.4304 212.359 70.1855 211.341 70.1855H210.767C210.691 70.1855 210.607 70.1855 210.522 70.2043C210.437 70.2232 210.343 70.2326 210.249 70.2609L210.145 71.3913C210.145 71.7116 210.145 71.9942 210.145 72.258C210.145 72.5217 210.136 72.7667 210.126 73.0022V76.1203H210.107Z" fill="#828282" stroke="#828282" stroke-width="0.235507" stroke-miterlimit="10"/>
<path d="M220.583 82.9595C220.583 82.5732 220.696 82.2529 220.931 81.9797C221.167 81.7066 221.459 81.5747 221.788 81.5747C222.118 81.5747 222.401 81.7066 222.636 81.9797C222.872 82.2529 222.994 82.5732 222.994 82.9595C222.994 83.3457 222.872 83.666 222.636 83.9298C222.401 84.2029 222.118 84.3348 221.779 84.3348C221.44 84.3348 221.157 84.2029 220.922 83.9298C220.686 83.6566 220.573 83.3363 220.573 82.9595H220.583Z" fill="#828282" stroke="#828282" stroke-width="0.235507" stroke-miterlimit="10"/>
<path d="M234.685 77.3826L235.674 77.4391H237.52C237.784 77.4391 238.067 77.4109 238.368 77.3544L236.55 72.0413L234.685 77.3826ZM231.039 84.0522C231.322 83.3268 231.623 82.5544 231.934 81.7442C232.151 81.1602 232.462 80.3689 232.838 79.3703C233.385 77.9196 233.696 77.1189 233.762 76.9399C233.931 76.4783 234.242 75.6399 234.694 74.4341C234.92 73.8218 235.241 72.9551 235.655 71.8246C235.985 70.9203 236.324 70.016 236.654 69.1116L236.889 69.1681H237.106H237.323C237.417 69.1493 237.483 69.1304 237.53 69.1116C237.765 69.8087 238.048 70.6377 238.368 71.5891C238.688 72.5406 238.99 73.3978 239.254 74.1609C239.517 74.9145 239.809 75.7435 240.13 76.6196C241.015 79.0971 241.929 81.5747 242.871 84.0428L242.202 83.9768L241.618 83.9486L241.044 83.9863L240.441 84.0522C240.149 82.9406 239.875 81.9515 239.612 81.0942C239.348 80.237 239.065 79.3609 238.754 78.4754L237.699 78.4189H235.457C235.269 78.4189 235.071 78.4189 234.864 78.4283C234.657 78.4283 234.449 78.4471 234.233 78.4754L233.507 80.7834C233.432 81.0377 233.375 81.2261 233.338 81.3486C233.244 81.6877 233.149 82.0268 233.055 82.366L232.65 84.0616L232.236 83.9863L231.84 83.9486L231.454 83.9768C231.397 83.9768 231.341 83.9768 231.275 83.9957C231.209 84.0051 231.124 84.0239 231.02 84.0522H231.039Z" fill="#828282" stroke="#828282" stroke-width="0.235507" stroke-miterlimit="10"/>
<path d="M245.782 84.071C245.838 83.5058 245.886 82.8181 245.942 82.0268C245.989 81.2261 246.017 80.4065 246.017 79.5681C246.017 78.9181 246.017 78.2116 246.036 77.458C246.046 76.7044 246.065 75.8 246.083 74.7355C246.102 73.6804 246.102 72.8891 246.102 72.3616V70.8072C246.102 70.6188 246.102 70.2986 246.074 69.8558C246.046 69.413 246.046 69.1587 246.046 69.1022H246.733C248.184 71.0239 249.663 72.9174 251.17 74.8015C252.678 76.6761 254.223 78.5413 255.796 80.3971V74.5377C255.796 74.2928 255.796 74.0196 255.777 73.7087C255.749 72.9362 255.73 72.4275 255.73 72.1732C255.73 71.8906 255.711 71.5609 255.683 71.1841C255.607 70.2797 255.57 69.6768 255.57 69.3754L255.946 69.4319H256.333H256.719L257.067 69.3848C256.992 70.0725 256.926 70.7696 256.888 71.5044C256.851 72.2297 256.832 72.9268 256.832 73.5862C256.832 74.2457 256.832 74.9899 256.813 75.7717C256.804 76.5631 256.785 77.4957 256.775 78.5884C256.757 79.6812 256.757 80.5102 256.757 81.0659V82.3565L256.813 84.3065H256.191C255.758 83.666 255.278 82.9877 254.741 82.2812C254.204 81.5746 253.488 80.6797 252.602 79.6152L247.12 72.9739V78.8145C247.12 79.163 247.129 79.6435 247.148 80.2652C247.167 80.887 247.176 81.3391 247.176 81.6312C247.176 82.1116 247.204 82.6391 247.261 83.1949C247.27 83.3457 247.308 83.6471 247.365 84.0899L246.95 84.0145L246.573 83.9862L246.215 84.0145C246.168 84.0145 246.112 84.0145 246.046 84.0333C245.98 84.0428 245.904 84.0616 245.81 84.0899L245.782 84.071Z" fill="#828282" stroke="#828282" stroke-width="0.235507" stroke-miterlimit="10"/>
<path d="M261.665 84.0522C261.665 83.7413 261.683 83.3363 261.721 82.8464C261.806 81.7819 261.844 81.0565 261.844 80.6703C261.844 80.2558 261.844 79.587 261.872 78.6826C261.891 77.7783 261.9 77.1377 261.9 76.7326C261.9 76.1768 261.9 75.4326 261.872 74.5189C261.853 73.6051 261.844 72.9645 261.844 72.5971C261.844 72.0602 261.825 71.5515 261.796 71.0899C261.768 70.6189 261.721 70.0536 261.655 69.3848L262.428 69.4319H263.153C263.549 69.4225 263.897 69.4036 264.18 69.3848C264.462 69.3754 264.773 69.366 265.103 69.366L267.185 69.2906C269.37 69.2906 271.038 69.8935 272.187 71.1087C273.327 72.3239 273.902 74.1044 273.902 76.4406C273.902 78.7768 273.252 80.708 271.942 82.0457C270.633 83.3834 268.815 84.0428 266.469 84.0428C266.337 84.0428 266.083 84.0428 265.687 84.0145C265.301 83.9957 265.009 83.9863 264.82 83.9863L263.144 83.9392L262.437 83.9674C262.343 83.9674 262.23 83.9674 262.098 83.9863C261.975 83.9957 261.825 84.0145 261.665 84.0428V84.0522ZM263.775 82.8841C263.963 82.9218 264.161 82.95 264.359 82.9783C264.557 83.0065 264.736 83.016 264.896 83.016L265.8 83.0631C267.788 83.0631 269.276 82.5167 270.294 81.4239C271.302 80.3312 271.81 78.692 271.81 76.5065C271.81 74.4529 271.33 72.8986 270.359 71.8529C269.399 70.8073 267.967 70.2797 266.073 70.2797L264.933 70.308C264.754 70.308 264.566 70.308 264.396 70.3268C264.217 70.3457 264.01 70.3645 263.784 70.3833L263.737 73.5391L263.69 76.7232V78.8993C263.69 79.05 263.709 79.6529 263.737 80.6892C263.765 81.7254 263.784 82.4602 263.784 82.8747L263.775 82.8841Z" fill="#828282" stroke="#828282" stroke-width="0.235507" stroke-miterlimit="10"/>
<path d="M279.799 79.2102L279.827 81.3015C279.827 81.4804 279.846 82.008 279.893 82.8935C279.921 83.4022 279.93 83.7884 279.93 84.0428L279.459 83.9674L278.894 83.9391L278.32 83.9674L277.867 84.0333C277.867 83.5341 277.896 82.7993 277.943 81.8196C277.99 80.8399 278.018 80.1051 278.018 79.6152C278.018 78.8804 278.018 78.3435 278.028 77.9761C278.056 76.158 278.075 75.2348 278.075 75.2348C278.075 74.8297 278.075 74.2833 278.046 73.5768C278.028 72.8703 278.018 72.3616 278.018 72.0507C278.018 71.6268 278.009 71.2029 277.98 70.7884C277.952 70.3739 277.924 69.8935 277.867 69.3377L278.508 69.3848L279.196 69.4319C279.299 69.4319 279.525 69.4319 279.865 69.413C280.204 69.3942 280.486 69.3942 280.722 69.3942L282.059 69.3471C283.397 69.3471 284.415 69.6391 285.112 70.2232C285.809 70.8072 286.167 71.6457 286.167 72.7478C286.167 73.7275 285.846 74.5565 285.215 75.2065C284.584 75.8565 283.661 76.3087 282.465 76.563C282.738 76.987 283.02 77.4015 283.294 77.8159C283.538 78.1928 283.821 78.6072 284.123 79.0594C284.396 79.4645 284.678 79.8884 284.97 80.3217L287.523 84.0428L286.798 83.9674L286.138 83.9391L285.507 83.9674C285.423 83.9674 285.319 83.9674 285.215 83.9862C285.102 83.9957 284.97 84.0145 284.801 84.0428C284.132 82.7899 283.425 81.5746 282.672 80.3783C281.918 79.1913 281.108 78.0232 280.26 76.8645H279.808V79.2007L279.799 79.2102ZM279.799 76.1203H280.439C281.673 76.1203 282.615 75.8565 283.256 75.329C283.906 74.8109 284.226 74.0384 284.226 73.021C284.226 72.1261 283.953 71.429 283.397 70.9297C282.841 70.4304 282.05 70.1855 281.033 70.1855H280.458C280.383 70.1855 280.298 70.1855 280.213 70.2043C280.128 70.2232 280.034 70.2326 279.94 70.2609L279.836 71.3913C279.836 71.7116 279.836 71.9942 279.836 72.258C279.836 72.5217 279.827 72.7667 279.817 73.0022V76.1203H279.799Z" fill="#828282" stroke="#828282" stroke-width="0.235507" stroke-miterlimit="10"/>
<path d="M290.444 84.0522C290.444 83.7696 290.481 83.0631 290.557 81.9421C290.594 81.3863 290.613 80.9341 290.613 80.5856C290.613 80.1711 290.623 79.5116 290.651 78.6356C290.67 77.7501 290.679 77.1189 290.679 76.7327C290.679 76.1109 290.679 75.3196 290.651 74.3682C290.632 73.4073 290.613 72.8421 290.613 72.6537C290.613 72.1355 290.594 71.5703 290.557 70.9486C290.547 70.7131 290.51 70.195 290.444 69.3942L291.018 69.4696L291.565 69.4885H291.923C291.998 69.4696 292.064 69.4696 292.092 69.4696L292.686 69.3848C292.629 70.1008 292.591 70.5718 292.573 70.8167C292.535 71.4008 292.516 71.9471 292.516 72.4558C292.516 73.0493 292.516 73.5109 292.507 73.85C292.478 75.5457 292.46 76.5066 292.46 76.7327C292.46 77.2602 292.469 77.9856 292.488 78.8805C292.507 79.7848 292.516 80.416 292.516 80.7928C292.516 81.3015 292.535 81.8667 292.573 82.4885C292.582 82.724 292.62 83.2421 292.686 84.0522L292.177 83.9769L291.555 83.9486L290.924 83.9769C290.849 83.9769 290.773 83.9769 290.688 83.9957C290.613 84.0051 290.519 84.024 290.434 84.0522H290.444Z" fill="#828282" stroke="#828282" stroke-width="0.235507" stroke-miterlimit="10"/>
<path d="M294.956 86.9066C295.436 86.8029 295.841 86.6711 296.152 86.5015C296.463 86.3414 296.736 86.1247 296.981 85.8703C297.273 85.5406 297.481 85.0508 297.603 84.4102C297.725 83.7696 297.791 82.5732 297.791 80.8493C297.791 79.7754 297.791 78.7863 297.773 77.8913C297.735 75.1971 297.716 73.8312 297.716 73.7841C297.716 72.8892 297.697 72.0979 297.659 71.4196C297.622 70.7413 297.575 70.0631 297.499 69.3754L298.093 69.4602L298.639 69.479H298.997C299.073 69.4602 299.138 69.4602 299.176 69.4602L299.77 69.3754C299.732 69.8935 299.685 70.4399 299.647 71.0145C299.609 71.5892 299.591 72.1355 299.591 72.6442C299.591 73.2471 299.591 73.7087 299.591 74.0384C299.562 75.6776 299.544 76.5819 299.544 76.7326L299.591 81.1508V81.9232C299.6 83.9392 299.27 85.3522 298.592 86.1812C298.244 86.6051 297.782 86.9443 297.188 87.1892C296.595 87.4341 295.898 87.5566 295.088 87.5566L294.975 86.9066H294.956Z" fill="#828282" stroke="#828282" stroke-width="0.235507" stroke-miterlimit="10"/>
<path d="M306.392 77.3826L307.381 77.4391H309.228C309.491 77.4391 309.774 77.4109 310.075 77.3544L308.257 72.0413L306.392 77.3826ZM302.746 84.0522C303.029 83.3268 303.331 82.5544 303.641 81.7442C303.858 81.1602 304.169 80.3689 304.546 79.3703C305.092 77.9196 305.403 77.1189 305.469 76.9399C305.639 76.4783 305.949 75.6399 306.402 74.4341C306.628 73.8218 306.948 72.9551 307.362 71.8246C307.692 70.9203 308.031 70.016 308.361 69.1116L308.596 69.1681H308.813H309.03C309.124 69.1493 309.19 69.1304 309.237 69.1116C309.473 69.8087 309.755 70.6377 310.075 71.5891C310.396 72.5406 310.697 73.3978 310.961 74.1609C311.225 74.9145 311.517 75.7435 311.837 76.6196C312.723 79.0971 313.636 81.5747 314.578 84.0428L313.91 83.9768L313.325 83.9486L312.751 83.9863L312.148 84.0522C311.856 82.9406 311.583 81.9515 311.319 81.0942C311.055 80.237 310.773 79.3609 310.462 78.4754L309.407 78.4189H307.165C306.976 78.4189 306.778 78.4189 306.571 78.4283C306.364 78.4283 306.157 78.4471 305.94 78.4754L305.215 80.7834C305.139 81.0377 305.083 81.2261 305.045 81.3486C304.951 81.6877 304.857 82.0268 304.762 82.366L304.357 84.0616L303.943 83.9863L303.547 83.9486L303.161 83.9768C303.104 83.9768 303.048 83.9768 302.982 83.9957C302.916 84.0051 302.831 84.0239 302.728 84.0522H302.746Z" fill="#828282" stroke="#828282" stroke-width="0.235507" stroke-miterlimit="10"/>
<path d="M322.369 80.8304L322.539 80.7833C322.812 81.6029 323.217 82.2341 323.773 82.6674C324.319 83.1102 324.969 83.3268 325.723 83.3268C326.57 83.3268 327.249 83.0631 327.748 82.5355C328.247 82.008 328.502 81.3015 328.502 80.4348C328.502 79.7189 328.332 79.1536 327.974 78.7203C327.626 78.287 326.844 77.7971 325.647 77.2413C324.328 76.6667 323.433 76.0826 322.972 75.4986C322.51 74.9145 322.275 74.142 322.275 73.2C322.275 71.9188 322.642 70.9109 323.368 70.1761C324.102 69.4413 325.101 69.0739 326.382 69.0739C327.512 69.0739 328.577 69.3754 329.566 69.9877C329.491 70.1761 329.425 70.3551 329.368 70.5152C329.312 70.6754 329.255 70.8449 329.208 71.0239C329.161 71.2029 329.114 71.3819 329.076 71.542C329.067 71.5891 329.029 71.7775 328.963 72.0978H328.775C328.662 71.4007 328.379 70.8544 327.927 70.4775C327.484 70.0913 326.9 69.9029 326.175 69.9029C325.449 69.9029 324.884 70.1384 324.451 70.6C324.018 71.0616 323.791 71.6739 323.791 72.4181C323.791 73.0587 323.97 73.5862 324.338 73.9913C324.705 74.3964 325.44 74.8297 326.533 75.2913C327.965 75.8848 328.916 76.4877 329.406 77.1C329.886 77.7123 330.131 78.5131 330.131 79.5116C330.131 80.9058 329.689 82.0551 328.812 82.9689C327.936 83.8826 326.815 84.3442 325.449 84.3442C324.743 84.3442 324.102 84.2406 323.509 84.0333C323.226 83.9297 322.953 83.7978 322.708 83.6471C322.454 83.4964 322.218 83.308 322.002 83.1007C322.058 82.9029 322.096 82.7239 322.133 82.5638C322.133 82.5449 322.181 82.3471 322.247 81.9891C322.275 81.8007 322.303 81.6123 322.331 81.4239C322.35 81.2167 322.369 81.0094 322.369 80.8304ZM328.869 64.2884L326.768 67.9341H325.534L323.415 64.2884H324.102L326.147 66.3232L328.181 64.2884H328.869Z" fill="#828282" stroke="#828282" stroke-width="0.235507" stroke-miterlimit="10"/>
<path d="M336.773 70.5624H335.623C335.397 70.5624 335.237 70.5624 335.124 70.5718C335.02 70.5718 334.823 70.6095 334.531 70.6471C334.276 70.6471 333.965 70.6848 333.626 70.7508C333.278 70.8167 333.023 70.8638 332.863 70.8921L332.929 70.5153L332.948 70.1196L332.92 69.7334L332.863 69.3848L335.36 69.4884L337.733 69.5167L340.249 69.4884C340.503 69.4884 340.795 69.479 341.125 69.4508C341.907 69.4037 342.396 69.3754 342.594 69.3754L342.528 69.8558V70.1479C342.528 70.2892 342.528 70.4022 342.528 70.487L342.585 70.8732C341.973 70.779 341.407 70.6942 340.88 70.6377C340.644 70.6095 340.428 70.5906 340.249 70.5812C340.07 70.5624 339.9 70.5624 339.731 70.5624H338.666L338.591 71.9754V73.0211C338.591 74.1703 338.591 75.1029 338.591 75.8C338.591 76.4971 338.6 77.3073 338.61 78.2399C338.61 79.1631 338.619 79.7566 338.619 80.0109C338.619 80.8493 338.638 81.5935 338.666 82.2435C338.704 82.8841 338.741 83.4964 338.798 84.0522L338.299 83.9769L337.696 83.9486L337.093 83.9769C337.027 83.9769 336.952 83.9769 336.886 83.9957C336.81 84.0051 336.716 84.024 336.594 84.0522C336.641 83.4964 336.688 82.9029 336.725 82.2624C336.763 81.6218 336.782 80.9906 336.782 80.3783C336.782 79.5964 336.782 78.9747 336.782 78.5319C336.801 76.2899 336.81 74.9993 336.81 74.6696V72.2674C336.81 72.0602 336.81 71.8435 336.791 71.6174C336.763 71.0428 336.744 70.6942 336.744 70.5718L336.773 70.5624Z" fill="#828282" stroke="#828282" stroke-width="0.235507" stroke-miterlimit="10"/>
<path d="M346.815 77.3826L347.804 77.4391H349.65C349.914 77.4391 350.197 77.4109 350.498 77.3544L348.68 72.0413L346.815 77.3826ZM343.169 84.0522C343.452 83.3268 343.753 82.5544 344.064 81.7442C344.281 81.1602 344.591 80.3689 344.968 79.3703C345.515 77.9196 345.825 77.1189 345.891 76.9399C346.061 76.4783 346.372 75.6399 346.824 74.4341C347.05 73.8218 347.37 72.9551 347.785 71.8246C348.115 70.9203 348.454 70.016 348.783 69.1116L349.019 69.1681H349.236H349.452C349.547 69.1493 349.612 69.1304 349.66 69.1116C349.895 69.8087 350.168 70.6377 350.498 71.5891C350.818 72.5406 351.12 73.3978 351.383 74.1609C351.647 74.9145 351.939 75.7435 352.26 76.6196C353.145 79.0971 354.059 81.5747 355.001 84.0428L354.332 83.9768L353.748 83.9486L353.173 83.9863L352.57 84.0522C352.278 82.9406 352.005 81.9515 351.741 81.0942C351.478 80.237 351.195 79.3609 350.884 78.4754L349.829 78.4189H347.587C347.399 78.4189 347.201 78.4189 346.994 78.4283C346.786 78.4283 346.579 78.4471 346.362 78.4754L345.637 80.7834C345.562 81.0377 345.505 81.2261 345.468 81.3486C345.373 81.6877 345.279 82.0268 345.185 82.366L344.78 84.0616L344.365 83.9863L343.97 83.9486L343.583 83.9768C343.527 83.9768 343.47 83.9768 343.404 83.9957C343.339 84.0051 343.254 84.0239 343.15 84.0522H343.169Z" fill="#828282" stroke="#828282" stroke-width="0.235507" stroke-miterlimit="10"/>
<path d="M357.318 84.0522C357.761 81.4899 358.138 78.9558 358.458 76.4594C358.599 75.3101 358.731 74.1044 358.863 72.8326C358.995 71.5609 359.099 70.3174 359.193 69.1022H359.909C360.889 71.3442 361.812 73.4261 362.688 75.3573C363.215 76.5065 363.507 77.1283 363.545 77.2225C363.705 77.5899 363.988 78.1833 364.383 79.0029C364.704 79.6717 364.977 80.237 365.194 80.6986C366.041 78.9558 366.889 77.1283 367.747 75.2065C368.227 74.1326 368.66 73.1435 369.056 72.2391C369.499 71.2123 369.941 70.1667 370.394 69.1022H371.119C371.119 69.9123 371.157 70.7696 371.232 71.6739C371.279 72.258 371.373 73.1058 371.496 74.208C371.684 75.7717 371.778 76.6101 371.788 76.7232C371.863 77.5051 371.957 78.3623 372.07 79.3044C372.174 80.2464 372.268 80.9906 372.334 81.5464C372.4 82.1022 372.513 82.9312 372.664 84.0428L372.108 83.9203L371.581 83.8732H371.279C371.185 83.892 371.081 83.9109 370.987 83.9297C370.893 83.9391 370.723 83.9862 370.497 84.0428C370.497 83.487 370.478 82.8935 370.45 82.2718C370.422 81.6406 370.384 81.0283 370.328 80.4348C370.281 79.8507 370.233 79.2478 370.177 78.6449C370.102 77.6746 370.017 76.7609 369.932 75.9036C369.847 75.0464 369.734 74.1138 369.612 73.1246L366.908 79.1536C366.484 80.1051 366.098 81.0094 365.759 81.8573C365.457 82.6203 365.194 83.3457 364.977 84.0522L364.892 84.0051H364.61L364.515 84.0522C364.12 83.0913 363.865 82.479 363.762 82.2058C363.489 81.5558 363.234 80.9435 362.989 80.3783C362.914 80.1993 362.641 79.5964 362.179 78.5602C361.783 77.6652 361.378 76.7797 360.964 75.9131C360.559 75.0464 360.135 74.1609 359.692 73.2659L359.146 79.2196C359.108 79.6246 359.07 80.0391 359.033 80.4819C358.995 80.9246 358.976 81.3109 358.976 81.6312L358.882 84.0428L358.468 83.9768L358.091 83.9391L357.733 83.9674C357.686 83.9674 357.629 83.9674 357.563 83.9862C357.497 83.9957 357.412 84.0145 357.318 84.0428V84.0522Z" fill="#828282" stroke="#828282" stroke-width="0.235507" stroke-miterlimit="10"/>
<path d="M378.91 76.5537L379.145 76.5725H379.522C380.775 76.5725 381.726 76.2899 382.376 75.7247C383.026 75.1594 383.356 74.321 383.356 73.2094C383.356 72.2674 383.092 71.5326 382.555 71.0051C382.018 70.4776 381.265 70.2138 380.304 70.2138H379.757C379.654 70.2138 379.541 70.2138 379.409 70.2232C379.277 70.2232 379.136 70.242 378.985 70.2703L378.91 71.8623V76.5442V76.5537ZM376.922 84.0428C376.922 83.5435 376.95 82.8087 376.997 81.829C377.044 80.8493 377.073 80.1145 377.073 79.6247C377.073 79.1348 377.082 78.4189 377.101 77.4674C377.12 76.5065 377.129 75.7906 377.129 75.3007C377.129 74.8768 377.129 74.3022 377.101 73.5768C377.082 72.8515 377.073 72.3334 377.073 72.0225C377.073 71.5986 377.063 71.1747 377.035 70.7602C377.007 70.3457 376.978 69.8841 376.922 69.3565L377.572 69.4036L378.269 69.4507C378.391 69.4507 378.646 69.4507 379.023 69.4319C379.409 69.4131 379.663 69.4131 379.804 69.4131L381.189 69.366C382.555 69.366 383.591 69.6957 384.307 70.3362C385.023 70.9768 385.381 71.9189 385.381 73.1529C385.381 74.4623 384.929 75.508 384.025 76.2805C383.12 77.0529 381.886 77.4392 380.313 77.4392H378.91V81.5935L378.985 84.071L378.514 83.9957L377.958 83.9674L377.383 83.9957L376.922 84.0616V84.0428Z" fill="#828282" stroke="#828282" stroke-width="0.235507" stroke-miterlimit="10"/>
<path d="M389.658 77.3826L390.647 77.4391H392.494C392.757 77.4391 393.04 77.4109 393.342 77.3544L391.523 72.0413L389.658 77.3826ZM386.013 84.0522C386.295 83.3268 386.597 82.5544 386.907 81.7442C387.124 81.1602 387.435 80.3689 387.812 79.3703C388.358 77.9196 388.669 77.1189 388.735 76.9399C388.905 76.4783 389.215 75.6399 389.668 74.4341C389.894 73.8218 390.214 72.9551 390.628 71.8246C390.958 70.9203 391.297 70.016 391.627 69.1116L391.863 69.1681H392.079H392.296C392.39 69.1493 392.456 69.1304 392.503 69.1116C392.739 69.8087 393.012 70.6377 393.342 71.5891C393.662 72.5406 393.963 73.3978 394.227 74.1609C394.491 74.9145 394.783 75.7435 395.103 76.6196C395.989 79.0971 396.902 81.5747 397.844 84.0428L397.176 83.9768L396.591 83.9486L396.017 83.9863L395.414 84.0522C395.122 82.9406 394.849 81.9515 394.585 81.0942C394.321 80.237 394.039 79.3609 393.728 78.4754L392.673 78.4189H390.431C390.242 78.4189 390.044 78.4189 389.837 78.4283C389.63 78.4283 389.423 78.4471 389.206 78.4754L388.481 80.7834C388.405 81.0377 388.349 81.2261 388.311 81.3486C388.217 81.6877 388.123 82.0268 388.028 82.366L387.623 84.0616L387.209 83.9863L386.813 83.9486L386.427 83.9768C386.37 83.9768 386.314 83.9768 386.248 83.9957C386.182 84.0051 386.097 84.0239 385.994 84.0522H386.013Z" fill="#828282" stroke="#828282" stroke-width="0.235507" stroke-miterlimit="10"/>
<path d="M402.865 79.2102L402.894 81.3015C402.894 81.4804 402.913 82.008 402.96 82.8935C402.988 83.4022 402.997 83.7884 402.997 84.0428L402.526 83.9674L401.961 83.9391L401.386 83.9674L400.934 84.0333C400.934 83.5341 400.963 82.7993 401.01 81.8196C401.057 80.8399 401.085 80.1051 401.085 79.6152C401.085 78.8804 401.085 78.3435 401.094 77.9761C401.123 76.158 401.142 75.2348 401.142 75.2348C401.142 74.8297 401.142 74.2833 401.113 73.5768C401.094 72.8703 401.085 72.3616 401.085 72.0507C401.085 71.6268 401.076 71.2029 401.047 70.7884C401.019 70.3739 400.991 69.8935 400.934 69.3377L401.575 69.3848L402.263 69.4319C402.366 69.4319 402.592 69.4319 402.931 69.413C403.27 69.3942 403.553 69.3942 403.789 69.3942L405.126 69.3471C406.464 69.3471 407.481 69.6391 408.178 70.2232C408.876 70.8072 409.234 71.6457 409.234 72.7478C409.234 73.7275 408.913 74.5565 408.282 75.2065C407.651 75.8565 406.728 76.3087 405.531 76.563C405.805 76.987 406.087 77.4015 406.36 77.8159C406.605 78.1928 406.888 78.6072 407.189 79.0594C407.463 79.4645 407.745 79.8884 408.037 80.3217L410.59 84.0428L409.865 83.9674L409.205 83.9391L408.574 83.9674C408.489 83.9674 408.386 83.9674 408.282 83.9862C408.169 83.9957 408.037 84.0145 407.868 84.0428C407.199 82.7899 406.492 81.5746 405.739 80.3783C404.985 79.1913 404.175 78.0232 403.327 76.8645H402.875V79.2007L402.865 79.2102ZM402.865 76.1203H403.506C404.74 76.1203 405.682 75.8565 406.323 75.329C406.973 74.8109 407.293 74.0384 407.293 73.021C407.293 72.1261 407.02 71.429 406.464 70.9297C405.908 70.4304 405.117 70.1855 404.099 70.1855H403.525C403.449 70.1855 403.365 70.1855 403.28 70.2043C403.195 70.2232 403.101 70.2326 403.007 70.2609L402.903 71.3913C402.903 71.7116 402.903 71.9942 402.903 72.258C402.903 72.5217 402.894 72.7667 402.884 73.0022V76.1203H402.865Z" fill="#828282" stroke="#828282" stroke-width="0.235507" stroke-miterlimit="10"/>
</svg>
